%TF.GenerationSoftware,KiCad,Pcbnew,10.0.6*%
%TF.CreationDate,2026-10-03T19:17:26+02:00*%
%TF.ProjectId,ATmega328P-board,41546d65-6761-4333-9238-502d626f6172,rev?*%
%TF.SameCoordinates,Original*%
%TF.FileFunction,Legend,Top*%
%TF.FilePolarity,Positive*%
%FSLAX46Y46*%
G04 Gerber Fmt 4.6, Leading zero omitted, Abs format (unit mm)*
G04 Created by KiCad (PCBNEW 10.0.6) date 2026-10-03 19:17:26*
%MOMM*%
%LPD*%
G01*
G04 APERTURE LIST*
%ADD10C,0.100000*%
%ADD11C,0.150000*%
%ADD12C,0.120000*%
G04 APERTURE END LIST*
D10*
G36*
X123894146Y-104830000D02*
G01*
X123506167Y-103825673D01*
X123649598Y-103825673D01*
X123909900Y-104555532D01*
X123962473Y-104720029D01*
X124016451Y-104555532D01*
X124286950Y-103825673D01*
X124422199Y-103825673D01*
X124030129Y-104830000D01*
X123894146Y-104830000D01*
G37*
G36*
X125255495Y-104478290D02*
G01*
X125387997Y-104511751D01*
X125361708Y-104591513D01*
X125327787Y-104658386D01*
X125286609Y-104714153D01*
X125238032Y-104760146D01*
X125181903Y-104797004D01*
X125119836Y-104823572D01*
X125050762Y-104839954D01*
X124973333Y-104845631D01*
X124891674Y-104840991D01*
X124821640Y-104827901D01*
X124761553Y-104807309D01*
X124709979Y-104779747D01*
X124663017Y-104743732D01*
X124621794Y-104700414D01*
X124585998Y-104649102D01*
X124555617Y-104588810D01*
X124526381Y-104504049D01*
X124508682Y-104414848D01*
X124502677Y-104320326D01*
X124509750Y-104217440D01*
X124529986Y-104127128D01*
X124562456Y-104047445D01*
X124595972Y-103992037D01*
X124635298Y-103944515D01*
X124680661Y-103904145D01*
X124732571Y-103870491D01*
X124808104Y-103837075D01*
X124888641Y-103816903D01*
X124975409Y-103810041D01*
X125050139Y-103815155D01*
X125116346Y-103829844D01*
X125175327Y-103853507D01*
X125228140Y-103886062D01*
X125274803Y-103927186D01*
X125313995Y-103975870D01*
X125346059Y-104032973D01*
X125370900Y-104099713D01*
X125240474Y-104130488D01*
X125211936Y-104061018D01*
X125178095Y-104009319D01*
X125139357Y-103972035D01*
X125092884Y-103945099D01*
X125037998Y-103928321D01*
X124972662Y-103922393D01*
X124897437Y-103929012D01*
X124833836Y-103947775D01*
X124779649Y-103977897D01*
X124733198Y-104018986D01*
X124697088Y-104068226D01*
X124670717Y-104126824D01*
X124653283Y-104189781D01*
X124642833Y-104253917D01*
X124639331Y-104319593D01*
X124643793Y-104404435D01*
X124656466Y-104478516D01*
X124676517Y-104543258D01*
X124706713Y-104602770D01*
X124745167Y-104649777D01*
X124792288Y-104686018D01*
X124846280Y-104712336D01*
X124902686Y-104728004D01*
X124962404Y-104733279D01*
X125017349Y-104729043D01*
X125066470Y-104716795D01*
X125110752Y-104696854D01*
X125150959Y-104669043D01*
X125185083Y-104634664D01*
X125213965Y-104592301D01*
X125237584Y-104540713D01*
X125255495Y-104478290D01*
G37*
G36*
X126265683Y-104478290D02*
G01*
X126398185Y-104511751D01*
X126371897Y-104591513D01*
X126337975Y-104658386D01*
X126296797Y-104714153D01*
X126248220Y-104760146D01*
X126192091Y-104797004D01*
X126130025Y-104823572D01*
X126060950Y-104839954D01*
X125983522Y-104845631D01*
X125901863Y-104840991D01*
X125831828Y-104827901D01*
X125771741Y-104807309D01*
X125720167Y-104779747D01*
X125673206Y-104743732D01*
X125631982Y-104700414D01*
X125596187Y-104649102D01*
X125565806Y-104588810D01*
X125536570Y-104504049D01*
X125518870Y-104414848D01*
X125512866Y-104320326D01*
X125519938Y-104217440D01*
X125540174Y-104127128D01*
X125572644Y-104047445D01*
X125606160Y-103992037D01*
X125645486Y-103944515D01*
X125690849Y-103904145D01*
X125742759Y-103870491D01*
X125818292Y-103837075D01*
X125898829Y-103816903D01*
X125985598Y-103810041D01*
X126060328Y-103815155D01*
X126126534Y-103829844D01*
X126185516Y-103853507D01*
X126238328Y-103886062D01*
X126284992Y-103927186D01*
X126324184Y-103975870D01*
X126356248Y-104032973D01*
X126381088Y-104099713D01*
X126250662Y-104130488D01*
X126222124Y-104061018D01*
X126188284Y-104009319D01*
X126149546Y-103972035D01*
X126103072Y-103945099D01*
X126048186Y-103928321D01*
X125982850Y-103922393D01*
X125907626Y-103929012D01*
X125844025Y-103947775D01*
X125789837Y-103977897D01*
X125743386Y-104018986D01*
X125707276Y-104068226D01*
X125680905Y-104126824D01*
X125663471Y-104189781D01*
X125653021Y-104253917D01*
X125649520Y-104319593D01*
X125653981Y-104404435D01*
X125666655Y-104478516D01*
X125686706Y-104543258D01*
X125716902Y-104602770D01*
X125755356Y-104649777D01*
X125802477Y-104686018D01*
X125856469Y-104712336D01*
X125912874Y-104728004D01*
X125972592Y-104733279D01*
X126027537Y-104729043D01*
X126076659Y-104716795D01*
X126120940Y-104696854D01*
X126161147Y-104669043D01*
X126195272Y-104634664D01*
X126224154Y-104592301D01*
X126247772Y-104540713D01*
X126265683Y-104478290D01*
G37*
X157713408Y-107396895D02*
X157446741Y-107015942D01*
X157256265Y-107396895D02*
X157256265Y-106596895D01*
X157256265Y-106596895D02*
X157561027Y-106596895D01*
X157561027Y-106596895D02*
X157637217Y-106634990D01*
X157637217Y-106634990D02*
X157675312Y-106673085D01*
X157675312Y-106673085D02*
X157713408Y-106749276D01*
X157713408Y-106749276D02*
X157713408Y-106863561D01*
X157713408Y-106863561D02*
X157675312Y-106939752D01*
X157675312Y-106939752D02*
X157637217Y-106977847D01*
X157637217Y-106977847D02*
X157561027Y-107015942D01*
X157561027Y-107015942D02*
X157256265Y-107015942D01*
X158056265Y-106977847D02*
X158322931Y-106977847D01*
X158437217Y-107396895D02*
X158056265Y-107396895D01*
X158056265Y-107396895D02*
X158056265Y-106596895D01*
X158056265Y-106596895D02*
X158437217Y-106596895D01*
X158741979Y-107358800D02*
X158856265Y-107396895D01*
X158856265Y-107396895D02*
X159046741Y-107396895D01*
X159046741Y-107396895D02*
X159122932Y-107358800D01*
X159122932Y-107358800D02*
X159161027Y-107320704D01*
X159161027Y-107320704D02*
X159199122Y-107244514D01*
X159199122Y-107244514D02*
X159199122Y-107168323D01*
X159199122Y-107168323D02*
X159161027Y-107092133D01*
X159161027Y-107092133D02*
X159122932Y-107054038D01*
X159122932Y-107054038D02*
X159046741Y-107015942D01*
X159046741Y-107015942D02*
X158894360Y-106977847D01*
X158894360Y-106977847D02*
X158818170Y-106939752D01*
X158818170Y-106939752D02*
X158780075Y-106901657D01*
X158780075Y-106901657D02*
X158741979Y-106825466D01*
X158741979Y-106825466D02*
X158741979Y-106749276D01*
X158741979Y-106749276D02*
X158780075Y-106673085D01*
X158780075Y-106673085D02*
X158818170Y-106634990D01*
X158818170Y-106634990D02*
X158894360Y-106596895D01*
X158894360Y-106596895D02*
X159084837Y-106596895D01*
X159084837Y-106596895D02*
X159199122Y-106634990D01*
X159541980Y-106977847D02*
X159808646Y-106977847D01*
X159922932Y-107396895D02*
X159541980Y-107396895D01*
X159541980Y-107396895D02*
X159541980Y-106596895D01*
X159541980Y-106596895D02*
X159922932Y-106596895D01*
X160151504Y-106596895D02*
X160608647Y-106596895D01*
X160380075Y-107396895D02*
X160380075Y-106596895D01*
X166972693Y-106170038D02*
X166877455Y-106122419D01*
X166877455Y-106122419D02*
X166734598Y-106122419D01*
X166734598Y-106122419D02*
X166591741Y-106170038D01*
X166591741Y-106170038D02*
X166496503Y-106265276D01*
X166496503Y-106265276D02*
X166448884Y-106360514D01*
X166448884Y-106360514D02*
X166401265Y-106550990D01*
X166401265Y-106550990D02*
X166401265Y-106693847D01*
X166401265Y-106693847D02*
X166448884Y-106884323D01*
X166448884Y-106884323D02*
X166496503Y-106979561D01*
X166496503Y-106979561D02*
X166591741Y-107074800D01*
X166591741Y-107074800D02*
X166734598Y-107122419D01*
X166734598Y-107122419D02*
X166829836Y-107122419D01*
X166829836Y-107122419D02*
X166972693Y-107074800D01*
X166972693Y-107074800D02*
X167020312Y-107027180D01*
X167020312Y-107027180D02*
X167020312Y-106693847D01*
X167020312Y-106693847D02*
X166829836Y-106693847D01*
X167448884Y-107122419D02*
X167448884Y-106122419D01*
X167448884Y-106122419D02*
X168020312Y-107122419D01*
X168020312Y-107122419D02*
X168020312Y-106122419D01*
X168496503Y-107122419D02*
X168496503Y-106122419D01*
X168496503Y-106122419D02*
X168734598Y-106122419D01*
X168734598Y-106122419D02*
X168877455Y-106170038D01*
X168877455Y-106170038D02*
X168972693Y-106265276D01*
X168972693Y-106265276D02*
X169020312Y-106360514D01*
X169020312Y-106360514D02*
X169067931Y-106550990D01*
X169067931Y-106550990D02*
X169067931Y-106693847D01*
X169067931Y-106693847D02*
X169020312Y-106884323D01*
X169020312Y-106884323D02*
X168972693Y-106979561D01*
X168972693Y-106979561D02*
X168877455Y-107074800D01*
X168877455Y-107074800D02*
X168734598Y-107122419D01*
X168734598Y-107122419D02*
X168496503Y-107122419D01*
X157303884Y-101872419D02*
X157303884Y-100872419D01*
X157303884Y-100872419D02*
X157637217Y-101586704D01*
X157637217Y-101586704D02*
X157970550Y-100872419D01*
X157970550Y-100872419D02*
X157970550Y-101872419D01*
X158446741Y-101872419D02*
X158446741Y-100872419D01*
X158875312Y-101824800D02*
X159018169Y-101872419D01*
X159018169Y-101872419D02*
X159256264Y-101872419D01*
X159256264Y-101872419D02*
X159351502Y-101824800D01*
X159351502Y-101824800D02*
X159399121Y-101777180D01*
X159399121Y-101777180D02*
X159446740Y-101681942D01*
X159446740Y-101681942D02*
X159446740Y-101586704D01*
X159446740Y-101586704D02*
X159399121Y-101491466D01*
X159399121Y-101491466D02*
X159351502Y-101443847D01*
X159351502Y-101443847D02*
X159256264Y-101396228D01*
X159256264Y-101396228D02*
X159065788Y-101348609D01*
X159065788Y-101348609D02*
X158970550Y-101300990D01*
X158970550Y-101300990D02*
X158922931Y-101253371D01*
X158922931Y-101253371D02*
X158875312Y-101158133D01*
X158875312Y-101158133D02*
X158875312Y-101062895D01*
X158875312Y-101062895D02*
X158922931Y-100967657D01*
X158922931Y-100967657D02*
X158970550Y-100920038D01*
X158970550Y-100920038D02*
X159065788Y-100872419D01*
X159065788Y-100872419D02*
X159303883Y-100872419D01*
X159303883Y-100872419D02*
X159446740Y-100920038D01*
X160065788Y-100872419D02*
X160256264Y-100872419D01*
X160256264Y-100872419D02*
X160351502Y-100920038D01*
X160351502Y-100920038D02*
X160446740Y-101015276D01*
X160446740Y-101015276D02*
X160494359Y-101205752D01*
X160494359Y-101205752D02*
X160494359Y-101539085D01*
X160494359Y-101539085D02*
X160446740Y-101729561D01*
X160446740Y-101729561D02*
X160351502Y-101824800D01*
X160351502Y-101824800D02*
X160256264Y-101872419D01*
X160256264Y-101872419D02*
X160065788Y-101872419D01*
X160065788Y-101872419D02*
X159970550Y-101824800D01*
X159970550Y-101824800D02*
X159875312Y-101729561D01*
X159875312Y-101729561D02*
X159827693Y-101539085D01*
X159827693Y-101539085D02*
X159827693Y-101205752D01*
X159827693Y-101205752D02*
X159875312Y-101015276D01*
X159875312Y-101015276D02*
X159970550Y-100920038D01*
X159970550Y-100920038D02*
X160065788Y-100872419D01*
X158006265Y-104324800D02*
X158149122Y-104372419D01*
X158149122Y-104372419D02*
X158387217Y-104372419D01*
X158387217Y-104372419D02*
X158482455Y-104324800D01*
X158482455Y-104324800D02*
X158530074Y-104277180D01*
X158530074Y-104277180D02*
X158577693Y-104181942D01*
X158577693Y-104181942D02*
X158577693Y-104086704D01*
X158577693Y-104086704D02*
X158530074Y-103991466D01*
X158530074Y-103991466D02*
X158482455Y-103943847D01*
X158482455Y-103943847D02*
X158387217Y-103896228D01*
X158387217Y-103896228D02*
X158196741Y-103848609D01*
X158196741Y-103848609D02*
X158101503Y-103800990D01*
X158101503Y-103800990D02*
X158053884Y-103753371D01*
X158053884Y-103753371D02*
X158006265Y-103658133D01*
X158006265Y-103658133D02*
X158006265Y-103562895D01*
X158006265Y-103562895D02*
X158053884Y-103467657D01*
X158053884Y-103467657D02*
X158101503Y-103420038D01*
X158101503Y-103420038D02*
X158196741Y-103372419D01*
X158196741Y-103372419D02*
X158434836Y-103372419D01*
X158434836Y-103372419D02*
X158577693Y-103420038D01*
X159577693Y-104277180D02*
X159530074Y-104324800D01*
X159530074Y-104324800D02*
X159387217Y-104372419D01*
X159387217Y-104372419D02*
X159291979Y-104372419D01*
X159291979Y-104372419D02*
X159149122Y-104324800D01*
X159149122Y-104324800D02*
X159053884Y-104229561D01*
X159053884Y-104229561D02*
X159006265Y-104134323D01*
X159006265Y-104134323D02*
X158958646Y-103943847D01*
X158958646Y-103943847D02*
X158958646Y-103800990D01*
X158958646Y-103800990D02*
X159006265Y-103610514D01*
X159006265Y-103610514D02*
X159053884Y-103515276D01*
X159053884Y-103515276D02*
X159149122Y-103420038D01*
X159149122Y-103420038D02*
X159291979Y-103372419D01*
X159291979Y-103372419D02*
X159387217Y-103372419D01*
X159387217Y-103372419D02*
X159530074Y-103420038D01*
X159530074Y-103420038D02*
X159577693Y-103467657D01*
X160006265Y-104372419D02*
X160006265Y-103372419D01*
X160577693Y-104372419D02*
X160149122Y-103800990D01*
X160577693Y-103372419D02*
X160006265Y-103943847D01*
X166803884Y-104372419D02*
X166803884Y-103372419D01*
X166803884Y-103372419D02*
X167137217Y-104086704D01*
X167137217Y-104086704D02*
X167470550Y-103372419D01*
X167470550Y-103372419D02*
X167470550Y-104372419D01*
X168137217Y-103372419D02*
X168327693Y-103372419D01*
X168327693Y-103372419D02*
X168422931Y-103420038D01*
X168422931Y-103420038D02*
X168518169Y-103515276D01*
X168518169Y-103515276D02*
X168565788Y-103705752D01*
X168565788Y-103705752D02*
X168565788Y-104039085D01*
X168565788Y-104039085D02*
X168518169Y-104229561D01*
X168518169Y-104229561D02*
X168422931Y-104324800D01*
X168422931Y-104324800D02*
X168327693Y-104372419D01*
X168327693Y-104372419D02*
X168137217Y-104372419D01*
X168137217Y-104372419D02*
X168041979Y-104324800D01*
X168041979Y-104324800D02*
X167946741Y-104229561D01*
X167946741Y-104229561D02*
X167899122Y-104039085D01*
X167899122Y-104039085D02*
X167899122Y-103705752D01*
X167899122Y-103705752D02*
X167946741Y-103515276D01*
X167946741Y-103515276D02*
X168041979Y-103420038D01*
X168041979Y-103420038D02*
X168137217Y-103372419D01*
X168946741Y-104324800D02*
X169089598Y-104372419D01*
X169089598Y-104372419D02*
X169327693Y-104372419D01*
X169327693Y-104372419D02*
X169422931Y-104324800D01*
X169422931Y-104324800D02*
X169470550Y-104277180D01*
X169470550Y-104277180D02*
X169518169Y-104181942D01*
X169518169Y-104181942D02*
X169518169Y-104086704D01*
X169518169Y-104086704D02*
X169470550Y-103991466D01*
X169470550Y-103991466D02*
X169422931Y-103943847D01*
X169422931Y-103943847D02*
X169327693Y-103896228D01*
X169327693Y-103896228D02*
X169137217Y-103848609D01*
X169137217Y-103848609D02*
X169041979Y-103800990D01*
X169041979Y-103800990D02*
X168994360Y-103753371D01*
X168994360Y-103753371D02*
X168946741Y-103658133D01*
X168946741Y-103658133D02*
X168946741Y-103562895D01*
X168946741Y-103562895D02*
X168994360Y-103467657D01*
X168994360Y-103467657D02*
X169041979Y-103420038D01*
X169041979Y-103420038D02*
X169137217Y-103372419D01*
X169137217Y-103372419D02*
X169375312Y-103372419D01*
X169375312Y-103372419D02*
X169518169Y-103420038D01*
X169946741Y-104372419D02*
X169946741Y-103372419D01*
X166911027Y-100872419D02*
X167244360Y-101872419D01*
X167244360Y-101872419D02*
X167577693Y-100872419D01*
X168482455Y-101777180D02*
X168434836Y-101824800D01*
X168434836Y-101824800D02*
X168291979Y-101872419D01*
X168291979Y-101872419D02*
X168196741Y-101872419D01*
X168196741Y-101872419D02*
X168053884Y-101824800D01*
X168053884Y-101824800D02*
X167958646Y-101729561D01*
X167958646Y-101729561D02*
X167911027Y-101634323D01*
X167911027Y-101634323D02*
X167863408Y-101443847D01*
X167863408Y-101443847D02*
X167863408Y-101300990D01*
X167863408Y-101300990D02*
X167911027Y-101110514D01*
X167911027Y-101110514D02*
X167958646Y-101015276D01*
X167958646Y-101015276D02*
X168053884Y-100920038D01*
X168053884Y-100920038D02*
X168196741Y-100872419D01*
X168196741Y-100872419D02*
X168291979Y-100872419D01*
X168291979Y-100872419D02*
X168434836Y-100920038D01*
X168434836Y-100920038D02*
X168482455Y-100967657D01*
X169482455Y-101777180D02*
X169434836Y-101824800D01*
X169434836Y-101824800D02*
X169291979Y-101872419D01*
X169291979Y-101872419D02*
X169196741Y-101872419D01*
X169196741Y-101872419D02*
X169053884Y-101824800D01*
X169053884Y-101824800D02*
X168958646Y-101729561D01*
X168958646Y-101729561D02*
X168911027Y-101634323D01*
X168911027Y-101634323D02*
X168863408Y-101443847D01*
X168863408Y-101443847D02*
X168863408Y-101300990D01*
X168863408Y-101300990D02*
X168911027Y-101110514D01*
X168911027Y-101110514D02*
X168958646Y-101015276D01*
X168958646Y-101015276D02*
X169053884Y-100920038D01*
X169053884Y-100920038D02*
X169196741Y-100872419D01*
X169196741Y-100872419D02*
X169291979Y-100872419D01*
X169291979Y-100872419D02*
X169434836Y-100920038D01*
X169434836Y-100920038D02*
X169482455Y-100967657D01*
X147872419Y-102696115D02*
X146872419Y-102696115D01*
X146872419Y-102696115D02*
X146872419Y-102315163D01*
X146872419Y-102315163D02*
X146920038Y-102219925D01*
X146920038Y-102219925D02*
X146967657Y-102172306D01*
X146967657Y-102172306D02*
X147062895Y-102124687D01*
X147062895Y-102124687D02*
X147205752Y-102124687D01*
X147205752Y-102124687D02*
X147300990Y-102172306D01*
X147300990Y-102172306D02*
X147348609Y-102219925D01*
X147348609Y-102219925D02*
X147396228Y-102315163D01*
X147396228Y-102315163D02*
X147396228Y-102696115D01*
X147777180Y-101124687D02*
X147824800Y-101172306D01*
X147824800Y-101172306D02*
X147872419Y-101315163D01*
X147872419Y-101315163D02*
X147872419Y-101410401D01*
X147872419Y-101410401D02*
X147824800Y-101553258D01*
X147824800Y-101553258D02*
X147729561Y-101648496D01*
X147729561Y-101648496D02*
X147634323Y-101696115D01*
X147634323Y-101696115D02*
X147443847Y-101743734D01*
X147443847Y-101743734D02*
X147300990Y-101743734D01*
X147300990Y-101743734D02*
X147110514Y-101696115D01*
X147110514Y-101696115D02*
X147015276Y-101648496D01*
X147015276Y-101648496D02*
X146920038Y-101553258D01*
X146920038Y-101553258D02*
X146872419Y-101410401D01*
X146872419Y-101410401D02*
X146872419Y-101315163D01*
X146872419Y-101315163D02*
X146920038Y-101172306D01*
X146920038Y-101172306D02*
X146967657Y-101124687D01*
X146872419Y-100791353D02*
X146872419Y-100172306D01*
X146872419Y-100172306D02*
X147253371Y-100505639D01*
X147253371Y-100505639D02*
X147253371Y-100362782D01*
X147253371Y-100362782D02*
X147300990Y-100267544D01*
X147300990Y-100267544D02*
X147348609Y-100219925D01*
X147348609Y-100219925D02*
X147443847Y-100172306D01*
X147443847Y-100172306D02*
X147681942Y-100172306D01*
X147681942Y-100172306D02*
X147777180Y-100219925D01*
X147777180Y-100219925D02*
X147824800Y-100267544D01*
X147824800Y-100267544D02*
X147872419Y-100362782D01*
X147872419Y-100362782D02*
X147872419Y-100648496D01*
X147872419Y-100648496D02*
X147824800Y-100743734D01*
X147824800Y-100743734D02*
X147777180Y-100791353D01*
X145122419Y-102696115D02*
X144122419Y-102696115D01*
X144122419Y-102696115D02*
X144122419Y-102315163D01*
X144122419Y-102315163D02*
X144170038Y-102219925D01*
X144170038Y-102219925D02*
X144217657Y-102172306D01*
X144217657Y-102172306D02*
X144312895Y-102124687D01*
X144312895Y-102124687D02*
X144455752Y-102124687D01*
X144455752Y-102124687D02*
X144550990Y-102172306D01*
X144550990Y-102172306D02*
X144598609Y-102219925D01*
X144598609Y-102219925D02*
X144646228Y-102315163D01*
X144646228Y-102315163D02*
X144646228Y-102696115D01*
X145027180Y-101124687D02*
X145074800Y-101172306D01*
X145074800Y-101172306D02*
X145122419Y-101315163D01*
X145122419Y-101315163D02*
X145122419Y-101410401D01*
X145122419Y-101410401D02*
X145074800Y-101553258D01*
X145074800Y-101553258D02*
X144979561Y-101648496D01*
X144979561Y-101648496D02*
X144884323Y-101696115D01*
X144884323Y-101696115D02*
X144693847Y-101743734D01*
X144693847Y-101743734D02*
X144550990Y-101743734D01*
X144550990Y-101743734D02*
X144360514Y-101696115D01*
X144360514Y-101696115D02*
X144265276Y-101648496D01*
X144265276Y-101648496D02*
X144170038Y-101553258D01*
X144170038Y-101553258D02*
X144122419Y-101410401D01*
X144122419Y-101410401D02*
X144122419Y-101315163D01*
X144122419Y-101315163D02*
X144170038Y-101172306D01*
X144170038Y-101172306D02*
X144217657Y-101124687D01*
X144217657Y-100743734D02*
X144170038Y-100696115D01*
X144170038Y-100696115D02*
X144122419Y-100600877D01*
X144122419Y-100600877D02*
X144122419Y-100362782D01*
X144122419Y-100362782D02*
X144170038Y-100267544D01*
X144170038Y-100267544D02*
X144217657Y-100219925D01*
X144217657Y-100219925D02*
X144312895Y-100172306D01*
X144312895Y-100172306D02*
X144408133Y-100172306D01*
X144408133Y-100172306D02*
X144550990Y-100219925D01*
X144550990Y-100219925D02*
X145122419Y-100791353D01*
X145122419Y-100791353D02*
X145122419Y-100172306D01*
X142622419Y-102696115D02*
X141622419Y-102696115D01*
X141622419Y-102696115D02*
X141622419Y-102315163D01*
X141622419Y-102315163D02*
X141670038Y-102219925D01*
X141670038Y-102219925D02*
X141717657Y-102172306D01*
X141717657Y-102172306D02*
X141812895Y-102124687D01*
X141812895Y-102124687D02*
X141955752Y-102124687D01*
X141955752Y-102124687D02*
X142050990Y-102172306D01*
X142050990Y-102172306D02*
X142098609Y-102219925D01*
X142098609Y-102219925D02*
X142146228Y-102315163D01*
X142146228Y-102315163D02*
X142146228Y-102696115D01*
X142527180Y-101124687D02*
X142574800Y-101172306D01*
X142574800Y-101172306D02*
X142622419Y-101315163D01*
X142622419Y-101315163D02*
X142622419Y-101410401D01*
X142622419Y-101410401D02*
X142574800Y-101553258D01*
X142574800Y-101553258D02*
X142479561Y-101648496D01*
X142479561Y-101648496D02*
X142384323Y-101696115D01*
X142384323Y-101696115D02*
X142193847Y-101743734D01*
X142193847Y-101743734D02*
X142050990Y-101743734D01*
X142050990Y-101743734D02*
X141860514Y-101696115D01*
X141860514Y-101696115D02*
X141765276Y-101648496D01*
X141765276Y-101648496D02*
X141670038Y-101553258D01*
X141670038Y-101553258D02*
X141622419Y-101410401D01*
X141622419Y-101410401D02*
X141622419Y-101315163D01*
X141622419Y-101315163D02*
X141670038Y-101172306D01*
X141670038Y-101172306D02*
X141717657Y-101124687D01*
X142622419Y-100172306D02*
X142622419Y-100743734D01*
X142622419Y-100458020D02*
X141622419Y-100458020D01*
X141622419Y-100458020D02*
X141765276Y-100553258D01*
X141765276Y-100553258D02*
X141860514Y-100648496D01*
X141860514Y-100648496D02*
X141908133Y-100743734D01*
X139872419Y-102696115D02*
X138872419Y-102696115D01*
X138872419Y-102696115D02*
X138872419Y-102315163D01*
X138872419Y-102315163D02*
X138920038Y-102219925D01*
X138920038Y-102219925D02*
X138967657Y-102172306D01*
X138967657Y-102172306D02*
X139062895Y-102124687D01*
X139062895Y-102124687D02*
X139205752Y-102124687D01*
X139205752Y-102124687D02*
X139300990Y-102172306D01*
X139300990Y-102172306D02*
X139348609Y-102219925D01*
X139348609Y-102219925D02*
X139396228Y-102315163D01*
X139396228Y-102315163D02*
X139396228Y-102696115D01*
X139777180Y-101124687D02*
X139824800Y-101172306D01*
X139824800Y-101172306D02*
X139872419Y-101315163D01*
X139872419Y-101315163D02*
X139872419Y-101410401D01*
X139872419Y-101410401D02*
X139824800Y-101553258D01*
X139824800Y-101553258D02*
X139729561Y-101648496D01*
X139729561Y-101648496D02*
X139634323Y-101696115D01*
X139634323Y-101696115D02*
X139443847Y-101743734D01*
X139443847Y-101743734D02*
X139300990Y-101743734D01*
X139300990Y-101743734D02*
X139110514Y-101696115D01*
X139110514Y-101696115D02*
X139015276Y-101648496D01*
X139015276Y-101648496D02*
X138920038Y-101553258D01*
X138920038Y-101553258D02*
X138872419Y-101410401D01*
X138872419Y-101410401D02*
X138872419Y-101315163D01*
X138872419Y-101315163D02*
X138920038Y-101172306D01*
X138920038Y-101172306D02*
X138967657Y-101124687D01*
X138872419Y-100505639D02*
X138872419Y-100410401D01*
X138872419Y-100410401D02*
X138920038Y-100315163D01*
X138920038Y-100315163D02*
X138967657Y-100267544D01*
X138967657Y-100267544D02*
X139062895Y-100219925D01*
X139062895Y-100219925D02*
X139253371Y-100172306D01*
X139253371Y-100172306D02*
X139491466Y-100172306D01*
X139491466Y-100172306D02*
X139681942Y-100219925D01*
X139681942Y-100219925D02*
X139777180Y-100267544D01*
X139777180Y-100267544D02*
X139824800Y-100315163D01*
X139824800Y-100315163D02*
X139872419Y-100410401D01*
X139872419Y-100410401D02*
X139872419Y-100505639D01*
X139872419Y-100505639D02*
X139824800Y-100600877D01*
X139824800Y-100600877D02*
X139777180Y-100648496D01*
X139777180Y-100648496D02*
X139681942Y-100696115D01*
X139681942Y-100696115D02*
X139491466Y-100743734D01*
X139491466Y-100743734D02*
X139253371Y-100743734D01*
X139253371Y-100743734D02*
X139062895Y-100696115D01*
X139062895Y-100696115D02*
X138967657Y-100648496D01*
X138967657Y-100648496D02*
X138920038Y-100600877D01*
X138920038Y-100600877D02*
X138872419Y-100505639D01*
X124957693Y-138670038D02*
X124862455Y-138622419D01*
X124862455Y-138622419D02*
X124719598Y-138622419D01*
X124719598Y-138622419D02*
X124576741Y-138670038D01*
X124576741Y-138670038D02*
X124481503Y-138765276D01*
X124481503Y-138765276D02*
X124433884Y-138860514D01*
X124433884Y-138860514D02*
X124386265Y-139050990D01*
X124386265Y-139050990D02*
X124386265Y-139193847D01*
X124386265Y-139193847D02*
X124433884Y-139384323D01*
X124433884Y-139384323D02*
X124481503Y-139479561D01*
X124481503Y-139479561D02*
X124576741Y-139574800D01*
X124576741Y-139574800D02*
X124719598Y-139622419D01*
X124719598Y-139622419D02*
X124814836Y-139622419D01*
X124814836Y-139622419D02*
X124957693Y-139574800D01*
X124957693Y-139574800D02*
X125005312Y-139527180D01*
X125005312Y-139527180D02*
X125005312Y-139193847D01*
X125005312Y-139193847D02*
X124814836Y-139193847D01*
X125433884Y-139622419D02*
X125433884Y-138622419D01*
X125433884Y-138622419D02*
X126005312Y-139622419D01*
X126005312Y-139622419D02*
X126005312Y-138622419D01*
X126481503Y-139622419D02*
X126481503Y-138622419D01*
X126481503Y-138622419D02*
X126719598Y-138622419D01*
X126719598Y-138622419D02*
X126862455Y-138670038D01*
X126862455Y-138670038D02*
X126957693Y-138765276D01*
X126957693Y-138765276D02*
X127005312Y-138860514D01*
X127005312Y-138860514D02*
X127052931Y-139050990D01*
X127052931Y-139050990D02*
X127052931Y-139193847D01*
X127052931Y-139193847D02*
X127005312Y-139384323D01*
X127005312Y-139384323D02*
X126957693Y-139479561D01*
X126957693Y-139479561D02*
X126862455Y-139574800D01*
X126862455Y-139574800D02*
X126719598Y-139622419D01*
X126719598Y-139622419D02*
X126481503Y-139622419D01*
X124433884Y-136872419D02*
X124433884Y-135872419D01*
X124433884Y-135872419D02*
X124671979Y-135872419D01*
X124671979Y-135872419D02*
X124814836Y-135920038D01*
X124814836Y-135920038D02*
X124910074Y-136015276D01*
X124910074Y-136015276D02*
X124957693Y-136110514D01*
X124957693Y-136110514D02*
X125005312Y-136300990D01*
X125005312Y-136300990D02*
X125005312Y-136443847D01*
X125005312Y-136443847D02*
X124957693Y-136634323D01*
X124957693Y-136634323D02*
X124910074Y-136729561D01*
X124910074Y-136729561D02*
X124814836Y-136824800D01*
X124814836Y-136824800D02*
X124671979Y-136872419D01*
X124671979Y-136872419D02*
X124433884Y-136872419D01*
X125291027Y-135872419D02*
X125862455Y-135872419D01*
X125576741Y-136872419D02*
X125576741Y-135872419D01*
X126767217Y-136872419D02*
X126433884Y-136396228D01*
X126195789Y-136872419D02*
X126195789Y-135872419D01*
X126195789Y-135872419D02*
X126576741Y-135872419D01*
X126576741Y-135872419D02*
X126671979Y-135920038D01*
X126671979Y-135920038D02*
X126719598Y-135967657D01*
X126719598Y-135967657D02*
X126767217Y-136062895D01*
X126767217Y-136062895D02*
X126767217Y-136205752D01*
X126767217Y-136205752D02*
X126719598Y-136300990D01*
X126719598Y-136300990D02*
X126671979Y-136348609D01*
X126671979Y-136348609D02*
X126576741Y-136396228D01*
X126576741Y-136396228D02*
X126195789Y-136396228D01*
X125125312Y-134122419D02*
X124791979Y-133646228D01*
X124553884Y-134122419D02*
X124553884Y-133122419D01*
X124553884Y-133122419D02*
X124934836Y-133122419D01*
X124934836Y-133122419D02*
X125030074Y-133170038D01*
X125030074Y-133170038D02*
X125077693Y-133217657D01*
X125077693Y-133217657D02*
X125125312Y-133312895D01*
X125125312Y-133312895D02*
X125125312Y-133455752D01*
X125125312Y-133455752D02*
X125077693Y-133550990D01*
X125077693Y-133550990D02*
X125030074Y-133598609D01*
X125030074Y-133598609D02*
X124934836Y-133646228D01*
X124934836Y-133646228D02*
X124553884Y-133646228D01*
X125458646Y-133122419D02*
X126125312Y-134122419D01*
X126125312Y-133122419D02*
X125458646Y-134122419D01*
X124411027Y-130872419D02*
X124982455Y-130872419D01*
X124696741Y-131872419D02*
X124696741Y-130872419D01*
X125220551Y-130872419D02*
X125887217Y-131872419D01*
X125887217Y-130872419D02*
X125220551Y-131872419D01*
X124527514Y-114958496D02*
X124484657Y-115044211D01*
X124484657Y-115044211D02*
X124484657Y-115172782D01*
X124484657Y-115172782D02*
X124527514Y-115301353D01*
X124527514Y-115301353D02*
X124613228Y-115387068D01*
X124613228Y-115387068D02*
X124698942Y-115429925D01*
X124698942Y-115429925D02*
X124870371Y-115472782D01*
X124870371Y-115472782D02*
X124998942Y-115472782D01*
X124998942Y-115472782D02*
X125170371Y-115429925D01*
X125170371Y-115429925D02*
X125256085Y-115387068D01*
X125256085Y-115387068D02*
X125341800Y-115301353D01*
X125341800Y-115301353D02*
X125384657Y-115172782D01*
X125384657Y-115172782D02*
X125384657Y-115087068D01*
X125384657Y-115087068D02*
X125341800Y-114958496D01*
X125341800Y-114958496D02*
X125298942Y-114915639D01*
X125298942Y-114915639D02*
X124998942Y-114915639D01*
X124998942Y-114915639D02*
X124998942Y-115087068D01*
X125384657Y-114529925D02*
X124484657Y-114529925D01*
X124484657Y-114529925D02*
X125384657Y-114015639D01*
X125384657Y-114015639D02*
X124484657Y-114015639D01*
X125384657Y-113587068D02*
X124484657Y-113587068D01*
X124484657Y-113587068D02*
X124484657Y-113372782D01*
X124484657Y-113372782D02*
X124527514Y-113244211D01*
X124527514Y-113244211D02*
X124613228Y-113158496D01*
X124613228Y-113158496D02*
X124698942Y-113115639D01*
X124698942Y-113115639D02*
X124870371Y-113072782D01*
X124870371Y-113072782D02*
X124998942Y-113072782D01*
X124998942Y-113072782D02*
X125170371Y-113115639D01*
X125170371Y-113115639D02*
X125256085Y-113158496D01*
X125256085Y-113158496D02*
X125341800Y-113244211D01*
X125341800Y-113244211D02*
X125384657Y-113372782D01*
X125384657Y-113372782D02*
X125384657Y-113587068D01*
X124433884Y-112122419D02*
X124433884Y-111122419D01*
X124433884Y-111122419D02*
X124814836Y-111122419D01*
X124814836Y-111122419D02*
X124910074Y-111170038D01*
X124910074Y-111170038D02*
X124957693Y-111217657D01*
X124957693Y-111217657D02*
X125005312Y-111312895D01*
X125005312Y-111312895D02*
X125005312Y-111455752D01*
X125005312Y-111455752D02*
X124957693Y-111550990D01*
X124957693Y-111550990D02*
X124910074Y-111598609D01*
X124910074Y-111598609D02*
X124814836Y-111646228D01*
X124814836Y-111646228D02*
X124433884Y-111646228D01*
X125767217Y-111598609D02*
X125910074Y-111646228D01*
X125910074Y-111646228D02*
X125957693Y-111693847D01*
X125957693Y-111693847D02*
X126005312Y-111789085D01*
X126005312Y-111789085D02*
X126005312Y-111931942D01*
X126005312Y-111931942D02*
X125957693Y-112027180D01*
X125957693Y-112027180D02*
X125910074Y-112074800D01*
X125910074Y-112074800D02*
X125814836Y-112122419D01*
X125814836Y-112122419D02*
X125433884Y-112122419D01*
X125433884Y-112122419D02*
X125433884Y-111122419D01*
X125433884Y-111122419D02*
X125767217Y-111122419D01*
X125767217Y-111122419D02*
X125862455Y-111170038D01*
X125862455Y-111170038D02*
X125910074Y-111217657D01*
X125910074Y-111217657D02*
X125957693Y-111312895D01*
X125957693Y-111312895D02*
X125957693Y-111408133D01*
X125957693Y-111408133D02*
X125910074Y-111503371D01*
X125910074Y-111503371D02*
X125862455Y-111550990D01*
X125862455Y-111550990D02*
X125767217Y-111598609D01*
X125767217Y-111598609D02*
X125433884Y-111598609D01*
X126624360Y-111122419D02*
X126719598Y-111122419D01*
X126719598Y-111122419D02*
X126814836Y-111170038D01*
X126814836Y-111170038D02*
X126862455Y-111217657D01*
X126862455Y-111217657D02*
X126910074Y-111312895D01*
X126910074Y-111312895D02*
X126957693Y-111503371D01*
X126957693Y-111503371D02*
X126957693Y-111741466D01*
X126957693Y-111741466D02*
X126910074Y-111931942D01*
X126910074Y-111931942D02*
X126862455Y-112027180D01*
X126862455Y-112027180D02*
X126814836Y-112074800D01*
X126814836Y-112074800D02*
X126719598Y-112122419D01*
X126719598Y-112122419D02*
X126624360Y-112122419D01*
X126624360Y-112122419D02*
X126529122Y-112074800D01*
X126529122Y-112074800D02*
X126481503Y-112027180D01*
X126481503Y-112027180D02*
X126433884Y-111931942D01*
X126433884Y-111931942D02*
X126386265Y-111741466D01*
X126386265Y-111741466D02*
X126386265Y-111503371D01*
X126386265Y-111503371D02*
X126433884Y-111312895D01*
X126433884Y-111312895D02*
X126481503Y-111217657D01*
X126481503Y-111217657D02*
X126529122Y-111170038D01*
X126529122Y-111170038D02*
X126624360Y-111122419D01*
X124433884Y-109622419D02*
X124433884Y-108622419D01*
X124433884Y-108622419D02*
X124814836Y-108622419D01*
X124814836Y-108622419D02*
X124910074Y-108670038D01*
X124910074Y-108670038D02*
X124957693Y-108717657D01*
X124957693Y-108717657D02*
X125005312Y-108812895D01*
X125005312Y-108812895D02*
X125005312Y-108955752D01*
X125005312Y-108955752D02*
X124957693Y-109050990D01*
X124957693Y-109050990D02*
X124910074Y-109098609D01*
X124910074Y-109098609D02*
X124814836Y-109146228D01*
X124814836Y-109146228D02*
X124433884Y-109146228D01*
X126005312Y-109527180D02*
X125957693Y-109574800D01*
X125957693Y-109574800D02*
X125814836Y-109622419D01*
X125814836Y-109622419D02*
X125719598Y-109622419D01*
X125719598Y-109622419D02*
X125576741Y-109574800D01*
X125576741Y-109574800D02*
X125481503Y-109479561D01*
X125481503Y-109479561D02*
X125433884Y-109384323D01*
X125433884Y-109384323D02*
X125386265Y-109193847D01*
X125386265Y-109193847D02*
X125386265Y-109050990D01*
X125386265Y-109050990D02*
X125433884Y-108860514D01*
X125433884Y-108860514D02*
X125481503Y-108765276D01*
X125481503Y-108765276D02*
X125576741Y-108670038D01*
X125576741Y-108670038D02*
X125719598Y-108622419D01*
X125719598Y-108622419D02*
X125814836Y-108622419D01*
X125814836Y-108622419D02*
X125957693Y-108670038D01*
X125957693Y-108670038D02*
X126005312Y-108717657D01*
X126910074Y-108622419D02*
X126433884Y-108622419D01*
X126433884Y-108622419D02*
X126386265Y-109098609D01*
X126386265Y-109098609D02*
X126433884Y-109050990D01*
X126433884Y-109050990D02*
X126529122Y-109003371D01*
X126529122Y-109003371D02*
X126767217Y-109003371D01*
X126767217Y-109003371D02*
X126862455Y-109050990D01*
X126862455Y-109050990D02*
X126910074Y-109098609D01*
X126910074Y-109098609D02*
X126957693Y-109193847D01*
X126957693Y-109193847D02*
X126957693Y-109431942D01*
X126957693Y-109431942D02*
X126910074Y-109527180D01*
X126910074Y-109527180D02*
X126862455Y-109574800D01*
X126862455Y-109574800D02*
X126767217Y-109622419D01*
X126767217Y-109622419D02*
X126529122Y-109622419D01*
X126529122Y-109622419D02*
X126433884Y-109574800D01*
X126433884Y-109574800D02*
X126386265Y-109527180D01*
X124433884Y-107122419D02*
X124433884Y-106122419D01*
X124433884Y-106122419D02*
X124814836Y-106122419D01*
X124814836Y-106122419D02*
X124910074Y-106170038D01*
X124910074Y-106170038D02*
X124957693Y-106217657D01*
X124957693Y-106217657D02*
X125005312Y-106312895D01*
X125005312Y-106312895D02*
X125005312Y-106455752D01*
X125005312Y-106455752D02*
X124957693Y-106550990D01*
X124957693Y-106550990D02*
X124910074Y-106598609D01*
X124910074Y-106598609D02*
X124814836Y-106646228D01*
X124814836Y-106646228D02*
X124433884Y-106646228D01*
X126005312Y-107027180D02*
X125957693Y-107074800D01*
X125957693Y-107074800D02*
X125814836Y-107122419D01*
X125814836Y-107122419D02*
X125719598Y-107122419D01*
X125719598Y-107122419D02*
X125576741Y-107074800D01*
X125576741Y-107074800D02*
X125481503Y-106979561D01*
X125481503Y-106979561D02*
X125433884Y-106884323D01*
X125433884Y-106884323D02*
X125386265Y-106693847D01*
X125386265Y-106693847D02*
X125386265Y-106550990D01*
X125386265Y-106550990D02*
X125433884Y-106360514D01*
X125433884Y-106360514D02*
X125481503Y-106265276D01*
X125481503Y-106265276D02*
X125576741Y-106170038D01*
X125576741Y-106170038D02*
X125719598Y-106122419D01*
X125719598Y-106122419D02*
X125814836Y-106122419D01*
X125814836Y-106122419D02*
X125957693Y-106170038D01*
X125957693Y-106170038D02*
X126005312Y-106217657D01*
X126862455Y-106455752D02*
X126862455Y-107122419D01*
X126624360Y-106074800D02*
X126386265Y-106789085D01*
X126386265Y-106789085D02*
X127005312Y-106789085D01*
X124553884Y-127872419D02*
X124553884Y-126872419D01*
X124553884Y-126872419D02*
X124934836Y-126872419D01*
X124934836Y-126872419D02*
X125030074Y-126920038D01*
X125030074Y-126920038D02*
X125077693Y-126967657D01*
X125077693Y-126967657D02*
X125125312Y-127062895D01*
X125125312Y-127062895D02*
X125125312Y-127205752D01*
X125125312Y-127205752D02*
X125077693Y-127300990D01*
X125077693Y-127300990D02*
X125030074Y-127348609D01*
X125030074Y-127348609D02*
X124934836Y-127396228D01*
X124934836Y-127396228D02*
X124553884Y-127396228D01*
X125553884Y-127872419D02*
X125553884Y-126872419D01*
X125553884Y-126872419D02*
X125791979Y-126872419D01*
X125791979Y-126872419D02*
X125934836Y-126920038D01*
X125934836Y-126920038D02*
X126030074Y-127015276D01*
X126030074Y-127015276D02*
X126077693Y-127110514D01*
X126077693Y-127110514D02*
X126125312Y-127300990D01*
X126125312Y-127300990D02*
X126125312Y-127443847D01*
X126125312Y-127443847D02*
X126077693Y-127634323D01*
X126077693Y-127634323D02*
X126030074Y-127729561D01*
X126030074Y-127729561D02*
X125934836Y-127824800D01*
X125934836Y-127824800D02*
X125791979Y-127872419D01*
X125791979Y-127872419D02*
X125553884Y-127872419D01*
X127030074Y-126872419D02*
X126553884Y-126872419D01*
X126553884Y-126872419D02*
X126506265Y-127348609D01*
X126506265Y-127348609D02*
X126553884Y-127300990D01*
X126553884Y-127300990D02*
X126649122Y-127253371D01*
X126649122Y-127253371D02*
X126887217Y-127253371D01*
X126887217Y-127253371D02*
X126982455Y-127300990D01*
X126982455Y-127300990D02*
X127030074Y-127348609D01*
X127030074Y-127348609D02*
X127077693Y-127443847D01*
X127077693Y-127443847D02*
X127077693Y-127681942D01*
X127077693Y-127681942D02*
X127030074Y-127777180D01*
X127030074Y-127777180D02*
X126982455Y-127824800D01*
X126982455Y-127824800D02*
X126887217Y-127872419D01*
X126887217Y-127872419D02*
X126649122Y-127872419D01*
X126649122Y-127872419D02*
X126553884Y-127824800D01*
X126553884Y-127824800D02*
X126506265Y-127777180D01*
X124433884Y-125372419D02*
X124433884Y-124372419D01*
X124433884Y-124372419D02*
X124814836Y-124372419D01*
X124814836Y-124372419D02*
X124910074Y-124420038D01*
X124910074Y-124420038D02*
X124957693Y-124467657D01*
X124957693Y-124467657D02*
X125005312Y-124562895D01*
X125005312Y-124562895D02*
X125005312Y-124705752D01*
X125005312Y-124705752D02*
X124957693Y-124800990D01*
X124957693Y-124800990D02*
X124910074Y-124848609D01*
X124910074Y-124848609D02*
X124814836Y-124896228D01*
X124814836Y-124896228D02*
X124433884Y-124896228D01*
X125433884Y-125372419D02*
X125433884Y-124372419D01*
X125433884Y-124372419D02*
X125671979Y-124372419D01*
X125671979Y-124372419D02*
X125814836Y-124420038D01*
X125814836Y-124420038D02*
X125910074Y-124515276D01*
X125910074Y-124515276D02*
X125957693Y-124610514D01*
X125957693Y-124610514D02*
X126005312Y-124800990D01*
X126005312Y-124800990D02*
X126005312Y-124943847D01*
X126005312Y-124943847D02*
X125957693Y-125134323D01*
X125957693Y-125134323D02*
X125910074Y-125229561D01*
X125910074Y-125229561D02*
X125814836Y-125324800D01*
X125814836Y-125324800D02*
X125671979Y-125372419D01*
X125671979Y-125372419D02*
X125433884Y-125372419D01*
X126338646Y-124372419D02*
X126957693Y-124372419D01*
X126957693Y-124372419D02*
X126624360Y-124753371D01*
X126624360Y-124753371D02*
X126767217Y-124753371D01*
X126767217Y-124753371D02*
X126862455Y-124800990D01*
X126862455Y-124800990D02*
X126910074Y-124848609D01*
X126910074Y-124848609D02*
X126957693Y-124943847D01*
X126957693Y-124943847D02*
X126957693Y-125181942D01*
X126957693Y-125181942D02*
X126910074Y-125277180D01*
X126910074Y-125277180D02*
X126862455Y-125324800D01*
X126862455Y-125324800D02*
X126767217Y-125372419D01*
X126767217Y-125372419D02*
X126481503Y-125372419D01*
X126481503Y-125372419D02*
X126386265Y-125324800D01*
X126386265Y-125324800D02*
X126338646Y-125277180D01*
X124433884Y-122622419D02*
X124433884Y-121622419D01*
X124433884Y-121622419D02*
X124814836Y-121622419D01*
X124814836Y-121622419D02*
X124910074Y-121670038D01*
X124910074Y-121670038D02*
X124957693Y-121717657D01*
X124957693Y-121717657D02*
X125005312Y-121812895D01*
X125005312Y-121812895D02*
X125005312Y-121955752D01*
X125005312Y-121955752D02*
X124957693Y-122050990D01*
X124957693Y-122050990D02*
X124910074Y-122098609D01*
X124910074Y-122098609D02*
X124814836Y-122146228D01*
X124814836Y-122146228D02*
X124433884Y-122146228D01*
X125767217Y-122098609D02*
X125910074Y-122146228D01*
X125910074Y-122146228D02*
X125957693Y-122193847D01*
X125957693Y-122193847D02*
X126005312Y-122289085D01*
X126005312Y-122289085D02*
X126005312Y-122431942D01*
X126005312Y-122431942D02*
X125957693Y-122527180D01*
X125957693Y-122527180D02*
X125910074Y-122574800D01*
X125910074Y-122574800D02*
X125814836Y-122622419D01*
X125814836Y-122622419D02*
X125433884Y-122622419D01*
X125433884Y-122622419D02*
X125433884Y-121622419D01*
X125433884Y-121622419D02*
X125767217Y-121622419D01*
X125767217Y-121622419D02*
X125862455Y-121670038D01*
X125862455Y-121670038D02*
X125910074Y-121717657D01*
X125910074Y-121717657D02*
X125957693Y-121812895D01*
X125957693Y-121812895D02*
X125957693Y-121908133D01*
X125957693Y-121908133D02*
X125910074Y-122003371D01*
X125910074Y-122003371D02*
X125862455Y-122050990D01*
X125862455Y-122050990D02*
X125767217Y-122098609D01*
X125767217Y-122098609D02*
X125433884Y-122098609D01*
X126957693Y-122622419D02*
X126386265Y-122622419D01*
X126671979Y-122622419D02*
X126671979Y-121622419D01*
X126671979Y-121622419D02*
X126576741Y-121765276D01*
X126576741Y-121765276D02*
X126481503Y-121860514D01*
X126481503Y-121860514D02*
X126386265Y-121908133D01*
X124433884Y-120372419D02*
X124433884Y-119372419D01*
X124433884Y-119372419D02*
X124814836Y-119372419D01*
X124814836Y-119372419D02*
X124910074Y-119420038D01*
X124910074Y-119420038D02*
X124957693Y-119467657D01*
X124957693Y-119467657D02*
X125005312Y-119562895D01*
X125005312Y-119562895D02*
X125005312Y-119705752D01*
X125005312Y-119705752D02*
X124957693Y-119800990D01*
X124957693Y-119800990D02*
X124910074Y-119848609D01*
X124910074Y-119848609D02*
X124814836Y-119896228D01*
X124814836Y-119896228D02*
X124433884Y-119896228D01*
X125767217Y-119848609D02*
X125910074Y-119896228D01*
X125910074Y-119896228D02*
X125957693Y-119943847D01*
X125957693Y-119943847D02*
X126005312Y-120039085D01*
X126005312Y-120039085D02*
X126005312Y-120181942D01*
X126005312Y-120181942D02*
X125957693Y-120277180D01*
X125957693Y-120277180D02*
X125910074Y-120324800D01*
X125910074Y-120324800D02*
X125814836Y-120372419D01*
X125814836Y-120372419D02*
X125433884Y-120372419D01*
X125433884Y-120372419D02*
X125433884Y-119372419D01*
X125433884Y-119372419D02*
X125767217Y-119372419D01*
X125767217Y-119372419D02*
X125862455Y-119420038D01*
X125862455Y-119420038D02*
X125910074Y-119467657D01*
X125910074Y-119467657D02*
X125957693Y-119562895D01*
X125957693Y-119562895D02*
X125957693Y-119658133D01*
X125957693Y-119658133D02*
X125910074Y-119753371D01*
X125910074Y-119753371D02*
X125862455Y-119800990D01*
X125862455Y-119800990D02*
X125767217Y-119848609D01*
X125767217Y-119848609D02*
X125433884Y-119848609D01*
X126386265Y-119467657D02*
X126433884Y-119420038D01*
X126433884Y-119420038D02*
X126529122Y-119372419D01*
X126529122Y-119372419D02*
X126767217Y-119372419D01*
X126767217Y-119372419D02*
X126862455Y-119420038D01*
X126862455Y-119420038D02*
X126910074Y-119467657D01*
X126910074Y-119467657D02*
X126957693Y-119562895D01*
X126957693Y-119562895D02*
X126957693Y-119658133D01*
X126957693Y-119658133D02*
X126910074Y-119800990D01*
X126910074Y-119800990D02*
X126338646Y-120372419D01*
X126338646Y-120372419D02*
X126957693Y-120372419D01*
X121242419Y-124541115D02*
X120242419Y-124541115D01*
X120242419Y-124541115D02*
X120242419Y-124160163D01*
X120242419Y-124160163D02*
X120290038Y-124064925D01*
X120290038Y-124064925D02*
X120337657Y-124017306D01*
X120337657Y-124017306D02*
X120432895Y-123969687D01*
X120432895Y-123969687D02*
X120575752Y-123969687D01*
X120575752Y-123969687D02*
X120670990Y-124017306D01*
X120670990Y-124017306D02*
X120718609Y-124064925D01*
X120718609Y-124064925D02*
X120766228Y-124160163D01*
X120766228Y-124160163D02*
X120766228Y-124541115D01*
X120242419Y-123636353D02*
X121242419Y-123398258D01*
X121242419Y-123398258D02*
X120528133Y-123207782D01*
X120528133Y-123207782D02*
X121242419Y-123017306D01*
X121242419Y-123017306D02*
X120242419Y-122779211D01*
X121242419Y-122398258D02*
X120242419Y-122398258D01*
X120242419Y-122398258D02*
X120956704Y-122064925D01*
X120956704Y-122064925D02*
X120242419Y-121731592D01*
X120242419Y-121731592D02*
X121242419Y-121731592D01*
G36*
X133576535Y-104184326D02*
G01*
X133576535Y-104068066D01*
X134000785Y-104067395D01*
X134000785Y-104439316D01*
X133933622Y-104487770D01*
X133866530Y-104526552D01*
X133799223Y-104556369D01*
X133729155Y-104578244D01*
X133658284Y-104591280D01*
X133586121Y-104595631D01*
X133489315Y-104588392D01*
X133400379Y-104567230D01*
X133317943Y-104532433D01*
X133260937Y-104497002D01*
X133212027Y-104455017D01*
X133170485Y-104406148D01*
X133135921Y-104349740D01*
X133102124Y-104268059D01*
X133081504Y-104179473D01*
X133074433Y-104082599D01*
X133081334Y-103986560D01*
X133101718Y-103895957D01*
X133135554Y-103809719D01*
X133170266Y-103749304D01*
X133210985Y-103698404D01*
X133257880Y-103656020D01*
X133311470Y-103621530D01*
X133390120Y-103587939D01*
X133477680Y-103567222D01*
X133575863Y-103560041D01*
X133647615Y-103564121D01*
X133712789Y-103575931D01*
X133772234Y-103595029D01*
X133828073Y-103622314D01*
X133873485Y-103654825D01*
X133909865Y-103692543D01*
X133939266Y-103736271D01*
X133964713Y-103790029D01*
X133985764Y-103855514D01*
X133866207Y-103888304D01*
X133839558Y-103817311D01*
X133810153Y-103768442D01*
X133785570Y-103742117D01*
X133754076Y-103718838D01*
X133714532Y-103698649D01*
X133649945Y-103679147D01*
X133576535Y-103672393D01*
X133516413Y-103675734D01*
X133464423Y-103685192D01*
X133419426Y-103700115D01*
X133358460Y-103732963D01*
X133312508Y-103773021D01*
X133276270Y-103820588D01*
X133249310Y-103872184D01*
X133228266Y-103935265D01*
X133215453Y-104002326D01*
X133211086Y-104074050D01*
X133216734Y-104162594D01*
X133232521Y-104236643D01*
X133257187Y-104298571D01*
X133292939Y-104354042D01*
X133337391Y-104398355D01*
X133391399Y-104432660D01*
X133451444Y-104457000D01*
X133513608Y-104471548D01*
X133578611Y-104476441D01*
X133635345Y-104472792D01*
X133691194Y-104461841D01*
X133746589Y-104443407D01*
X133822335Y-104407166D01*
X133870969Y-104372882D01*
X133870969Y-104184326D01*
X133576535Y-104184326D01*
G37*
G36*
X134194897Y-104580000D02*
G01*
X134194897Y-103575673D01*
X134330879Y-103575673D01*
X134856856Y-104364211D01*
X134856856Y-103575673D01*
X134983923Y-103575673D01*
X134983923Y-104580000D01*
X134848002Y-104580000D01*
X134321964Y-103790790D01*
X134321964Y-104580000D01*
X134194897Y-104580000D01*
G37*
G36*
X135661327Y-103579864D02*
G01*
X135729719Y-103590083D01*
X135785253Y-103607270D01*
X135833926Y-103631260D01*
X135876631Y-103662013D01*
X135924570Y-103710395D01*
X135963976Y-103767222D01*
X135995088Y-103833593D01*
X136016411Y-103904288D01*
X136029756Y-103983466D01*
X136034412Y-104072341D01*
X136031220Y-104148382D01*
X136022123Y-104215668D01*
X136007728Y-104275184D01*
X135976193Y-104358349D01*
X135939401Y-104421425D01*
X135894762Y-104474165D01*
X135848237Y-104512527D01*
X135795020Y-104541123D01*
X135728681Y-104562903D01*
X135655923Y-104575462D01*
X135567847Y-104580000D01*
X135206489Y-104580000D01*
X135206489Y-104463740D01*
X135338991Y-104463740D01*
X135552826Y-104463740D01*
X135646410Y-104458449D01*
X135708225Y-104445177D01*
X135760119Y-104422028D01*
X135798046Y-104392787D01*
X135826151Y-104358886D01*
X135850695Y-104316728D01*
X135871441Y-104264926D01*
X135885447Y-104210770D01*
X135894510Y-104146417D01*
X135897758Y-104070265D01*
X135893875Y-103988827D01*
X135883218Y-103922671D01*
X135867025Y-103869343D01*
X135846161Y-103826693D01*
X135807645Y-103774302D01*
X135766026Y-103737070D01*
X135720865Y-103712632D01*
X135684257Y-103702319D01*
X135629063Y-103694857D01*
X135549406Y-103691933D01*
X135338991Y-103691933D01*
X135338991Y-104463740D01*
X135206489Y-104463740D01*
X135206489Y-103575673D01*
X135551421Y-103575673D01*
X135661327Y-103579864D01*
G37*
G36*
X127850427Y-104419776D02*
G01*
X127850427Y-104145247D01*
X127577852Y-104145247D01*
X127577852Y-104028988D01*
X127850427Y-104028988D01*
X127850427Y-103759344D01*
X127966564Y-103759344D01*
X127966564Y-104028988D01*
X128239139Y-104028988D01*
X128239139Y-104145247D01*
X127966564Y-104145247D01*
X127966564Y-104419776D01*
X127850427Y-104419776D01*
G37*
G36*
X128375488Y-104314996D02*
G01*
X128498464Y-104298632D01*
X128517571Y-104365519D01*
X128541893Y-104413772D01*
X128570516Y-104447498D01*
X128606675Y-104472672D01*
X128647550Y-104487821D01*
X128694530Y-104493049D01*
X128749895Y-104486258D01*
X128798134Y-104466464D01*
X128841015Y-104433148D01*
X128874174Y-104390089D01*
X128893972Y-104341204D01*
X128900793Y-104284649D01*
X128894402Y-104230662D01*
X128876008Y-104184867D01*
X128845472Y-104145369D01*
X128805690Y-104115152D01*
X128759434Y-104096893D01*
X128704788Y-104090537D01*
X128668121Y-104093578D01*
X128618021Y-104104214D01*
X128631638Y-103996320D01*
X128651482Y-103997725D01*
X128702609Y-103993081D01*
X128749416Y-103979458D01*
X128792838Y-103956814D01*
X128820127Y-103933810D01*
X128839459Y-103905862D01*
X128851465Y-103871996D01*
X128855730Y-103830601D01*
X128850477Y-103787481D01*
X128835293Y-103750673D01*
X128809935Y-103718677D01*
X128777080Y-103694376D01*
X128738263Y-103679548D01*
X128691782Y-103674347D01*
X128645722Y-103679523D01*
X128606371Y-103694420D01*
X128572226Y-103719043D01*
X128545411Y-103751765D01*
X128524671Y-103795524D01*
X128510737Y-103853133D01*
X128387822Y-103831273D01*
X128403453Y-103770669D01*
X128425892Y-103719392D01*
X128454792Y-103676081D01*
X128490282Y-103639726D01*
X128531964Y-103610400D01*
X128578358Y-103589299D01*
X128630339Y-103576284D01*
X128689035Y-103571765D01*
X128742841Y-103575775D01*
X128792946Y-103587564D01*
X128840038Y-103607058D01*
X128883093Y-103633905D01*
X128917961Y-103665861D01*
X128945551Y-103703229D01*
X128966014Y-103745062D01*
X128978091Y-103787974D01*
X128982126Y-103832616D01*
X128978204Y-103874933D01*
X128966628Y-103914171D01*
X128947260Y-103951074D01*
X128921094Y-103983456D01*
X128887125Y-104011716D01*
X128844129Y-104035949D01*
X128900126Y-104055052D01*
X128945523Y-104083322D01*
X128982065Y-104120945D01*
X129008831Y-104166224D01*
X129025432Y-104219376D01*
X129031280Y-104282329D01*
X129025199Y-104345882D01*
X129007426Y-104403279D01*
X128977918Y-104455853D01*
X128935659Y-104504528D01*
X128885249Y-104544031D01*
X128828976Y-104572256D01*
X128765693Y-104589607D01*
X128693859Y-104595631D01*
X128628829Y-104590436D01*
X128571494Y-104575487D01*
X128520521Y-104551242D01*
X128474895Y-104517473D01*
X128436165Y-104475686D01*
X128406925Y-104428623D01*
X128386655Y-104375457D01*
X128375488Y-104314996D01*
G37*
G36*
X129221484Y-104580000D02*
G01*
X129221484Y-104439316D01*
X129361496Y-104439316D01*
X129361496Y-104580000D01*
X129221484Y-104580000D01*
G37*
G36*
X129541992Y-104314996D02*
G01*
X129664968Y-104298632D01*
X129684075Y-104365519D01*
X129708397Y-104413772D01*
X129737020Y-104447498D01*
X129773179Y-104472672D01*
X129814054Y-104487821D01*
X129861034Y-104493049D01*
X129916399Y-104486258D01*
X129964638Y-104466464D01*
X130007519Y-104433148D01*
X130040677Y-104390089D01*
X130060476Y-104341204D01*
X130067297Y-104284649D01*
X130060906Y-104230662D01*
X130042511Y-104184867D01*
X130011976Y-104145369D01*
X129972194Y-104115152D01*
X129925938Y-104096893D01*
X129871292Y-104090537D01*
X129834625Y-104093578D01*
X129784525Y-104104214D01*
X129798142Y-103996320D01*
X129817986Y-103997725D01*
X129869113Y-103993081D01*
X129915920Y-103979458D01*
X129959342Y-103956814D01*
X129986631Y-103933810D01*
X130005963Y-103905862D01*
X130017969Y-103871996D01*
X130022234Y-103830601D01*
X130016981Y-103787481D01*
X130001797Y-103750673D01*
X129976439Y-103718677D01*
X129943584Y-103694376D01*
X129904766Y-103679548D01*
X129858286Y-103674347D01*
X129812226Y-103679523D01*
X129772875Y-103694420D01*
X129738729Y-103719043D01*
X129711915Y-103751765D01*
X129691175Y-103795524D01*
X129677241Y-103853133D01*
X129554326Y-103831273D01*
X129569957Y-103770669D01*
X129592395Y-103719392D01*
X129621296Y-103676081D01*
X129656786Y-103639726D01*
X129698468Y-103610400D01*
X129744862Y-103589299D01*
X129796843Y-103576284D01*
X129855539Y-103571765D01*
X129909345Y-103575775D01*
X129959450Y-103587564D01*
X130006542Y-103607058D01*
X130049597Y-103633905D01*
X130084465Y-103665861D01*
X130112055Y-103703229D01*
X130132517Y-103745062D01*
X130144595Y-103787974D01*
X130148630Y-103832616D01*
X130144708Y-103874933D01*
X130133132Y-103914171D01*
X130113764Y-103951074D01*
X130087598Y-103983456D01*
X130053629Y-104011716D01*
X130010633Y-104035949D01*
X130066630Y-104055052D01*
X130112027Y-104083322D01*
X130148569Y-104120945D01*
X130175335Y-104166224D01*
X130191936Y-104219376D01*
X130197784Y-104282329D01*
X130191703Y-104345882D01*
X130173929Y-104403279D01*
X130144422Y-104455853D01*
X130102163Y-104504528D01*
X130051753Y-104544031D01*
X129995479Y-104572256D01*
X129932197Y-104589607D01*
X129860362Y-104595631D01*
X129795333Y-104590436D01*
X129737998Y-104575487D01*
X129687025Y-104551242D01*
X129641399Y-104517473D01*
X129602668Y-104475686D01*
X129573429Y-104428623D01*
X129553159Y-104375457D01*
X129541992Y-104314996D01*
G37*
G36*
X130655068Y-104580000D02*
G01*
X130267088Y-103575673D01*
X130410519Y-103575673D01*
X130670821Y-104305532D01*
X130723394Y-104470029D01*
X130777372Y-104305532D01*
X131047871Y-103575673D01*
X131183121Y-103575673D01*
X130791050Y-104580000D01*
X130655068Y-104580000D01*
G37*
D11*
X142440476Y-94954819D02*
X142440476Y-95669104D01*
X142440476Y-95669104D02*
X142392857Y-95811961D01*
X142392857Y-95811961D02*
X142297619Y-95907200D01*
X142297619Y-95907200D02*
X142154762Y-95954819D01*
X142154762Y-95954819D02*
X142059524Y-95954819D01*
X143440476Y-95954819D02*
X142869048Y-95954819D01*
X143154762Y-95954819D02*
X143154762Y-94954819D01*
X143154762Y-94954819D02*
X143059524Y-95097676D01*
X143059524Y-95097676D02*
X142964286Y-95192914D01*
X142964286Y-95192914D02*
X142869048Y-95240533D01*
X144392857Y-95954819D02*
X143821429Y-95954819D01*
X144107143Y-95954819D02*
X144107143Y-94954819D01*
X144107143Y-94954819D02*
X144011905Y-95097676D01*
X144011905Y-95097676D02*
X143916667Y-95192914D01*
X143916667Y-95192914D02*
X143821429Y-95240533D01*
X129416666Y-92202319D02*
X129416666Y-92916604D01*
X129416666Y-92916604D02*
X129369047Y-93059461D01*
X129369047Y-93059461D02*
X129273809Y-93154700D01*
X129273809Y-93154700D02*
X129130952Y-93202319D01*
X129130952Y-93202319D02*
X129035714Y-93202319D01*
X129797619Y-92202319D02*
X130464285Y-92202319D01*
X130464285Y-92202319D02*
X130035714Y-93202319D01*
X158554819Y-140726666D02*
X158078628Y-141059999D01*
X158554819Y-141298094D02*
X157554819Y-141298094D01*
X157554819Y-141298094D02*
X157554819Y-140917142D01*
X157554819Y-140917142D02*
X157602438Y-140821904D01*
X157602438Y-140821904D02*
X157650057Y-140774285D01*
X157650057Y-140774285D02*
X157745295Y-140726666D01*
X157745295Y-140726666D02*
X157888152Y-140726666D01*
X157888152Y-140726666D02*
X157983390Y-140774285D01*
X157983390Y-140774285D02*
X158031009Y-140821904D01*
X158031009Y-140821904D02*
X158078628Y-140917142D01*
X158078628Y-140917142D02*
X158078628Y-141298094D01*
X157554819Y-140393332D02*
X157554819Y-139774285D01*
X157554819Y-139774285D02*
X157935771Y-140107618D01*
X157935771Y-140107618D02*
X157935771Y-139964761D01*
X157935771Y-139964761D02*
X157983390Y-139869523D01*
X157983390Y-139869523D02*
X158031009Y-139821904D01*
X158031009Y-139821904D02*
X158126247Y-139774285D01*
X158126247Y-139774285D02*
X158364342Y-139774285D01*
X158364342Y-139774285D02*
X158459580Y-139821904D01*
X158459580Y-139821904D02*
X158507200Y-139869523D01*
X158507200Y-139869523D02*
X158554819Y-139964761D01*
X158554819Y-139964761D02*
X158554819Y-140250475D01*
X158554819Y-140250475D02*
X158507200Y-140345713D01*
X158507200Y-140345713D02*
X158459580Y-140393332D01*
X170054819Y-112916666D02*
X169578628Y-113249999D01*
X170054819Y-113488094D02*
X169054819Y-113488094D01*
X169054819Y-113488094D02*
X169054819Y-113107142D01*
X169054819Y-113107142D02*
X169102438Y-113011904D01*
X169102438Y-113011904D02*
X169150057Y-112964285D01*
X169150057Y-112964285D02*
X169245295Y-112916666D01*
X169245295Y-112916666D02*
X169388152Y-112916666D01*
X169388152Y-112916666D02*
X169483390Y-112964285D01*
X169483390Y-112964285D02*
X169531009Y-113011904D01*
X169531009Y-113011904D02*
X169578628Y-113107142D01*
X169578628Y-113107142D02*
X169578628Y-113488094D01*
X169150057Y-112535713D02*
X169102438Y-112488094D01*
X169102438Y-112488094D02*
X169054819Y-112392856D01*
X169054819Y-112392856D02*
X169054819Y-112154761D01*
X169054819Y-112154761D02*
X169102438Y-112059523D01*
X169102438Y-112059523D02*
X169150057Y-112011904D01*
X169150057Y-112011904D02*
X169245295Y-111964285D01*
X169245295Y-111964285D02*
X169340533Y-111964285D01*
X169340533Y-111964285D02*
X169483390Y-112011904D01*
X169483390Y-112011904D02*
X170054819Y-112583332D01*
X170054819Y-112583332D02*
X170054819Y-111964285D01*
X146354819Y-112166666D02*
X145878628Y-112499999D01*
X146354819Y-112738094D02*
X145354819Y-112738094D01*
X145354819Y-112738094D02*
X145354819Y-112357142D01*
X145354819Y-112357142D02*
X145402438Y-112261904D01*
X145402438Y-112261904D02*
X145450057Y-112214285D01*
X145450057Y-112214285D02*
X145545295Y-112166666D01*
X145545295Y-112166666D02*
X145688152Y-112166666D01*
X145688152Y-112166666D02*
X145783390Y-112214285D01*
X145783390Y-112214285D02*
X145831009Y-112261904D01*
X145831009Y-112261904D02*
X145878628Y-112357142D01*
X145878628Y-112357142D02*
X145878628Y-112738094D01*
X146354819Y-111214285D02*
X146354819Y-111785713D01*
X146354819Y-111499999D02*
X145354819Y-111499999D01*
X145354819Y-111499999D02*
X145497676Y-111595237D01*
X145497676Y-111595237D02*
X145592914Y-111690475D01*
X145592914Y-111690475D02*
X145640533Y-111785713D01*
X174038446Y-123859580D02*
X173990827Y-123907200D01*
X173990827Y-123907200D02*
X173847970Y-123954819D01*
X173847970Y-123954819D02*
X173752732Y-123954819D01*
X173752732Y-123954819D02*
X173609875Y-123907200D01*
X173609875Y-123907200D02*
X173514637Y-123811961D01*
X173514637Y-123811961D02*
X173467018Y-123716723D01*
X173467018Y-123716723D02*
X173419399Y-123526247D01*
X173419399Y-123526247D02*
X173419399Y-123383390D01*
X173419399Y-123383390D02*
X173467018Y-123192914D01*
X173467018Y-123192914D02*
X173514637Y-123097676D01*
X173514637Y-123097676D02*
X173609875Y-123002438D01*
X173609875Y-123002438D02*
X173752732Y-122954819D01*
X173752732Y-122954819D02*
X173847970Y-122954819D01*
X173847970Y-122954819D02*
X173990827Y-123002438D01*
X173990827Y-123002438D02*
X174038446Y-123050057D01*
X174990827Y-123954819D02*
X174419399Y-123954819D01*
X174705113Y-123954819D02*
X174705113Y-122954819D01*
X174705113Y-122954819D02*
X174609875Y-123097676D01*
X174609875Y-123097676D02*
X174514637Y-123192914D01*
X174514637Y-123192914D02*
X174419399Y-123240533D01*
X122166666Y-116704819D02*
X122166666Y-117419104D01*
X122166666Y-117419104D02*
X122119047Y-117561961D01*
X122119047Y-117561961D02*
X122023809Y-117657200D01*
X122023809Y-117657200D02*
X121880952Y-117704819D01*
X121880952Y-117704819D02*
X121785714Y-117704819D01*
X122785714Y-117133390D02*
X122690476Y-117085771D01*
X122690476Y-117085771D02*
X122642857Y-117038152D01*
X122642857Y-117038152D02*
X122595238Y-116942914D01*
X122595238Y-116942914D02*
X122595238Y-116895295D01*
X122595238Y-116895295D02*
X122642857Y-116800057D01*
X122642857Y-116800057D02*
X122690476Y-116752438D01*
X122690476Y-116752438D02*
X122785714Y-116704819D01*
X122785714Y-116704819D02*
X122976190Y-116704819D01*
X122976190Y-116704819D02*
X123071428Y-116752438D01*
X123071428Y-116752438D02*
X123119047Y-116800057D01*
X123119047Y-116800057D02*
X123166666Y-116895295D01*
X123166666Y-116895295D02*
X123166666Y-116942914D01*
X123166666Y-116942914D02*
X123119047Y-117038152D01*
X123119047Y-117038152D02*
X123071428Y-117085771D01*
X123071428Y-117085771D02*
X122976190Y-117133390D01*
X122976190Y-117133390D02*
X122785714Y-117133390D01*
X122785714Y-117133390D02*
X122690476Y-117181009D01*
X122690476Y-117181009D02*
X122642857Y-117228628D01*
X122642857Y-117228628D02*
X122595238Y-117323866D01*
X122595238Y-117323866D02*
X122595238Y-117514342D01*
X122595238Y-117514342D02*
X122642857Y-117609580D01*
X122642857Y-117609580D02*
X122690476Y-117657200D01*
X122690476Y-117657200D02*
X122785714Y-117704819D01*
X122785714Y-117704819D02*
X122976190Y-117704819D01*
X122976190Y-117704819D02*
X123071428Y-117657200D01*
X123071428Y-117657200D02*
X123119047Y-117609580D01*
X123119047Y-117609580D02*
X123166666Y-117514342D01*
X123166666Y-117514342D02*
X123166666Y-117323866D01*
X123166666Y-117323866D02*
X123119047Y-117228628D01*
X123119047Y-117228628D02*
X123071428Y-117181009D01*
X123071428Y-117181009D02*
X122976190Y-117133390D01*
X120440476Y-103704819D02*
X120440476Y-104419104D01*
X120440476Y-104419104D02*
X120392857Y-104561961D01*
X120392857Y-104561961D02*
X120297619Y-104657200D01*
X120297619Y-104657200D02*
X120154762Y-104704819D01*
X120154762Y-104704819D02*
X120059524Y-104704819D01*
X121440476Y-104704819D02*
X120869048Y-104704819D01*
X121154762Y-104704819D02*
X121154762Y-103704819D01*
X121154762Y-103704819D02*
X121059524Y-103847676D01*
X121059524Y-103847676D02*
X120964286Y-103942914D01*
X120964286Y-103942914D02*
X120869048Y-103990533D01*
X121821429Y-103800057D02*
X121869048Y-103752438D01*
X121869048Y-103752438D02*
X121964286Y-103704819D01*
X121964286Y-103704819D02*
X122202381Y-103704819D01*
X122202381Y-103704819D02*
X122297619Y-103752438D01*
X122297619Y-103752438D02*
X122345238Y-103800057D01*
X122345238Y-103800057D02*
X122392857Y-103895295D01*
X122392857Y-103895295D02*
X122392857Y-103990533D01*
X122392857Y-103990533D02*
X122345238Y-104133390D01*
X122345238Y-104133390D02*
X121773810Y-104704819D01*
X121773810Y-104704819D02*
X122392857Y-104704819D01*
X128666667Y-111657200D02*
X128809524Y-111704819D01*
X128809524Y-111704819D02*
X129047619Y-111704819D01*
X129047619Y-111704819D02*
X129142857Y-111657200D01*
X129142857Y-111657200D02*
X129190476Y-111609580D01*
X129190476Y-111609580D02*
X129238095Y-111514342D01*
X129238095Y-111514342D02*
X129238095Y-111419104D01*
X129238095Y-111419104D02*
X129190476Y-111323866D01*
X129190476Y-111323866D02*
X129142857Y-111276247D01*
X129142857Y-111276247D02*
X129047619Y-111228628D01*
X129047619Y-111228628D02*
X128857143Y-111181009D01*
X128857143Y-111181009D02*
X128761905Y-111133390D01*
X128761905Y-111133390D02*
X128714286Y-111085771D01*
X128714286Y-111085771D02*
X128666667Y-110990533D01*
X128666667Y-110990533D02*
X128666667Y-110895295D01*
X128666667Y-110895295D02*
X128714286Y-110800057D01*
X128714286Y-110800057D02*
X128761905Y-110752438D01*
X128761905Y-110752438D02*
X128857143Y-110704819D01*
X128857143Y-110704819D02*
X129095238Y-110704819D01*
X129095238Y-110704819D02*
X129238095Y-110752438D01*
X129571429Y-110704819D02*
X129809524Y-111704819D01*
X129809524Y-111704819D02*
X130000000Y-110990533D01*
X130000000Y-110990533D02*
X130190476Y-111704819D01*
X130190476Y-111704819D02*
X130428572Y-110704819D01*
X131333333Y-111704819D02*
X130761905Y-111704819D01*
X131047619Y-111704819D02*
X131047619Y-110704819D01*
X131047619Y-110704819D02*
X130952381Y-110847676D01*
X130952381Y-110847676D02*
X130857143Y-110942914D01*
X130857143Y-110942914D02*
X130761905Y-110990533D01*
X123534819Y-144809523D02*
X124249104Y-144809523D01*
X124249104Y-144809523D02*
X124391961Y-144857142D01*
X124391961Y-144857142D02*
X124487200Y-144952380D01*
X124487200Y-144952380D02*
X124534819Y-145095237D01*
X124534819Y-145095237D02*
X124534819Y-145190475D01*
X124534819Y-143809523D02*
X124534819Y-144380951D01*
X124534819Y-144095237D02*
X123534819Y-144095237D01*
X123534819Y-144095237D02*
X123677676Y-144190475D01*
X123677676Y-144190475D02*
X123772914Y-144285713D01*
X123772914Y-144285713D02*
X123820533Y-144380951D01*
X123534819Y-143190475D02*
X123534819Y-143095237D01*
X123534819Y-143095237D02*
X123582438Y-142999999D01*
X123582438Y-142999999D02*
X123630057Y-142952380D01*
X123630057Y-142952380D02*
X123725295Y-142904761D01*
X123725295Y-142904761D02*
X123915771Y-142857142D01*
X123915771Y-142857142D02*
X124153866Y-142857142D01*
X124153866Y-142857142D02*
X124344342Y-142904761D01*
X124344342Y-142904761D02*
X124439580Y-142952380D01*
X124439580Y-142952380D02*
X124487200Y-142999999D01*
X124487200Y-142999999D02*
X124534819Y-143095237D01*
X124534819Y-143095237D02*
X124534819Y-143190475D01*
X124534819Y-143190475D02*
X124487200Y-143285713D01*
X124487200Y-143285713D02*
X124439580Y-143333332D01*
X124439580Y-143333332D02*
X124344342Y-143380951D01*
X124344342Y-143380951D02*
X124153866Y-143428570D01*
X124153866Y-143428570D02*
X123915771Y-143428570D01*
X123915771Y-143428570D02*
X123725295Y-143380951D01*
X123725295Y-143380951D02*
X123630057Y-143333332D01*
X123630057Y-143333332D02*
X123582438Y-143285713D01*
X123582438Y-143285713D02*
X123534819Y-143190475D01*
X121916666Y-141204819D02*
X121916666Y-141919104D01*
X121916666Y-141919104D02*
X121869047Y-142061961D01*
X121869047Y-142061961D02*
X121773809Y-142157200D01*
X121773809Y-142157200D02*
X121630952Y-142204819D01*
X121630952Y-142204819D02*
X121535714Y-142204819D01*
X122440476Y-142204819D02*
X122630952Y-142204819D01*
X122630952Y-142204819D02*
X122726190Y-142157200D01*
X122726190Y-142157200D02*
X122773809Y-142109580D01*
X122773809Y-142109580D02*
X122869047Y-141966723D01*
X122869047Y-141966723D02*
X122916666Y-141776247D01*
X122916666Y-141776247D02*
X122916666Y-141395295D01*
X122916666Y-141395295D02*
X122869047Y-141300057D01*
X122869047Y-141300057D02*
X122821428Y-141252438D01*
X122821428Y-141252438D02*
X122726190Y-141204819D01*
X122726190Y-141204819D02*
X122535714Y-141204819D01*
X122535714Y-141204819D02*
X122440476Y-141252438D01*
X122440476Y-141252438D02*
X122392857Y-141300057D01*
X122392857Y-141300057D02*
X122345238Y-141395295D01*
X122345238Y-141395295D02*
X122345238Y-141633390D01*
X122345238Y-141633390D02*
X122392857Y-141728628D01*
X122392857Y-141728628D02*
X122440476Y-141776247D01*
X122440476Y-141776247D02*
X122535714Y-141823866D01*
X122535714Y-141823866D02*
X122726190Y-141823866D01*
X122726190Y-141823866D02*
X122821428Y-141776247D01*
X122821428Y-141776247D02*
X122869047Y-141728628D01*
X122869047Y-141728628D02*
X122916666Y-141633390D01*
X137583333Y-105109580D02*
X137535714Y-105157200D01*
X137535714Y-105157200D02*
X137392857Y-105204819D01*
X137392857Y-105204819D02*
X137297619Y-105204819D01*
X137297619Y-105204819D02*
X137154762Y-105157200D01*
X137154762Y-105157200D02*
X137059524Y-105061961D01*
X137059524Y-105061961D02*
X137011905Y-104966723D01*
X137011905Y-104966723D02*
X136964286Y-104776247D01*
X136964286Y-104776247D02*
X136964286Y-104633390D01*
X136964286Y-104633390D02*
X137011905Y-104442914D01*
X137011905Y-104442914D02*
X137059524Y-104347676D01*
X137059524Y-104347676D02*
X137154762Y-104252438D01*
X137154762Y-104252438D02*
X137297619Y-104204819D01*
X137297619Y-104204819D02*
X137392857Y-104204819D01*
X137392857Y-104204819D02*
X137535714Y-104252438D01*
X137535714Y-104252438D02*
X137583333Y-104300057D01*
X138059524Y-105204819D02*
X138250000Y-105204819D01*
X138250000Y-105204819D02*
X138345238Y-105157200D01*
X138345238Y-105157200D02*
X138392857Y-105109580D01*
X138392857Y-105109580D02*
X138488095Y-104966723D01*
X138488095Y-104966723D02*
X138535714Y-104776247D01*
X138535714Y-104776247D02*
X138535714Y-104395295D01*
X138535714Y-104395295D02*
X138488095Y-104300057D01*
X138488095Y-104300057D02*
X138440476Y-104252438D01*
X138440476Y-104252438D02*
X138345238Y-104204819D01*
X138345238Y-104204819D02*
X138154762Y-104204819D01*
X138154762Y-104204819D02*
X138059524Y-104252438D01*
X138059524Y-104252438D02*
X138011905Y-104300057D01*
X138011905Y-104300057D02*
X137964286Y-104395295D01*
X137964286Y-104395295D02*
X137964286Y-104633390D01*
X137964286Y-104633390D02*
X138011905Y-104728628D01*
X138011905Y-104728628D02*
X138059524Y-104776247D01*
X138059524Y-104776247D02*
X138154762Y-104823866D01*
X138154762Y-104823866D02*
X138345238Y-104823866D01*
X138345238Y-104823866D02*
X138440476Y-104776247D01*
X138440476Y-104776247D02*
X138488095Y-104728628D01*
X138488095Y-104728628D02*
X138535714Y-104633390D01*
X142179580Y-122416666D02*
X142227200Y-122464285D01*
X142227200Y-122464285D02*
X142274819Y-122607142D01*
X142274819Y-122607142D02*
X142274819Y-122702380D01*
X142274819Y-122702380D02*
X142227200Y-122845237D01*
X142227200Y-122845237D02*
X142131961Y-122940475D01*
X142131961Y-122940475D02*
X142036723Y-122988094D01*
X142036723Y-122988094D02*
X141846247Y-123035713D01*
X141846247Y-123035713D02*
X141703390Y-123035713D01*
X141703390Y-123035713D02*
X141512914Y-122988094D01*
X141512914Y-122988094D02*
X141417676Y-122940475D01*
X141417676Y-122940475D02*
X141322438Y-122845237D01*
X141322438Y-122845237D02*
X141274819Y-122702380D01*
X141274819Y-122702380D02*
X141274819Y-122607142D01*
X141274819Y-122607142D02*
X141322438Y-122464285D01*
X141322438Y-122464285D02*
X141370057Y-122416666D01*
X141703390Y-121845237D02*
X141655771Y-121940475D01*
X141655771Y-121940475D02*
X141608152Y-121988094D01*
X141608152Y-121988094D02*
X141512914Y-122035713D01*
X141512914Y-122035713D02*
X141465295Y-122035713D01*
X141465295Y-122035713D02*
X141370057Y-121988094D01*
X141370057Y-121988094D02*
X141322438Y-121940475D01*
X141322438Y-121940475D02*
X141274819Y-121845237D01*
X141274819Y-121845237D02*
X141274819Y-121654761D01*
X141274819Y-121654761D02*
X141322438Y-121559523D01*
X141322438Y-121559523D02*
X141370057Y-121511904D01*
X141370057Y-121511904D02*
X141465295Y-121464285D01*
X141465295Y-121464285D02*
X141512914Y-121464285D01*
X141512914Y-121464285D02*
X141608152Y-121511904D01*
X141608152Y-121511904D02*
X141655771Y-121559523D01*
X141655771Y-121559523D02*
X141703390Y-121654761D01*
X141703390Y-121654761D02*
X141703390Y-121845237D01*
X141703390Y-121845237D02*
X141751009Y-121940475D01*
X141751009Y-121940475D02*
X141798628Y-121988094D01*
X141798628Y-121988094D02*
X141893866Y-122035713D01*
X141893866Y-122035713D02*
X142084342Y-122035713D01*
X142084342Y-122035713D02*
X142179580Y-121988094D01*
X142179580Y-121988094D02*
X142227200Y-121940475D01*
X142227200Y-121940475D02*
X142274819Y-121845237D01*
X142274819Y-121845237D02*
X142274819Y-121654761D01*
X142274819Y-121654761D02*
X142227200Y-121559523D01*
X142227200Y-121559523D02*
X142179580Y-121511904D01*
X142179580Y-121511904D02*
X142084342Y-121464285D01*
X142084342Y-121464285D02*
X141893866Y-121464285D01*
X141893866Y-121464285D02*
X141798628Y-121511904D01*
X141798628Y-121511904D02*
X141751009Y-121559523D01*
X141751009Y-121559523D02*
X141703390Y-121654761D01*
X160883333Y-125679580D02*
X160835714Y-125727200D01*
X160835714Y-125727200D02*
X160692857Y-125774819D01*
X160692857Y-125774819D02*
X160597619Y-125774819D01*
X160597619Y-125774819D02*
X160454762Y-125727200D01*
X160454762Y-125727200D02*
X160359524Y-125631961D01*
X160359524Y-125631961D02*
X160311905Y-125536723D01*
X160311905Y-125536723D02*
X160264286Y-125346247D01*
X160264286Y-125346247D02*
X160264286Y-125203390D01*
X160264286Y-125203390D02*
X160311905Y-125012914D01*
X160311905Y-125012914D02*
X160359524Y-124917676D01*
X160359524Y-124917676D02*
X160454762Y-124822438D01*
X160454762Y-124822438D02*
X160597619Y-124774819D01*
X160597619Y-124774819D02*
X160692857Y-124774819D01*
X160692857Y-124774819D02*
X160835714Y-124822438D01*
X160835714Y-124822438D02*
X160883333Y-124870057D01*
X161216667Y-124774819D02*
X161883333Y-124774819D01*
X161883333Y-124774819D02*
X161454762Y-125774819D01*
X134583333Y-134289580D02*
X134535714Y-134337200D01*
X134535714Y-134337200D02*
X134392857Y-134384819D01*
X134392857Y-134384819D02*
X134297619Y-134384819D01*
X134297619Y-134384819D02*
X134154762Y-134337200D01*
X134154762Y-134337200D02*
X134059524Y-134241961D01*
X134059524Y-134241961D02*
X134011905Y-134146723D01*
X134011905Y-134146723D02*
X133964286Y-133956247D01*
X133964286Y-133956247D02*
X133964286Y-133813390D01*
X133964286Y-133813390D02*
X134011905Y-133622914D01*
X134011905Y-133622914D02*
X134059524Y-133527676D01*
X134059524Y-133527676D02*
X134154762Y-133432438D01*
X134154762Y-133432438D02*
X134297619Y-133384819D01*
X134297619Y-133384819D02*
X134392857Y-133384819D01*
X134392857Y-133384819D02*
X134535714Y-133432438D01*
X134535714Y-133432438D02*
X134583333Y-133480057D01*
X135440476Y-133718152D02*
X135440476Y-134384819D01*
X135202381Y-133337200D02*
X134964286Y-134051485D01*
X134964286Y-134051485D02*
X135583333Y-134051485D01*
X134583333Y-122679580D02*
X134535714Y-122727200D01*
X134535714Y-122727200D02*
X134392857Y-122774819D01*
X134392857Y-122774819D02*
X134297619Y-122774819D01*
X134297619Y-122774819D02*
X134154762Y-122727200D01*
X134154762Y-122727200D02*
X134059524Y-122631961D01*
X134059524Y-122631961D02*
X134011905Y-122536723D01*
X134011905Y-122536723D02*
X133964286Y-122346247D01*
X133964286Y-122346247D02*
X133964286Y-122203390D01*
X133964286Y-122203390D02*
X134011905Y-122012914D01*
X134011905Y-122012914D02*
X134059524Y-121917676D01*
X134059524Y-121917676D02*
X134154762Y-121822438D01*
X134154762Y-121822438D02*
X134297619Y-121774819D01*
X134297619Y-121774819D02*
X134392857Y-121774819D01*
X134392857Y-121774819D02*
X134535714Y-121822438D01*
X134535714Y-121822438D02*
X134583333Y-121870057D01*
X134916667Y-121774819D02*
X135535714Y-121774819D01*
X135535714Y-121774819D02*
X135202381Y-122155771D01*
X135202381Y-122155771D02*
X135345238Y-122155771D01*
X135345238Y-122155771D02*
X135440476Y-122203390D01*
X135440476Y-122203390D02*
X135488095Y-122251009D01*
X135488095Y-122251009D02*
X135535714Y-122346247D01*
X135535714Y-122346247D02*
X135535714Y-122584342D01*
X135535714Y-122584342D02*
X135488095Y-122679580D01*
X135488095Y-122679580D02*
X135440476Y-122727200D01*
X135440476Y-122727200D02*
X135345238Y-122774819D01*
X135345238Y-122774819D02*
X135059524Y-122774819D01*
X135059524Y-122774819D02*
X134964286Y-122727200D01*
X134964286Y-122727200D02*
X134916667Y-122679580D01*
X151428095Y-103754819D02*
X151428095Y-104564342D01*
X151428095Y-104564342D02*
X151475714Y-104659580D01*
X151475714Y-104659580D02*
X151523333Y-104707200D01*
X151523333Y-104707200D02*
X151618571Y-104754819D01*
X151618571Y-104754819D02*
X151809047Y-104754819D01*
X151809047Y-104754819D02*
X151904285Y-104707200D01*
X151904285Y-104707200D02*
X151951904Y-104659580D01*
X151951904Y-104659580D02*
X151999523Y-104564342D01*
X151999523Y-104564342D02*
X151999523Y-103754819D01*
X152999523Y-104754819D02*
X152428095Y-104754819D01*
X152713809Y-104754819D02*
X152713809Y-103754819D01*
X152713809Y-103754819D02*
X152618571Y-103897676D01*
X152618571Y-103897676D02*
X152523333Y-103992914D01*
X152523333Y-103992914D02*
X152428095Y-104040533D01*
X163991905Y-120414819D02*
X163991905Y-119414819D01*
X163991905Y-119414819D02*
X164230000Y-119414819D01*
X164230000Y-119414819D02*
X164372857Y-119462438D01*
X164372857Y-119462438D02*
X164468095Y-119557676D01*
X164468095Y-119557676D02*
X164515714Y-119652914D01*
X164515714Y-119652914D02*
X164563333Y-119843390D01*
X164563333Y-119843390D02*
X164563333Y-119986247D01*
X164563333Y-119986247D02*
X164515714Y-120176723D01*
X164515714Y-120176723D02*
X164468095Y-120271961D01*
X164468095Y-120271961D02*
X164372857Y-120367200D01*
X164372857Y-120367200D02*
X164230000Y-120414819D01*
X164230000Y-120414819D02*
X163991905Y-120414819D01*
X164944286Y-119510057D02*
X164991905Y-119462438D01*
X164991905Y-119462438D02*
X165087143Y-119414819D01*
X165087143Y-119414819D02*
X165325238Y-119414819D01*
X165325238Y-119414819D02*
X165420476Y-119462438D01*
X165420476Y-119462438D02*
X165468095Y-119510057D01*
X165468095Y-119510057D02*
X165515714Y-119605295D01*
X165515714Y-119605295D02*
X165515714Y-119700533D01*
X165515714Y-119700533D02*
X165468095Y-119843390D01*
X165468095Y-119843390D02*
X164896667Y-120414819D01*
X164896667Y-120414819D02*
X165515714Y-120414819D01*
X164761905Y-138244819D02*
X164761905Y-137244819D01*
X164761905Y-137244819D02*
X165000000Y-137244819D01*
X165000000Y-137244819D02*
X165142857Y-137292438D01*
X165142857Y-137292438D02*
X165238095Y-137387676D01*
X165238095Y-137387676D02*
X165285714Y-137482914D01*
X165285714Y-137482914D02*
X165333333Y-137673390D01*
X165333333Y-137673390D02*
X165333333Y-137816247D01*
X165333333Y-137816247D02*
X165285714Y-138006723D01*
X165285714Y-138006723D02*
X165238095Y-138101961D01*
X165238095Y-138101961D02*
X165142857Y-138197200D01*
X165142857Y-138197200D02*
X165000000Y-138244819D01*
X165000000Y-138244819D02*
X164761905Y-138244819D01*
X165666667Y-137244819D02*
X166285714Y-137244819D01*
X166285714Y-137244819D02*
X165952381Y-137625771D01*
X165952381Y-137625771D02*
X166095238Y-137625771D01*
X166095238Y-137625771D02*
X166190476Y-137673390D01*
X166190476Y-137673390D02*
X166238095Y-137721009D01*
X166238095Y-137721009D02*
X166285714Y-137816247D01*
X166285714Y-137816247D02*
X166285714Y-138054342D01*
X166285714Y-138054342D02*
X166238095Y-138149580D01*
X166238095Y-138149580D02*
X166190476Y-138197200D01*
X166190476Y-138197200D02*
X166095238Y-138244819D01*
X166095238Y-138244819D02*
X165809524Y-138244819D01*
X165809524Y-138244819D02*
X165714286Y-138197200D01*
X165714286Y-138197200D02*
X165666667Y-138149580D01*
X182609580Y-131892857D02*
X182657200Y-131940476D01*
X182657200Y-131940476D02*
X182704819Y-132083333D01*
X182704819Y-132083333D02*
X182704819Y-132178571D01*
X182704819Y-132178571D02*
X182657200Y-132321428D01*
X182657200Y-132321428D02*
X182561961Y-132416666D01*
X182561961Y-132416666D02*
X182466723Y-132464285D01*
X182466723Y-132464285D02*
X182276247Y-132511904D01*
X182276247Y-132511904D02*
X182133390Y-132511904D01*
X182133390Y-132511904D02*
X181942914Y-132464285D01*
X181942914Y-132464285D02*
X181847676Y-132416666D01*
X181847676Y-132416666D02*
X181752438Y-132321428D01*
X181752438Y-132321428D02*
X181704819Y-132178571D01*
X181704819Y-132178571D02*
X181704819Y-132083333D01*
X181704819Y-132083333D02*
X181752438Y-131940476D01*
X181752438Y-131940476D02*
X181800057Y-131892857D01*
X182704819Y-130940476D02*
X182704819Y-131511904D01*
X182704819Y-131226190D02*
X181704819Y-131226190D01*
X181704819Y-131226190D02*
X181847676Y-131321428D01*
X181847676Y-131321428D02*
X181942914Y-131416666D01*
X181942914Y-131416666D02*
X181990533Y-131511904D01*
X181704819Y-130321428D02*
X181704819Y-130226190D01*
X181704819Y-130226190D02*
X181752438Y-130130952D01*
X181752438Y-130130952D02*
X181800057Y-130083333D01*
X181800057Y-130083333D02*
X181895295Y-130035714D01*
X181895295Y-130035714D02*
X182085771Y-129988095D01*
X182085771Y-129988095D02*
X182323866Y-129988095D01*
X182323866Y-129988095D02*
X182514342Y-130035714D01*
X182514342Y-130035714D02*
X182609580Y-130083333D01*
X182609580Y-130083333D02*
X182657200Y-130130952D01*
X182657200Y-130130952D02*
X182704819Y-130226190D01*
X182704819Y-130226190D02*
X182704819Y-130321428D01*
X182704819Y-130321428D02*
X182657200Y-130416666D01*
X182657200Y-130416666D02*
X182609580Y-130464285D01*
X182609580Y-130464285D02*
X182514342Y-130511904D01*
X182514342Y-130511904D02*
X182323866Y-130559523D01*
X182323866Y-130559523D02*
X182085771Y-130559523D01*
X182085771Y-130559523D02*
X181895295Y-130511904D01*
X181895295Y-130511904D02*
X181800057Y-130464285D01*
X181800057Y-130464285D02*
X181752438Y-130416666D01*
X181752438Y-130416666D02*
X181704819Y-130321428D01*
X177511905Y-124734819D02*
X177511905Y-123734819D01*
X177511905Y-123734819D02*
X177750000Y-123734819D01*
X177750000Y-123734819D02*
X177892857Y-123782438D01*
X177892857Y-123782438D02*
X177988095Y-123877676D01*
X177988095Y-123877676D02*
X178035714Y-123972914D01*
X178035714Y-123972914D02*
X178083333Y-124163390D01*
X178083333Y-124163390D02*
X178083333Y-124306247D01*
X178083333Y-124306247D02*
X178035714Y-124496723D01*
X178035714Y-124496723D02*
X177988095Y-124591961D01*
X177988095Y-124591961D02*
X177892857Y-124687200D01*
X177892857Y-124687200D02*
X177750000Y-124734819D01*
X177750000Y-124734819D02*
X177511905Y-124734819D01*
X179035714Y-124734819D02*
X178464286Y-124734819D01*
X178750000Y-124734819D02*
X178750000Y-123734819D01*
X178750000Y-123734819D02*
X178654762Y-123877676D01*
X178654762Y-123877676D02*
X178559524Y-123972914D01*
X178559524Y-123972914D02*
X178464286Y-124020533D01*
X170738095Y-127204819D02*
X170738095Y-126204819D01*
X171309523Y-127204819D02*
X170880952Y-126633390D01*
X171309523Y-126204819D02*
X170738095Y-126776247D01*
X181333333Y-123859580D02*
X181285714Y-123907200D01*
X181285714Y-123907200D02*
X181142857Y-123954819D01*
X181142857Y-123954819D02*
X181047619Y-123954819D01*
X181047619Y-123954819D02*
X180904762Y-123907200D01*
X180904762Y-123907200D02*
X180809524Y-123811961D01*
X180809524Y-123811961D02*
X180761905Y-123716723D01*
X180761905Y-123716723D02*
X180714286Y-123526247D01*
X180714286Y-123526247D02*
X180714286Y-123383390D01*
X180714286Y-123383390D02*
X180761905Y-123192914D01*
X180761905Y-123192914D02*
X180809524Y-123097676D01*
X180809524Y-123097676D02*
X180904762Y-123002438D01*
X180904762Y-123002438D02*
X181047619Y-122954819D01*
X181047619Y-122954819D02*
X181142857Y-122954819D01*
X181142857Y-122954819D02*
X181285714Y-123002438D01*
X181285714Y-123002438D02*
X181333333Y-123050057D01*
X181714286Y-123050057D02*
X181761905Y-123002438D01*
X181761905Y-123002438D02*
X181857143Y-122954819D01*
X181857143Y-122954819D02*
X182095238Y-122954819D01*
X182095238Y-122954819D02*
X182190476Y-123002438D01*
X182190476Y-123002438D02*
X182238095Y-123050057D01*
X182238095Y-123050057D02*
X182285714Y-123145295D01*
X182285714Y-123145295D02*
X182285714Y-123240533D01*
X182285714Y-123240533D02*
X182238095Y-123383390D01*
X182238095Y-123383390D02*
X181666667Y-123954819D01*
X181666667Y-123954819D02*
X182285714Y-123954819D01*
X181454819Y-140261904D02*
X182264342Y-140261904D01*
X182264342Y-140261904D02*
X182359580Y-140214285D01*
X182359580Y-140214285D02*
X182407200Y-140166666D01*
X182407200Y-140166666D02*
X182454819Y-140071428D01*
X182454819Y-140071428D02*
X182454819Y-139880952D01*
X182454819Y-139880952D02*
X182407200Y-139785714D01*
X182407200Y-139785714D02*
X182359580Y-139738095D01*
X182359580Y-139738095D02*
X182264342Y-139690476D01*
X182264342Y-139690476D02*
X181454819Y-139690476D01*
X181454819Y-139309523D02*
X181454819Y-138690476D01*
X181454819Y-138690476D02*
X181835771Y-139023809D01*
X181835771Y-139023809D02*
X181835771Y-138880952D01*
X181835771Y-138880952D02*
X181883390Y-138785714D01*
X181883390Y-138785714D02*
X181931009Y-138738095D01*
X181931009Y-138738095D02*
X182026247Y-138690476D01*
X182026247Y-138690476D02*
X182264342Y-138690476D01*
X182264342Y-138690476D02*
X182359580Y-138738095D01*
X182359580Y-138738095D02*
X182407200Y-138785714D01*
X182407200Y-138785714D02*
X182454819Y-138880952D01*
X182454819Y-138880952D02*
X182454819Y-139166666D01*
X182454819Y-139166666D02*
X182407200Y-139261904D01*
X182407200Y-139261904D02*
X182359580Y-139309523D01*
X136143628Y-128866190D02*
X136619819Y-128866190D01*
X135619819Y-129199523D02*
X136143628Y-128866190D01*
X136143628Y-128866190D02*
X135619819Y-128532857D01*
X136619819Y-127675714D02*
X136619819Y-128247142D01*
X136619819Y-127961428D02*
X135619819Y-127961428D01*
X135619819Y-127961428D02*
X135762676Y-128056666D01*
X135762676Y-128056666D02*
X135857914Y-128151904D01*
X135857914Y-128151904D02*
X135905533Y-128247142D01*
X163161666Y-98534819D02*
X163161666Y-99249104D01*
X163161666Y-99249104D02*
X163114047Y-99391961D01*
X163114047Y-99391961D02*
X163018809Y-99487200D01*
X163018809Y-99487200D02*
X162875952Y-99534819D01*
X162875952Y-99534819D02*
X162780714Y-99534819D01*
X164066428Y-98534819D02*
X163875952Y-98534819D01*
X163875952Y-98534819D02*
X163780714Y-98582438D01*
X163780714Y-98582438D02*
X163733095Y-98630057D01*
X163733095Y-98630057D02*
X163637857Y-98772914D01*
X163637857Y-98772914D02*
X163590238Y-98963390D01*
X163590238Y-98963390D02*
X163590238Y-99344342D01*
X163590238Y-99344342D02*
X163637857Y-99439580D01*
X163637857Y-99439580D02*
X163685476Y-99487200D01*
X163685476Y-99487200D02*
X163780714Y-99534819D01*
X163780714Y-99534819D02*
X163971190Y-99534819D01*
X163971190Y-99534819D02*
X164066428Y-99487200D01*
X164066428Y-99487200D02*
X164114047Y-99439580D01*
X164114047Y-99439580D02*
X164161666Y-99344342D01*
X164161666Y-99344342D02*
X164161666Y-99106247D01*
X164161666Y-99106247D02*
X164114047Y-99011009D01*
X164114047Y-99011009D02*
X164066428Y-98963390D01*
X164066428Y-98963390D02*
X163971190Y-98915771D01*
X163971190Y-98915771D02*
X163780714Y-98915771D01*
X163780714Y-98915771D02*
X163685476Y-98963390D01*
X163685476Y-98963390D02*
X163637857Y-99011009D01*
X163637857Y-99011009D02*
X163590238Y-99106247D01*
X168562254Y-137859580D02*
X168514635Y-137907200D01*
X168514635Y-137907200D02*
X168371778Y-137954819D01*
X168371778Y-137954819D02*
X168276540Y-137954819D01*
X168276540Y-137954819D02*
X168133683Y-137907200D01*
X168133683Y-137907200D02*
X168038445Y-137811961D01*
X168038445Y-137811961D02*
X167990826Y-137716723D01*
X167990826Y-137716723D02*
X167943207Y-137526247D01*
X167943207Y-137526247D02*
X167943207Y-137383390D01*
X167943207Y-137383390D02*
X167990826Y-137192914D01*
X167990826Y-137192914D02*
X168038445Y-137097676D01*
X168038445Y-137097676D02*
X168133683Y-137002438D01*
X168133683Y-137002438D02*
X168276540Y-136954819D01*
X168276540Y-136954819D02*
X168371778Y-136954819D01*
X168371778Y-136954819D02*
X168514635Y-137002438D01*
X168514635Y-137002438D02*
X168562254Y-137050057D01*
X169514635Y-137954819D02*
X168943207Y-137954819D01*
X169228921Y-137954819D02*
X169228921Y-136954819D01*
X169228921Y-136954819D02*
X169133683Y-137097676D01*
X169133683Y-137097676D02*
X169038445Y-137192914D01*
X169038445Y-137192914D02*
X168943207Y-137240533D01*
X170467016Y-137954819D02*
X169895588Y-137954819D01*
X170181302Y-137954819D02*
X170181302Y-136954819D01*
X170181302Y-136954819D02*
X170086064Y-137097676D01*
X170086064Y-137097676D02*
X169990826Y-137192914D01*
X169990826Y-137192914D02*
X169895588Y-137240533D01*
X197866666Y-120412319D02*
X197866666Y-121126604D01*
X197866666Y-121126604D02*
X197819047Y-121269461D01*
X197819047Y-121269461D02*
X197723809Y-121364700D01*
X197723809Y-121364700D02*
X197580952Y-121412319D01*
X197580952Y-121412319D02*
X197485714Y-121412319D01*
X198866666Y-121412319D02*
X198295238Y-121412319D01*
X198580952Y-121412319D02*
X198580952Y-120412319D01*
X198580952Y-120412319D02*
X198485714Y-120555176D01*
X198485714Y-120555176D02*
X198390476Y-120650414D01*
X198390476Y-120650414D02*
X198295238Y-120698033D01*
X181738095Y-110454819D02*
X181738095Y-111264342D01*
X181738095Y-111264342D02*
X181785714Y-111359580D01*
X181785714Y-111359580D02*
X181833333Y-111407200D01*
X181833333Y-111407200D02*
X181928571Y-111454819D01*
X181928571Y-111454819D02*
X182119047Y-111454819D01*
X182119047Y-111454819D02*
X182214285Y-111407200D01*
X182214285Y-111407200D02*
X182261904Y-111359580D01*
X182261904Y-111359580D02*
X182309523Y-111264342D01*
X182309523Y-111264342D02*
X182309523Y-110454819D01*
X183214285Y-110788152D02*
X183214285Y-111454819D01*
X182976190Y-110407200D02*
X182738095Y-111121485D01*
X182738095Y-111121485D02*
X183357142Y-111121485D01*
%TO.C,J11*%
D12*
X140900000Y-97120000D02*
X148630000Y-97120000D01*
X148630000Y-99880000D02*
X148630000Y-97120000D01*
X140900000Y-99880000D02*
X140900000Y-97120000D01*
X140900000Y-99880000D02*
X148630000Y-99880000D01*
X139630000Y-99880000D02*
X138250000Y-99880000D01*
X138250000Y-99880000D02*
X138250000Y-98500000D01*
%TO.C,J7*%
X122130000Y-93747500D02*
X137370000Y-93747500D01*
X122130000Y-100867500D02*
X137370000Y-100867500D01*
X122130000Y-102987500D02*
X122130000Y-93747500D01*
X124450000Y-102987500D02*
X122130000Y-102987500D01*
X137370000Y-93747500D02*
X137370000Y-102987500D01*
X137370000Y-102987500D02*
X125050000Y-102987500D01*
X125750000Y-95667500D02*
G75*
G02*
X123750000Y-95667500I-1000000J0D01*
G01*
X123750000Y-95667500D02*
G75*
G02*
X125750000Y-95667500I1000000J0D01*
G01*
X130750000Y-95667500D02*
G75*
G02*
X128750000Y-95667500I-1000000J0D01*
G01*
X128750000Y-95667500D02*
G75*
G02*
X130750000Y-95667500I1000000J0D01*
G01*
X135750000Y-95667500D02*
G75*
G02*
X133750000Y-95667500I-1000000J0D01*
G01*
X133750000Y-95667500D02*
G75*
G02*
X135750000Y-95667500I1000000J0D01*
G01*
X124750000Y-102987500D02*
X125190000Y-103597500D01*
X124310000Y-103597500D01*
X124750000Y-102987500D01*
G36*
X125190000Y-103597500D02*
G01*
X124310000Y-103597500D01*
X124750000Y-102987500D01*
X125190000Y-103597500D01*
G37*
%TO.C,R3*%
X159015000Y-140787064D02*
X159015000Y-140332936D01*
X160485000Y-140787064D02*
X160485000Y-140332936D01*
%TO.C,R2*%
X170515000Y-112977064D02*
X170515000Y-112522936D01*
X171985000Y-112977064D02*
X171985000Y-112522936D01*
%TO.C,R1*%
X144985000Y-111772936D02*
X144985000Y-112227064D01*
X143515000Y-111772936D02*
X143515000Y-112227064D01*
%TO.C,C1*%
X177009888Y-121225000D02*
X176509888Y-121225000D01*
X176759888Y-121475000D02*
X176759888Y-120975000D01*
X174205113Y-122330000D02*
X174205113Y-117170000D01*
X174165113Y-122330000D02*
X174165113Y-117170000D01*
X174125113Y-122329000D02*
X174125113Y-117171000D01*
X174085113Y-122327000D02*
X174085113Y-117173000D01*
X174045113Y-122325000D02*
X174045113Y-117175000D01*
X174005113Y-122322000D02*
X174005113Y-117178000D01*
X173965113Y-122319000D02*
X173965113Y-120790000D01*
X173965113Y-118710000D02*
X173965113Y-117181000D01*
X173925113Y-122315000D02*
X173925113Y-120790000D01*
X173925113Y-118710000D02*
X173925113Y-117185000D01*
X173885113Y-122310000D02*
X173885113Y-120790000D01*
X173885113Y-118710000D02*
X173885113Y-117190000D01*
X173845113Y-122305000D02*
X173845113Y-120790000D01*
X173845113Y-118710000D02*
X173845113Y-117195000D01*
X173805113Y-122299000D02*
X173805113Y-120790000D01*
X173805113Y-118710000D02*
X173805113Y-117201000D01*
X173765113Y-122293000D02*
X173765113Y-120790000D01*
X173765113Y-118710000D02*
X173765113Y-117207000D01*
X173725113Y-122286000D02*
X173725113Y-120790000D01*
X173725113Y-118710000D02*
X173725113Y-117214000D01*
X173685113Y-122278000D02*
X173685113Y-120790000D01*
X173685113Y-118710000D02*
X173685113Y-117222000D01*
X173645113Y-122269000D02*
X173645113Y-120790000D01*
X173645113Y-118710000D02*
X173645113Y-117231000D01*
X173605113Y-122260000D02*
X173605113Y-120790000D01*
X173605113Y-118710000D02*
X173605113Y-117240000D01*
X173565113Y-122251000D02*
X173565113Y-120790000D01*
X173565113Y-118710000D02*
X173565113Y-117249000D01*
X173525113Y-122240000D02*
X173525113Y-120790000D01*
X173525113Y-118710000D02*
X173525113Y-117260000D01*
X173485113Y-122229000D02*
X173485113Y-120790000D01*
X173485113Y-118710000D02*
X173485113Y-117271000D01*
X173445113Y-122217000D02*
X173445113Y-120790000D01*
X173445113Y-118710000D02*
X173445113Y-117283000D01*
X173405113Y-122205000D02*
X173405113Y-120790000D01*
X173405113Y-118710000D02*
X173405113Y-117295000D01*
X173365113Y-122192000D02*
X173365113Y-120790000D01*
X173365113Y-118710000D02*
X173365113Y-117308000D01*
X173325113Y-122178000D02*
X173325113Y-120790000D01*
X173325113Y-118710000D02*
X173325113Y-117322000D01*
X173285113Y-122163000D02*
X173285113Y-120790000D01*
X173285113Y-118710000D02*
X173285113Y-117337000D01*
X173245113Y-122148000D02*
X173245113Y-120790000D01*
X173245113Y-118710000D02*
X173245113Y-117352000D01*
X173205113Y-122132000D02*
X173205113Y-120790000D01*
X173205113Y-118710000D02*
X173205113Y-117368000D01*
X173165113Y-122115000D02*
X173165113Y-120790000D01*
X173165113Y-118710000D02*
X173165113Y-117385000D01*
X173125113Y-122097000D02*
X173125113Y-120790000D01*
X173125113Y-118710000D02*
X173125113Y-117403000D01*
X173085113Y-122079000D02*
X173085113Y-120790000D01*
X173085113Y-118710000D02*
X173085113Y-117421000D01*
X173045113Y-122059000D02*
X173045113Y-120790000D01*
X173045113Y-118710000D02*
X173045113Y-117441000D01*
X173005113Y-122039000D02*
X173005113Y-120790000D01*
X173005113Y-118710000D02*
X173005113Y-117461000D01*
X172965113Y-122018000D02*
X172965113Y-120790000D01*
X172965113Y-118710000D02*
X172965113Y-117482000D01*
X172925113Y-121996000D02*
X172925113Y-120790000D01*
X172925113Y-118710000D02*
X172925113Y-117504000D01*
X172885113Y-121973000D02*
X172885113Y-120790000D01*
X172885113Y-118710000D02*
X172885113Y-117527000D01*
X172845113Y-121949000D02*
X172845113Y-120790000D01*
X172845113Y-118710000D02*
X172845113Y-117551000D01*
X172805113Y-121925000D02*
X172805113Y-120790000D01*
X172805113Y-118710000D02*
X172805113Y-117575000D01*
X172765113Y-121899000D02*
X172765113Y-120790000D01*
X172765113Y-118710000D02*
X172765113Y-117601000D01*
X172725113Y-121872000D02*
X172725113Y-120790000D01*
X172725113Y-118710000D02*
X172725113Y-117628000D01*
X172685113Y-121844000D02*
X172685113Y-120790000D01*
X172685113Y-118710000D02*
X172685113Y-117656000D01*
X172645113Y-121815000D02*
X172645113Y-120790000D01*
X172645113Y-118710000D02*
X172645113Y-117685000D01*
X172605113Y-121785000D02*
X172605113Y-120790000D01*
X172605113Y-118710000D02*
X172605113Y-117715000D01*
X172565113Y-121753000D02*
X172565113Y-120790000D01*
X172565113Y-118710000D02*
X172565113Y-117747000D01*
X172525113Y-121720000D02*
X172525113Y-120790000D01*
X172525113Y-118710000D02*
X172525113Y-117780000D01*
X172485113Y-121686000D02*
X172485113Y-120790000D01*
X172485113Y-118710000D02*
X172485113Y-117814000D01*
X172445113Y-121651000D02*
X172445113Y-120790000D01*
X172445113Y-118710000D02*
X172445113Y-117849000D01*
X172405113Y-121614000D02*
X172405113Y-120790000D01*
X172405113Y-118710000D02*
X172405113Y-117886000D01*
X172365113Y-121575000D02*
X172365113Y-120790000D01*
X172365113Y-118710000D02*
X172365113Y-117925000D01*
X172325113Y-121535000D02*
X172325113Y-120790000D01*
X172325113Y-118710000D02*
X172325113Y-117965000D01*
X172285113Y-121493000D02*
X172285113Y-120790000D01*
X172285113Y-118710000D02*
X172285113Y-118007000D01*
X172245113Y-121449000D02*
X172245113Y-120790000D01*
X172245113Y-118710000D02*
X172245113Y-118051000D01*
X172205113Y-121402000D02*
X172205113Y-120790000D01*
X172205113Y-118710000D02*
X172205113Y-118098000D01*
X172165113Y-121354000D02*
X172165113Y-120790000D01*
X172165113Y-118710000D02*
X172165113Y-118146000D01*
X172125113Y-121303000D02*
X172125113Y-120790000D01*
X172125113Y-118710000D02*
X172125113Y-118197000D01*
X172085113Y-121249000D02*
X172085113Y-120790000D01*
X172085113Y-118710000D02*
X172085113Y-118251000D01*
X172045113Y-121193000D02*
X172045113Y-120790000D01*
X172045113Y-118710000D02*
X172045113Y-118307000D01*
X172005113Y-121133000D02*
X172005113Y-120790000D01*
X172005113Y-118710000D02*
X172005113Y-118367000D01*
X171965113Y-121069000D02*
X171965113Y-120790000D01*
X171965113Y-118710000D02*
X171965113Y-118431000D01*
X171925113Y-121001000D02*
X171925113Y-120790000D01*
X171925113Y-118710000D02*
X171925113Y-118499000D01*
X171885113Y-120927000D02*
X171885113Y-118573000D01*
X171845113Y-120848000D02*
X171845113Y-118652000D01*
X171805113Y-120761000D02*
X171805113Y-118739000D01*
X171765113Y-120664000D02*
X171765113Y-118836000D01*
X171725113Y-120555000D02*
X171725113Y-118945000D01*
X171685113Y-120427000D02*
X171685113Y-119073000D01*
X171645113Y-120267000D02*
X171645113Y-119233000D01*
X171605113Y-120033000D02*
X171605113Y-119467000D01*
X176825113Y-119750000D02*
G75*
G02*
X171585113Y-119750000I-2620000J0D01*
G01*
X171585113Y-119750000D02*
G75*
G02*
X176825113Y-119750000I2620000J0D01*
G01*
%TO.C,J8*%
X124130000Y-120980000D02*
X124130000Y-128710000D01*
X121370000Y-128710000D02*
X124130000Y-128710000D01*
X121370000Y-120980000D02*
X124130000Y-120980000D01*
X121370000Y-120980000D02*
X121370000Y-128710000D01*
X121370000Y-119710000D02*
X121370000Y-118330000D01*
X121370000Y-118330000D02*
X122750000Y-118330000D01*
%TO.C,J12*%
X124130000Y-107980000D02*
X124130000Y-115710000D01*
X121370000Y-115710000D02*
X124130000Y-115710000D01*
X121370000Y-107980000D02*
X124130000Y-107980000D01*
X121370000Y-107980000D02*
X121370000Y-115710000D01*
X121370000Y-106710000D02*
X121370000Y-105330000D01*
X121370000Y-105330000D02*
X122750000Y-105330000D01*
%TO.C,SW1*%
X126500000Y-114750000D02*
X126500000Y-116250000D01*
X127750000Y-118750000D02*
X132250000Y-118750000D01*
X132250000Y-112250000D02*
X127750000Y-112250000D01*
X133500000Y-116250000D02*
X133500000Y-114750000D01*
%TO.C,J10*%
X125080000Y-145380000D02*
X125080000Y-144000000D01*
X126460000Y-145380000D02*
X125080000Y-145380000D01*
X127730000Y-145380000D02*
X135460000Y-145380000D01*
X127730000Y-145380000D02*
X127730000Y-142620000D01*
X135460000Y-145380000D02*
X135460000Y-142620000D01*
X127730000Y-142620000D02*
X135460000Y-142620000D01*
%TO.C,J9*%
X121370000Y-129870000D02*
X122750000Y-129870000D01*
X121370000Y-131250000D02*
X121370000Y-129870000D01*
X121370000Y-132520000D02*
X121370000Y-140250000D01*
X121370000Y-132520000D02*
X124130000Y-132520000D01*
X121370000Y-140250000D02*
X124130000Y-140250000D01*
X124130000Y-132520000D02*
X124130000Y-140250000D01*
%TO.C,C6*%
X164735000Y-112238748D02*
X164735000Y-112761252D01*
X163265000Y-112238748D02*
X163265000Y-112761252D01*
%TO.C,C9*%
X138488748Y-105765000D02*
X139011252Y-105765000D01*
X138488748Y-107235000D02*
X139011252Y-107235000D01*
%TO.C,C8*%
X142765000Y-122511252D02*
X142765000Y-121988748D01*
X144235000Y-122511252D02*
X144235000Y-121988748D01*
%TO.C,C7*%
X160788748Y-126265000D02*
X161311252Y-126265000D01*
X160788748Y-127735000D02*
X161311252Y-127735000D01*
%TO.C,C4*%
X135011252Y-132985000D02*
X134488748Y-132985000D01*
X135011252Y-131515000D02*
X134488748Y-131515000D01*
%TO.C,C3*%
X134488748Y-123265000D02*
X135011252Y-123265000D01*
X134488748Y-124735000D02*
X135011252Y-124735000D01*
%TO.C,U1*%
X149540000Y-105300000D02*
X149540000Y-140980000D01*
X149540000Y-140980000D02*
X154840000Y-140980000D01*
X151190000Y-105300000D02*
X149540000Y-105300000D01*
X154840000Y-105300000D02*
X153190000Y-105300000D01*
X154840000Y-140980000D02*
X154840000Y-105300000D01*
X153190000Y-105300000D02*
G75*
G02*
X151190000Y-105300000I-1000000J0D01*
G01*
%TO.C,D2*%
X166290000Y-115920000D02*
X166290000Y-115764000D01*
X166290000Y-118236000D02*
X166290000Y-118080000D01*
X163058563Y-115920000D02*
G75*
G02*
X166290000Y-115764484I1671437J-1080000D01*
G01*
X163689039Y-115920000D02*
G75*
G02*
X165770961Y-115920000I1040961J-1080000D01*
G01*
X165770961Y-118080000D02*
G75*
G02*
X163689039Y-118080000I-1040961J1080000D01*
G01*
X166290000Y-118235516D02*
G75*
G02*
X163058563Y-118080000I-1560000J1235516D01*
G01*
%TO.C,D3*%
X163940000Y-139514000D02*
X163940000Y-139670000D01*
X163940000Y-141830000D02*
X163940000Y-141986000D01*
X163940000Y-139514484D02*
G75*
G02*
X167171437Y-139670000I1560000J-1235516D01*
G01*
X164459039Y-139670000D02*
G75*
G02*
X166540961Y-139670000I1040961J-1080000D01*
G01*
X166540961Y-141830000D02*
G75*
G02*
X164459039Y-141830000I-1040961J1080000D01*
G01*
X167171437Y-141830000D02*
G75*
G02*
X163940000Y-141985516I-1671437J1080000D01*
G01*
%TO.C,C10*%
X177460000Y-131250000D02*
X175920000Y-131250000D01*
X177460000Y-131290000D02*
X175920000Y-131290000D01*
X177460000Y-131330000D02*
X175921000Y-131330000D01*
X177460000Y-131370000D02*
X175923000Y-131370000D01*
X177460000Y-131410000D02*
X175925000Y-131410000D01*
X177460000Y-131450000D02*
X175928000Y-131450000D01*
X177460000Y-131490000D02*
X175931000Y-131490000D01*
X177460000Y-131530000D02*
X175935000Y-131530000D01*
X177460000Y-131570000D02*
X175940000Y-131570000D01*
X177460000Y-131610000D02*
X175945000Y-131610000D01*
X177460000Y-131650000D02*
X175951000Y-131650000D01*
X177460000Y-131690000D02*
X175957000Y-131690000D01*
X177460000Y-131730000D02*
X175964000Y-131730000D01*
X177460000Y-131770000D02*
X175972000Y-131770000D01*
X177460000Y-131810000D02*
X175981000Y-131810000D01*
X177460000Y-131850000D02*
X175990000Y-131850000D01*
X177460000Y-131890000D02*
X175999000Y-131890000D01*
X177460000Y-131930000D02*
X176010000Y-131930000D01*
X177460000Y-131970000D02*
X176021000Y-131970000D01*
X177460000Y-132010000D02*
X176033000Y-132010000D01*
X177460000Y-132050000D02*
X176045000Y-132050000D01*
X177460000Y-132090000D02*
X176058000Y-132090000D01*
X177460000Y-132130000D02*
X176072000Y-132130000D01*
X177460000Y-132170000D02*
X176087000Y-132170000D01*
X177460000Y-132210000D02*
X176102000Y-132210000D01*
X177460000Y-132250000D02*
X176118000Y-132250000D01*
X177460000Y-132290000D02*
X176135000Y-132290000D01*
X177460000Y-132330000D02*
X176153000Y-132330000D01*
X177460000Y-132370000D02*
X176171000Y-132370000D01*
X177460000Y-132410000D02*
X176191000Y-132410000D01*
X177460000Y-132450000D02*
X176211000Y-132450000D01*
X177460000Y-132490000D02*
X176232000Y-132490000D01*
X177460000Y-132530000D02*
X176254000Y-132530000D01*
X177460000Y-132570000D02*
X176277000Y-132570000D01*
X177460000Y-132610000D02*
X176301000Y-132610000D01*
X177460000Y-132650000D02*
X176325000Y-132650000D01*
X177460000Y-132690000D02*
X176351000Y-132690000D01*
X177460000Y-132730000D02*
X176378000Y-132730000D01*
X177460000Y-132770000D02*
X176406000Y-132770000D01*
X177460000Y-132810000D02*
X176435000Y-132810000D01*
X177460000Y-132850000D02*
X176465000Y-132850000D01*
X177460000Y-132890000D02*
X176497000Y-132890000D01*
X177460000Y-132930000D02*
X176530000Y-132930000D01*
X177460000Y-132970000D02*
X176564000Y-132970000D01*
X177460000Y-133010000D02*
X176599000Y-133010000D01*
X177460000Y-133050000D02*
X176636000Y-133050000D01*
X177460000Y-133090000D02*
X176675000Y-133090000D01*
X177460000Y-133130000D02*
X176715000Y-133130000D01*
X177460000Y-133170000D02*
X176757000Y-133170000D01*
X177460000Y-133210000D02*
X176801000Y-133210000D01*
X177460000Y-133250000D02*
X176848000Y-133250000D01*
X178783000Y-133850000D02*
X178217000Y-133850000D01*
X179017000Y-133810000D02*
X177983000Y-133810000D01*
X179177000Y-133770000D02*
X177823000Y-133770000D01*
X179305000Y-133730000D02*
X177695000Y-133730000D01*
X179414000Y-133690000D02*
X177586000Y-133690000D01*
X179511000Y-133650000D02*
X177489000Y-133650000D01*
X179598000Y-133610000D02*
X177402000Y-133610000D01*
X179677000Y-133570000D02*
X177323000Y-133570000D01*
X179751000Y-133530000D02*
X177249000Y-133530000D01*
X179819000Y-133490000D02*
X177181000Y-133490000D01*
X179883000Y-133450000D02*
X177117000Y-133450000D01*
X179943000Y-133410000D02*
X177057000Y-133410000D01*
X179975000Y-128445225D02*
X179975000Y-128945225D01*
X179999000Y-133370000D02*
X177001000Y-133370000D01*
X180053000Y-133330000D02*
X176947000Y-133330000D01*
X180104000Y-133290000D02*
X176896000Y-133290000D01*
X180152000Y-133250000D02*
X179540000Y-133250000D01*
X180199000Y-133210000D02*
X179540000Y-133210000D01*
X180225000Y-128695225D02*
X179725000Y-128695225D01*
X180243000Y-133170000D02*
X179540000Y-133170000D01*
X180285000Y-133130000D02*
X179540000Y-133130000D01*
X180325000Y-133090000D02*
X179540000Y-133090000D01*
X180364000Y-133050000D02*
X179540000Y-133050000D01*
X180401000Y-133010000D02*
X179540000Y-133010000D01*
X180436000Y-132970000D02*
X179540000Y-132970000D01*
X180470000Y-132930000D02*
X179540000Y-132930000D01*
X180503000Y-132890000D02*
X179540000Y-132890000D01*
X180535000Y-132850000D02*
X179540000Y-132850000D01*
X180565000Y-132810000D02*
X179540000Y-132810000D01*
X180594000Y-132770000D02*
X179540000Y-132770000D01*
X180622000Y-132730000D02*
X179540000Y-132730000D01*
X180649000Y-132690000D02*
X179540000Y-132690000D01*
X180675000Y-132650000D02*
X179540000Y-132650000D01*
X180699000Y-132610000D02*
X179540000Y-132610000D01*
X180723000Y-132570000D02*
X179540000Y-132570000D01*
X180746000Y-132530000D02*
X179540000Y-132530000D01*
X180768000Y-132490000D02*
X179540000Y-132490000D01*
X180789000Y-132450000D02*
X179540000Y-132450000D01*
X180809000Y-132410000D02*
X179540000Y-132410000D01*
X180829000Y-132370000D02*
X179540000Y-132370000D01*
X180847000Y-132330000D02*
X179540000Y-132330000D01*
X180865000Y-132290000D02*
X179540000Y-132290000D01*
X180882000Y-132250000D02*
X179540000Y-132250000D01*
X180898000Y-132210000D02*
X179540000Y-132210000D01*
X180913000Y-132170000D02*
X179540000Y-132170000D01*
X180928000Y-132130000D02*
X179540000Y-132130000D01*
X180942000Y-132090000D02*
X179540000Y-132090000D01*
X180955000Y-132050000D02*
X179540000Y-132050000D01*
X180967000Y-132010000D02*
X179540000Y-132010000D01*
X180979000Y-131970000D02*
X179540000Y-131970000D01*
X180990000Y-131930000D02*
X179540000Y-131930000D01*
X181001000Y-131890000D02*
X179540000Y-131890000D01*
X181010000Y-131850000D02*
X179540000Y-131850000D01*
X181019000Y-131810000D02*
X179540000Y-131810000D01*
X181028000Y-131770000D02*
X179540000Y-131770000D01*
X181036000Y-131730000D02*
X179540000Y-131730000D01*
X181043000Y-131690000D02*
X179540000Y-131690000D01*
X181049000Y-131650000D02*
X179540000Y-131650000D01*
X181055000Y-131610000D02*
X179540000Y-131610000D01*
X181060000Y-131570000D02*
X179540000Y-131570000D01*
X181065000Y-131530000D02*
X179540000Y-131530000D01*
X181069000Y-131490000D02*
X179540000Y-131490000D01*
X181072000Y-131450000D02*
X179540000Y-131450000D01*
X181075000Y-131410000D02*
X179540000Y-131410000D01*
X181077000Y-131370000D02*
X179540000Y-131370000D01*
X181079000Y-131330000D02*
X179540000Y-131330000D01*
X181080000Y-131250000D02*
X179540000Y-131250000D01*
X181080000Y-131290000D02*
X179540000Y-131290000D01*
X181120000Y-131250000D02*
G75*
G02*
X175880000Y-131250000I-2620000J0D01*
G01*
X175880000Y-131250000D02*
G75*
G02*
X181120000Y-131250000I2620000J0D01*
G01*
%TO.C,D1*%
X174510000Y-126750000D02*
X175530000Y-126750000D01*
X176310000Y-125280000D02*
X176310000Y-128220000D01*
X176430000Y-125280000D02*
X176430000Y-128220000D01*
X176550000Y-125280000D02*
X176550000Y-128220000D01*
X181990000Y-126750000D02*
X180970000Y-126750000D01*
X175530000Y-125280000D02*
X180970000Y-125280000D01*
X180970000Y-128220000D01*
X175530000Y-128220000D01*
X175530000Y-125280000D01*
%TO.C,C2*%
X178900000Y-120033000D02*
X178900000Y-119467000D01*
X178940000Y-120267000D02*
X178940000Y-119233000D01*
X178980000Y-120427000D02*
X178980000Y-119073000D01*
X179020000Y-120555000D02*
X179020000Y-118945000D01*
X179060000Y-120664000D02*
X179060000Y-118836000D01*
X179100000Y-120761000D02*
X179100000Y-118739000D01*
X179140000Y-120848000D02*
X179140000Y-118652000D01*
X179180000Y-120927000D02*
X179180000Y-118573000D01*
X179220000Y-121001000D02*
X179220000Y-118499000D01*
X179260000Y-121069000D02*
X179260000Y-118431000D01*
X179300000Y-121133000D02*
X179300000Y-118367000D01*
X179340000Y-121193000D02*
X179340000Y-118307000D01*
X179380000Y-121249000D02*
X179380000Y-118251000D01*
X179420000Y-121303000D02*
X179420000Y-118197000D01*
X179460000Y-121354000D02*
X179460000Y-118146000D01*
X179500000Y-118710000D02*
X179500000Y-118098000D01*
X179500000Y-121402000D02*
X179500000Y-120790000D01*
X179540000Y-118710000D02*
X179540000Y-118051000D01*
X179540000Y-121449000D02*
X179540000Y-120790000D01*
X179580000Y-118710000D02*
X179580000Y-118007000D01*
X179580000Y-121493000D02*
X179580000Y-120790000D01*
X179620000Y-118710000D02*
X179620000Y-117965000D01*
X179620000Y-121535000D02*
X179620000Y-120790000D01*
X179660000Y-118710000D02*
X179660000Y-117925000D01*
X179660000Y-121575000D02*
X179660000Y-120790000D01*
X179700000Y-118710000D02*
X179700000Y-117886000D01*
X179700000Y-121614000D02*
X179700000Y-120790000D01*
X179740000Y-118710000D02*
X179740000Y-117849000D01*
X179740000Y-121651000D02*
X179740000Y-120790000D01*
X179780000Y-118710000D02*
X179780000Y-117814000D01*
X179780000Y-121686000D02*
X179780000Y-120790000D01*
X179820000Y-118710000D02*
X179820000Y-117780000D01*
X179820000Y-121720000D02*
X179820000Y-120790000D01*
X179860000Y-118710000D02*
X179860000Y-117747000D01*
X179860000Y-121753000D02*
X179860000Y-120790000D01*
X179900000Y-118710000D02*
X179900000Y-117715000D01*
X179900000Y-121785000D02*
X179900000Y-120790000D01*
X179940000Y-118710000D02*
X179940000Y-117685000D01*
X179940000Y-121815000D02*
X179940000Y-120790000D01*
X179980000Y-118710000D02*
X179980000Y-117656000D01*
X179980000Y-121844000D02*
X179980000Y-120790000D01*
X180020000Y-118710000D02*
X180020000Y-117628000D01*
X180020000Y-121872000D02*
X180020000Y-120790000D01*
X180060000Y-118710000D02*
X180060000Y-117601000D01*
X180060000Y-121899000D02*
X180060000Y-120790000D01*
X180100000Y-118710000D02*
X180100000Y-117575000D01*
X180100000Y-121925000D02*
X180100000Y-120790000D01*
X180140000Y-118710000D02*
X180140000Y-117551000D01*
X180140000Y-121949000D02*
X180140000Y-120790000D01*
X180180000Y-118710000D02*
X180180000Y-117527000D01*
X180180000Y-121973000D02*
X180180000Y-120790000D01*
X180220000Y-118710000D02*
X180220000Y-117504000D01*
X180220000Y-121996000D02*
X180220000Y-120790000D01*
X180260000Y-118710000D02*
X180260000Y-117482000D01*
X180260000Y-122018000D02*
X180260000Y-120790000D01*
X180300000Y-118710000D02*
X180300000Y-117461000D01*
X180300000Y-122039000D02*
X180300000Y-120790000D01*
X180340000Y-118710000D02*
X180340000Y-117441000D01*
X180340000Y-122059000D02*
X180340000Y-120790000D01*
X180380000Y-118710000D02*
X180380000Y-117421000D01*
X180380000Y-122079000D02*
X180380000Y-120790000D01*
X180420000Y-118710000D02*
X180420000Y-117403000D01*
X180420000Y-122097000D02*
X180420000Y-120790000D01*
X180460000Y-118710000D02*
X180460000Y-117385000D01*
X180460000Y-122115000D02*
X180460000Y-120790000D01*
X180500000Y-118710000D02*
X180500000Y-117368000D01*
X180500000Y-122132000D02*
X180500000Y-120790000D01*
X180540000Y-118710000D02*
X180540000Y-117352000D01*
X180540000Y-122148000D02*
X180540000Y-120790000D01*
X180580000Y-118710000D02*
X180580000Y-117337000D01*
X180580000Y-122163000D02*
X180580000Y-120790000D01*
X180620000Y-118710000D02*
X180620000Y-117322000D01*
X180620000Y-122178000D02*
X180620000Y-120790000D01*
X180660000Y-118710000D02*
X180660000Y-117308000D01*
X180660000Y-122192000D02*
X180660000Y-120790000D01*
X180700000Y-118710000D02*
X180700000Y-117295000D01*
X180700000Y-122205000D02*
X180700000Y-120790000D01*
X180740000Y-118710000D02*
X180740000Y-117283000D01*
X180740000Y-122217000D02*
X180740000Y-120790000D01*
X180780000Y-118710000D02*
X180780000Y-117271000D01*
X180780000Y-122229000D02*
X180780000Y-120790000D01*
X180820000Y-118710000D02*
X180820000Y-117260000D01*
X180820000Y-122240000D02*
X180820000Y-120790000D01*
X180860000Y-118710000D02*
X180860000Y-117249000D01*
X180860000Y-122251000D02*
X180860000Y-120790000D01*
X180900000Y-118710000D02*
X180900000Y-117240000D01*
X180900000Y-122260000D02*
X180900000Y-120790000D01*
X180940000Y-118710000D02*
X180940000Y-117231000D01*
X180940000Y-122269000D02*
X180940000Y-120790000D01*
X180980000Y-118710000D02*
X180980000Y-117222000D01*
X180980000Y-122278000D02*
X180980000Y-120790000D01*
X181020000Y-118710000D02*
X181020000Y-117214000D01*
X181020000Y-122286000D02*
X181020000Y-120790000D01*
X181060000Y-118710000D02*
X181060000Y-117207000D01*
X181060000Y-122293000D02*
X181060000Y-120790000D01*
X181100000Y-118710000D02*
X181100000Y-117201000D01*
X181100000Y-122299000D02*
X181100000Y-120790000D01*
X181140000Y-118710000D02*
X181140000Y-117195000D01*
X181140000Y-122305000D02*
X181140000Y-120790000D01*
X181180000Y-118710000D02*
X181180000Y-117190000D01*
X181180000Y-122310000D02*
X181180000Y-120790000D01*
X181220000Y-118710000D02*
X181220000Y-117185000D01*
X181220000Y-122315000D02*
X181220000Y-120790000D01*
X181260000Y-118710000D02*
X181260000Y-117181000D01*
X181260000Y-122319000D02*
X181260000Y-120790000D01*
X181300000Y-118710000D02*
X181300000Y-117178000D01*
X181300000Y-122322000D02*
X181300000Y-120790000D01*
X181340000Y-118710000D02*
X181340000Y-117175000D01*
X181340000Y-122325000D02*
X181340000Y-120790000D01*
X181380000Y-118710000D02*
X181380000Y-117173000D01*
X181380000Y-122327000D02*
X181380000Y-120790000D01*
X181420000Y-118710000D02*
X181420000Y-117171000D01*
X181420000Y-122329000D02*
X181420000Y-120790000D01*
X181460000Y-118710000D02*
X181460000Y-117170000D01*
X181460000Y-122330000D02*
X181460000Y-120790000D01*
X181500000Y-118710000D02*
X181500000Y-117170000D01*
X181500000Y-122330000D02*
X181500000Y-120790000D01*
X184054775Y-121475000D02*
X184054775Y-120975000D01*
X184304775Y-121225000D02*
X183804775Y-121225000D01*
X184120000Y-119750000D02*
G75*
G02*
X178880000Y-119750000I-2620000J0D01*
G01*
X178880000Y-119750000D02*
G75*
G02*
X184120000Y-119750000I2620000J0D01*
G01*
%TO.C,U3*%
X174090000Y-137650000D02*
X174090000Y-141410000D01*
X174090000Y-141410000D02*
X175350000Y-141410000D01*
X180910000Y-137650000D02*
X180910000Y-141410000D01*
X180910000Y-141410000D02*
X179650000Y-141410000D01*
X180810000Y-136370000D02*
X181140000Y-136130000D01*
X181140000Y-136610000D01*
X180810000Y-136370000D01*
G36*
X181140000Y-136610000D02*
G01*
X180810000Y-136370000D01*
X181140000Y-136130000D01*
X181140000Y-136610000D01*
G37*
%TO.C,Y1*%
X137250000Y-131590000D02*
X137250000Y-125190000D01*
X142120000Y-125190000D02*
X142120000Y-131590000D01*
X137250000Y-125190000D02*
G75*
G02*
X142120000Y-125190000I2435000J0D01*
G01*
X142120000Y-131590000D02*
G75*
G02*
X137250000Y-131590000I-2435000J0D01*
G01*
%TO.C,J6*%
X160845000Y-100080000D02*
X162225000Y-100080000D01*
X160845000Y-101460000D02*
X160845000Y-100080000D01*
X160845000Y-102730000D02*
X160845000Y-107920000D01*
X160845000Y-102730000D02*
X163495000Y-102730000D01*
X160845000Y-107920000D02*
X166145000Y-107920000D01*
X163495000Y-100080000D02*
X166145000Y-100080000D01*
X163495000Y-102730000D02*
X163495000Y-100080000D01*
X166145000Y-100080000D02*
X166145000Y-107920000D01*
%TO.C,C11*%
X166605112Y-134033000D02*
X166605112Y-133467000D01*
X166645112Y-134267000D02*
X166645112Y-133233000D01*
X166685112Y-134427000D02*
X166685112Y-133073000D01*
X166725112Y-134555000D02*
X166725112Y-132945000D01*
X166765112Y-134664000D02*
X166765112Y-132836000D01*
X166805112Y-134761000D02*
X166805112Y-132739000D01*
X166845112Y-134848000D02*
X166845112Y-132652000D01*
X166885112Y-134927000D02*
X166885112Y-132573000D01*
X166925112Y-135001000D02*
X166925112Y-132499000D01*
X166965112Y-135069000D02*
X166965112Y-132431000D01*
X167005112Y-135133000D02*
X167005112Y-132367000D01*
X167045112Y-135193000D02*
X167045112Y-132307000D01*
X167085112Y-135249000D02*
X167085112Y-132251000D01*
X167125112Y-135303000D02*
X167125112Y-132197000D01*
X167165112Y-135354000D02*
X167165112Y-132146000D01*
X167205112Y-132710000D02*
X167205112Y-132098000D01*
X167205112Y-135402000D02*
X167205112Y-134790000D01*
X167245112Y-132710000D02*
X167245112Y-132051000D01*
X167245112Y-135449000D02*
X167245112Y-134790000D01*
X167285112Y-132710000D02*
X167285112Y-132007000D01*
X167285112Y-135493000D02*
X167285112Y-134790000D01*
X167325112Y-132710000D02*
X167325112Y-131965000D01*
X167325112Y-135535000D02*
X167325112Y-134790000D01*
X167365112Y-132710000D02*
X167365112Y-131925000D01*
X167365112Y-135575000D02*
X167365112Y-134790000D01*
X167405112Y-132710000D02*
X167405112Y-131886000D01*
X167405112Y-135614000D02*
X167405112Y-134790000D01*
X167445112Y-132710000D02*
X167445112Y-131849000D01*
X167445112Y-135651000D02*
X167445112Y-134790000D01*
X167485112Y-132710000D02*
X167485112Y-131814000D01*
X167485112Y-135686000D02*
X167485112Y-134790000D01*
X167525112Y-132710000D02*
X167525112Y-131780000D01*
X167525112Y-135720000D02*
X167525112Y-134790000D01*
X167565112Y-132710000D02*
X167565112Y-131747000D01*
X167565112Y-135753000D02*
X167565112Y-134790000D01*
X167605112Y-132710000D02*
X167605112Y-131715000D01*
X167605112Y-135785000D02*
X167605112Y-134790000D01*
X167645112Y-132710000D02*
X167645112Y-131685000D01*
X167645112Y-135815000D02*
X167645112Y-134790000D01*
X167685112Y-132710000D02*
X167685112Y-131656000D01*
X167685112Y-135844000D02*
X167685112Y-134790000D01*
X167725112Y-132710000D02*
X167725112Y-131628000D01*
X167725112Y-135872000D02*
X167725112Y-134790000D01*
X167765112Y-132710000D02*
X167765112Y-131601000D01*
X167765112Y-135899000D02*
X167765112Y-134790000D01*
X167805112Y-132710000D02*
X167805112Y-131575000D01*
X167805112Y-135925000D02*
X167805112Y-134790000D01*
X167845112Y-132710000D02*
X167845112Y-131551000D01*
X167845112Y-135949000D02*
X167845112Y-134790000D01*
X167885112Y-132710000D02*
X167885112Y-131527000D01*
X167885112Y-135973000D02*
X167885112Y-134790000D01*
X167925112Y-132710000D02*
X167925112Y-131504000D01*
X167925112Y-135996000D02*
X167925112Y-134790000D01*
X167965112Y-132710000D02*
X167965112Y-131482000D01*
X167965112Y-136018000D02*
X167965112Y-134790000D01*
X168005112Y-132710000D02*
X168005112Y-131461000D01*
X168005112Y-136039000D02*
X168005112Y-134790000D01*
X168045112Y-132710000D02*
X168045112Y-131441000D01*
X168045112Y-136059000D02*
X168045112Y-134790000D01*
X168085112Y-132710000D02*
X168085112Y-131421000D01*
X168085112Y-136079000D02*
X168085112Y-134790000D01*
X168125112Y-132710000D02*
X168125112Y-131403000D01*
X168125112Y-136097000D02*
X168125112Y-134790000D01*
X168165112Y-132710000D02*
X168165112Y-131385000D01*
X168165112Y-136115000D02*
X168165112Y-134790000D01*
X168205112Y-132710000D02*
X168205112Y-131368000D01*
X168205112Y-136132000D02*
X168205112Y-134790000D01*
X168245112Y-132710000D02*
X168245112Y-131352000D01*
X168245112Y-136148000D02*
X168245112Y-134790000D01*
X168285112Y-132710000D02*
X168285112Y-131337000D01*
X168285112Y-136163000D02*
X168285112Y-134790000D01*
X168325112Y-132710000D02*
X168325112Y-131322000D01*
X168325112Y-136178000D02*
X168325112Y-134790000D01*
X168365112Y-132710000D02*
X168365112Y-131308000D01*
X168365112Y-136192000D02*
X168365112Y-134790000D01*
X168405112Y-132710000D02*
X168405112Y-131295000D01*
X168405112Y-136205000D02*
X168405112Y-134790000D01*
X168445112Y-132710000D02*
X168445112Y-131283000D01*
X168445112Y-136217000D02*
X168445112Y-134790000D01*
X168485112Y-132710000D02*
X168485112Y-131271000D01*
X168485112Y-136229000D02*
X168485112Y-134790000D01*
X168525112Y-132710000D02*
X168525112Y-131260000D01*
X168525112Y-136240000D02*
X168525112Y-134790000D01*
X168565112Y-132710000D02*
X168565112Y-131249000D01*
X168565112Y-136251000D02*
X168565112Y-134790000D01*
X168605112Y-132710000D02*
X168605112Y-131240000D01*
X168605112Y-136260000D02*
X168605112Y-134790000D01*
X168645112Y-132710000D02*
X168645112Y-131231000D01*
X168645112Y-136269000D02*
X168645112Y-134790000D01*
X168685112Y-132710000D02*
X168685112Y-131222000D01*
X168685112Y-136278000D02*
X168685112Y-134790000D01*
X168725112Y-132710000D02*
X168725112Y-131214000D01*
X168725112Y-136286000D02*
X168725112Y-134790000D01*
X168765112Y-132710000D02*
X168765112Y-131207000D01*
X168765112Y-136293000D02*
X168765112Y-134790000D01*
X168805112Y-132710000D02*
X168805112Y-131201000D01*
X168805112Y-136299000D02*
X168805112Y-134790000D01*
X168845112Y-132710000D02*
X168845112Y-131195000D01*
X168845112Y-136305000D02*
X168845112Y-134790000D01*
X168885112Y-132710000D02*
X168885112Y-131190000D01*
X168885112Y-136310000D02*
X168885112Y-134790000D01*
X168925112Y-132710000D02*
X168925112Y-131185000D01*
X168925112Y-136315000D02*
X168925112Y-134790000D01*
X168965112Y-132710000D02*
X168965112Y-131181000D01*
X168965112Y-136319000D02*
X168965112Y-134790000D01*
X169005112Y-132710000D02*
X169005112Y-131178000D01*
X169005112Y-136322000D02*
X169005112Y-134790000D01*
X169045112Y-132710000D02*
X169045112Y-131175000D01*
X169045112Y-136325000D02*
X169045112Y-134790000D01*
X169085112Y-132710000D02*
X169085112Y-131173000D01*
X169085112Y-136327000D02*
X169085112Y-134790000D01*
X169125112Y-132710000D02*
X169125112Y-131171000D01*
X169125112Y-136329000D02*
X169125112Y-134790000D01*
X169165112Y-132710000D02*
X169165112Y-131170000D01*
X169165112Y-136330000D02*
X169165112Y-134790000D01*
X169205112Y-132710000D02*
X169205112Y-131170000D01*
X169205112Y-136330000D02*
X169205112Y-134790000D01*
X171759887Y-135475000D02*
X171759887Y-134975000D01*
X172009887Y-135225000D02*
X171509887Y-135225000D01*
X171825112Y-133750000D02*
G75*
G02*
X166585112Y-133750000I-2620000J0D01*
G01*
X166585112Y-133750000D02*
G75*
G02*
X171825112Y-133750000I2620000J0D01*
G01*
%TO.C,J1*%
X188650000Y-130457500D02*
X188650000Y-131507500D01*
X188850000Y-122107500D02*
X190750000Y-122107500D01*
X188850000Y-124807500D02*
X188850000Y-122107500D01*
X188850000Y-131307500D02*
X188850000Y-128707500D01*
X189700000Y-131507500D02*
X188650000Y-131507500D01*
X194750000Y-122107500D02*
X203550000Y-122107500D01*
X203550000Y-122107500D02*
X203550000Y-131307500D01*
X203550000Y-131307500D02*
X188850000Y-131307500D01*
%TO.C,U4*%
X174340000Y-110090000D02*
X175600000Y-110090000D01*
X174340000Y-113850000D02*
X174340000Y-110090000D01*
X181160000Y-110090000D02*
X179900000Y-110090000D01*
X181160000Y-113850000D02*
X181160000Y-110090000D01*
X174440000Y-115130000D02*
X174110000Y-115370000D01*
X174110000Y-114890000D01*
X174440000Y-115130000D01*
G36*
X174440000Y-115130000D02*
G01*
X174110000Y-115370000D01*
X174110000Y-114890000D01*
X174440000Y-115130000D01*
G37*
%TD*%
M02*
