%TF.GenerationSoftware,KiCad,Pcbnew,10.0.6*%
%TF.CreationDate,2026-10-03T19:17:26+02:00*%
%TF.ProjectId,ATmega328P-board,41546d65-6761-4333-9238-502d626f6172,rev?*%
%TF.SameCoordinates,Original*%
%TF.FileFunction,Copper,L2,Bot*%
%TF.FilePolarity,Positive*%
%FSLAX46Y46*%
G04 Gerber Fmt 4.6, Leading zero omitted, Abs format (unit mm)*
G04 Created by KiCad (PCBNEW 10.0.6) date 2026-10-03 19:17:26*
%MOMM*%
%LPD*%
G01*
G04 APERTURE LIST*
G04 Aperture macros list*
%AMRoundRect*
0 Rectangle with rounded corners*
0 $1 Rounding radius*
0 $2 $3 $4 $5 $6 $7 $8 $9 X,Y pos of 4 corners*
0 Add a 4 corners polygon primitive as box body*
4,1,4,$2,$3,$4,$5,$6,$7,$8,$9,$2,$3,0*
0 Add four circle primitives for the rounded corners*
1,1,$1+$1,$2,$3*
1,1,$1+$1,$4,$5*
1,1,$1+$1,$6,$7*
1,1,$1+$1,$8,$9*
0 Add four rect primitives between the rounded corners*
20,1,$1+$1,$2,$3,$4,$5,0*
20,1,$1+$1,$4,$5,$6,$7,0*
20,1,$1+$1,$6,$7,$8,$9,0*
20,1,$1+$1,$8,$9,$2,$3,0*%
G04 Aperture macros list end*
%TA.AperFunction,ComponentPad*%
%ADD10C,1.700000*%
%TD*%
%TA.AperFunction,ComponentPad*%
%ADD11R,1.700000X1.700000*%
%TD*%
%TA.AperFunction,ComponentPad*%
%ADD12RoundRect,0.249999X-1.250001X-1.250001X1.250001X-1.250001X1.250001X1.250001X-1.250001X1.250001X0*%
%TD*%
%TA.AperFunction,ComponentPad*%
%ADD13C,3.000000*%
%TD*%
%TA.AperFunction,ComponentPad*%
%ADD14RoundRect,0.250000X0.550000X0.550000X-0.550000X0.550000X-0.550000X-0.550000X0.550000X-0.550000X0*%
%TD*%
%TA.AperFunction,ComponentPad*%
%ADD15C,1.600000*%
%TD*%
%TA.AperFunction,ComponentPad*%
%ADD16C,2.000000*%
%TD*%
%TA.AperFunction,ComponentPad*%
%ADD17RoundRect,0.250000X-0.550000X-0.550000X0.550000X-0.550000X0.550000X0.550000X-0.550000X0.550000X0*%
%TD*%
%TA.AperFunction,ComponentPad*%
%ADD18R,1.800000X1.800000*%
%TD*%
%TA.AperFunction,ComponentPad*%
%ADD19C,1.800000*%
%TD*%
%TA.AperFunction,ComponentPad*%
%ADD20RoundRect,0.250000X-0.550000X0.550000X-0.550000X-0.550000X0.550000X-0.550000X0.550000X0.550000X0*%
%TD*%
%TA.AperFunction,ComponentPad*%
%ADD21RoundRect,0.249999X-0.850001X-0.850001X0.850001X-0.850001X0.850001X0.850001X-0.850001X0.850001X0*%
%TD*%
%TA.AperFunction,ComponentPad*%
%ADD22C,2.200000*%
%TD*%
%TA.AperFunction,ComponentPad*%
%ADD23C,1.500000*%
%TD*%
%TA.AperFunction,ComponentPad*%
%ADD24R,3.500000X3.500000*%
%TD*%
%TA.AperFunction,ComponentPad*%
%ADD25RoundRect,0.750000X0.750000X1.000000X-0.750000X1.000000X-0.750000X-1.000000X0.750000X-1.000000X0*%
%TD*%
%TA.AperFunction,ComponentPad*%
%ADD26RoundRect,0.875000X0.875000X0.875000X-0.875000X0.875000X-0.875000X-0.875000X0.875000X-0.875000X0*%
%TD*%
%TA.AperFunction,ViaPad*%
%ADD27C,0.600000*%
%TD*%
%TA.AperFunction,Conductor*%
%ADD28C,0.600000*%
%TD*%
%TA.AperFunction,Conductor*%
%ADD29C,0.300000*%
%TD*%
%TA.AperFunction,Conductor*%
%ADD30C,1.000000*%
%TD*%
G04 APERTURE END LIST*
D10*
%TO.P,J11,4,Pin_4_4*%
%TO.N,/PC3*%
X147250000Y-98500000D03*
%TO.P,J11,3,Pin_3_3*%
%TO.N,/PC2*%
X144710000Y-98500000D03*
%TO.P,J11,2,Pin_2_2*%
%TO.N,/PC1*%
X142170000Y-98500000D03*
D11*
%TO.P,J11,1,Pin_1_1*%
%TO.N,/PC0*%
X139630000Y-98500000D03*
%TD*%
D12*
%TO.P,J7,1,Pin_1_1*%
%TO.N,VCC*%
X124750000Y-98867500D03*
D13*
%TO.P,J7,2,Pin_2_2*%
%TO.N,/+3.3*%
X129750000Y-98867500D03*
%TO.P,J7,3,Pin_3_3*%
%TO.N,GND*%
X134750000Y-98867500D03*
%TD*%
D14*
%TO.P,C1,1*%
%TO.N,Net-(D1-K)*%
X175455113Y-119750000D03*
D15*
%TO.P,C1,2*%
%TO.N,GND*%
X172955113Y-119750000D03*
%TD*%
D10*
%TO.P,J8,4,Pin_4_4*%
%TO.N,/PD5*%
X122750000Y-127330000D03*
%TO.P,J8,3,Pin_3_3*%
%TO.N,/PD3*%
X122750000Y-124790000D03*
%TO.P,J8,2,Pin_2_2*%
%TO.N,/PB1*%
X122750000Y-122250000D03*
D11*
%TO.P,J8,1,Pin_1_1*%
%TO.N,/PB2*%
X122750000Y-119710000D03*
%TD*%
D10*
%TO.P,J12,4,Pin_4_4*%
%TO.N,GND*%
X122750000Y-114330000D03*
%TO.P,J12,3,Pin_3_3*%
%TO.N,/PB0*%
X122750000Y-111790000D03*
%TO.P,J12,2,Pin_2_2*%
%TO.N,/PC5*%
X122750000Y-109250000D03*
D11*
%TO.P,J12,1,Pin_1_1*%
%TO.N,/PC4*%
X122750000Y-106710000D03*
%TD*%
D16*
%TO.P,SW1,1,1_1*%
%TO.N,/RESET*%
X126750000Y-113250000D03*
X133250000Y-113250000D03*
%TO.P,SW1,2,2_2*%
%TO.N,GND*%
X126750000Y-117750000D03*
X133250000Y-117750000D03*
%TD*%
D11*
%TO.P,J10,1,Pin_1_1*%
%TO.N,/+3.3*%
X126460000Y-144000000D03*
D10*
%TO.P,J10,2,Pin_2_2*%
%TO.N,VCC*%
X129000000Y-144000000D03*
%TO.P,J10,3,Pin_3_3*%
%TO.N,/PD2*%
X131540000Y-144000000D03*
%TO.P,J10,4,Pin_4_4*%
%TO.N,/PD4*%
X134080000Y-144000000D03*
%TD*%
D11*
%TO.P,J9,1,Pin_1_1*%
%TO.N,/TX*%
X122750000Y-131250000D03*
D10*
%TO.P,J9,2,Pin_2_2*%
%TO.N,/RX*%
X122750000Y-133790000D03*
%TO.P,J9,3,Pin_3_3*%
%TO.N,/DTR*%
X122750000Y-136330000D03*
%TO.P,J9,4,Pin_4_4*%
%TO.N,GND*%
X122750000Y-138870000D03*
%TD*%
D17*
%TO.P,U1,1,~{RESET}/PC6_1*%
%TO.N,/RESET*%
X148380000Y-106630000D03*
D15*
%TO.P,U1,2,PD0_2*%
%TO.N,/TX*%
X148380000Y-109170000D03*
%TO.P,U1,3,PD1_3*%
%TO.N,/RX*%
X148380000Y-111710000D03*
%TO.P,U1,4,PD2_4*%
%TO.N,/PD2*%
X148380000Y-114250000D03*
%TO.P,U1,5,PD3_5*%
%TO.N,/PD3*%
X148380000Y-116790000D03*
%TO.P,U1,6,PD4_6*%
%TO.N,/PD4*%
X148380000Y-119330000D03*
%TO.P,U1,7,VCC_7*%
%TO.N,VCC*%
X148380000Y-121870000D03*
%TO.P,U1,8,GND_8*%
%TO.N,GND*%
X148380000Y-124410000D03*
%TO.P,U1,9,XTAL1/PB6_9*%
%TO.N,Net-(U1-XTAL1{slash}PB6)*%
X148380000Y-126950000D03*
%TO.P,U1,10,XTAL2/PB7_10*%
%TO.N,Net-(U1-XTAL2{slash}PB7)*%
X148380000Y-129490000D03*
%TO.P,U1,11,PD5_11*%
%TO.N,/PD5*%
X148380000Y-132030000D03*
%TO.P,U1,12,PD6_12*%
%TO.N,unconnected-(U1-PD6-Pad12)*%
X148380000Y-134570000D03*
%TO.P,U1,13,PD7_13*%
%TO.N,unconnected-(U1-PD7-Pad13)*%
X148380000Y-137110000D03*
%TO.P,U1,14,PB0_14*%
%TO.N,/PB0*%
X148380000Y-139650000D03*
%TO.P,U1,15,PB1_15*%
%TO.N,/PB1*%
X156000000Y-139650000D03*
%TO.P,U1,16,PB2_16*%
%TO.N,/PB2*%
X156000000Y-137110000D03*
%TO.P,U1,17,PB3_17*%
%TO.N,/MOSI*%
X156000000Y-134570000D03*
%TO.P,U1,18,PB4_18*%
%TO.N,/MISO*%
X156000000Y-132030000D03*
%TO.P,U1,19,PB5_19*%
%TO.N,/SCK*%
X156000000Y-129490000D03*
%TO.P,U1,20,AVCC_20*%
%TO.N,VCC*%
X156000000Y-126950000D03*
%TO.P,U1,21,AREF_21*%
X156000000Y-124410000D03*
%TO.P,U1,22,GND_22*%
%TO.N,GND*%
X156000000Y-121870000D03*
%TO.P,U1,23,PC0_23*%
%TO.N,/PC0*%
X156000000Y-119330000D03*
%TO.P,U1,24,PC1_24*%
%TO.N,/PC1*%
X156000000Y-116790000D03*
%TO.P,U1,25,PC2_25*%
%TO.N,/PC2*%
X156000000Y-114250000D03*
%TO.P,U1,26,PC3_26*%
%TO.N,/PC3*%
X156000000Y-111710000D03*
%TO.P,U1,27,PC4_27*%
%TO.N,/PC4*%
X156000000Y-109170000D03*
%TO.P,U1,28,PC5_28*%
%TO.N,/PC5*%
X156000000Y-106630000D03*
%TD*%
D18*
%TO.P,D2,1,K_1*%
%TO.N,Net-(D2-K)*%
X166000000Y-117000000D03*
D19*
%TO.P,D2,2,A_2*%
%TO.N,GND*%
X163460000Y-117000000D03*
%TD*%
D18*
%TO.P,D3,1,K_1*%
%TO.N,Net-(D3-K)*%
X164230000Y-140750000D03*
D19*
%TO.P,D3,2,A_2*%
%TO.N,GND*%
X166770000Y-140750000D03*
%TD*%
D20*
%TO.P,C10,1*%
%TO.N,VCC*%
X178500000Y-130250000D03*
D15*
%TO.P,C10,2*%
%TO.N,GND*%
X178500000Y-132250000D03*
%TD*%
D21*
%TO.P,D1,1,K_1*%
%TO.N,Net-(D1-K)*%
X173170000Y-126750000D03*
D22*
%TO.P,D1,2,A_2*%
%TO.N,Net-(D1-A)*%
X183330000Y-126750000D03*
%TD*%
D14*
%TO.P,C2,1*%
%TO.N,VCC*%
X182500000Y-119750000D03*
D15*
%TO.P,C2,2*%
%TO.N,GND*%
X180500000Y-119750000D03*
%TD*%
D23*
%TO.P,Y1,1,1_1*%
%TO.N,Net-(U1-XTAL2{slash}PB7)*%
X139685000Y-130830000D03*
%TO.P,Y1,2,2_2*%
%TO.N,Net-(U1-XTAL1{slash}PB6)*%
X139685000Y-125950000D03*
%TD*%
D11*
%TO.P,J6,1,Pin_1_1*%
%TO.N,/MISO*%
X162225000Y-101460000D03*
D10*
%TO.P,J6,2,Pin_2_2*%
%TO.N,VCC*%
X164765000Y-101460000D03*
%TO.P,J6,3,Pin_3_3*%
%TO.N,/SCK*%
X162225000Y-104000000D03*
%TO.P,J6,4,Pin_4_4*%
%TO.N,/MOSI*%
X164765000Y-104000000D03*
%TO.P,J6,5,Pin_5_5*%
%TO.N,/RESET*%
X162225000Y-106540000D03*
%TO.P,J6,6,Pin_6_6*%
%TO.N,GND*%
X164765000Y-106540000D03*
%TD*%
D14*
%TO.P,C11,1*%
%TO.N,/+3.3*%
X170205112Y-133750000D03*
D15*
%TO.P,C11,2*%
%TO.N,GND*%
X168205112Y-133750000D03*
%TD*%
D24*
%TO.P,J1,1*%
%TO.N,Net-(D1-A)*%
X189750000Y-126707500D03*
D25*
%TO.P,J1,2*%
%TO.N,GND*%
X195750000Y-126707500D03*
D26*
%TO.P,J1,3*%
%TO.N,N/C*%
X192750000Y-122007500D03*
%TD*%
D27*
%TO.N,VCC*%
X143000000Y-115000000D03*
X145000000Y-118750000D03*
%TO.N,/PB2*%
X125250000Y-121500000D03*
X125200000Y-125500000D03*
%TO.N,GND*%
X128750000Y-116500000D03*
X130959620Y-116709620D03*
%TO.N,VCC*%
X175500000Y-139000000D03*
X137250000Y-141500000D03*
%TO.N,/PD2*%
X150500000Y-118000000D03*
X150500000Y-125000000D03*
X152500000Y-136000000D03*
X152250000Y-142000000D03*
%TO.N,/PD4*%
X151750000Y-122750000D03*
X140000000Y-143250000D03*
%TO.N,/PC0*%
X152299997Y-116750000D03*
%TO.N,/PC1*%
X152299997Y-115000000D03*
%TO.N,/PC2*%
X151571702Y-109081044D03*
%TO.N,/PC3*%
X152299997Y-108750000D03*
%TO.N,/TX*%
X142500000Y-110250000D03*
X133500000Y-111000000D03*
X130500000Y-114500000D03*
X127250000Y-115750000D03*
X124375380Y-129874620D03*
%TO.N,/RX*%
X127125000Y-120955760D03*
X125850000Y-131500000D03*
%TO.N,/DTR*%
X134000000Y-106000000D03*
X126500000Y-132500000D03*
%TO.N,/PB0*%
X139750000Y-139750000D03*
X127395652Y-122523587D03*
%TO.N,/PC5*%
X155500000Y-107750000D03*
X140250000Y-109000000D03*
%TO.N,/PC4*%
X155250000Y-110500000D03*
X141500000Y-108250000D03*
%TO.N,/RESET*%
X158250000Y-105750000D03*
X149750000Y-104500000D03*
%TO.N,/PD5*%
X151500000Y-137000000D03*
X150250000Y-141500000D03*
%TO.N,/MOSI*%
X153741051Y-126752983D03*
X153750000Y-123000000D03*
%TO.N,/MISO*%
X154500000Y-123610000D03*
X154500000Y-126500000D03*
%TO.N,/SCK*%
X155693368Y-130766677D03*
X152949997Y-123000000D03*
X157438654Y-101938654D03*
X160250000Y-102750000D03*
%TO.N,/+3.3*%
X154750000Y-103500000D03*
X169750000Y-129000000D03*
%TD*%
%TO.N,VCC*%
D28*
X145000000Y-118750000D02*
X145000000Y-117000000D01*
X145000000Y-117000000D02*
X143000000Y-115000000D01*
%TO.N,/PB2*%
D29*
X125200000Y-121550000D02*
X125250000Y-121500000D01*
X125200000Y-125500000D02*
X125200000Y-121550000D01*
%TO.N,GND*%
D28*
X128750000Y-116500000D02*
X130750000Y-116500000D01*
X130750000Y-116500000D02*
X130959620Y-116709620D01*
%TO.N,/RX*%
D29*
X127125000Y-121167894D02*
X125850000Y-122442894D01*
X127125000Y-120955760D02*
X127125000Y-121167894D01*
X125850000Y-122442894D02*
X125850000Y-131500000D01*
%TO.N,/PB0*%
X127750000Y-127750000D02*
X139750000Y-139750000D01*
X127750000Y-122877935D02*
X127750000Y-127750000D01*
X127395652Y-122523587D02*
X127750000Y-122877935D01*
%TO.N,VCC*%
D28*
X139668629Y-144050000D02*
X170450000Y-144050000D01*
X137250000Y-141631371D02*
X139668629Y-144050000D01*
X137250000Y-141500000D02*
X137250000Y-141631371D01*
X170450000Y-144050000D02*
X175500000Y-139000000D01*
%TO.N,/PD2*%
D29*
X150500000Y-125000000D02*
X150500000Y-118000000D01*
X152250000Y-142000000D02*
X152500000Y-141750000D01*
X152500000Y-141750000D02*
X152500000Y-136000000D01*
%TO.N,/PD4*%
X148856346Y-135720000D02*
X151750000Y-132826346D01*
X140000000Y-143250000D02*
X147530000Y-135720000D01*
X151750000Y-132826346D02*
X151750000Y-122750000D01*
X147530000Y-135720000D02*
X148856346Y-135720000D01*
%TO.N,/PC0*%
X154879997Y-119330000D02*
X156000000Y-119330000D01*
X152299997Y-116750000D02*
X154879997Y-119330000D01*
%TO.N,/PC1*%
X154089997Y-116790000D02*
X156000000Y-116790000D01*
X152299997Y-115000000D02*
X154089997Y-116790000D01*
%TO.N,/PC2*%
X151571702Y-109821702D02*
X156000000Y-114250000D01*
X151571702Y-109081044D02*
X151571702Y-109821702D01*
%TO.N,/PC3*%
X155259997Y-111710000D02*
X156000000Y-111710000D01*
X152299997Y-108750000D02*
X155259997Y-111710000D01*
%TO.N,/TX*%
X142500000Y-110250000D02*
X143580000Y-109170000D01*
X130500000Y-114000000D02*
X133500000Y-111000000D01*
X130500000Y-114500000D02*
X130500000Y-114000000D01*
X125409949Y-115750000D02*
X127250000Y-115750000D01*
X124375380Y-116784569D02*
X125409949Y-115750000D01*
X124375380Y-129874620D02*
X124375380Y-116784569D01*
X143580000Y-109170000D02*
X148380000Y-109170000D01*
%TO.N,/DTR*%
X128100000Y-111900000D02*
X134000000Y-106000000D01*
X128100000Y-120900000D02*
X128100000Y-111900000D01*
X126500000Y-122500000D02*
X128100000Y-120900000D01*
X126500000Y-132500000D02*
X126500000Y-122500000D01*
%TO.N,/PC5*%
X147574544Y-105480000D02*
X153230000Y-105480000D01*
X147230000Y-105824544D02*
X147574544Y-105480000D01*
X140250000Y-108580761D02*
X143006217Y-105824544D01*
X140250000Y-109000000D02*
X140250000Y-108580761D01*
X153230000Y-105480000D02*
X155500000Y-107750000D01*
X143006217Y-105824544D02*
X147230000Y-105824544D01*
%TO.N,/PC4*%
X141730000Y-108020000D02*
X152770000Y-108020000D01*
X141500000Y-108250000D02*
X141730000Y-108020000D01*
X152770000Y-108020000D02*
X155250000Y-110500000D01*
%TO.N,/RESET*%
X157000000Y-104500000D02*
X149750000Y-104500000D01*
X158250000Y-105750000D02*
X157000000Y-104500000D01*
%TO.N,/PD5*%
X150250000Y-141500000D02*
X151500000Y-140250000D01*
X151500000Y-140250000D02*
X151500000Y-137000000D01*
%TO.N,/MOSI*%
X153750000Y-126744034D02*
X153741051Y-126752983D01*
X153750000Y-123000000D02*
X153750000Y-126744034D01*
%TO.N,/MISO*%
X154500000Y-123610000D02*
X154500000Y-126500000D01*
%TO.N,/SCK*%
X156000000Y-129490000D02*
X155490000Y-129490000D01*
X160250000Y-102750000D02*
X159438654Y-101938654D01*
X159438654Y-101938654D02*
X157438654Y-101938654D01*
X152949997Y-123000000D02*
X152949997Y-129449997D01*
X152949997Y-129449997D02*
X154266677Y-130766677D01*
X154266677Y-130766677D02*
X155693368Y-130766677D01*
%TO.N,/+3.3*%
D28*
X169750000Y-129000000D02*
X169750000Y-127500000D01*
X169750000Y-127500000D02*
X159500000Y-117250000D01*
X159500000Y-103500000D02*
X154750000Y-103500000D01*
X159500000Y-117250000D02*
X159500000Y-103500000D01*
%TO.N,Net-(D1-A)*%
D30*
X183372500Y-126707500D02*
X183415000Y-126750000D01*
%TD*%
%TA.AperFunction,Conductor*%
%TO.N,GND*%
G36*
X149459474Y-125135922D02*
G01*
X149459474Y-125135921D01*
X149490195Y-125093640D01*
X149545525Y-125050975D01*
X149615139Y-125044997D01*
X149676933Y-125077604D01*
X149711290Y-125138443D01*
X149712129Y-125142335D01*
X149730261Y-125233491D01*
X149730264Y-125233501D01*
X149790602Y-125379172D01*
X149790609Y-125379185D01*
X149878210Y-125510288D01*
X149878213Y-125510292D01*
X149989707Y-125621786D01*
X149989711Y-125621789D01*
X150120814Y-125709390D01*
X150120827Y-125709397D01*
X150221663Y-125751164D01*
X150266503Y-125769737D01*
X150421153Y-125800499D01*
X150421156Y-125800500D01*
X150421158Y-125800500D01*
X150578844Y-125800500D01*
X150578845Y-125800499D01*
X150733497Y-125769737D01*
X150879179Y-125709394D01*
X150879184Y-125709390D01*
X150879187Y-125709389D01*
X150906608Y-125691067D01*
X150973285Y-125670188D01*
X151040666Y-125688672D01*
X151087356Y-125740650D01*
X151099500Y-125794168D01*
X151099500Y-132505537D01*
X151079815Y-132572576D01*
X151063181Y-132593218D01*
X149706037Y-133950361D01*
X149644714Y-133983846D01*
X149575022Y-133978862D01*
X149519089Y-133936990D01*
X149507872Y-133918976D01*
X149492286Y-133888388D01*
X149371971Y-133722786D01*
X149227213Y-133578028D01*
X149061614Y-133457715D01*
X149055006Y-133454348D01*
X148968917Y-133410483D01*
X148918123Y-133362511D01*
X148901328Y-133294690D01*
X148923865Y-133228555D01*
X148968917Y-133189516D01*
X149061610Y-133142287D01*
X149089827Y-133121786D01*
X149227213Y-133021971D01*
X149227215Y-133021968D01*
X149227219Y-133021966D01*
X149371966Y-132877219D01*
X149371968Y-132877215D01*
X149371971Y-132877213D01*
X149465099Y-132749031D01*
X149492287Y-132711610D01*
X149585220Y-132529219D01*
X149648477Y-132334534D01*
X149680500Y-132132352D01*
X149680500Y-131927648D01*
X149648477Y-131725466D01*
X149585220Y-131530781D01*
X149585218Y-131530778D01*
X149585218Y-131530776D01*
X149537366Y-131436862D01*
X149492287Y-131348390D01*
X149484556Y-131337749D01*
X149371971Y-131182786D01*
X149227213Y-131038028D01*
X149061614Y-130917715D01*
X149055006Y-130914348D01*
X148968917Y-130870483D01*
X148918123Y-130822511D01*
X148901328Y-130754690D01*
X148923865Y-130688555D01*
X148968917Y-130649516D01*
X149061610Y-130602287D01*
X149086766Y-130584010D01*
X149227213Y-130481971D01*
X149227215Y-130481968D01*
X149227219Y-130481966D01*
X149371966Y-130337219D01*
X149371968Y-130337215D01*
X149371971Y-130337213D01*
X149432574Y-130253799D01*
X149492287Y-130171610D01*
X149585220Y-129989219D01*
X149648477Y-129794534D01*
X149680500Y-129592352D01*
X149680500Y-129387648D01*
X149656085Y-129233501D01*
X149648477Y-129185465D01*
X149593150Y-129015187D01*
X149585220Y-128990781D01*
X149585218Y-128990778D01*
X149585218Y-128990776D01*
X149551503Y-128924607D01*
X149492287Y-128808390D01*
X149484556Y-128797749D01*
X149371971Y-128642786D01*
X149227213Y-128498028D01*
X149061614Y-128377715D01*
X149055006Y-128374348D01*
X148968917Y-128330483D01*
X148918123Y-128282511D01*
X148901328Y-128214690D01*
X148923865Y-128148555D01*
X148968917Y-128109516D01*
X149061610Y-128062287D01*
X149187535Y-127970798D01*
X149227213Y-127941971D01*
X149227215Y-127941968D01*
X149227219Y-127941966D01*
X149371966Y-127797219D01*
X149371968Y-127797215D01*
X149371971Y-127797213D01*
X149424732Y-127724590D01*
X149492287Y-127631610D01*
X149585220Y-127449219D01*
X149648477Y-127254534D01*
X149680500Y-127052352D01*
X149680500Y-126847648D01*
X149648477Y-126645466D01*
X149635460Y-126605405D01*
X149585218Y-126450776D01*
X149546717Y-126375214D01*
X149492287Y-126268390D01*
X149421155Y-126170484D01*
X149371971Y-126102786D01*
X149227213Y-125958028D01*
X149061611Y-125837713D01*
X148968369Y-125790203D01*
X148917574Y-125742229D01*
X148900779Y-125674407D01*
X148923317Y-125608273D01*
X148968371Y-125569234D01*
X149061346Y-125521861D01*
X149061347Y-125521861D01*
X149105921Y-125489474D01*
X148426447Y-124810000D01*
X148432661Y-124810000D01*
X148534394Y-124782741D01*
X148625606Y-124730080D01*
X148700080Y-124655606D01*
X148752741Y-124564394D01*
X148780000Y-124462661D01*
X148780000Y-124456448D01*
X149459474Y-125135922D01*
G37*
%TD.AperFunction*%
%TA.AperFunction,Conductor*%
G36*
X149780211Y-122227476D02*
G01*
X149831687Y-122274720D01*
X149849500Y-122338753D01*
X149849500Y-123942862D01*
X149829815Y-124009901D01*
X149777011Y-124055656D01*
X149707853Y-124065600D01*
X149644297Y-124036575D01*
X149607569Y-123981181D01*
X149584755Y-123910968D01*
X149491859Y-123728650D01*
X149459474Y-123684077D01*
X149459474Y-123684076D01*
X148780000Y-124363551D01*
X148780000Y-124357339D01*
X148752741Y-124255606D01*
X148700080Y-124164394D01*
X148625606Y-124089920D01*
X148534394Y-124037259D01*
X148432661Y-124010000D01*
X148426446Y-124010000D01*
X149105922Y-123330524D01*
X149105921Y-123330523D01*
X149061359Y-123298147D01*
X149061350Y-123298141D01*
X148968369Y-123250765D01*
X148917573Y-123202790D01*
X148900778Y-123134969D01*
X148923315Y-123068835D01*
X148968370Y-123029795D01*
X148970439Y-123028741D01*
X149061610Y-122982287D01*
X149111144Y-122946298D01*
X149227213Y-122861971D01*
X149227215Y-122861968D01*
X149227219Y-122861966D01*
X149371966Y-122717219D01*
X149371968Y-122717215D01*
X149371971Y-122717213D01*
X149441998Y-122620827D01*
X149492287Y-122551610D01*
X149585220Y-122369219D01*
X149607569Y-122300434D01*
X149647007Y-122242759D01*
X149711365Y-122215561D01*
X149780211Y-122227476D01*
G37*
%TD.AperFunction*%
%TA.AperFunction,Conductor*%
G36*
X150756760Y-108690185D02*
G01*
X150802515Y-108742989D01*
X150812459Y-108812147D01*
X150804283Y-108841950D01*
X150801966Y-108847542D01*
X150801963Y-108847554D01*
X150771202Y-109002197D01*
X150771202Y-109159890D01*
X150801963Y-109314533D01*
X150801966Y-109314545D01*
X150862304Y-109460216D01*
X150862308Y-109460223D01*
X150900304Y-109517088D01*
X150921182Y-109583765D01*
X150921202Y-109585979D01*
X150921202Y-109885772D01*
X150941877Y-109989706D01*
X150941877Y-109989708D01*
X150946199Y-110011438D01*
X150946203Y-110011451D01*
X150995234Y-110129825D01*
X150995237Y-110129829D01*
X151062344Y-110230264D01*
X151066428Y-110236375D01*
X151066429Y-110236376D01*
X154692862Y-113862808D01*
X154726347Y-113924131D01*
X154727654Y-113969886D01*
X154699500Y-114147647D01*
X154699500Y-114352351D01*
X154731522Y-114554534D01*
X154794781Y-114749223D01*
X154843946Y-114845713D01*
X154882387Y-114921158D01*
X154887715Y-114931613D01*
X155008028Y-115097213D01*
X155152786Y-115241971D01*
X155307749Y-115354556D01*
X155318390Y-115362287D01*
X155409840Y-115408883D01*
X155411080Y-115409515D01*
X155461876Y-115457490D01*
X155478671Y-115525311D01*
X155456134Y-115591446D01*
X155411080Y-115630485D01*
X155318386Y-115677715D01*
X155152786Y-115798028D01*
X155008034Y-115942780D01*
X154971899Y-115992517D01*
X154902246Y-116088386D01*
X154846918Y-116131051D01*
X154801929Y-116139500D01*
X154410805Y-116139500D01*
X154343766Y-116119815D01*
X154323124Y-116103181D01*
X153117012Y-114897069D01*
X153083527Y-114835746D01*
X153083090Y-114833652D01*
X153069734Y-114766503D01*
X153035376Y-114683554D01*
X153009394Y-114620827D01*
X153009387Y-114620814D01*
X152921786Y-114489711D01*
X152921783Y-114489707D01*
X152810289Y-114378213D01*
X152810285Y-114378210D01*
X152679182Y-114290609D01*
X152679169Y-114290602D01*
X152533498Y-114230264D01*
X152533486Y-114230261D01*
X152378842Y-114199500D01*
X152378839Y-114199500D01*
X152221155Y-114199500D01*
X152221152Y-114199500D01*
X152066507Y-114230261D01*
X152066495Y-114230264D01*
X151920824Y-114290602D01*
X151920811Y-114290609D01*
X151789708Y-114378210D01*
X151789704Y-114378213D01*
X151678210Y-114489707D01*
X151678207Y-114489711D01*
X151590606Y-114620814D01*
X151590599Y-114620827D01*
X151530261Y-114766498D01*
X151530258Y-114766510D01*
X151499497Y-114921153D01*
X151499497Y-115078846D01*
X151530258Y-115233489D01*
X151530261Y-115233501D01*
X151590599Y-115379172D01*
X151590606Y-115379185D01*
X151678207Y-115510288D01*
X151678210Y-115510292D01*
X151789704Y-115621786D01*
X151789708Y-115621789D01*
X151920811Y-115709390D01*
X151920818Y-115709394D01*
X152044054Y-115760439D01*
X152098455Y-115804278D01*
X152120521Y-115870572D01*
X152103243Y-115938271D01*
X152052106Y-115985882D01*
X152044053Y-115989560D01*
X151920821Y-116040604D01*
X151920811Y-116040609D01*
X151789708Y-116128210D01*
X151789704Y-116128213D01*
X151678210Y-116239707D01*
X151678207Y-116239711D01*
X151590606Y-116370814D01*
X151590599Y-116370827D01*
X151530261Y-116516498D01*
X151530258Y-116516510D01*
X151499497Y-116671153D01*
X151499497Y-116828846D01*
X151530258Y-116983489D01*
X151530261Y-116983501D01*
X151590599Y-117129172D01*
X151590606Y-117129185D01*
X151678207Y-117260288D01*
X151678210Y-117260292D01*
X151789704Y-117371786D01*
X151789708Y-117371789D01*
X151920811Y-117459390D01*
X151920824Y-117459397D01*
X151994010Y-117489711D01*
X152066500Y-117519737D01*
X152133577Y-117533079D01*
X152195485Y-117565461D01*
X152197065Y-117567014D01*
X154465322Y-119835272D01*
X154465325Y-119835275D01*
X154568225Y-119904030D01*
X154568770Y-119904394D01*
X154571870Y-119906465D01*
X154690253Y-119955501D01*
X154690257Y-119955501D01*
X154690258Y-119955502D01*
X154821903Y-119981689D01*
X154821539Y-119983517D01*
X154878251Y-120006411D01*
X154901637Y-120030776D01*
X155008028Y-120177213D01*
X155152786Y-120321971D01*
X155318385Y-120442284D01*
X155318387Y-120442285D01*
X155318390Y-120442287D01*
X155411080Y-120489515D01*
X155411630Y-120489795D01*
X155462426Y-120537770D01*
X155479221Y-120605591D01*
X155456684Y-120671725D01*
X155411630Y-120710765D01*
X155318644Y-120758143D01*
X155274077Y-120790523D01*
X155274077Y-120790524D01*
X155953554Y-121470000D01*
X155947339Y-121470000D01*
X155845606Y-121497259D01*
X155754394Y-121549920D01*
X155679920Y-121624394D01*
X155627259Y-121715606D01*
X155600000Y-121817339D01*
X155600000Y-121823553D01*
X154920524Y-121144077D01*
X154920523Y-121144077D01*
X154888143Y-121188644D01*
X154795244Y-121370968D01*
X154732009Y-121565582D01*
X154700000Y-121767682D01*
X154700000Y-121972317D01*
X154732009Y-122174417D01*
X154795244Y-122369031D01*
X154888142Y-122551352D01*
X154996555Y-122700570D01*
X155020035Y-122766376D01*
X155004210Y-122834430D01*
X154954104Y-122883125D01*
X154885626Y-122897000D01*
X154848785Y-122888016D01*
X154733501Y-122840264D01*
X154733491Y-122840261D01*
X154598844Y-122813478D01*
X154536933Y-122781093D01*
X154508475Y-122739313D01*
X154459397Y-122620827D01*
X154459390Y-122620814D01*
X154371789Y-122489711D01*
X154371786Y-122489707D01*
X154260292Y-122378213D01*
X154260288Y-122378210D01*
X154129185Y-122290609D01*
X154129172Y-122290602D01*
X153983501Y-122230264D01*
X153983489Y-122230261D01*
X153828845Y-122199500D01*
X153828842Y-122199500D01*
X153671158Y-122199500D01*
X153671155Y-122199500D01*
X153516510Y-122230261D01*
X153516498Y-122230264D01*
X153397450Y-122279575D01*
X153327980Y-122287044D01*
X153302546Y-122279575D01*
X153183498Y-122230264D01*
X153183486Y-122230261D01*
X153028842Y-122199500D01*
X153028839Y-122199500D01*
X152871155Y-122199500D01*
X152871152Y-122199500D01*
X152716507Y-122230261D01*
X152716495Y-122230264D01*
X152570825Y-122290602D01*
X152570814Y-122290608D01*
X152559833Y-122297946D01*
X152493155Y-122318823D01*
X152425775Y-122300338D01*
X152387841Y-122263734D01*
X152371789Y-122239711D01*
X152371786Y-122239707D01*
X152260292Y-122128213D01*
X152260288Y-122128210D01*
X152129185Y-122040609D01*
X152129172Y-122040602D01*
X151983501Y-121980264D01*
X151983489Y-121980261D01*
X151828845Y-121949500D01*
X151828842Y-121949500D01*
X151671158Y-121949500D01*
X151671155Y-121949500D01*
X151516510Y-121980261D01*
X151516498Y-121980264D01*
X151370827Y-122040602D01*
X151370816Y-122040608D01*
X151343390Y-122058934D01*
X151276712Y-122079811D01*
X151209332Y-122061326D01*
X151162643Y-122009346D01*
X151150500Y-121955831D01*
X151150500Y-118504935D01*
X151170185Y-118437896D01*
X151171366Y-118436090D01*
X151209394Y-118379179D01*
X151269737Y-118233497D01*
X151300500Y-118078842D01*
X151300500Y-117921158D01*
X151300500Y-117921155D01*
X151300499Y-117921153D01*
X151275905Y-117797513D01*
X151269737Y-117766503D01*
X151222384Y-117652181D01*
X151209397Y-117620827D01*
X151209390Y-117620814D01*
X151121789Y-117489711D01*
X151121786Y-117489707D01*
X151010292Y-117378213D01*
X151010288Y-117378210D01*
X150879185Y-117290609D01*
X150879172Y-117290602D01*
X150733501Y-117230264D01*
X150733489Y-117230261D01*
X150578845Y-117199500D01*
X150578842Y-117199500D01*
X150421158Y-117199500D01*
X150421155Y-117199500D01*
X150266510Y-117230261D01*
X150266498Y-117230264D01*
X150120827Y-117290602D01*
X150120814Y-117290609D01*
X149989711Y-117378210D01*
X149989707Y-117378213D01*
X149878213Y-117489707D01*
X149878210Y-117489711D01*
X149790609Y-117620814D01*
X149790602Y-117620827D01*
X149730264Y-117766498D01*
X149730261Y-117766510D01*
X149699500Y-117921153D01*
X149699500Y-118078846D01*
X149730261Y-118233489D01*
X149730264Y-118233501D01*
X149790602Y-118379172D01*
X149790606Y-118379179D01*
X149828602Y-118436044D01*
X149849480Y-118502721D01*
X149849500Y-118504935D01*
X149849500Y-118861246D01*
X149829815Y-118928285D01*
X149777011Y-118974040D01*
X149707853Y-118983984D01*
X149644297Y-118954959D01*
X149607569Y-118899565D01*
X149601429Y-118880668D01*
X149585220Y-118830781D01*
X149585218Y-118830778D01*
X149585218Y-118830776D01*
X149521136Y-118705010D01*
X149492287Y-118648390D01*
X149484556Y-118637749D01*
X149371971Y-118482786D01*
X149227213Y-118338028D01*
X149061614Y-118217715D01*
X149007436Y-118190110D01*
X148968917Y-118170483D01*
X148918123Y-118122511D01*
X148901328Y-118054690D01*
X148923865Y-117988555D01*
X148968917Y-117949516D01*
X149061610Y-117902287D01*
X149171554Y-117822409D01*
X149227213Y-117781971D01*
X149227215Y-117781968D01*
X149227219Y-117781966D01*
X149371966Y-117637219D01*
X149371968Y-117637215D01*
X149371971Y-117637213D01*
X149447629Y-117533077D01*
X149492287Y-117471610D01*
X149585220Y-117289219D01*
X149648477Y-117094534D01*
X149680500Y-116892352D01*
X149680500Y-116687648D01*
X149669916Y-116620827D01*
X149648477Y-116485465D01*
X149613628Y-116378211D01*
X149585220Y-116290781D01*
X149585218Y-116290778D01*
X149585218Y-116290776D01*
X149540231Y-116202485D01*
X149492287Y-116108390D01*
X149451416Y-116052135D01*
X149371971Y-115942786D01*
X149227213Y-115798028D01*
X149061614Y-115677715D01*
X149019392Y-115656202D01*
X148968917Y-115630483D01*
X148918123Y-115582511D01*
X148901328Y-115514690D01*
X148923865Y-115448555D01*
X148968917Y-115409516D01*
X149061610Y-115362287D01*
X149082770Y-115346913D01*
X149227213Y-115241971D01*
X149227215Y-115241968D01*
X149227219Y-115241966D01*
X149371966Y-115097219D01*
X149371968Y-115097215D01*
X149371971Y-115097213D01*
X149435124Y-115010289D01*
X149492287Y-114931610D01*
X149585220Y-114749219D01*
X149648477Y-114554534D01*
X149680500Y-114352352D01*
X149680500Y-114147648D01*
X149648477Y-113945466D01*
X149585220Y-113750781D01*
X149585218Y-113750778D01*
X149585218Y-113750776D01*
X149551503Y-113684607D01*
X149492287Y-113568390D01*
X149484556Y-113557749D01*
X149371971Y-113402786D01*
X149227213Y-113258028D01*
X149061614Y-113137715D01*
X149001815Y-113107246D01*
X148968917Y-113090483D01*
X148918123Y-113042511D01*
X148901328Y-112974690D01*
X148923865Y-112908555D01*
X148968917Y-112869516D01*
X149061610Y-112822287D01*
X149082770Y-112806913D01*
X149227213Y-112701971D01*
X149227215Y-112701968D01*
X149227219Y-112701966D01*
X149371966Y-112557219D01*
X149371968Y-112557215D01*
X149371971Y-112557213D01*
X149424732Y-112484590D01*
X149492287Y-112391610D01*
X149585220Y-112209219D01*
X149648477Y-112014534D01*
X149680500Y-111812352D01*
X149680500Y-111607648D01*
X149665080Y-111510289D01*
X149648477Y-111405465D01*
X149585218Y-111210776D01*
X149519696Y-111082184D01*
X149492287Y-111028390D01*
X149484556Y-111017749D01*
X149371971Y-110862786D01*
X149227213Y-110718028D01*
X149061614Y-110597715D01*
X149031776Y-110582512D01*
X148968917Y-110550483D01*
X148918123Y-110502511D01*
X148901328Y-110434690D01*
X148923865Y-110368555D01*
X148968917Y-110329516D01*
X149061610Y-110282287D01*
X149124803Y-110236375D01*
X149227213Y-110161971D01*
X149227215Y-110161968D01*
X149227219Y-110161966D01*
X149371966Y-110017219D01*
X149371968Y-110017215D01*
X149371971Y-110017213D01*
X149467467Y-109885772D01*
X149492287Y-109851610D01*
X149585220Y-109669219D01*
X149648477Y-109474534D01*
X149680500Y-109272352D01*
X149680500Y-109067648D01*
X149648477Y-108865466D01*
X149648475Y-108865462D01*
X149648475Y-108865457D01*
X149637870Y-108832817D01*
X149635875Y-108762976D01*
X149671956Y-108703143D01*
X149734657Y-108672316D01*
X149755801Y-108670500D01*
X150689721Y-108670500D01*
X150756760Y-108690185D01*
G37*
%TD.AperFunction*%
%TA.AperFunction,Conductor*%
G36*
X163566444Y-104653999D02*
G01*
X163605486Y-104699056D01*
X163609951Y-104707820D01*
X163734890Y-104879786D01*
X163885213Y-105030109D01*
X164057179Y-105155048D01*
X164057181Y-105155049D01*
X164057184Y-105155051D01*
X164066493Y-105159794D01*
X164117290Y-105207766D01*
X164134087Y-105275587D01*
X164111552Y-105341722D01*
X164066505Y-105380760D01*
X164057446Y-105385376D01*
X164057440Y-105385380D01*
X164003282Y-105424727D01*
X164003282Y-105424728D01*
X164635591Y-106057037D01*
X164572007Y-106074075D01*
X164457993Y-106139901D01*
X164364901Y-106232993D01*
X164299075Y-106347007D01*
X164282037Y-106410591D01*
X163649728Y-105778282D01*
X163649727Y-105778282D01*
X163610380Y-105832440D01*
X163610376Y-105832446D01*
X163605760Y-105841505D01*
X163557781Y-105892297D01*
X163489959Y-105909087D01*
X163423826Y-105886543D01*
X163384794Y-105841493D01*
X163380051Y-105832184D01*
X163380049Y-105832181D01*
X163380048Y-105832179D01*
X163255109Y-105660213D01*
X163104786Y-105509890D01*
X162932820Y-105384951D01*
X162924600Y-105380763D01*
X162924054Y-105380485D01*
X162873259Y-105332512D01*
X162856463Y-105264692D01*
X162878999Y-105198556D01*
X162924054Y-105159515D01*
X162932816Y-105155051D01*
X163025665Y-105087593D01*
X163104786Y-105030109D01*
X163104788Y-105030106D01*
X163104792Y-105030104D01*
X163255104Y-104879792D01*
X163255106Y-104879788D01*
X163255109Y-104879786D01*
X163380048Y-104707820D01*
X163380047Y-104707820D01*
X163380051Y-104707816D01*
X163384514Y-104699054D01*
X163432488Y-104648259D01*
X163500308Y-104631463D01*
X163566444Y-104653999D01*
G37*
%TD.AperFunction*%
%TA.AperFunction,Conductor*%
G36*
X126812104Y-116420185D02*
G01*
X126813909Y-116421366D01*
X126870821Y-116459394D01*
X126870823Y-116459395D01*
X126870827Y-116459397D01*
X127008683Y-116516498D01*
X127016503Y-116519737D01*
X127168644Y-116550000D01*
X127171153Y-116550499D01*
X127171156Y-116550500D01*
X127325500Y-116550500D01*
X127392539Y-116570185D01*
X127438294Y-116622989D01*
X127449500Y-116674500D01*
X127449500Y-120053029D01*
X127429815Y-120120068D01*
X127377011Y-120165823D01*
X127307853Y-120175767D01*
X127301310Y-120174647D01*
X127203842Y-120155260D01*
X127046158Y-120155260D01*
X127046155Y-120155260D01*
X126891510Y-120186021D01*
X126891498Y-120186024D01*
X126745827Y-120246362D01*
X126745814Y-120246369D01*
X126614711Y-120333970D01*
X126614707Y-120333973D01*
X126503213Y-120445467D01*
X126503210Y-120445471D01*
X126415609Y-120576574D01*
X126415602Y-120576587D01*
X126355264Y-120722258D01*
X126355261Y-120722270D01*
X126324500Y-120876913D01*
X126324500Y-120997085D01*
X126304815Y-121064124D01*
X126288185Y-121084761D01*
X126228871Y-121144076D01*
X126176357Y-121196590D01*
X126115034Y-121230074D01*
X126045342Y-121225090D01*
X125989409Y-121183218D01*
X125974115Y-121156360D01*
X125959397Y-121120827D01*
X125959390Y-121120814D01*
X125871789Y-120989711D01*
X125871786Y-120989707D01*
X125760292Y-120878213D01*
X125760288Y-120878210D01*
X125629185Y-120790609D01*
X125629172Y-120790602D01*
X125483501Y-120730264D01*
X125483489Y-120730261D01*
X125328845Y-120699500D01*
X125328842Y-120699500D01*
X125171158Y-120699500D01*
X125171157Y-120699500D01*
X125165095Y-120700097D01*
X125164898Y-120698100D01*
X125104477Y-120692692D01*
X125049301Y-120649828D01*
X125026058Y-120583937D01*
X125025880Y-120577303D01*
X125025880Y-117105377D01*
X125045565Y-117038338D01*
X125062199Y-117017696D01*
X125643076Y-116436819D01*
X125704399Y-116403334D01*
X125730757Y-116400500D01*
X126745065Y-116400500D01*
X126812104Y-116420185D01*
G37*
%TD.AperFunction*%
%TA.AperFunction,Conductor*%
G36*
X183751378Y-91499473D02*
G01*
X183818335Y-91519435D01*
X183835945Y-91533266D01*
X195771435Y-102790602D01*
X205425655Y-111896287D01*
X205460581Y-111929228D01*
X205495844Y-111989546D01*
X205499500Y-112019434D01*
X205499500Y-143161324D01*
X205479815Y-143228363D01*
X205463181Y-143249005D01*
X200749005Y-147963181D01*
X200687682Y-147996666D01*
X200661324Y-147999500D01*
X123963676Y-147999500D01*
X123896637Y-147979815D01*
X123875995Y-147963181D01*
X119161819Y-143249005D01*
X119147115Y-143222077D01*
X119130523Y-143196259D01*
X119129631Y-143190058D01*
X119128334Y-143187682D01*
X119125500Y-143161324D01*
X119125500Y-143102135D01*
X125109500Y-143102135D01*
X125109500Y-144897870D01*
X125109501Y-144897876D01*
X125115908Y-144957483D01*
X125166202Y-145092328D01*
X125166206Y-145092335D01*
X125252452Y-145207544D01*
X125252455Y-145207547D01*
X125367664Y-145293793D01*
X125367671Y-145293797D01*
X125502517Y-145344091D01*
X125502516Y-145344091D01*
X125509444Y-145344835D01*
X125562127Y-145350500D01*
X127357872Y-145350499D01*
X127417483Y-145344091D01*
X127552331Y-145293796D01*
X127667546Y-145207546D01*
X127753796Y-145092331D01*
X127802810Y-144960916D01*
X127844681Y-144904984D01*
X127910145Y-144880566D01*
X127978418Y-144895417D01*
X128006673Y-144916569D01*
X128120213Y-145030109D01*
X128292179Y-145155048D01*
X128292181Y-145155049D01*
X128292184Y-145155051D01*
X128481588Y-145251557D01*
X128683757Y-145317246D01*
X128893713Y-145350500D01*
X128893714Y-145350500D01*
X129106286Y-145350500D01*
X129106287Y-145350500D01*
X129316243Y-145317246D01*
X129518412Y-145251557D01*
X129707816Y-145155051D01*
X129794138Y-145092335D01*
X129879786Y-145030109D01*
X129879788Y-145030106D01*
X129879792Y-145030104D01*
X130030104Y-144879792D01*
X130030106Y-144879788D01*
X130030109Y-144879786D01*
X130155048Y-144707820D01*
X130155047Y-144707820D01*
X130155051Y-144707816D01*
X130159514Y-144699054D01*
X130207488Y-144648259D01*
X130275308Y-144631463D01*
X130341444Y-144653999D01*
X130380486Y-144699056D01*
X130384951Y-144707820D01*
X130509890Y-144879786D01*
X130660213Y-145030109D01*
X130832179Y-145155048D01*
X130832181Y-145155049D01*
X130832184Y-145155051D01*
X131021588Y-145251557D01*
X131223757Y-145317246D01*
X131433713Y-145350500D01*
X131433714Y-145350500D01*
X131646286Y-145350500D01*
X131646287Y-145350500D01*
X131856243Y-145317246D01*
X132058412Y-145251557D01*
X132247816Y-145155051D01*
X132334138Y-145092335D01*
X132419786Y-145030109D01*
X132419788Y-145030106D01*
X132419792Y-145030104D01*
X132570104Y-144879792D01*
X132570106Y-144879788D01*
X132570109Y-144879786D01*
X132695048Y-144707820D01*
X132695047Y-144707820D01*
X132695051Y-144707816D01*
X132699514Y-144699054D01*
X132747488Y-144648259D01*
X132815308Y-144631463D01*
X132881444Y-144653999D01*
X132920486Y-144699056D01*
X132924951Y-144707820D01*
X133049890Y-144879786D01*
X133200213Y-145030109D01*
X133372179Y-145155048D01*
X133372181Y-145155049D01*
X133372184Y-145155051D01*
X133561588Y-145251557D01*
X133763757Y-145317246D01*
X133973713Y-145350500D01*
X133973714Y-145350500D01*
X134186286Y-145350500D01*
X134186287Y-145350500D01*
X134396243Y-145317246D01*
X134598412Y-145251557D01*
X134787816Y-145155051D01*
X134874138Y-145092335D01*
X134959786Y-145030109D01*
X134959788Y-145030106D01*
X134959792Y-145030104D01*
X135110104Y-144879792D01*
X135110106Y-144879788D01*
X135110109Y-144879786D01*
X135235048Y-144707820D01*
X135235047Y-144707820D01*
X135235051Y-144707816D01*
X135331557Y-144518412D01*
X135397246Y-144316243D01*
X135430500Y-144106287D01*
X135430500Y-143893713D01*
X135397246Y-143683757D01*
X135331557Y-143481588D01*
X135235051Y-143292184D01*
X135235049Y-143292181D01*
X135235048Y-143292179D01*
X135110109Y-143120213D01*
X134959786Y-142969890D01*
X134787820Y-142844951D01*
X134598414Y-142748444D01*
X134598413Y-142748443D01*
X134598412Y-142748443D01*
X134396243Y-142682754D01*
X134396241Y-142682753D01*
X134396240Y-142682753D01*
X134234957Y-142657208D01*
X134186287Y-142649500D01*
X133973713Y-142649500D01*
X133925042Y-142657208D01*
X133763760Y-142682753D01*
X133561585Y-142748444D01*
X133372179Y-142844951D01*
X133200213Y-142969890D01*
X133049890Y-143120213D01*
X132924949Y-143292182D01*
X132920484Y-143300946D01*
X132872509Y-143351742D01*
X132804688Y-143368536D01*
X132738553Y-143345998D01*
X132699516Y-143300946D01*
X132695050Y-143292182D01*
X132570109Y-143120213D01*
X132419786Y-142969890D01*
X132247820Y-142844951D01*
X132058414Y-142748444D01*
X132058413Y-142748443D01*
X132058412Y-142748443D01*
X131856243Y-142682754D01*
X131856241Y-142682753D01*
X131856240Y-142682753D01*
X131694957Y-142657208D01*
X131646287Y-142649500D01*
X131433713Y-142649500D01*
X131385042Y-142657208D01*
X131223760Y-142682753D01*
X131021585Y-142748444D01*
X130832179Y-142844951D01*
X130660213Y-142969890D01*
X130509890Y-143120213D01*
X130384949Y-143292182D01*
X130380484Y-143300946D01*
X130332509Y-143351742D01*
X130264688Y-143368536D01*
X130198553Y-143345998D01*
X130159516Y-143300946D01*
X130155050Y-143292182D01*
X130030109Y-143120213D01*
X129879786Y-142969890D01*
X129707820Y-142844951D01*
X129518414Y-142748444D01*
X129518413Y-142748443D01*
X129518412Y-142748443D01*
X129316243Y-142682754D01*
X129316241Y-142682753D01*
X129316240Y-142682753D01*
X129154957Y-142657208D01*
X129106287Y-142649500D01*
X128893713Y-142649500D01*
X128845042Y-142657208D01*
X128683760Y-142682753D01*
X128481585Y-142748444D01*
X128292179Y-142844951D01*
X128120215Y-142969889D01*
X128006673Y-143083431D01*
X127945350Y-143116915D01*
X127875658Y-143111931D01*
X127819725Y-143070059D01*
X127802810Y-143039082D01*
X127753797Y-142907671D01*
X127753793Y-142907664D01*
X127667547Y-142792455D01*
X127667544Y-142792452D01*
X127552335Y-142706206D01*
X127552328Y-142706202D01*
X127417482Y-142655908D01*
X127417483Y-142655908D01*
X127357883Y-142649501D01*
X127357881Y-142649500D01*
X127357873Y-142649500D01*
X127357864Y-142649500D01*
X125562129Y-142649500D01*
X125562123Y-142649501D01*
X125502516Y-142655908D01*
X125367671Y-142706202D01*
X125367664Y-142706206D01*
X125252455Y-142792452D01*
X125252452Y-142792455D01*
X125166206Y-142907664D01*
X125166202Y-142907671D01*
X125115908Y-143042517D01*
X125109501Y-143102116D01*
X125109500Y-143102135D01*
X119125500Y-143102135D01*
X119125500Y-141421153D01*
X136449500Y-141421153D01*
X136449500Y-141710217D01*
X136480261Y-141864860D01*
X136480264Y-141864872D01*
X136540602Y-142010543D01*
X136540609Y-142010556D01*
X136628210Y-142141659D01*
X136628213Y-142141663D01*
X139158336Y-144671786D01*
X139158340Y-144671789D01*
X139289443Y-144759390D01*
X139289456Y-144759397D01*
X139435127Y-144819735D01*
X139435132Y-144819737D01*
X139589782Y-144850499D01*
X139589785Y-144850500D01*
X139589787Y-144850500D01*
X170528844Y-144850500D01*
X170528845Y-144850499D01*
X170683497Y-144819737D01*
X170829179Y-144759394D01*
X170960289Y-144671789D01*
X176121788Y-139510290D01*
X176121789Y-139510289D01*
X176209394Y-139379179D01*
X176212854Y-139370827D01*
X176269736Y-139233499D01*
X176269739Y-139233490D01*
X176286191Y-139150781D01*
X176290680Y-139128211D01*
X176300500Y-139078843D01*
X176300500Y-138921158D01*
X176300500Y-138921155D01*
X176300499Y-138921153D01*
X176269738Y-138766510D01*
X176269737Y-138766503D01*
X176238824Y-138691873D01*
X176232666Y-138677007D01*
X176209397Y-138620828D01*
X176209396Y-138620827D01*
X176209394Y-138620821D01*
X176164658Y-138553869D01*
X176121789Y-138489710D01*
X176010291Y-138378212D01*
X176010288Y-138378210D01*
X175879185Y-138290609D01*
X175879172Y-138290602D01*
X175733501Y-138230264D01*
X175733489Y-138230261D01*
X175578845Y-138199500D01*
X175578842Y-138199500D01*
X175421157Y-138199500D01*
X175421154Y-138199500D01*
X175266509Y-138230261D01*
X175266497Y-138230264D01*
X175223832Y-138247936D01*
X175223833Y-138247937D01*
X175120823Y-138290604D01*
X175120814Y-138290609D01*
X174989712Y-138378209D01*
X174989710Y-138378212D01*
X170154741Y-143213181D01*
X170093418Y-143246666D01*
X170067060Y-143249500D01*
X141219808Y-143249500D01*
X141152769Y-143229815D01*
X141107014Y-143177011D01*
X141097070Y-143107853D01*
X141126095Y-143044297D01*
X141132127Y-143037819D01*
X141960556Y-142209390D01*
X142748793Y-141421153D01*
X149449500Y-141421153D01*
X149449500Y-141578846D01*
X149480261Y-141733489D01*
X149480264Y-141733501D01*
X149540602Y-141879172D01*
X149540609Y-141879185D01*
X149628210Y-142010288D01*
X149628213Y-142010292D01*
X149739707Y-142121786D01*
X149739711Y-142121789D01*
X149870814Y-142209390D01*
X149870827Y-142209397D01*
X150016498Y-142269735D01*
X150016503Y-142269737D01*
X150171153Y-142300499D01*
X150171156Y-142300500D01*
X150171158Y-142300500D01*
X150328844Y-142300500D01*
X150328845Y-142300499D01*
X150483497Y-142269737D01*
X150629179Y-142209394D01*
X150760289Y-142121789D01*
X150871789Y-142010289D01*
X150959394Y-141879179D01*
X151019737Y-141733497D01*
X151033079Y-141666416D01*
X151065463Y-141604509D01*
X151066957Y-141602987D01*
X151637820Y-141032125D01*
X151699142Y-140998641D01*
X151768834Y-141003625D01*
X151824767Y-141045497D01*
X151849184Y-141110961D01*
X151849500Y-141119807D01*
X151849500Y-141238572D01*
X151829815Y-141305611D01*
X151794392Y-141341674D01*
X151739707Y-141378213D01*
X151628213Y-141489707D01*
X151628210Y-141489711D01*
X151540609Y-141620814D01*
X151540602Y-141620827D01*
X151480264Y-141766498D01*
X151480261Y-141766510D01*
X151449500Y-141921153D01*
X151449500Y-142078846D01*
X151480261Y-142233489D01*
X151480264Y-142233501D01*
X151540602Y-142379172D01*
X151540609Y-142379185D01*
X151628210Y-142510288D01*
X151628213Y-142510292D01*
X151739707Y-142621786D01*
X151739711Y-142621789D01*
X151870814Y-142709390D01*
X151870827Y-142709397D01*
X152016498Y-142769735D01*
X152016503Y-142769737D01*
X152171153Y-142800499D01*
X152171156Y-142800500D01*
X152171158Y-142800500D01*
X152328844Y-142800500D01*
X152328845Y-142800499D01*
X152483497Y-142769737D01*
X152629179Y-142709394D01*
X152760289Y-142621789D01*
X152871789Y-142510289D01*
X152959394Y-142379179D01*
X153019737Y-142233497D01*
X153040549Y-142128864D01*
X153059061Y-142084172D01*
X153076465Y-142058127D01*
X153125501Y-141939744D01*
X153140395Y-141864868D01*
X153150500Y-141814069D01*
X153150500Y-136504935D01*
X153170185Y-136437896D01*
X153171366Y-136436090D01*
X153209394Y-136379179D01*
X153269737Y-136233497D01*
X153300500Y-136078842D01*
X153300500Y-135921158D01*
X153300500Y-135921155D01*
X153300499Y-135921153D01*
X153285413Y-135845311D01*
X153269737Y-135766503D01*
X153209959Y-135622184D01*
X153209397Y-135620827D01*
X153209390Y-135620814D01*
X153121789Y-135489711D01*
X153121786Y-135489707D01*
X153010292Y-135378213D01*
X153010288Y-135378210D01*
X152879185Y-135290609D01*
X152879172Y-135290602D01*
X152733501Y-135230264D01*
X152733489Y-135230261D01*
X152578845Y-135199500D01*
X152578842Y-135199500D01*
X152421158Y-135199500D01*
X152421155Y-135199500D01*
X152266510Y-135230261D01*
X152266498Y-135230264D01*
X152120827Y-135290602D01*
X152120814Y-135290609D01*
X151989711Y-135378210D01*
X151989707Y-135378213D01*
X151878213Y-135489707D01*
X151878210Y-135489711D01*
X151790609Y-135620814D01*
X151790602Y-135620827D01*
X151730264Y-135766498D01*
X151730261Y-135766510D01*
X151699500Y-135921153D01*
X151699500Y-136075500D01*
X151679815Y-136142539D01*
X151627011Y-136188294D01*
X151575500Y-136199500D01*
X151421155Y-136199500D01*
X151266510Y-136230261D01*
X151266498Y-136230264D01*
X151120827Y-136290602D01*
X151120814Y-136290609D01*
X150989711Y-136378210D01*
X150989707Y-136378213D01*
X150878213Y-136489707D01*
X150878210Y-136489711D01*
X150790609Y-136620814D01*
X150790602Y-136620827D01*
X150730264Y-136766498D01*
X150730261Y-136766510D01*
X150699500Y-136921153D01*
X150699500Y-137078846D01*
X150730261Y-137233489D01*
X150730264Y-137233501D01*
X150790602Y-137379172D01*
X150790606Y-137379179D01*
X150828602Y-137436044D01*
X150849480Y-137502721D01*
X150849500Y-137504935D01*
X150849500Y-139929191D01*
X150829815Y-139996230D01*
X150813181Y-140016872D01*
X150147068Y-140682984D01*
X150085745Y-140716469D01*
X150083579Y-140716920D01*
X150016508Y-140730261D01*
X150016498Y-140730264D01*
X149870827Y-140790602D01*
X149870814Y-140790609D01*
X149739711Y-140878210D01*
X149739707Y-140878213D01*
X149628213Y-140989707D01*
X149628210Y-140989711D01*
X149540609Y-141120814D01*
X149540602Y-141120827D01*
X149480264Y-141266498D01*
X149480261Y-141266510D01*
X149449500Y-141421153D01*
X142748793Y-141421153D01*
X146890750Y-137279194D01*
X146952071Y-137245711D01*
X147021763Y-137250695D01*
X147077696Y-137292567D01*
X147100902Y-137347478D01*
X147111523Y-137414535D01*
X147174781Y-137609223D01*
X147267715Y-137791613D01*
X147388028Y-137957213D01*
X147532786Y-138101971D01*
X147616029Y-138162449D01*
X147698390Y-138222287D01*
X147789840Y-138268883D01*
X147791080Y-138269515D01*
X147841876Y-138317490D01*
X147858671Y-138385311D01*
X147836134Y-138451446D01*
X147791080Y-138490485D01*
X147698386Y-138537715D01*
X147532786Y-138658028D01*
X147388028Y-138802786D01*
X147267715Y-138968386D01*
X147174781Y-139150776D01*
X147111522Y-139345465D01*
X147079500Y-139547648D01*
X147079500Y-139752351D01*
X147111522Y-139954534D01*
X147174781Y-140149223D01*
X147267715Y-140331613D01*
X147388028Y-140497213D01*
X147532786Y-140641971D01*
X147681477Y-140749999D01*
X147698390Y-140762287D01*
X147812533Y-140820446D01*
X147880776Y-140855218D01*
X147880778Y-140855218D01*
X147880781Y-140855220D01*
X147985137Y-140889127D01*
X148075465Y-140918477D01*
X148108404Y-140923694D01*
X148277648Y-140950500D01*
X148277649Y-140950500D01*
X148482351Y-140950500D01*
X148482352Y-140950500D01*
X148684534Y-140918477D01*
X148879219Y-140855220D01*
X149061610Y-140762287D01*
X149170762Y-140682984D01*
X149227213Y-140641971D01*
X149227215Y-140641968D01*
X149227219Y-140641966D01*
X149371966Y-140497219D01*
X149371968Y-140497215D01*
X149371971Y-140497213D01*
X149463095Y-140371789D01*
X149492287Y-140331610D01*
X149585220Y-140149219D01*
X149648477Y-139954534D01*
X149680500Y-139752352D01*
X149680500Y-139547648D01*
X149665440Y-139452567D01*
X149648477Y-139345465D01*
X149608865Y-139223554D01*
X149585220Y-139150781D01*
X149585218Y-139150778D01*
X149585218Y-139150776D01*
X149529081Y-139040602D01*
X149492287Y-138968390D01*
X149466563Y-138932984D01*
X149371971Y-138802786D01*
X149227213Y-138658028D01*
X149061614Y-138537715D01*
X149019871Y-138516446D01*
X148968917Y-138490483D01*
X148918123Y-138442511D01*
X148901328Y-138374690D01*
X148923865Y-138308555D01*
X148968917Y-138269516D01*
X149061610Y-138222287D01*
X149143971Y-138162449D01*
X149227213Y-138101971D01*
X149227215Y-138101968D01*
X149227219Y-138101966D01*
X149371966Y-137957219D01*
X149371968Y-137957215D01*
X149371971Y-137957213D01*
X149424732Y-137884590D01*
X149492287Y-137791610D01*
X149585220Y-137609219D01*
X149648477Y-137414534D01*
X149680500Y-137212352D01*
X149680500Y-137007648D01*
X149666800Y-136921153D01*
X149648477Y-136805465D01*
X149585218Y-136610776D01*
X149551503Y-136544607D01*
X149492287Y-136428390D01*
X149375952Y-136268267D01*
X149352472Y-136202461D01*
X149368298Y-136134407D01*
X149388585Y-136107705D01*
X152255277Y-133241015D01*
X152326465Y-133134473D01*
X152361233Y-133050536D01*
X152375501Y-133016090D01*
X152392356Y-132931359D01*
X152400500Y-132890417D01*
X152400500Y-130119809D01*
X152420185Y-130052770D01*
X152472989Y-130007015D01*
X152542147Y-129997071D01*
X152605703Y-130026096D01*
X152612181Y-130032128D01*
X153852003Y-131271950D01*
X153852006Y-131271952D01*
X153852008Y-131271954D01*
X153958550Y-131343142D01*
X154076933Y-131392178D01*
X154076937Y-131392178D01*
X154076938Y-131392179D01*
X154202605Y-131417177D01*
X154202608Y-131417177D01*
X154661021Y-131417177D01*
X154728060Y-131436862D01*
X154773815Y-131489666D01*
X154783759Y-131558824D01*
X154778952Y-131579496D01*
X154731522Y-131725465D01*
X154699500Y-131927648D01*
X154699500Y-132132351D01*
X154731522Y-132334534D01*
X154794781Y-132529223D01*
X154856321Y-132650000D01*
X154886890Y-132709995D01*
X154887715Y-132711613D01*
X155008028Y-132877213D01*
X155152786Y-133021971D01*
X155307632Y-133134471D01*
X155318390Y-133142287D01*
X155409840Y-133188883D01*
X155411080Y-133189515D01*
X155461876Y-133237490D01*
X155478671Y-133305311D01*
X155456134Y-133371446D01*
X155411080Y-133410485D01*
X155318386Y-133457715D01*
X155152786Y-133578028D01*
X155008028Y-133722786D01*
X154887715Y-133888386D01*
X154794781Y-134070776D01*
X154731522Y-134265465D01*
X154699500Y-134467648D01*
X154699500Y-134672351D01*
X154731522Y-134874534D01*
X154794781Y-135069223D01*
X154887715Y-135251613D01*
X155008028Y-135417213D01*
X155152786Y-135561971D01*
X155307749Y-135674556D01*
X155318390Y-135682287D01*
X155409840Y-135728883D01*
X155411080Y-135729515D01*
X155461876Y-135777490D01*
X155478671Y-135845311D01*
X155456134Y-135911446D01*
X155411080Y-135950485D01*
X155318386Y-135997715D01*
X155152786Y-136118028D01*
X155008028Y-136262786D01*
X154887715Y-136428386D01*
X154794781Y-136610776D01*
X154731522Y-136805465D01*
X154699500Y-137007648D01*
X154699500Y-137212351D01*
X154731522Y-137414534D01*
X154794781Y-137609223D01*
X154887715Y-137791613D01*
X155008028Y-137957213D01*
X155152786Y-138101971D01*
X155236029Y-138162449D01*
X155318390Y-138222287D01*
X155409840Y-138268883D01*
X155411080Y-138269515D01*
X155461876Y-138317490D01*
X155478671Y-138385311D01*
X155456134Y-138451446D01*
X155411080Y-138490485D01*
X155318386Y-138537715D01*
X155152786Y-138658028D01*
X155008028Y-138802786D01*
X154887715Y-138968386D01*
X154794781Y-139150776D01*
X154731522Y-139345465D01*
X154699500Y-139547648D01*
X154699500Y-139752351D01*
X154731522Y-139954534D01*
X154794781Y-140149223D01*
X154887715Y-140331613D01*
X155008028Y-140497213D01*
X155152786Y-140641971D01*
X155301477Y-140749999D01*
X155318390Y-140762287D01*
X155432533Y-140820446D01*
X155500776Y-140855218D01*
X155500778Y-140855218D01*
X155500781Y-140855220D01*
X155605137Y-140889127D01*
X155695465Y-140918477D01*
X155728404Y-140923694D01*
X155897648Y-140950500D01*
X155897649Y-140950500D01*
X156102351Y-140950500D01*
X156102352Y-140950500D01*
X156304534Y-140918477D01*
X156499219Y-140855220D01*
X156681610Y-140762287D01*
X156790762Y-140682984D01*
X156847213Y-140641971D01*
X156847215Y-140641968D01*
X156847219Y-140641966D01*
X156991966Y-140497219D01*
X156991968Y-140497215D01*
X156991971Y-140497213D01*
X157083095Y-140371789D01*
X157112287Y-140331610D01*
X157205220Y-140149219D01*
X157268477Y-139954534D01*
X157292615Y-139802135D01*
X162829500Y-139802135D01*
X162829500Y-141697870D01*
X162829501Y-141697876D01*
X162835908Y-141757483D01*
X162886202Y-141892328D01*
X162886206Y-141892335D01*
X162972452Y-142007544D01*
X162972455Y-142007547D01*
X163087664Y-142093793D01*
X163087671Y-142093797D01*
X163222517Y-142144091D01*
X163222516Y-142144091D01*
X163229444Y-142144835D01*
X163282127Y-142150500D01*
X165177872Y-142150499D01*
X165237483Y-142144091D01*
X165372331Y-142093796D01*
X165487546Y-142007546D01*
X165573796Y-141892331D01*
X165584042Y-141864860D01*
X165604327Y-141810474D01*
X165609883Y-141795575D01*
X165624091Y-141757483D01*
X165630500Y-141697873D01*
X165630499Y-141587304D01*
X165650183Y-141520268D01*
X165666818Y-141499626D01*
X166327861Y-140838584D01*
X166350667Y-140923694D01*
X166409910Y-141026306D01*
X166493694Y-141110090D01*
X166596306Y-141169333D01*
X166681414Y-141192137D01*
X165972485Y-141901065D01*
X165972485Y-141901066D01*
X166036243Y-141947388D01*
X166232589Y-142047432D01*
X166442164Y-142115526D01*
X166659819Y-142150000D01*
X166880181Y-142150000D01*
X167097835Y-142115526D01*
X167307410Y-142047432D01*
X167503760Y-141947386D01*
X167567513Y-141901066D01*
X167567514Y-141901066D01*
X166858585Y-141192138D01*
X166943694Y-141169333D01*
X167046306Y-141110090D01*
X167130090Y-141026306D01*
X167189333Y-140923694D01*
X167212137Y-140838585D01*
X167921066Y-141547514D01*
X167921066Y-141547513D01*
X167967386Y-141483760D01*
X168067432Y-141287410D01*
X168135526Y-141077835D01*
X168170000Y-140860181D01*
X168170000Y-140639818D01*
X168135526Y-140422164D01*
X168067432Y-140212589D01*
X167967388Y-140016243D01*
X167921066Y-139952485D01*
X167921065Y-139952485D01*
X167212137Y-140661413D01*
X167189333Y-140576306D01*
X167130090Y-140473694D01*
X167046306Y-140389910D01*
X166943694Y-140330667D01*
X166858583Y-140307861D01*
X167567513Y-139598932D01*
X167503756Y-139552611D01*
X167307410Y-139452567D01*
X167097835Y-139384473D01*
X166880181Y-139350000D01*
X166659819Y-139350000D01*
X166442164Y-139384473D01*
X166232589Y-139452567D01*
X166036233Y-139552616D01*
X165972485Y-139598931D01*
X165972485Y-139598932D01*
X166681414Y-140307861D01*
X166596306Y-140330667D01*
X166493694Y-140389910D01*
X166409910Y-140473694D01*
X166350667Y-140576306D01*
X166327861Y-140661414D01*
X165666818Y-140000371D01*
X165633333Y-139939048D01*
X165630499Y-139912690D01*
X165630499Y-139802129D01*
X165630498Y-139802123D01*
X165630497Y-139802116D01*
X165624091Y-139742517D01*
X165597474Y-139671153D01*
X165573797Y-139607671D01*
X165573793Y-139607664D01*
X165487547Y-139492455D01*
X165487544Y-139492452D01*
X165372335Y-139406206D01*
X165372328Y-139406202D01*
X165237482Y-139355908D01*
X165237483Y-139355908D01*
X165177883Y-139349501D01*
X165177881Y-139349500D01*
X165177873Y-139349500D01*
X165177864Y-139349500D01*
X163282129Y-139349500D01*
X163282123Y-139349501D01*
X163222516Y-139355908D01*
X163087671Y-139406202D01*
X163087664Y-139406206D01*
X162972455Y-139492452D01*
X162972452Y-139492455D01*
X162886206Y-139607664D01*
X162886202Y-139607671D01*
X162835908Y-139742517D01*
X162829501Y-139802116D01*
X162829501Y-139802123D01*
X162829500Y-139802135D01*
X157292615Y-139802135D01*
X157300500Y-139752352D01*
X157300500Y-139547648D01*
X157285440Y-139452567D01*
X157268477Y-139345465D01*
X157228865Y-139223554D01*
X157205220Y-139150781D01*
X157205218Y-139150778D01*
X157205218Y-139150776D01*
X157149081Y-139040602D01*
X157112287Y-138968390D01*
X157086563Y-138932984D01*
X156991971Y-138802786D01*
X156847213Y-138658028D01*
X156681614Y-138537715D01*
X156639871Y-138516446D01*
X156588917Y-138490483D01*
X156538123Y-138442511D01*
X156521328Y-138374690D01*
X156543865Y-138308555D01*
X156588917Y-138269516D01*
X156681610Y-138222287D01*
X156763971Y-138162449D01*
X156847213Y-138101971D01*
X156847215Y-138101968D01*
X156847219Y-138101966D01*
X156991966Y-137957219D01*
X156991968Y-137957215D01*
X156991971Y-137957213D01*
X157044732Y-137884590D01*
X157112287Y-137791610D01*
X157205220Y-137609219D01*
X157268477Y-137414534D01*
X157300500Y-137212352D01*
X157300500Y-137007648D01*
X157286800Y-136921153D01*
X157268477Y-136805465D01*
X157205218Y-136610776D01*
X157171503Y-136544607D01*
X157112287Y-136428390D01*
X157104556Y-136417749D01*
X156991971Y-136262786D01*
X156847213Y-136118028D01*
X156681614Y-135997715D01*
X156675006Y-135994348D01*
X156588917Y-135950483D01*
X156538123Y-135902511D01*
X156521328Y-135834690D01*
X156543865Y-135768555D01*
X156588917Y-135729516D01*
X156681610Y-135682287D01*
X156702770Y-135666913D01*
X156847213Y-135561971D01*
X156847215Y-135561968D01*
X156847219Y-135561966D01*
X156991966Y-135417219D01*
X156991968Y-135417215D01*
X156991971Y-135417213D01*
X157077205Y-135299896D01*
X157112287Y-135251610D01*
X157205220Y-135069219D01*
X157268477Y-134874534D01*
X157300500Y-134672352D01*
X157300500Y-134467648D01*
X157281867Y-134350008D01*
X157268477Y-134265465D01*
X157216741Y-134106239D01*
X157205220Y-134070781D01*
X157205218Y-134070778D01*
X157205218Y-134070776D01*
X157153925Y-133970110D01*
X157112287Y-133888390D01*
X157086079Y-133852317D01*
X156991972Y-133722788D01*
X156991965Y-133722780D01*
X156916867Y-133647682D01*
X166905112Y-133647682D01*
X166905112Y-133852317D01*
X166937121Y-134054417D01*
X167000356Y-134249031D01*
X167093253Y-134431350D01*
X167093259Y-134431359D01*
X167125635Y-134475921D01*
X167125636Y-134475922D01*
X167805112Y-133796446D01*
X167805112Y-133802661D01*
X167832371Y-133904394D01*
X167885032Y-133995606D01*
X167959506Y-134070080D01*
X168050718Y-134122741D01*
X168152451Y-134150000D01*
X168158664Y-134150000D01*
X167479188Y-134829474D01*
X167523762Y-134861859D01*
X167706080Y-134954755D01*
X167900694Y-135017990D01*
X168102795Y-135050000D01*
X168307429Y-135050000D01*
X168509529Y-135017990D01*
X168704143Y-134954755D01*
X168886453Y-134861863D01*
X168886461Y-134861858D01*
X168956664Y-134810852D01*
X169022470Y-134787371D01*
X169090524Y-134803196D01*
X169117232Y-134823488D01*
X169186456Y-134892712D01*
X169335778Y-134984814D01*
X169502315Y-135039999D01*
X169605103Y-135050500D01*
X170805120Y-135050499D01*
X170907909Y-135039999D01*
X171074446Y-134984814D01*
X171223768Y-134892712D01*
X171347824Y-134768656D01*
X171439926Y-134619334D01*
X171495111Y-134452797D01*
X171505612Y-134350009D01*
X171505611Y-133149992D01*
X171495111Y-133047203D01*
X171439926Y-132880666D01*
X171347824Y-132731344D01*
X171223768Y-132607288D01*
X171120832Y-132543797D01*
X171074448Y-132515187D01*
X171074443Y-132515185D01*
X171045327Y-132505537D01*
X170907909Y-132460001D01*
X170907907Y-132460000D01*
X170805122Y-132449500D01*
X169605110Y-132449500D01*
X169605093Y-132449501D01*
X169502315Y-132460000D01*
X169502312Y-132460001D01*
X169335780Y-132515185D01*
X169335775Y-132515187D01*
X169186457Y-132607287D01*
X169117233Y-132676511D01*
X169055909Y-132709995D01*
X168986218Y-132705010D01*
X168956667Y-132689147D01*
X168886464Y-132638142D01*
X168704143Y-132545244D01*
X168509529Y-132482009D01*
X168307429Y-132450000D01*
X168102795Y-132450000D01*
X167900694Y-132482009D01*
X167706080Y-132545244D01*
X167523756Y-132638143D01*
X167479189Y-132670523D01*
X167479189Y-132670524D01*
X168158665Y-133350000D01*
X168152451Y-133350000D01*
X168050718Y-133377259D01*
X167959506Y-133429920D01*
X167885032Y-133504394D01*
X167832371Y-133595606D01*
X167805112Y-133697339D01*
X167805112Y-133703553D01*
X167125636Y-133024077D01*
X167125635Y-133024077D01*
X167093255Y-133068644D01*
X167000356Y-133250968D01*
X166937121Y-133445582D01*
X166905112Y-133647682D01*
X156916867Y-133647682D01*
X156847213Y-133578028D01*
X156681614Y-133457715D01*
X156675006Y-133454348D01*
X156588917Y-133410483D01*
X156538123Y-133362511D01*
X156521328Y-133294690D01*
X156543865Y-133228555D01*
X156588917Y-133189516D01*
X156681610Y-133142287D01*
X156709827Y-133121786D01*
X156847213Y-133021971D01*
X156847215Y-133021968D01*
X156847219Y-133021966D01*
X156991966Y-132877219D01*
X156991968Y-132877215D01*
X156991971Y-132877213D01*
X157096391Y-132733489D01*
X157112287Y-132711610D01*
X157205220Y-132529219D01*
X157268477Y-132334534D01*
X157300500Y-132132352D01*
X157300500Y-131927648D01*
X157268477Y-131725466D01*
X157205220Y-131530781D01*
X157205218Y-131530778D01*
X157205218Y-131530776D01*
X157157366Y-131436862D01*
X157112287Y-131348390D01*
X157104556Y-131337749D01*
X156991971Y-131182786D01*
X156847213Y-131038028D01*
X156681610Y-130917712D01*
X156681608Y-130917711D01*
X156588919Y-130870483D01*
X156538123Y-130822509D01*
X156521328Y-130754688D01*
X156543866Y-130688553D01*
X156588917Y-130649516D01*
X156681610Y-130602287D01*
X156771231Y-130537174D01*
X156847213Y-130481971D01*
X156847215Y-130481968D01*
X156847219Y-130481966D01*
X156991966Y-130337219D01*
X156991968Y-130337215D01*
X156991971Y-130337213D01*
X157052574Y-130253799D01*
X157112287Y-130171610D01*
X157205220Y-129989219D01*
X157268477Y-129794534D01*
X157300500Y-129592352D01*
X157300500Y-129387648D01*
X157276085Y-129233501D01*
X157268477Y-129185465D01*
X157213150Y-129015187D01*
X157205220Y-128990781D01*
X157205218Y-128990778D01*
X157205218Y-128990776D01*
X157171503Y-128924607D01*
X157112287Y-128808390D01*
X157104556Y-128797749D01*
X156991971Y-128642786D01*
X156847213Y-128498028D01*
X156681614Y-128377715D01*
X156675006Y-128374348D01*
X156588917Y-128330483D01*
X156538123Y-128282511D01*
X156521328Y-128214690D01*
X156543865Y-128148555D01*
X156588917Y-128109516D01*
X156681610Y-128062287D01*
X156807535Y-127970798D01*
X156847213Y-127941971D01*
X156847215Y-127941968D01*
X156847219Y-127941966D01*
X156991966Y-127797219D01*
X156991968Y-127797215D01*
X156991971Y-127797213D01*
X157044732Y-127724590D01*
X157112287Y-127631610D01*
X157205220Y-127449219D01*
X157268477Y-127254534D01*
X157300500Y-127052352D01*
X157300500Y-126847648D01*
X157268477Y-126645466D01*
X157255460Y-126605405D01*
X157205218Y-126450776D01*
X157166717Y-126375214D01*
X157112287Y-126268390D01*
X157041155Y-126170484D01*
X156991971Y-126102786D01*
X156847213Y-125958028D01*
X156681614Y-125837715D01*
X156608575Y-125800500D01*
X156588917Y-125790483D01*
X156538123Y-125742511D01*
X156521328Y-125674690D01*
X156543865Y-125608555D01*
X156588917Y-125569516D01*
X156681610Y-125522287D01*
X156753619Y-125469970D01*
X156847213Y-125401971D01*
X156847215Y-125401968D01*
X156847219Y-125401966D01*
X156991966Y-125257219D01*
X156991968Y-125257215D01*
X156991971Y-125257213D01*
X157062599Y-125160000D01*
X157112287Y-125091610D01*
X157205220Y-124909219D01*
X157268477Y-124714534D01*
X157300500Y-124512352D01*
X157300500Y-124307648D01*
X157285152Y-124210745D01*
X157268477Y-124105465D01*
X157228094Y-123981181D01*
X157205220Y-123910781D01*
X157205218Y-123910778D01*
X157205218Y-123910776D01*
X157171503Y-123844607D01*
X157112287Y-123728390D01*
X157080092Y-123684077D01*
X156991971Y-123562786D01*
X156847213Y-123418028D01*
X156681611Y-123297713D01*
X156588369Y-123250203D01*
X156537574Y-123202229D01*
X156520779Y-123134407D01*
X156543317Y-123068273D01*
X156588371Y-123029234D01*
X156681346Y-122981861D01*
X156681347Y-122981861D01*
X156725921Y-122949474D01*
X156046446Y-122270000D01*
X156052661Y-122270000D01*
X156154394Y-122242741D01*
X156245606Y-122190080D01*
X156320080Y-122115606D01*
X156372741Y-122024394D01*
X156400000Y-121922661D01*
X156400000Y-121916447D01*
X157079474Y-122595921D01*
X157111859Y-122551349D01*
X157204755Y-122369031D01*
X157267990Y-122174417D01*
X157300000Y-121972317D01*
X157300000Y-121767682D01*
X157267990Y-121565582D01*
X157204755Y-121370968D01*
X157111859Y-121188650D01*
X157079474Y-121144077D01*
X157079474Y-121144076D01*
X156400000Y-121823551D01*
X156400000Y-121817339D01*
X156372741Y-121715606D01*
X156320080Y-121624394D01*
X156245606Y-121549920D01*
X156154394Y-121497259D01*
X156052661Y-121470000D01*
X156046446Y-121470000D01*
X156725922Y-120790524D01*
X156725921Y-120790523D01*
X156681359Y-120758147D01*
X156681350Y-120758141D01*
X156588369Y-120710765D01*
X156537573Y-120662790D01*
X156520778Y-120594969D01*
X156543315Y-120528835D01*
X156588370Y-120489795D01*
X156588920Y-120489515D01*
X156681610Y-120442287D01*
X156731144Y-120406298D01*
X156847213Y-120321971D01*
X156847215Y-120321968D01*
X156847219Y-120321966D01*
X156991966Y-120177219D01*
X156991968Y-120177215D01*
X156991971Y-120177213D01*
X157081186Y-120054417D01*
X157112287Y-120011610D01*
X157205220Y-119829219D01*
X157268477Y-119634534D01*
X157300500Y-119432352D01*
X157300500Y-119227648D01*
X157271920Y-119047203D01*
X157268477Y-119025465D01*
X157221429Y-118880668D01*
X157205220Y-118830781D01*
X157205218Y-118830778D01*
X157205218Y-118830776D01*
X157141136Y-118705010D01*
X157112287Y-118648390D01*
X157104556Y-118637749D01*
X156991971Y-118482786D01*
X156847213Y-118338028D01*
X156681614Y-118217715D01*
X156627436Y-118190110D01*
X156588917Y-118170483D01*
X156538123Y-118122511D01*
X156521328Y-118054690D01*
X156543865Y-117988555D01*
X156588917Y-117949516D01*
X156681610Y-117902287D01*
X156791554Y-117822409D01*
X156847213Y-117781971D01*
X156847215Y-117781968D01*
X156847219Y-117781966D01*
X156991966Y-117637219D01*
X156991968Y-117637215D01*
X156991971Y-117637213D01*
X157067629Y-117533077D01*
X157112287Y-117471610D01*
X157205220Y-117289219D01*
X157268477Y-117094534D01*
X157300500Y-116892352D01*
X157300500Y-116687648D01*
X157289916Y-116620827D01*
X157268477Y-116485465D01*
X157233628Y-116378211D01*
X157205220Y-116290781D01*
X157205218Y-116290778D01*
X157205218Y-116290776D01*
X157160231Y-116202485D01*
X157112287Y-116108390D01*
X157071416Y-116052135D01*
X156991971Y-115942786D01*
X156847213Y-115798028D01*
X156681614Y-115677715D01*
X156639392Y-115656202D01*
X156588917Y-115630483D01*
X156538123Y-115582511D01*
X156521328Y-115514690D01*
X156543865Y-115448555D01*
X156588917Y-115409516D01*
X156681610Y-115362287D01*
X156702770Y-115346913D01*
X156847213Y-115241971D01*
X156847215Y-115241968D01*
X156847219Y-115241966D01*
X156991966Y-115097219D01*
X156991968Y-115097215D01*
X156991971Y-115097213D01*
X157055124Y-115010289D01*
X157112287Y-114931610D01*
X157205220Y-114749219D01*
X157268477Y-114554534D01*
X157300500Y-114352352D01*
X157300500Y-114147648D01*
X157268477Y-113945466D01*
X157205220Y-113750781D01*
X157205218Y-113750778D01*
X157205218Y-113750776D01*
X157171503Y-113684607D01*
X157112287Y-113568390D01*
X157104556Y-113557749D01*
X156991971Y-113402786D01*
X156847213Y-113258028D01*
X156681614Y-113137715D01*
X156621815Y-113107246D01*
X156588917Y-113090483D01*
X156538123Y-113042511D01*
X156521328Y-112974690D01*
X156543865Y-112908555D01*
X156588917Y-112869516D01*
X156681610Y-112822287D01*
X156702770Y-112806913D01*
X156847213Y-112701971D01*
X156847215Y-112701968D01*
X156847219Y-112701966D01*
X156991966Y-112557219D01*
X156991968Y-112557215D01*
X156991971Y-112557213D01*
X157044732Y-112484590D01*
X157112287Y-112391610D01*
X157205220Y-112209219D01*
X157268477Y-112014534D01*
X157300500Y-111812352D01*
X157300500Y-111607648D01*
X157285080Y-111510289D01*
X157268477Y-111405465D01*
X157205218Y-111210776D01*
X157139696Y-111082184D01*
X157112287Y-111028390D01*
X157104556Y-111017749D01*
X156991971Y-110862786D01*
X156847213Y-110718028D01*
X156681614Y-110597715D01*
X156651776Y-110582512D01*
X156588917Y-110550483D01*
X156538123Y-110502511D01*
X156521328Y-110434690D01*
X156543865Y-110368555D01*
X156588917Y-110329516D01*
X156681610Y-110282287D01*
X156744803Y-110236375D01*
X156847213Y-110161971D01*
X156847215Y-110161968D01*
X156847219Y-110161966D01*
X156991966Y-110017219D01*
X156991968Y-110017215D01*
X156991971Y-110017213D01*
X157087467Y-109885772D01*
X157112287Y-109851610D01*
X157205220Y-109669219D01*
X157268477Y-109474534D01*
X157300500Y-109272352D01*
X157300500Y-109067648D01*
X157288721Y-108993281D01*
X157268477Y-108865465D01*
X157215320Y-108701865D01*
X157205220Y-108670781D01*
X157205218Y-108670778D01*
X157205218Y-108670776D01*
X157171503Y-108604607D01*
X157112287Y-108488390D01*
X157041546Y-108391022D01*
X156991971Y-108322786D01*
X156847213Y-108178028D01*
X156681614Y-108057715D01*
X156671987Y-108052810D01*
X156588917Y-108010483D01*
X156538123Y-107962511D01*
X156521328Y-107894690D01*
X156543865Y-107828555D01*
X156588917Y-107789516D01*
X156681610Y-107742287D01*
X156702770Y-107726913D01*
X156847213Y-107621971D01*
X156847215Y-107621968D01*
X156847219Y-107621966D01*
X156991966Y-107477219D01*
X156991968Y-107477215D01*
X156991971Y-107477213D01*
X157052065Y-107394499D01*
X157112287Y-107311610D01*
X157205220Y-107129219D01*
X157268477Y-106934534D01*
X157300500Y-106732352D01*
X157300500Y-106527648D01*
X157289690Y-106459397D01*
X157268477Y-106325465D01*
X157223636Y-106187461D01*
X157205220Y-106130781D01*
X157205218Y-106130778D01*
X157205218Y-106130776D01*
X157160169Y-106042363D01*
X157112287Y-105948390D01*
X157075000Y-105897068D01*
X156991971Y-105782786D01*
X156847213Y-105638028D01*
X156681613Y-105517715D01*
X156681612Y-105517714D01*
X156681610Y-105517713D01*
X156624653Y-105488691D01*
X156499223Y-105424781D01*
X156399659Y-105392431D01*
X156341984Y-105352993D01*
X156314786Y-105288634D01*
X156326701Y-105219788D01*
X156373945Y-105168312D01*
X156437978Y-105150500D01*
X156679192Y-105150500D01*
X156746231Y-105170185D01*
X156766873Y-105186819D01*
X157432984Y-105852930D01*
X157466469Y-105914253D01*
X157466920Y-105916420D01*
X157480261Y-105983489D01*
X157480264Y-105983501D01*
X157540602Y-106129172D01*
X157540609Y-106129185D01*
X157628210Y-106260288D01*
X157628213Y-106260292D01*
X157739707Y-106371786D01*
X157739711Y-106371789D01*
X157870814Y-106459390D01*
X157870827Y-106459397D01*
X157996286Y-106511363D01*
X158016503Y-106519737D01*
X158156242Y-106547533D01*
X158171153Y-106550499D01*
X158171156Y-106550500D01*
X158171158Y-106550500D01*
X158328844Y-106550500D01*
X158328845Y-106550499D01*
X158483497Y-106519737D01*
X158528050Y-106501282D01*
X158597515Y-106493814D01*
X158659995Y-106525088D01*
X158695648Y-106585177D01*
X158699500Y-106615844D01*
X158699500Y-117328846D01*
X158730261Y-117483489D01*
X158730264Y-117483501D01*
X158790602Y-117629172D01*
X158790609Y-117629185D01*
X158878210Y-117760288D01*
X158878213Y-117760292D01*
X168913181Y-127795259D01*
X168946666Y-127856582D01*
X168949500Y-127882940D01*
X168949500Y-129078846D01*
X168980261Y-129233489D01*
X168980264Y-129233501D01*
X169040602Y-129379172D01*
X169040609Y-129379185D01*
X169128210Y-129510288D01*
X169128213Y-129510292D01*
X169239707Y-129621786D01*
X169239711Y-129621789D01*
X169370814Y-129709390D01*
X169370827Y-129709397D01*
X169516498Y-129769735D01*
X169516503Y-129769737D01*
X169647419Y-129795778D01*
X169671153Y-129800499D01*
X169671156Y-129800500D01*
X169671158Y-129800500D01*
X169828844Y-129800500D01*
X169828845Y-129800499D01*
X169983497Y-129769737D01*
X170129179Y-129709394D01*
X170218094Y-129649983D01*
X177199500Y-129649983D01*
X177199500Y-130850001D01*
X177199501Y-130850018D01*
X177210000Y-130952796D01*
X177210001Y-130952799D01*
X177265185Y-131119331D01*
X177265187Y-131119336D01*
X177267340Y-131122826D01*
X177355964Y-131266510D01*
X177357289Y-131268657D01*
X177426510Y-131337878D01*
X177459995Y-131399201D01*
X177455011Y-131468893D01*
X177439148Y-131498444D01*
X177388139Y-131568651D01*
X177295244Y-131750968D01*
X177232009Y-131945582D01*
X177200000Y-132147682D01*
X177200000Y-132352317D01*
X177232009Y-132554417D01*
X177295244Y-132749031D01*
X177388141Y-132931350D01*
X177388147Y-132931359D01*
X177420523Y-132975921D01*
X177420524Y-132975922D01*
X178100000Y-132296446D01*
X178100000Y-132302661D01*
X178127259Y-132404394D01*
X178179920Y-132495606D01*
X178254394Y-132570080D01*
X178345606Y-132622741D01*
X178447339Y-132650000D01*
X178453553Y-132650000D01*
X177774076Y-133329474D01*
X177818650Y-133361859D01*
X178000968Y-133454755D01*
X178195582Y-133517990D01*
X178397683Y-133550000D01*
X178602317Y-133550000D01*
X178804417Y-133517990D01*
X178999031Y-133454755D01*
X179181349Y-133361859D01*
X179225921Y-133329474D01*
X178546447Y-132650000D01*
X178552661Y-132650000D01*
X178654394Y-132622741D01*
X178745606Y-132570080D01*
X178820080Y-132495606D01*
X178872741Y-132404394D01*
X178900000Y-132302661D01*
X178900000Y-132296447D01*
X179579474Y-132975921D01*
X179611859Y-132931349D01*
X179704755Y-132749031D01*
X179767990Y-132554417D01*
X179800000Y-132352317D01*
X179800000Y-132147682D01*
X179767990Y-131945582D01*
X179704755Y-131750968D01*
X179611857Y-131568646D01*
X179560853Y-131498446D01*
X179537372Y-131432640D01*
X179553197Y-131364586D01*
X179573489Y-131337879D01*
X179601343Y-131310025D01*
X179642712Y-131268656D01*
X179734814Y-131119334D01*
X179789999Y-130952797D01*
X179800500Y-130850009D01*
X179800499Y-129649992D01*
X179789999Y-129547203D01*
X179734814Y-129380666D01*
X179642712Y-129231344D01*
X179518656Y-129107288D01*
X179369334Y-129015186D01*
X179202797Y-128960001D01*
X179202795Y-128960000D01*
X179100010Y-128949500D01*
X177899998Y-128949500D01*
X177899981Y-128949501D01*
X177797203Y-128960000D01*
X177797200Y-128960001D01*
X177630668Y-129015185D01*
X177630663Y-129015187D01*
X177481342Y-129107289D01*
X177357289Y-129231342D01*
X177265187Y-129380663D01*
X177265185Y-129380668D01*
X177245997Y-129438574D01*
X177210001Y-129547203D01*
X177210001Y-129547204D01*
X177210000Y-129547204D01*
X177199500Y-129649983D01*
X170218094Y-129649983D01*
X170260289Y-129621789D01*
X170289727Y-129592351D01*
X170322926Y-129559153D01*
X170371786Y-129510292D01*
X170371789Y-129510289D01*
X170459394Y-129379179D01*
X170519737Y-129233497D01*
X170550500Y-129078842D01*
X170550500Y-127421158D01*
X170550500Y-127421155D01*
X170550499Y-127421153D01*
X170519737Y-127266503D01*
X170461036Y-127124785D01*
X170459397Y-127120827D01*
X170459390Y-127120814D01*
X170371790Y-126989712D01*
X170339578Y-126957500D01*
X170260289Y-126878211D01*
X169232060Y-125849982D01*
X171569500Y-125849982D01*
X171569500Y-127650017D01*
X171580000Y-127752796D01*
X171606106Y-127831578D01*
X171635186Y-127919335D01*
X171727288Y-128068656D01*
X171851344Y-128192712D01*
X172000665Y-128284814D01*
X172167202Y-128339999D01*
X172269990Y-128350500D01*
X172269995Y-128350500D01*
X174070005Y-128350500D01*
X174070010Y-128350500D01*
X174172798Y-128339999D01*
X174339335Y-128284814D01*
X174488656Y-128192712D01*
X174612712Y-128068656D01*
X174704814Y-127919335D01*
X174759999Y-127752798D01*
X174770500Y-127650010D01*
X174770500Y-126624038D01*
X181729500Y-126624038D01*
X181729500Y-126875962D01*
X181757438Y-127052352D01*
X181768910Y-127124785D01*
X181846760Y-127364383D01*
X181961132Y-127588848D01*
X182109201Y-127792649D01*
X182109205Y-127792654D01*
X182287345Y-127970794D01*
X182287350Y-127970798D01*
X182465117Y-128099952D01*
X182491155Y-128118870D01*
X182634184Y-128191747D01*
X182715616Y-128233239D01*
X182715618Y-128233239D01*
X182715621Y-128233241D01*
X182955215Y-128311090D01*
X183204038Y-128350500D01*
X183204039Y-128350500D01*
X183455961Y-128350500D01*
X183455962Y-128350500D01*
X183704785Y-128311090D01*
X183944379Y-128233241D01*
X184168845Y-128118870D01*
X184372656Y-127970793D01*
X184550793Y-127792656D01*
X184698870Y-127588845D01*
X184813241Y-127364379D01*
X184891090Y-127124785D01*
X184930500Y-126875962D01*
X184930500Y-126624038D01*
X184891090Y-126375215D01*
X184813241Y-126135621D01*
X184813239Y-126135618D01*
X184813239Y-126135616D01*
X184723918Y-125960315D01*
X184698870Y-125911155D01*
X184645513Y-125837715D01*
X184550798Y-125707350D01*
X184550794Y-125707345D01*
X184372654Y-125529205D01*
X184372649Y-125529201D01*
X184168848Y-125381132D01*
X184168847Y-125381131D01*
X184168845Y-125381130D01*
X184098747Y-125345413D01*
X183944383Y-125266760D01*
X183704785Y-125188910D01*
X183455962Y-125149500D01*
X183204038Y-125149500D01*
X183137738Y-125160001D01*
X182955214Y-125188910D01*
X182715616Y-125266760D01*
X182491151Y-125381132D01*
X182287350Y-125529201D01*
X182287345Y-125529205D01*
X182109205Y-125707345D01*
X182109201Y-125707350D01*
X181961132Y-125911151D01*
X181846760Y-126135616D01*
X181793186Y-126300500D01*
X181768910Y-126375215D01*
X181729500Y-126624038D01*
X174770500Y-126624038D01*
X174770500Y-125849990D01*
X174759999Y-125747202D01*
X174704814Y-125580665D01*
X174612712Y-125431344D01*
X174488656Y-125307288D01*
X174339335Y-125215186D01*
X174172798Y-125160001D01*
X174172796Y-125160000D01*
X174070017Y-125149500D01*
X174070010Y-125149500D01*
X172269990Y-125149500D01*
X172269982Y-125149500D01*
X172167203Y-125160000D01*
X172167202Y-125160001D01*
X172084669Y-125187349D01*
X172000667Y-125215185D01*
X172000662Y-125215187D01*
X171851342Y-125307289D01*
X171727289Y-125431342D01*
X171635187Y-125580662D01*
X171635185Y-125580667D01*
X171614430Y-125643302D01*
X171580001Y-125747202D01*
X171580001Y-125747203D01*
X171580000Y-125747203D01*
X171569500Y-125849982D01*
X169232060Y-125849982D01*
X168291713Y-124909635D01*
X187499500Y-124909635D01*
X187499500Y-128505370D01*
X187499501Y-128505376D01*
X187505908Y-128564983D01*
X187556202Y-128699828D01*
X187556206Y-128699835D01*
X187642452Y-128815044D01*
X187642455Y-128815047D01*
X187757664Y-128901293D01*
X187757671Y-128901297D01*
X187892517Y-128951591D01*
X187892516Y-128951591D01*
X187899444Y-128952335D01*
X187952127Y-128958000D01*
X191547872Y-128957999D01*
X191607483Y-128951591D01*
X191742331Y-128901296D01*
X191857546Y-128815046D01*
X191943796Y-128699831D01*
X191994091Y-128564983D01*
X192000500Y-128505373D01*
X192000499Y-125643303D01*
X193750000Y-125643303D01*
X193750000Y-126457500D01*
X195250000Y-126457500D01*
X195250000Y-126957500D01*
X193750001Y-126957500D01*
X193750001Y-127771697D01*
X193760400Y-127903832D01*
X193815377Y-128122019D01*
X193908428Y-128326874D01*
X193908431Y-128326880D01*
X194036559Y-128511823D01*
X194036569Y-128511835D01*
X194195664Y-128670930D01*
X194195676Y-128670940D01*
X194380619Y-128799068D01*
X194380625Y-128799071D01*
X194585480Y-128892122D01*
X194803667Y-128947099D01*
X194935810Y-128957499D01*
X195499999Y-128957499D01*
X195500000Y-128957498D01*
X195500000Y-128140512D01*
X195557007Y-128173425D01*
X195684174Y-128207500D01*
X195815826Y-128207500D01*
X195942993Y-128173425D01*
X196000000Y-128140512D01*
X196000000Y-128957499D01*
X196564182Y-128957499D01*
X196564197Y-128957498D01*
X196696332Y-128947099D01*
X196914519Y-128892122D01*
X197119374Y-128799071D01*
X197119380Y-128799068D01*
X197304323Y-128670940D01*
X197304335Y-128670930D01*
X197463430Y-128511835D01*
X197463440Y-128511823D01*
X197591568Y-128326880D01*
X197591571Y-128326874D01*
X197684622Y-128122019D01*
X197739599Y-127903832D01*
X197749999Y-127771696D01*
X197750000Y-127771684D01*
X197750000Y-126957500D01*
X196250000Y-126957500D01*
X196250000Y-126457500D01*
X197749999Y-126457500D01*
X197749999Y-125643317D01*
X197749998Y-125643302D01*
X197739599Y-125511167D01*
X197684622Y-125292980D01*
X197591571Y-125088125D01*
X197591568Y-125088119D01*
X197463440Y-124903176D01*
X197463430Y-124903164D01*
X197304335Y-124744069D01*
X197304323Y-124744059D01*
X197119380Y-124615931D01*
X197119374Y-124615928D01*
X196914519Y-124522877D01*
X196696332Y-124467900D01*
X196564196Y-124457500D01*
X196000000Y-124457500D01*
X196000000Y-125274488D01*
X195942993Y-125241575D01*
X195815826Y-125207500D01*
X195684174Y-125207500D01*
X195557007Y-125241575D01*
X195500000Y-125274488D01*
X195500000Y-124457500D01*
X194935817Y-124457500D01*
X194935802Y-124457501D01*
X194803667Y-124467900D01*
X194585480Y-124522877D01*
X194380625Y-124615928D01*
X194380619Y-124615931D01*
X194195676Y-124744059D01*
X194195664Y-124744069D01*
X194036569Y-124903164D01*
X194036559Y-124903176D01*
X193908431Y-125088119D01*
X193908428Y-125088125D01*
X193815377Y-125292980D01*
X193760400Y-125511167D01*
X193750000Y-125643303D01*
X192000499Y-125643303D01*
X192000499Y-124909628D01*
X191994091Y-124850017D01*
X191972122Y-124791116D01*
X191943797Y-124715171D01*
X191943793Y-124715164D01*
X191857547Y-124599955D01*
X191857544Y-124599952D01*
X191742335Y-124513706D01*
X191742328Y-124513702D01*
X191695061Y-124496073D01*
X191639127Y-124454202D01*
X191614710Y-124388738D01*
X191629562Y-124320465D01*
X191678967Y-124271059D01*
X191744972Y-124256066D01*
X191758053Y-124256761D01*
X191781349Y-124257999D01*
X191781369Y-124257999D01*
X191781378Y-124258000D01*
X191781386Y-124258000D01*
X193718614Y-124258000D01*
X193718622Y-124258000D01*
X193771241Y-124255205D01*
X194001126Y-124210745D01*
X194220190Y-124128074D01*
X194422132Y-124009570D01*
X194601142Y-123858642D01*
X194752070Y-123679632D01*
X194870574Y-123477690D01*
X194953245Y-123258626D01*
X194997705Y-123028741D01*
X195000500Y-122976122D01*
X195000500Y-121038878D01*
X194997705Y-120986259D01*
X194953245Y-120756374D01*
X194870574Y-120537310D01*
X194752070Y-120335368D01*
X194752065Y-120335361D01*
X194601143Y-120156358D01*
X194601141Y-120156356D01*
X194422138Y-120005434D01*
X194422131Y-120005429D01*
X194220189Y-119886925D01*
X194128482Y-119852317D01*
X194001126Y-119804255D01*
X193992884Y-119802661D01*
X193771243Y-119759795D01*
X193718652Y-119757001D01*
X193718629Y-119757000D01*
X193718622Y-119757000D01*
X191781378Y-119757000D01*
X191781370Y-119757000D01*
X191781347Y-119757001D01*
X191728756Y-119759795D01*
X191728755Y-119759795D01*
X191498878Y-119804254D01*
X191498876Y-119804254D01*
X191498874Y-119804255D01*
X191432713Y-119829223D01*
X191279810Y-119886925D01*
X191077868Y-120005429D01*
X191077861Y-120005434D01*
X190898858Y-120156356D01*
X190898856Y-120156358D01*
X190747934Y-120335361D01*
X190747929Y-120335368D01*
X190629425Y-120537310D01*
X190582177Y-120662511D01*
X190546755Y-120756374D01*
X190546754Y-120756376D01*
X190546754Y-120756378D01*
X190502295Y-120986255D01*
X190502295Y-120986256D01*
X190499501Y-121038847D01*
X190499500Y-121038886D01*
X190499500Y-122976113D01*
X190499501Y-122976152D01*
X190502295Y-123028743D01*
X190502295Y-123028744D01*
X190523518Y-123138477D01*
X190546755Y-123258626D01*
X190561670Y-123298147D01*
X190629425Y-123477689D01*
X190747929Y-123679631D01*
X190747934Y-123679638D01*
X190898856Y-123858641D01*
X190898858Y-123858643D01*
X191077861Y-124009565D01*
X191077868Y-124009570D01*
X191279810Y-124128074D01*
X191498874Y-124210745D01*
X191501517Y-124211256D01*
X191502537Y-124211782D01*
X191503950Y-124212183D01*
X191503868Y-124212470D01*
X191563598Y-124243314D01*
X191598493Y-124303846D01*
X191595122Y-124373634D01*
X191554556Y-124430521D01*
X191489674Y-124456446D01*
X191477969Y-124457000D01*
X187952129Y-124457000D01*
X187952123Y-124457001D01*
X187892516Y-124463408D01*
X187757671Y-124513702D01*
X187757664Y-124513706D01*
X187642455Y-124599952D01*
X187642452Y-124599955D01*
X187556206Y-124715164D01*
X187556202Y-124715171D01*
X187505908Y-124850017D01*
X187499564Y-124909031D01*
X187499501Y-124909623D01*
X187499500Y-124909635D01*
X168291713Y-124909635D01*
X162532061Y-119149983D01*
X174154613Y-119149983D01*
X174154613Y-120350001D01*
X174154614Y-120350018D01*
X174165113Y-120452796D01*
X174165114Y-120452799D01*
X174212133Y-120594690D01*
X174220299Y-120619334D01*
X174312401Y-120768656D01*
X174436457Y-120892712D01*
X174585779Y-120984814D01*
X174752316Y-121039999D01*
X174855104Y-121050500D01*
X176055121Y-121050499D01*
X176157910Y-121039999D01*
X176324447Y-120984814D01*
X176473769Y-120892712D01*
X176597825Y-120768656D01*
X176689927Y-120619334D01*
X176745112Y-120452797D01*
X176755613Y-120350009D01*
X176755612Y-119647682D01*
X179200000Y-119647682D01*
X179200000Y-119852317D01*
X179232009Y-120054417D01*
X179295244Y-120249031D01*
X179388141Y-120431350D01*
X179388147Y-120431359D01*
X179420523Y-120475921D01*
X179420524Y-120475922D01*
X180100000Y-119796446D01*
X180100000Y-119802661D01*
X180127259Y-119904394D01*
X180179920Y-119995606D01*
X180254394Y-120070080D01*
X180345606Y-120122741D01*
X180447339Y-120150000D01*
X180453552Y-120150000D01*
X179774076Y-120829474D01*
X179818650Y-120861859D01*
X180000968Y-120954755D01*
X180195582Y-121017990D01*
X180397683Y-121050000D01*
X180602317Y-121050000D01*
X180804417Y-121017990D01*
X180999031Y-120954755D01*
X181181341Y-120861863D01*
X181181349Y-120861858D01*
X181251552Y-120810852D01*
X181317358Y-120787371D01*
X181385412Y-120803196D01*
X181412120Y-120823488D01*
X181481344Y-120892712D01*
X181630666Y-120984814D01*
X181797203Y-121039999D01*
X181899991Y-121050500D01*
X183100008Y-121050499D01*
X183202797Y-121039999D01*
X183369334Y-120984814D01*
X183518656Y-120892712D01*
X183642712Y-120768656D01*
X183734814Y-120619334D01*
X183789999Y-120452797D01*
X183800500Y-120350009D01*
X183800499Y-119149992D01*
X183789999Y-119047203D01*
X183734814Y-118880666D01*
X183642712Y-118731344D01*
X183518656Y-118607288D01*
X183369334Y-118515186D01*
X183202797Y-118460001D01*
X183202795Y-118460000D01*
X183100010Y-118449500D01*
X181899998Y-118449500D01*
X181899981Y-118449501D01*
X181797203Y-118460000D01*
X181797200Y-118460001D01*
X181630668Y-118515185D01*
X181630663Y-118515187D01*
X181481345Y-118607287D01*
X181412121Y-118676511D01*
X181350797Y-118709995D01*
X181281106Y-118705010D01*
X181251555Y-118689147D01*
X181181352Y-118638142D01*
X180999031Y-118545244D01*
X180804417Y-118482009D01*
X180602317Y-118450000D01*
X180397683Y-118450000D01*
X180195582Y-118482009D01*
X180000968Y-118545244D01*
X179818644Y-118638143D01*
X179774077Y-118670523D01*
X179774077Y-118670524D01*
X180453553Y-119350000D01*
X180447339Y-119350000D01*
X180345606Y-119377259D01*
X180254394Y-119429920D01*
X180179920Y-119504394D01*
X180127259Y-119595606D01*
X180100000Y-119697339D01*
X180100000Y-119703553D01*
X179420524Y-119024077D01*
X179420523Y-119024077D01*
X179388143Y-119068644D01*
X179295244Y-119250968D01*
X179232009Y-119445582D01*
X179200000Y-119647682D01*
X176755612Y-119647682D01*
X176755612Y-119149992D01*
X176745112Y-119047203D01*
X176689927Y-118880666D01*
X176597825Y-118731344D01*
X176473769Y-118607288D01*
X176324447Y-118515186D01*
X176157910Y-118460001D01*
X176157908Y-118460000D01*
X176055123Y-118449500D01*
X174855111Y-118449500D01*
X174855094Y-118449501D01*
X174752316Y-118460000D01*
X174752313Y-118460001D01*
X174585781Y-118515185D01*
X174585776Y-118515187D01*
X174436455Y-118607289D01*
X174312402Y-118731342D01*
X174220300Y-118880663D01*
X174220298Y-118880668D01*
X174195681Y-118954959D01*
X174165114Y-119047203D01*
X174165114Y-119047204D01*
X174165113Y-119047204D01*
X174154613Y-119149983D01*
X162532061Y-119149983D01*
X160336819Y-116954741D01*
X160303334Y-116893418D01*
X160302947Y-116889818D01*
X162060000Y-116889818D01*
X162060000Y-117110181D01*
X162094473Y-117327835D01*
X162162567Y-117537410D01*
X162262611Y-117733756D01*
X162308932Y-117797513D01*
X163017861Y-117088584D01*
X163040667Y-117173694D01*
X163099910Y-117276306D01*
X163183694Y-117360090D01*
X163286306Y-117419333D01*
X163371414Y-117442137D01*
X162662485Y-118151065D01*
X162662485Y-118151066D01*
X162726243Y-118197388D01*
X162922589Y-118297432D01*
X163132164Y-118365526D01*
X163349819Y-118400000D01*
X163570181Y-118400000D01*
X163787835Y-118365526D01*
X163997410Y-118297432D01*
X164193760Y-118197386D01*
X164257513Y-118151066D01*
X164257514Y-118151066D01*
X163548585Y-117442138D01*
X163633694Y-117419333D01*
X163736306Y-117360090D01*
X163820090Y-117276306D01*
X163879333Y-117173694D01*
X163902138Y-117088585D01*
X164563181Y-117749628D01*
X164596666Y-117810951D01*
X164599500Y-117837308D01*
X164599500Y-117947869D01*
X164599501Y-117947876D01*
X164605908Y-118007483D01*
X164656202Y-118142328D01*
X164656206Y-118142335D01*
X164742452Y-118257544D01*
X164742455Y-118257547D01*
X164857664Y-118343793D01*
X164857671Y-118343797D01*
X164992517Y-118394091D01*
X164992516Y-118394091D01*
X164999444Y-118394835D01*
X165052127Y-118400500D01*
X166947872Y-118400499D01*
X167007483Y-118394091D01*
X167142331Y-118343796D01*
X167257546Y-118257546D01*
X167343796Y-118142331D01*
X167394091Y-118007483D01*
X167400500Y-117947873D01*
X167400499Y-116052128D01*
X167394091Y-115992517D01*
X167391616Y-115985882D01*
X167343797Y-115857671D01*
X167343793Y-115857664D01*
X167257547Y-115742455D01*
X167257544Y-115742452D01*
X167142335Y-115656206D01*
X167142328Y-115656202D01*
X167007482Y-115605908D01*
X167007483Y-115605908D01*
X166947883Y-115599501D01*
X166947881Y-115599500D01*
X166947873Y-115599500D01*
X166947864Y-115599500D01*
X165052129Y-115599500D01*
X165052123Y-115599501D01*
X164992516Y-115605908D01*
X164857671Y-115656202D01*
X164857664Y-115656206D01*
X164742455Y-115742452D01*
X164742452Y-115742455D01*
X164656206Y-115857664D01*
X164656202Y-115857671D01*
X164605908Y-115992517D01*
X164600738Y-116040609D01*
X164599501Y-116052123D01*
X164599500Y-116052135D01*
X164599500Y-116162691D01*
X164579815Y-116229730D01*
X164563181Y-116250372D01*
X163902138Y-116911414D01*
X163879333Y-116826306D01*
X163820090Y-116723694D01*
X163736306Y-116639910D01*
X163633694Y-116580667D01*
X163548583Y-116557861D01*
X164257513Y-115848932D01*
X164193756Y-115802611D01*
X163997410Y-115702567D01*
X163787835Y-115634473D01*
X163570181Y-115600000D01*
X163349819Y-115600000D01*
X163132164Y-115634473D01*
X162922589Y-115702567D01*
X162726233Y-115802616D01*
X162662485Y-115848931D01*
X162662485Y-115848932D01*
X163371414Y-116557861D01*
X163286306Y-116580667D01*
X163183694Y-116639910D01*
X163099910Y-116723694D01*
X163040667Y-116826306D01*
X163017861Y-116911414D01*
X162308932Y-116202485D01*
X162308931Y-116202485D01*
X162262616Y-116266233D01*
X162162567Y-116462589D01*
X162094473Y-116672164D01*
X162060000Y-116889818D01*
X160302947Y-116889818D01*
X160300500Y-116867060D01*
X160300500Y-103657901D01*
X160320185Y-103590862D01*
X160372989Y-103545107D01*
X160400301Y-103536285D01*
X160483497Y-103519737D01*
X160629179Y-103459394D01*
X160760289Y-103371789D01*
X160763659Y-103368418D01*
X160824978Y-103334932D01*
X160894670Y-103339911D01*
X160950606Y-103381779D01*
X160975027Y-103447242D01*
X160969275Y-103494414D01*
X160907753Y-103683759D01*
X160874500Y-103893713D01*
X160874500Y-104106286D01*
X160905310Y-104300816D01*
X160907754Y-104316243D01*
X160971418Y-104512181D01*
X160973444Y-104518414D01*
X161069951Y-104707820D01*
X161194890Y-104879786D01*
X161345213Y-105030109D01*
X161517182Y-105155050D01*
X161525946Y-105159516D01*
X161576742Y-105207491D01*
X161593536Y-105275312D01*
X161570998Y-105341447D01*
X161525946Y-105380484D01*
X161517182Y-105384949D01*
X161345213Y-105509890D01*
X161194890Y-105660213D01*
X161069951Y-105832179D01*
X160973444Y-106021585D01*
X160973443Y-106021587D01*
X160973443Y-106021588D01*
X160967461Y-106040000D01*
X160907753Y-106223760D01*
X160874500Y-106433713D01*
X160874500Y-106646286D01*
X160907735Y-106856127D01*
X160907754Y-106856243D01*
X160933192Y-106934534D01*
X160973444Y-107058414D01*
X161069951Y-107247820D01*
X161194890Y-107419786D01*
X161345213Y-107570109D01*
X161517179Y-107695048D01*
X161517181Y-107695049D01*
X161517184Y-107695051D01*
X161706588Y-107791557D01*
X161908757Y-107857246D01*
X162118713Y-107890500D01*
X162118714Y-107890500D01*
X162331286Y-107890500D01*
X162331287Y-107890500D01*
X162541243Y-107857246D01*
X162743412Y-107791557D01*
X162932816Y-107695051D01*
X163033410Y-107621966D01*
X163104786Y-107570109D01*
X163104788Y-107570106D01*
X163104792Y-107570104D01*
X163255104Y-107419792D01*
X163255106Y-107419788D01*
X163255109Y-107419786D01*
X163340890Y-107301717D01*
X163380051Y-107247816D01*
X163384793Y-107238508D01*
X163432763Y-107187711D01*
X163500583Y-107170911D01*
X163566719Y-107193445D01*
X163605763Y-107238500D01*
X163610373Y-107247547D01*
X163649728Y-107301716D01*
X164282037Y-106669408D01*
X164299075Y-106732993D01*
X164364901Y-106847007D01*
X164457993Y-106940099D01*
X164572007Y-107005925D01*
X164635590Y-107022962D01*
X164003282Y-107655269D01*
X164003282Y-107655270D01*
X164057449Y-107694624D01*
X164246782Y-107791095D01*
X164448870Y-107856757D01*
X164658754Y-107890000D01*
X164871246Y-107890000D01*
X165081127Y-107856757D01*
X165081130Y-107856757D01*
X165283217Y-107791095D01*
X165472554Y-107694622D01*
X165526716Y-107655270D01*
X165526717Y-107655270D01*
X164894408Y-107022962D01*
X164957993Y-107005925D01*
X165072007Y-106940099D01*
X165165099Y-106847007D01*
X165230925Y-106732993D01*
X165247962Y-106669408D01*
X165880270Y-107301717D01*
X165880270Y-107301716D01*
X165919622Y-107247554D01*
X166016095Y-107058217D01*
X166081757Y-106856130D01*
X166081757Y-106856127D01*
X166115000Y-106646246D01*
X166115000Y-106433753D01*
X166081757Y-106223872D01*
X166081757Y-106223869D01*
X166016095Y-106021782D01*
X165919624Y-105832449D01*
X165880270Y-105778282D01*
X165880269Y-105778282D01*
X165247962Y-106410590D01*
X165230925Y-106347007D01*
X165165099Y-106232993D01*
X165072007Y-106139901D01*
X164957993Y-106074075D01*
X164894409Y-106057037D01*
X165526716Y-105424728D01*
X165472547Y-105385373D01*
X165472547Y-105385372D01*
X165463500Y-105380763D01*
X165412706Y-105332788D01*
X165395912Y-105264966D01*
X165418451Y-105198832D01*
X165463508Y-105159793D01*
X165472816Y-105155051D01*
X165565665Y-105087593D01*
X165644786Y-105030109D01*
X165644788Y-105030106D01*
X165644792Y-105030104D01*
X165795104Y-104879792D01*
X165795106Y-104879788D01*
X165795109Y-104879786D01*
X165920048Y-104707820D01*
X165920047Y-104707820D01*
X165920051Y-104707816D01*
X166016557Y-104518412D01*
X166082246Y-104316243D01*
X166115500Y-104106287D01*
X166115500Y-103893713D01*
X166082246Y-103683757D01*
X166016557Y-103481588D01*
X165920051Y-103292184D01*
X165920049Y-103292181D01*
X165920048Y-103292179D01*
X165795109Y-103120213D01*
X165644786Y-102969890D01*
X165472820Y-102844951D01*
X165472115Y-102844591D01*
X165464054Y-102840485D01*
X165413259Y-102792512D01*
X165396463Y-102724692D01*
X165418999Y-102658556D01*
X165464054Y-102619515D01*
X165472816Y-102615051D01*
X165559138Y-102552335D01*
X165644786Y-102490109D01*
X165644788Y-102490106D01*
X165644792Y-102490104D01*
X165795104Y-102339792D01*
X165795106Y-102339788D01*
X165795109Y-102339786D01*
X165904086Y-102189789D01*
X165920051Y-102167816D01*
X166016557Y-101978412D01*
X166082246Y-101776243D01*
X166115500Y-101566287D01*
X166115500Y-101353713D01*
X166082246Y-101143757D01*
X166016557Y-100941588D01*
X165920051Y-100752184D01*
X165920049Y-100752181D01*
X165920048Y-100752179D01*
X165795109Y-100580213D01*
X165644786Y-100429890D01*
X165472820Y-100304951D01*
X165283414Y-100208444D01*
X165283413Y-100208443D01*
X165283412Y-100208443D01*
X165081243Y-100142754D01*
X165081241Y-100142753D01*
X165081240Y-100142753D01*
X164919957Y-100117208D01*
X164871287Y-100109500D01*
X164658713Y-100109500D01*
X164610042Y-100117208D01*
X164448760Y-100142753D01*
X164246585Y-100208444D01*
X164057179Y-100304951D01*
X163885215Y-100429889D01*
X163771673Y-100543431D01*
X163710350Y-100576915D01*
X163640658Y-100571931D01*
X163584725Y-100530059D01*
X163567810Y-100499082D01*
X163518797Y-100367671D01*
X163518793Y-100367664D01*
X163432547Y-100252455D01*
X163432544Y-100252452D01*
X163317335Y-100166206D01*
X163317328Y-100166202D01*
X163182482Y-100115908D01*
X163182483Y-100115908D01*
X163122883Y-100109501D01*
X163122881Y-100109500D01*
X163122873Y-100109500D01*
X163122864Y-100109500D01*
X161327129Y-100109500D01*
X161327123Y-100109501D01*
X161267516Y-100115908D01*
X161132671Y-100166202D01*
X161132664Y-100166206D01*
X161017455Y-100252452D01*
X161017452Y-100252455D01*
X160931206Y-100367664D01*
X160931202Y-100367671D01*
X160880908Y-100502517D01*
X160874501Y-100562116D01*
X160874500Y-100562135D01*
X160874500Y-101972536D01*
X160854815Y-102039575D01*
X160802011Y-102085330D01*
X160732853Y-102095274D01*
X160681609Y-102075638D01*
X160629185Y-102040609D01*
X160629172Y-102040602D01*
X160483501Y-101980264D01*
X160483489Y-101980261D01*
X160416420Y-101966920D01*
X160354509Y-101934535D01*
X160352930Y-101932984D01*
X159853328Y-101433381D01*
X159853327Y-101433380D01*
X159853323Y-101433377D01*
X159746781Y-101362189D01*
X159726318Y-101353713D01*
X159628398Y-101313153D01*
X159628392Y-101313151D01*
X159502725Y-101288154D01*
X159502723Y-101288154D01*
X157943589Y-101288154D01*
X157876550Y-101268469D01*
X157874744Y-101267287D01*
X157817833Y-101229260D01*
X157817826Y-101229256D01*
X157672155Y-101168918D01*
X157672143Y-101168915D01*
X157517499Y-101138154D01*
X157517496Y-101138154D01*
X157359812Y-101138154D01*
X157359809Y-101138154D01*
X157205164Y-101168915D01*
X157205152Y-101168918D01*
X157059481Y-101229256D01*
X157059468Y-101229263D01*
X156928365Y-101316864D01*
X156928361Y-101316867D01*
X156816867Y-101428361D01*
X156816864Y-101428365D01*
X156729263Y-101559468D01*
X156729256Y-101559481D01*
X156668918Y-101705152D01*
X156668915Y-101705164D01*
X156638154Y-101859807D01*
X156638154Y-102017500D01*
X156668915Y-102172143D01*
X156668918Y-102172155D01*
X156729256Y-102317826D01*
X156729263Y-102317839D01*
X156816864Y-102448942D01*
X156816867Y-102448946D01*
X156855740Y-102487819D01*
X156889225Y-102549142D01*
X156884241Y-102618834D01*
X156842369Y-102674767D01*
X156776905Y-102699184D01*
X156768059Y-102699500D01*
X154671155Y-102699500D01*
X154516510Y-102730261D01*
X154516498Y-102730264D01*
X154370827Y-102790602D01*
X154370814Y-102790609D01*
X154239711Y-102878210D01*
X154239707Y-102878213D01*
X154128213Y-102989707D01*
X154128210Y-102989711D01*
X154040609Y-103120814D01*
X154040602Y-103120827D01*
X153980264Y-103266498D01*
X153980261Y-103266510D01*
X153949500Y-103421153D01*
X153949500Y-103421158D01*
X153949500Y-103578842D01*
X153949500Y-103578844D01*
X153949499Y-103578844D01*
X153973860Y-103701308D01*
X153967633Y-103770900D01*
X153924770Y-103826077D01*
X153858880Y-103849322D01*
X153852243Y-103849500D01*
X150254935Y-103849500D01*
X150187896Y-103829815D01*
X150186090Y-103828633D01*
X150129179Y-103790606D01*
X150129172Y-103790602D01*
X149983501Y-103730264D01*
X149983489Y-103730261D01*
X149828845Y-103699500D01*
X149828842Y-103699500D01*
X149671158Y-103699500D01*
X149671155Y-103699500D01*
X149516510Y-103730261D01*
X149516498Y-103730264D01*
X149370827Y-103790602D01*
X149370814Y-103790609D01*
X149239711Y-103878210D01*
X149239707Y-103878213D01*
X149128213Y-103989707D01*
X149128210Y-103989711D01*
X149040609Y-104120814D01*
X149040602Y-104120827D01*
X148980264Y-104266498D01*
X148980261Y-104266510D01*
X148949500Y-104421153D01*
X148949500Y-104421158D01*
X148949500Y-104578842D01*
X148949500Y-104578844D01*
X148949499Y-104578844D01*
X148969882Y-104681308D01*
X148963655Y-104750900D01*
X148920792Y-104806077D01*
X148854903Y-104829322D01*
X148848265Y-104829500D01*
X147510473Y-104829500D01*
X147384805Y-104854497D01*
X147384799Y-104854499D01*
X147266418Y-104903534D01*
X147159872Y-104974725D01*
X147104494Y-105030104D01*
X146996871Y-105137726D01*
X146935550Y-105171210D01*
X146909192Y-105174044D01*
X142942146Y-105174044D01*
X142816478Y-105199041D01*
X142816472Y-105199043D01*
X142698087Y-105248079D01*
X142591548Y-105319266D01*
X142591541Y-105319272D01*
X139744726Y-108166087D01*
X139681786Y-108260286D01*
X139681784Y-108260288D01*
X139673537Y-108272629D01*
X139673534Y-108272635D01*
X139624499Y-108391016D01*
X139624497Y-108391022D01*
X139599783Y-108515265D01*
X139581269Y-108559962D01*
X139540611Y-108620812D01*
X139540602Y-108620828D01*
X139480264Y-108766498D01*
X139480261Y-108766510D01*
X139449500Y-108921153D01*
X139449500Y-109078846D01*
X139480261Y-109233489D01*
X139480264Y-109233501D01*
X139540602Y-109379172D01*
X139540609Y-109379185D01*
X139628210Y-109510288D01*
X139628213Y-109510292D01*
X139739707Y-109621786D01*
X139739711Y-109621789D01*
X139870814Y-109709390D01*
X139870827Y-109709397D01*
X139944013Y-109739711D01*
X140016503Y-109769737D01*
X140171153Y-109800499D01*
X140171156Y-109800500D01*
X140171158Y-109800500D01*
X140328844Y-109800500D01*
X140328845Y-109800499D01*
X140483497Y-109769737D01*
X140629179Y-109709394D01*
X140760289Y-109621789D01*
X140871789Y-109510289D01*
X140959394Y-109379179D01*
X141019737Y-109233497D01*
X141048327Y-109089765D01*
X141080711Y-109027855D01*
X141141427Y-108993281D01*
X141211197Y-108997020D01*
X141217359Y-108999381D01*
X141266503Y-109019737D01*
X141421153Y-109050499D01*
X141421156Y-109050500D01*
X141421158Y-109050500D01*
X141578844Y-109050500D01*
X141578845Y-109050499D01*
X141733497Y-109019737D01*
X141879179Y-108959394D01*
X142010289Y-108871789D01*
X142121789Y-108760289D01*
X142133995Y-108742020D01*
X142144962Y-108725609D01*
X142198574Y-108680804D01*
X142248064Y-108670500D01*
X142860192Y-108670500D01*
X142927231Y-108690185D01*
X142972986Y-108742989D01*
X142982930Y-108812147D01*
X142953905Y-108875703D01*
X142947873Y-108882181D01*
X142397068Y-109432984D01*
X142335745Y-109466469D01*
X142333579Y-109466920D01*
X142266508Y-109480261D01*
X142266498Y-109480264D01*
X142120827Y-109540602D01*
X142120814Y-109540609D01*
X141989711Y-109628210D01*
X141989707Y-109628213D01*
X141878213Y-109739707D01*
X141878210Y-109739711D01*
X141790609Y-109870814D01*
X141790602Y-109870827D01*
X141730264Y-110016498D01*
X141730261Y-110016510D01*
X141699500Y-110171153D01*
X141699500Y-110328846D01*
X141730261Y-110483489D01*
X141730264Y-110483501D01*
X141790602Y-110629172D01*
X141790609Y-110629185D01*
X141878210Y-110760288D01*
X141878213Y-110760292D01*
X141989707Y-110871786D01*
X141989711Y-110871789D01*
X142120814Y-110959390D01*
X142120827Y-110959397D01*
X142266498Y-111019735D01*
X142266503Y-111019737D01*
X142421153Y-111050499D01*
X142421156Y-111050500D01*
X142421158Y-111050500D01*
X142578844Y-111050500D01*
X142578845Y-111050499D01*
X142733497Y-111019737D01*
X142879179Y-110959394D01*
X143010289Y-110871789D01*
X143121789Y-110760289D01*
X143209394Y-110629179D01*
X143212854Y-110620827D01*
X143222427Y-110597715D01*
X143269737Y-110483497D01*
X143283079Y-110416416D01*
X143315463Y-110354509D01*
X143316956Y-110352988D01*
X143813127Y-109856819D01*
X143874450Y-109823334D01*
X143900808Y-109820500D01*
X147181929Y-109820500D01*
X147248968Y-109840185D01*
X147282245Y-109871613D01*
X147383834Y-110011438D01*
X147388034Y-110017219D01*
X147532786Y-110161971D01*
X147635198Y-110236376D01*
X147698390Y-110282287D01*
X147789759Y-110328842D01*
X147791080Y-110329515D01*
X147841876Y-110377490D01*
X147858671Y-110445311D01*
X147836134Y-110511446D01*
X147791080Y-110550485D01*
X147698386Y-110597715D01*
X147532786Y-110718028D01*
X147388028Y-110862786D01*
X147267715Y-111028386D01*
X147174781Y-111210776D01*
X147111522Y-111405465D01*
X147079500Y-111607648D01*
X147079500Y-111812351D01*
X147111522Y-112014534D01*
X147174781Y-112209223D01*
X147267715Y-112391613D01*
X147388028Y-112557213D01*
X147532786Y-112701971D01*
X147687749Y-112814556D01*
X147698390Y-112822287D01*
X147789840Y-112868883D01*
X147791080Y-112869515D01*
X147841876Y-112917490D01*
X147858671Y-112985311D01*
X147836134Y-113051446D01*
X147791080Y-113090485D01*
X147698386Y-113137715D01*
X147532786Y-113258028D01*
X147388028Y-113402786D01*
X147267715Y-113568386D01*
X147174781Y-113750776D01*
X147111522Y-113945465D01*
X147079500Y-114147648D01*
X147079500Y-114352351D01*
X147111522Y-114554534D01*
X147174781Y-114749223D01*
X147223946Y-114845713D01*
X147262387Y-114921158D01*
X147267715Y-114931613D01*
X147388028Y-115097213D01*
X147532786Y-115241971D01*
X147687749Y-115354556D01*
X147698390Y-115362287D01*
X147789840Y-115408883D01*
X147791080Y-115409515D01*
X147841876Y-115457490D01*
X147858671Y-115525311D01*
X147836134Y-115591446D01*
X147791080Y-115630485D01*
X147698386Y-115677715D01*
X147532786Y-115798028D01*
X147388028Y-115942786D01*
X147267715Y-116108386D01*
X147174781Y-116290776D01*
X147111522Y-116485465D01*
X147079500Y-116687648D01*
X147079500Y-116892351D01*
X147111522Y-117094534D01*
X147174781Y-117289223D01*
X147222533Y-117382940D01*
X147261490Y-117459397D01*
X147267715Y-117471613D01*
X147388028Y-117637213D01*
X147532786Y-117781971D01*
X147651269Y-117868052D01*
X147698390Y-117902287D01*
X147787857Y-117947873D01*
X147791080Y-117949515D01*
X147841876Y-117997490D01*
X147858671Y-118065311D01*
X147836134Y-118131446D01*
X147791080Y-118170485D01*
X147698386Y-118217715D01*
X147532786Y-118338028D01*
X147388028Y-118482786D01*
X147267715Y-118648386D01*
X147174781Y-118830776D01*
X147111522Y-119025465D01*
X147081810Y-119213065D01*
X147079500Y-119227648D01*
X147079500Y-119432352D01*
X147083782Y-119459390D01*
X147111522Y-119634534D01*
X147174781Y-119829223D01*
X147238691Y-119954653D01*
X147264566Y-120005434D01*
X147267715Y-120011613D01*
X147388028Y-120177213D01*
X147532786Y-120321971D01*
X147683336Y-120431350D01*
X147698390Y-120442287D01*
X147789840Y-120488883D01*
X147791080Y-120489515D01*
X147841876Y-120537490D01*
X147858671Y-120605311D01*
X147836134Y-120671446D01*
X147791080Y-120710485D01*
X147698386Y-120757715D01*
X147532786Y-120878028D01*
X147388028Y-121022786D01*
X147267715Y-121188386D01*
X147174781Y-121370776D01*
X147111522Y-121565465D01*
X147079500Y-121767648D01*
X147079500Y-121972351D01*
X147111522Y-122174534D01*
X147174781Y-122369223D01*
X147267715Y-122551613D01*
X147388028Y-122717213D01*
X147532786Y-122861971D01*
X147698385Y-122982284D01*
X147698387Y-122982285D01*
X147698390Y-122982287D01*
X147789561Y-123028741D01*
X147791630Y-123029795D01*
X147842426Y-123077770D01*
X147859221Y-123145591D01*
X147836684Y-123211725D01*
X147791630Y-123250765D01*
X147698644Y-123298143D01*
X147654077Y-123330523D01*
X147654077Y-123330524D01*
X148333554Y-124010000D01*
X148327339Y-124010000D01*
X148225606Y-124037259D01*
X148134394Y-124089920D01*
X148059920Y-124164394D01*
X148007259Y-124255606D01*
X147980000Y-124357339D01*
X147980000Y-124363553D01*
X147300524Y-123684077D01*
X147300523Y-123684077D01*
X147268143Y-123728644D01*
X147175244Y-123910968D01*
X147112009Y-124105582D01*
X147080000Y-124307682D01*
X147080000Y-124512317D01*
X147112009Y-124714417D01*
X147175244Y-124909031D01*
X147268141Y-125091350D01*
X147268147Y-125091359D01*
X147300523Y-125135921D01*
X147300524Y-125135922D01*
X147980000Y-124456446D01*
X147980000Y-124462661D01*
X148007259Y-124564394D01*
X148059920Y-124655606D01*
X148134394Y-124730080D01*
X148225606Y-124782741D01*
X148327339Y-124810000D01*
X148333553Y-124810000D01*
X147654076Y-125489474D01*
X147698652Y-125521861D01*
X147791628Y-125569234D01*
X147842425Y-125617208D01*
X147859220Y-125685029D01*
X147836683Y-125751164D01*
X147791630Y-125790203D01*
X147698388Y-125837713D01*
X147532786Y-125958028D01*
X147388028Y-126102786D01*
X147267715Y-126268386D01*
X147174781Y-126450776D01*
X147111522Y-126645465D01*
X147079500Y-126847648D01*
X147079500Y-127052351D01*
X147111522Y-127254534D01*
X147174781Y-127449223D01*
X147212231Y-127522721D01*
X147256928Y-127610444D01*
X147267715Y-127631613D01*
X147388028Y-127797213D01*
X147532786Y-127941971D01*
X147664708Y-128037816D01*
X147698390Y-128062287D01*
X147787320Y-128107599D01*
X147791080Y-128109515D01*
X147841876Y-128157490D01*
X147858671Y-128225311D01*
X147836134Y-128291446D01*
X147791080Y-128330485D01*
X147698386Y-128377715D01*
X147532786Y-128498028D01*
X147388028Y-128642786D01*
X147267715Y-128808386D01*
X147174781Y-128990776D01*
X147111522Y-129185465D01*
X147079500Y-129387648D01*
X147079500Y-129592351D01*
X147111522Y-129794534D01*
X147174781Y-129989223D01*
X147220963Y-130079858D01*
X147260607Y-130157664D01*
X147267715Y-130171613D01*
X147388028Y-130337213D01*
X147532786Y-130481971D01*
X147673239Y-130584014D01*
X147698390Y-130602287D01*
X147780953Y-130644355D01*
X147791080Y-130649515D01*
X147841876Y-130697490D01*
X147858671Y-130765311D01*
X147836134Y-130831446D01*
X147791080Y-130870485D01*
X147698386Y-130917715D01*
X147532786Y-131038028D01*
X147388028Y-131182786D01*
X147267715Y-131348386D01*
X147174781Y-131530776D01*
X147111522Y-131725465D01*
X147079500Y-131927648D01*
X147079500Y-132132351D01*
X147111522Y-132334534D01*
X147174781Y-132529223D01*
X147236321Y-132650000D01*
X147266890Y-132709995D01*
X147267715Y-132711613D01*
X147388028Y-132877213D01*
X147532786Y-133021971D01*
X147687632Y-133134471D01*
X147698390Y-133142287D01*
X147789840Y-133188883D01*
X147791080Y-133189515D01*
X147841876Y-133237490D01*
X147858671Y-133305311D01*
X147836134Y-133371446D01*
X147791080Y-133410485D01*
X147698386Y-133457715D01*
X147532786Y-133578028D01*
X147388028Y-133722786D01*
X147267715Y-133888386D01*
X147174781Y-134070776D01*
X147111522Y-134265465D01*
X147079500Y-134467648D01*
X147079500Y-134672351D01*
X147111523Y-134874535D01*
X147111523Y-134874538D01*
X147174013Y-135066860D01*
X147176008Y-135136701D01*
X147139928Y-135196534D01*
X147124978Y-135208277D01*
X147115331Y-135214723D01*
X147115327Y-135214726D01*
X139897068Y-142432984D01*
X139835745Y-142466469D01*
X139833579Y-142466920D01*
X139766508Y-142480261D01*
X139766498Y-142480264D01*
X139620827Y-142540602D01*
X139620814Y-142540609D01*
X139507909Y-142616051D01*
X139441231Y-142636929D01*
X139373851Y-142618445D01*
X139351337Y-142600630D01*
X138038965Y-141288258D01*
X138012085Y-141248029D01*
X137959397Y-141120827D01*
X137959390Y-141120814D01*
X137871789Y-140989711D01*
X137871786Y-140989707D01*
X137760292Y-140878213D01*
X137760288Y-140878210D01*
X137629185Y-140790609D01*
X137629172Y-140790602D01*
X137483501Y-140730264D01*
X137483489Y-140730261D01*
X137328845Y-140699500D01*
X137328842Y-140699500D01*
X137171158Y-140699500D01*
X137171155Y-140699500D01*
X137016510Y-140730261D01*
X137016498Y-140730264D01*
X136870827Y-140790602D01*
X136870814Y-140790609D01*
X136739711Y-140878210D01*
X136739707Y-140878213D01*
X136628213Y-140989707D01*
X136628210Y-140989711D01*
X136540609Y-141120814D01*
X136540602Y-141120827D01*
X136480264Y-141266498D01*
X136480261Y-141266510D01*
X136449500Y-141421153D01*
X119125500Y-141421153D01*
X119125500Y-118812135D01*
X121399500Y-118812135D01*
X121399500Y-120607870D01*
X121399501Y-120607876D01*
X121405908Y-120667483D01*
X121456202Y-120802328D01*
X121456206Y-120802335D01*
X121542452Y-120917544D01*
X121542455Y-120917547D01*
X121657664Y-121003793D01*
X121657671Y-121003797D01*
X121789082Y-121052810D01*
X121845016Y-121094681D01*
X121869433Y-121160145D01*
X121854582Y-121228418D01*
X121833431Y-121256673D01*
X121719889Y-121370215D01*
X121594951Y-121542179D01*
X121498444Y-121731585D01*
X121432753Y-121933760D01*
X121415830Y-122040608D01*
X121399500Y-122143713D01*
X121399500Y-122356287D01*
X121402973Y-122378213D01*
X121430436Y-122551613D01*
X121432754Y-122566243D01*
X121497781Y-122766376D01*
X121498444Y-122768414D01*
X121594951Y-122957820D01*
X121719890Y-123129786D01*
X121870213Y-123280109D01*
X122042182Y-123405050D01*
X122050946Y-123409516D01*
X122101742Y-123457491D01*
X122118536Y-123525312D01*
X122095998Y-123591447D01*
X122050946Y-123630484D01*
X122042182Y-123634949D01*
X121870213Y-123759890D01*
X121719890Y-123910213D01*
X121594951Y-124082179D01*
X121498444Y-124271585D01*
X121432753Y-124473760D01*
X121412766Y-124599954D01*
X121399500Y-124683713D01*
X121399500Y-124896287D01*
X121401548Y-124909219D01*
X121430436Y-125091613D01*
X121432754Y-125106243D01*
X121493953Y-125294594D01*
X121498444Y-125308414D01*
X121594951Y-125497820D01*
X121719890Y-125669786D01*
X121870213Y-125820109D01*
X122042182Y-125945050D01*
X122050946Y-125949516D01*
X122101742Y-125997491D01*
X122118536Y-126065312D01*
X122095998Y-126131447D01*
X122050946Y-126170484D01*
X122042182Y-126174949D01*
X121870213Y-126299890D01*
X121719890Y-126450213D01*
X121594951Y-126622179D01*
X121498444Y-126811585D01*
X121432753Y-127013760D01*
X121399500Y-127223713D01*
X121399500Y-127436286D01*
X121430436Y-127631613D01*
X121432754Y-127646243D01*
X121492973Y-127831578D01*
X121498444Y-127848414D01*
X121594951Y-128037820D01*
X121719890Y-128209786D01*
X121870213Y-128360109D01*
X122042179Y-128485048D01*
X122042181Y-128485049D01*
X122042184Y-128485051D01*
X122231588Y-128581557D01*
X122433757Y-128647246D01*
X122643713Y-128680500D01*
X122643714Y-128680500D01*
X122856286Y-128680500D01*
X122856287Y-128680500D01*
X123066243Y-128647246D01*
X123268412Y-128581557D01*
X123457816Y-128485051D01*
X123496451Y-128456981D01*
X123527995Y-128434064D01*
X123593801Y-128410584D01*
X123661855Y-128426410D01*
X123710550Y-128476516D01*
X123724880Y-128534382D01*
X123724880Y-129369684D01*
X123705195Y-129436723D01*
X123703983Y-129438574D01*
X123665988Y-129495437D01*
X123665982Y-129495448D01*
X123605644Y-129641118D01*
X123605641Y-129641128D01*
X123574100Y-129799692D01*
X123541715Y-129861603D01*
X123480999Y-129896177D01*
X123452483Y-129899500D01*
X121852129Y-129899500D01*
X121852123Y-129899501D01*
X121792516Y-129905908D01*
X121657671Y-129956202D01*
X121657664Y-129956206D01*
X121542455Y-130042452D01*
X121542452Y-130042455D01*
X121456206Y-130157664D01*
X121456202Y-130157671D01*
X121405908Y-130292517D01*
X121399501Y-130352116D01*
X121399500Y-130352135D01*
X121399500Y-132147870D01*
X121399501Y-132147876D01*
X121405908Y-132207483D01*
X121456202Y-132342328D01*
X121456206Y-132342335D01*
X121542452Y-132457544D01*
X121542455Y-132457547D01*
X121657664Y-132543793D01*
X121657671Y-132543797D01*
X121789082Y-132592810D01*
X121845016Y-132634681D01*
X121869433Y-132700145D01*
X121854582Y-132768418D01*
X121833431Y-132796673D01*
X121719889Y-132910215D01*
X121594951Y-133082179D01*
X121498444Y-133271585D01*
X121498443Y-133271587D01*
X121498443Y-133271588D01*
X121487486Y-133305311D01*
X121432753Y-133473760D01*
X121399500Y-133683713D01*
X121399500Y-133896286D01*
X121432753Y-134106239D01*
X121498444Y-134308414D01*
X121594951Y-134497820D01*
X121719890Y-134669786D01*
X121870213Y-134820109D01*
X122042182Y-134945050D01*
X122050946Y-134949516D01*
X122101742Y-134997491D01*
X122118536Y-135065312D01*
X122095998Y-135131447D01*
X122050946Y-135170484D01*
X122042182Y-135174949D01*
X121870213Y-135299890D01*
X121719890Y-135450213D01*
X121594951Y-135622179D01*
X121498444Y-135811585D01*
X121498443Y-135811587D01*
X121498443Y-135811588D01*
X121487486Y-135845311D01*
X121432753Y-136013760D01*
X121399500Y-136223713D01*
X121399500Y-136436286D01*
X121428727Y-136620821D01*
X121432754Y-136646243D01*
X121471831Y-136766510D01*
X121498444Y-136848414D01*
X121594951Y-137037820D01*
X121719890Y-137209786D01*
X121870213Y-137360109D01*
X122042179Y-137485048D01*
X122042181Y-137485049D01*
X122042184Y-137485051D01*
X122051493Y-137489794D01*
X122102290Y-137537766D01*
X122119087Y-137605587D01*
X122096552Y-137671722D01*
X122051505Y-137710760D01*
X122042446Y-137715376D01*
X122042440Y-137715380D01*
X121988282Y-137754727D01*
X121988282Y-137754728D01*
X122620591Y-138387037D01*
X122557007Y-138404075D01*
X122442993Y-138469901D01*
X122349901Y-138562993D01*
X122284075Y-138677007D01*
X122267037Y-138740591D01*
X121634728Y-138108282D01*
X121634727Y-138108282D01*
X121595380Y-138162439D01*
X121498904Y-138351782D01*
X121433242Y-138553869D01*
X121433242Y-138553872D01*
X121400000Y-138763753D01*
X121400000Y-138976246D01*
X121433242Y-139186127D01*
X121433242Y-139186130D01*
X121498904Y-139388217D01*
X121595375Y-139577550D01*
X121634728Y-139631716D01*
X122267037Y-138999408D01*
X122284075Y-139062993D01*
X122349901Y-139177007D01*
X122442993Y-139270099D01*
X122557007Y-139335925D01*
X122620590Y-139352962D01*
X121988282Y-139985269D01*
X121988282Y-139985270D01*
X122042449Y-140024624D01*
X122231782Y-140121095D01*
X122433870Y-140186757D01*
X122643754Y-140220000D01*
X122856246Y-140220000D01*
X123066127Y-140186757D01*
X123066130Y-140186757D01*
X123268217Y-140121095D01*
X123457554Y-140024622D01*
X123511716Y-139985270D01*
X123511717Y-139985270D01*
X122879408Y-139352962D01*
X122942993Y-139335925D01*
X123057007Y-139270099D01*
X123150099Y-139177007D01*
X123215925Y-139062993D01*
X123232962Y-138999409D01*
X123865270Y-139631717D01*
X123865270Y-139631716D01*
X123904622Y-139577554D01*
X124001095Y-139388217D01*
X124066757Y-139186130D01*
X124066757Y-139186127D01*
X124100000Y-138976246D01*
X124100000Y-138763753D01*
X124066757Y-138553872D01*
X124066757Y-138553869D01*
X124001095Y-138351782D01*
X123904624Y-138162449D01*
X123865270Y-138108282D01*
X123865269Y-138108282D01*
X123232962Y-138740590D01*
X123215925Y-138677007D01*
X123150099Y-138562993D01*
X123057007Y-138469901D01*
X122942993Y-138404075D01*
X122879409Y-138387037D01*
X123511716Y-137754728D01*
X123457547Y-137715373D01*
X123457547Y-137715372D01*
X123448500Y-137710763D01*
X123397706Y-137662788D01*
X123380912Y-137594966D01*
X123403451Y-137528832D01*
X123448508Y-137489793D01*
X123457816Y-137485051D01*
X123554875Y-137414534D01*
X123629786Y-137360109D01*
X123629788Y-137360106D01*
X123629792Y-137360104D01*
X123780104Y-137209792D01*
X123780106Y-137209788D01*
X123780109Y-137209786D01*
X123905048Y-137037820D01*
X123905047Y-137037820D01*
X123905051Y-137037816D01*
X124001557Y-136848412D01*
X124067246Y-136646243D01*
X124100500Y-136436287D01*
X124100500Y-136223713D01*
X124067246Y-136013757D01*
X124001557Y-135811588D01*
X123905051Y-135622184D01*
X123905049Y-135622181D01*
X123905048Y-135622179D01*
X123780109Y-135450213D01*
X123629786Y-135299890D01*
X123457820Y-135174951D01*
X123457115Y-135174591D01*
X123449054Y-135170485D01*
X123398259Y-135122512D01*
X123381463Y-135054692D01*
X123403999Y-134988556D01*
X123449054Y-134949515D01*
X123457816Y-134945051D01*
X123554875Y-134874534D01*
X123629786Y-134820109D01*
X123629788Y-134820106D01*
X123629792Y-134820104D01*
X123780104Y-134669792D01*
X123780106Y-134669788D01*
X123780109Y-134669786D01*
X123905048Y-134497820D01*
X123905047Y-134497820D01*
X123905051Y-134497816D01*
X124001557Y-134308412D01*
X124067246Y-134106243D01*
X124100500Y-133896287D01*
X124100500Y-133683713D01*
X124067246Y-133473757D01*
X124001557Y-133271588D01*
X123905051Y-133082184D01*
X123905049Y-133082181D01*
X123905048Y-133082179D01*
X123780109Y-132910213D01*
X123666569Y-132796673D01*
X123633084Y-132735350D01*
X123638068Y-132665658D01*
X123679940Y-132609725D01*
X123710915Y-132592810D01*
X123842331Y-132543796D01*
X123957546Y-132457546D01*
X124043796Y-132342331D01*
X124094091Y-132207483D01*
X124100500Y-132147873D01*
X124100499Y-130787219D01*
X124120184Y-130720181D01*
X124172987Y-130674426D01*
X124242146Y-130664482D01*
X124248691Y-130665603D01*
X124296535Y-130675120D01*
X124296538Y-130675120D01*
X124454224Y-130675120D01*
X124454225Y-130675119D01*
X124608877Y-130644357D01*
X124754559Y-130584014D01*
X124885669Y-130496409D01*
X124908983Y-130473095D01*
X124987819Y-130394260D01*
X125049142Y-130360775D01*
X125118834Y-130365759D01*
X125174767Y-130407631D01*
X125199184Y-130473095D01*
X125199500Y-130481941D01*
X125199500Y-130995064D01*
X125179815Y-131062103D01*
X125178603Y-131063954D01*
X125140608Y-131120817D01*
X125140602Y-131120828D01*
X125080264Y-131266498D01*
X125080261Y-131266510D01*
X125049500Y-131421153D01*
X125049500Y-131578846D01*
X125080261Y-131733489D01*
X125080264Y-131733501D01*
X125140602Y-131879172D01*
X125140609Y-131879185D01*
X125228210Y-132010288D01*
X125228213Y-132010292D01*
X125339707Y-132121786D01*
X125339711Y-132121789D01*
X125470814Y-132209390D01*
X125470827Y-132209397D01*
X125622130Y-132272068D01*
X125621588Y-132273375D01*
X125674074Y-132307773D01*
X125702530Y-132371585D01*
X125701257Y-132412321D01*
X125699500Y-132421154D01*
X125699500Y-132578846D01*
X125730261Y-132733489D01*
X125730264Y-132733501D01*
X125790602Y-132879172D01*
X125790609Y-132879185D01*
X125878210Y-133010288D01*
X125878213Y-133010292D01*
X125989707Y-133121786D01*
X125989711Y-133121789D01*
X126120814Y-133209390D01*
X126120827Y-133209397D01*
X126221190Y-133250968D01*
X126266503Y-133269737D01*
X126410988Y-133298477D01*
X126421153Y-133300499D01*
X126421156Y-133300500D01*
X126421158Y-133300500D01*
X126578844Y-133300500D01*
X126578845Y-133300499D01*
X126733497Y-133269737D01*
X126879179Y-133209394D01*
X127010289Y-133121789D01*
X127121789Y-133010289D01*
X127209394Y-132879179D01*
X127269737Y-132733497D01*
X127300500Y-132578842D01*
X127300500Y-132421158D01*
X127300500Y-132421155D01*
X127300499Y-132421153D01*
X127290639Y-132371585D01*
X127269737Y-132266503D01*
X127220603Y-132147883D01*
X127209397Y-132120828D01*
X127209396Y-132120827D01*
X127209394Y-132120821D01*
X127171396Y-132063953D01*
X127150520Y-131997276D01*
X127150500Y-131995064D01*
X127150500Y-128369808D01*
X127170185Y-128302769D01*
X127222989Y-128257014D01*
X127292147Y-128247070D01*
X127355703Y-128276095D01*
X127362181Y-128282127D01*
X138932984Y-139852930D01*
X138966469Y-139914253D01*
X138966920Y-139916420D01*
X138980261Y-139983489D01*
X138980264Y-139983501D01*
X139040602Y-140129172D01*
X139040609Y-140129185D01*
X139128210Y-140260288D01*
X139128213Y-140260292D01*
X139239707Y-140371786D01*
X139239711Y-140371789D01*
X139370814Y-140459390D01*
X139370827Y-140459397D01*
X139462139Y-140497219D01*
X139516503Y-140519737D01*
X139671153Y-140550499D01*
X139671156Y-140550500D01*
X139671158Y-140550500D01*
X139828844Y-140550500D01*
X139828845Y-140550499D01*
X139983497Y-140519737D01*
X140129179Y-140459394D01*
X140260289Y-140371789D01*
X140371789Y-140260289D01*
X140459394Y-140129179D01*
X140462743Y-140121095D01*
X140502702Y-140024624D01*
X140519737Y-139983497D01*
X140550500Y-139828842D01*
X140550500Y-139671158D01*
X140550500Y-139671155D01*
X140550499Y-139671153D01*
X140542654Y-139631716D01*
X140519737Y-139516503D01*
X140474050Y-139406204D01*
X140459397Y-139370827D01*
X140459390Y-139370814D01*
X140371789Y-139239711D01*
X140371786Y-139239707D01*
X140260292Y-139128213D01*
X140260288Y-139128210D01*
X140129185Y-139040609D01*
X140129172Y-139040602D01*
X139983501Y-138980264D01*
X139983489Y-138980261D01*
X139916420Y-138966920D01*
X139854509Y-138934535D01*
X139852930Y-138932984D01*
X131651523Y-130731577D01*
X138434500Y-130731577D01*
X138434500Y-130928422D01*
X138465290Y-131122826D01*
X138526117Y-131310029D01*
X138588591Y-131432640D01*
X138615476Y-131485405D01*
X138731172Y-131644646D01*
X138870354Y-131783828D01*
X139029595Y-131899524D01*
X139084792Y-131927648D01*
X139204970Y-131988882D01*
X139204972Y-131988882D01*
X139204975Y-131988884D01*
X139270862Y-132010292D01*
X139392173Y-132049709D01*
X139586578Y-132080500D01*
X139586583Y-132080500D01*
X139783422Y-132080500D01*
X139977826Y-132049709D01*
X140165025Y-131988884D01*
X140340405Y-131899524D01*
X140499646Y-131783828D01*
X140638828Y-131644646D01*
X140754524Y-131485405D01*
X140843884Y-131310025D01*
X140904709Y-131122826D01*
X140905263Y-131119331D01*
X140935500Y-130928422D01*
X140935500Y-130731577D01*
X140904709Y-130537173D01*
X140855235Y-130384909D01*
X140843884Y-130349975D01*
X140843882Y-130349972D01*
X140843882Y-130349970D01*
X140754523Y-130174594D01*
X140742226Y-130157669D01*
X140638828Y-130015354D01*
X140499646Y-129876172D01*
X140340405Y-129760476D01*
X140165029Y-129671117D01*
X139977826Y-129610290D01*
X139783422Y-129579500D01*
X139783417Y-129579500D01*
X139586583Y-129579500D01*
X139586578Y-129579500D01*
X139392173Y-129610290D01*
X139204970Y-129671117D01*
X139029594Y-129760476D01*
X138981006Y-129795778D01*
X138870354Y-129876172D01*
X138870352Y-129876174D01*
X138870351Y-129876174D01*
X138731174Y-130015351D01*
X138731174Y-130015352D01*
X138731172Y-130015354D01*
X138718985Y-130032128D01*
X138615476Y-130174594D01*
X138526117Y-130349970D01*
X138465290Y-130537173D01*
X138434500Y-130731577D01*
X131651523Y-130731577D01*
X128436819Y-127516873D01*
X128403334Y-127455550D01*
X128400500Y-127429192D01*
X128400500Y-125851577D01*
X138434500Y-125851577D01*
X138434500Y-126048422D01*
X138465290Y-126242826D01*
X138526117Y-126430029D01*
X138615476Y-126605405D01*
X138731172Y-126764646D01*
X138870354Y-126903828D01*
X139029595Y-127019524D01*
X139094022Y-127052351D01*
X139204970Y-127108882D01*
X139204972Y-127108882D01*
X139204975Y-127108884D01*
X139305317Y-127141487D01*
X139392173Y-127169709D01*
X139586578Y-127200500D01*
X139586583Y-127200500D01*
X139783422Y-127200500D01*
X139977826Y-127169709D01*
X140165025Y-127108884D01*
X140340405Y-127019524D01*
X140499646Y-126903828D01*
X140638828Y-126764646D01*
X140754524Y-126605405D01*
X140843884Y-126430025D01*
X140904709Y-126242826D01*
X140916167Y-126170484D01*
X140935500Y-126048422D01*
X140935500Y-125851577D01*
X140904709Y-125657173D01*
X140856983Y-125510289D01*
X140843884Y-125469975D01*
X140843882Y-125469972D01*
X140843882Y-125469970D01*
X140761049Y-125307401D01*
X140754524Y-125294595D01*
X140638828Y-125135354D01*
X140499646Y-124996172D01*
X140340405Y-124880476D01*
X140165029Y-124791117D01*
X139977826Y-124730290D01*
X139783422Y-124699500D01*
X139783417Y-124699500D01*
X139586583Y-124699500D01*
X139586578Y-124699500D01*
X139392173Y-124730290D01*
X139204970Y-124791117D01*
X139029594Y-124880476D01*
X138989461Y-124909635D01*
X138870354Y-124996172D01*
X138870352Y-124996174D01*
X138870351Y-124996174D01*
X138731174Y-125135351D01*
X138731174Y-125135352D01*
X138731172Y-125135354D01*
X138713266Y-125160000D01*
X138615476Y-125294594D01*
X138526117Y-125469970D01*
X138465290Y-125657173D01*
X138434500Y-125851577D01*
X128400500Y-125851577D01*
X128400500Y-122813863D01*
X128375502Y-122688196D01*
X128375501Y-122688195D01*
X128375501Y-122688191D01*
X128326465Y-122569808D01*
X128290848Y-122516503D01*
X128255277Y-122463266D01*
X128255275Y-122463263D01*
X128255272Y-122463261D01*
X128212667Y-122420656D01*
X128179181Y-122359333D01*
X128178758Y-122357302D01*
X128165389Y-122290090D01*
X128117476Y-122174417D01*
X128105049Y-122144414D01*
X128105042Y-122144401D01*
X128029600Y-122031495D01*
X128008722Y-121964818D01*
X128027206Y-121897438D01*
X128045016Y-121874928D01*
X128605277Y-121314669D01*
X128676465Y-121208127D01*
X128725501Y-121089743D01*
X128733308Y-121050499D01*
X128743933Y-120997085D01*
X128750500Y-120964071D01*
X128750500Y-117631947D01*
X131750000Y-117631947D01*
X131750000Y-117868052D01*
X131786934Y-118101247D01*
X131859897Y-118325802D01*
X131967087Y-118536174D01*
X132027338Y-118619104D01*
X132027340Y-118619105D01*
X132726212Y-117920233D01*
X132737482Y-117962292D01*
X132809890Y-118087708D01*
X132912292Y-118190110D01*
X133037708Y-118262518D01*
X133079765Y-118273787D01*
X132380893Y-118972658D01*
X132463828Y-119032914D01*
X132674197Y-119140102D01*
X132898752Y-119213065D01*
X132898751Y-119213065D01*
X133131948Y-119250000D01*
X133368052Y-119250000D01*
X133601247Y-119213065D01*
X133825802Y-119140102D01*
X134036163Y-119032918D01*
X134036169Y-119032914D01*
X134119104Y-118972658D01*
X134119105Y-118972658D01*
X133420233Y-118273787D01*
X133462292Y-118262518D01*
X133587708Y-118190110D01*
X133690110Y-118087708D01*
X133762518Y-117962292D01*
X133773787Y-117920234D01*
X134472658Y-118619105D01*
X134472658Y-118619104D01*
X134532914Y-118536169D01*
X134532918Y-118536163D01*
X134640102Y-118325802D01*
X134713065Y-118101247D01*
X134750000Y-117868052D01*
X134750000Y-117631947D01*
X134713065Y-117398752D01*
X134640102Y-117174197D01*
X134532914Y-116963828D01*
X134472658Y-116880894D01*
X134472658Y-116880893D01*
X133773787Y-117579765D01*
X133762518Y-117537708D01*
X133690110Y-117412292D01*
X133587708Y-117309890D01*
X133462292Y-117237482D01*
X133420234Y-117226212D01*
X134119105Y-116527340D01*
X134119104Y-116527338D01*
X134036174Y-116467087D01*
X133825802Y-116359897D01*
X133601247Y-116286934D01*
X133601248Y-116286934D01*
X133368052Y-116250000D01*
X133131948Y-116250000D01*
X132898752Y-116286934D01*
X132674197Y-116359897D01*
X132463830Y-116467084D01*
X132380894Y-116527340D01*
X133079766Y-117226212D01*
X133037708Y-117237482D01*
X132912292Y-117309890D01*
X132809890Y-117412292D01*
X132737482Y-117537708D01*
X132726212Y-117579766D01*
X132027340Y-116880894D01*
X131967084Y-116963830D01*
X131859897Y-117174197D01*
X131786934Y-117398752D01*
X131750000Y-117631947D01*
X128750500Y-117631947D01*
X128750500Y-114421153D01*
X129699500Y-114421153D01*
X129699500Y-114578846D01*
X129730261Y-114733489D01*
X129730264Y-114733501D01*
X129790602Y-114879172D01*
X129790609Y-114879185D01*
X129878210Y-115010288D01*
X129878213Y-115010292D01*
X129989707Y-115121786D01*
X129989711Y-115121789D01*
X130120814Y-115209390D01*
X130120827Y-115209397D01*
X130266498Y-115269735D01*
X130266503Y-115269737D01*
X130421153Y-115300499D01*
X130421156Y-115300500D01*
X130421158Y-115300500D01*
X130578844Y-115300500D01*
X130578845Y-115300499D01*
X130733497Y-115269737D01*
X130879179Y-115209394D01*
X131010289Y-115121789D01*
X131121789Y-115010289D01*
X131181348Y-114921153D01*
X142199500Y-114921153D01*
X142199500Y-115078846D01*
X142230261Y-115233489D01*
X142230264Y-115233501D01*
X142290602Y-115379172D01*
X142290609Y-115379185D01*
X142378210Y-115510288D01*
X142378213Y-115510292D01*
X144163181Y-117295259D01*
X144196666Y-117356582D01*
X144199500Y-117382940D01*
X144199500Y-118828846D01*
X144230261Y-118983489D01*
X144230264Y-118983501D01*
X144290602Y-119129172D01*
X144290609Y-119129185D01*
X144378210Y-119260288D01*
X144378213Y-119260292D01*
X144489707Y-119371786D01*
X144489711Y-119371789D01*
X144620814Y-119459390D01*
X144620827Y-119459397D01*
X144683948Y-119485542D01*
X144766503Y-119519737D01*
X144902884Y-119546865D01*
X144921153Y-119550499D01*
X144921156Y-119550500D01*
X144921158Y-119550500D01*
X145078844Y-119550500D01*
X145078845Y-119550499D01*
X145233497Y-119519737D01*
X145379179Y-119459394D01*
X145510289Y-119371789D01*
X145621789Y-119260289D01*
X145709394Y-119129179D01*
X145769737Y-118983497D01*
X145800500Y-118828842D01*
X145800500Y-118671158D01*
X145800500Y-116921158D01*
X145800500Y-116921155D01*
X145800499Y-116921153D01*
X145782137Y-116828842D01*
X145769737Y-116766503D01*
X145750681Y-116720497D01*
X145709397Y-116620827D01*
X145709390Y-116620814D01*
X145621790Y-116489712D01*
X145568897Y-116436819D01*
X145510289Y-116378211D01*
X144511250Y-115379172D01*
X143510292Y-114378213D01*
X143510288Y-114378210D01*
X143379185Y-114290609D01*
X143379172Y-114290602D01*
X143233501Y-114230264D01*
X143233489Y-114230261D01*
X143078845Y-114199500D01*
X143078842Y-114199500D01*
X142921158Y-114199500D01*
X142921155Y-114199500D01*
X142766510Y-114230261D01*
X142766498Y-114230264D01*
X142620827Y-114290602D01*
X142620814Y-114290609D01*
X142489711Y-114378210D01*
X142489707Y-114378213D01*
X142378213Y-114489707D01*
X142378210Y-114489711D01*
X142290609Y-114620814D01*
X142290602Y-114620827D01*
X142230264Y-114766498D01*
X142230261Y-114766510D01*
X142199500Y-114921153D01*
X131181348Y-114921153D01*
X131209394Y-114879179D01*
X131269737Y-114733497D01*
X131300500Y-114578842D01*
X131300500Y-114421158D01*
X131300500Y-114421155D01*
X131300499Y-114421153D01*
X131291957Y-114378210D01*
X131269737Y-114266503D01*
X131267382Y-114260819D01*
X131259911Y-114191353D01*
X131291183Y-114128872D01*
X131294233Y-114125711D01*
X131651246Y-113768698D01*
X131712567Y-113735215D01*
X131782259Y-113740199D01*
X131838192Y-113782071D01*
X131856855Y-113818061D01*
X131859432Y-113825992D01*
X131966657Y-114036433D01*
X132105483Y-114227510D01*
X132272490Y-114394517D01*
X132463567Y-114533343D01*
X132505157Y-114554534D01*
X132674003Y-114640566D01*
X132674005Y-114640566D01*
X132674008Y-114640568D01*
X132794412Y-114679689D01*
X132898631Y-114713553D01*
X133131903Y-114750500D01*
X133131908Y-114750500D01*
X133368097Y-114750500D01*
X133601368Y-114713553D01*
X133825992Y-114640568D01*
X134036433Y-114533343D01*
X134227510Y-114394517D01*
X134394517Y-114227510D01*
X134533343Y-114036433D01*
X134640568Y-113825992D01*
X134713553Y-113601368D01*
X134716093Y-113585331D01*
X134750500Y-113368097D01*
X134750500Y-113131902D01*
X134713553Y-112898631D01*
X134679689Y-112794412D01*
X134640568Y-112674008D01*
X134640566Y-112674005D01*
X134640566Y-112674003D01*
X134581058Y-112557213D01*
X134533343Y-112463567D01*
X134394517Y-112272490D01*
X134227510Y-112105483D01*
X134067937Y-111989546D01*
X134036431Y-111966655D01*
X133917274Y-111905941D01*
X133866479Y-111857967D01*
X133849684Y-111790146D01*
X133872222Y-111724011D01*
X133904677Y-111692356D01*
X134010289Y-111621789D01*
X134121789Y-111510289D01*
X134209394Y-111379179D01*
X134269737Y-111233497D01*
X134300500Y-111078842D01*
X134300500Y-110921158D01*
X134300500Y-110921155D01*
X134300499Y-110921153D01*
X134269738Y-110766510D01*
X134269738Y-110766508D01*
X134269737Y-110766503D01*
X134215246Y-110634949D01*
X134209397Y-110620827D01*
X134209390Y-110620814D01*
X134121789Y-110489711D01*
X134121786Y-110489707D01*
X134010292Y-110378213D01*
X134010288Y-110378210D01*
X133879185Y-110290609D01*
X133879172Y-110290602D01*
X133733501Y-110230264D01*
X133733489Y-110230261D01*
X133578845Y-110199500D01*
X133578842Y-110199500D01*
X133421158Y-110199500D01*
X133421155Y-110199500D01*
X133266510Y-110230261D01*
X133266498Y-110230264D01*
X133120827Y-110290602D01*
X133120814Y-110290609D01*
X132989711Y-110378210D01*
X132989707Y-110378213D01*
X132878213Y-110489707D01*
X132878210Y-110489711D01*
X132790609Y-110620814D01*
X132790602Y-110620827D01*
X132730264Y-110766498D01*
X132730261Y-110766508D01*
X132716920Y-110833579D01*
X132684535Y-110895490D01*
X132682984Y-110897068D01*
X129994725Y-113585328D01*
X129994723Y-113585331D01*
X129984008Y-113601368D01*
X129984006Y-113601369D01*
X129984006Y-113601370D01*
X129923535Y-113691870D01*
X129874499Y-113810255D01*
X129874497Y-113810261D01*
X129849500Y-113935928D01*
X129849500Y-113995064D01*
X129829815Y-114062103D01*
X129828603Y-114063954D01*
X129790608Y-114120817D01*
X129790602Y-114120828D01*
X129730264Y-114266498D01*
X129730261Y-114266510D01*
X129699500Y-114421153D01*
X128750500Y-114421153D01*
X128750500Y-112220807D01*
X128770185Y-112153768D01*
X128786814Y-112133131D01*
X134102931Y-106817013D01*
X134164252Y-106783530D01*
X134166317Y-106783099D01*
X134233497Y-106769737D01*
X134379179Y-106709394D01*
X134510289Y-106621789D01*
X134621789Y-106510289D01*
X134709394Y-106379179D01*
X134769737Y-106233497D01*
X134800500Y-106078842D01*
X134800500Y-105921158D01*
X134800500Y-105921155D01*
X134800499Y-105921153D01*
X134799558Y-105916420D01*
X134769737Y-105766503D01*
X134763944Y-105752517D01*
X134709397Y-105620827D01*
X134709390Y-105620814D01*
X134621789Y-105489711D01*
X134621786Y-105489707D01*
X134510292Y-105378213D01*
X134510288Y-105378210D01*
X134379185Y-105290609D01*
X134379172Y-105290602D01*
X134233501Y-105230264D01*
X134233489Y-105230261D01*
X134078845Y-105199500D01*
X134078842Y-105199500D01*
X133921158Y-105199500D01*
X133921155Y-105199500D01*
X133766510Y-105230261D01*
X133766498Y-105230264D01*
X133620827Y-105290602D01*
X133620814Y-105290609D01*
X133489711Y-105378210D01*
X133489707Y-105378213D01*
X133378213Y-105489707D01*
X133378210Y-105489711D01*
X133290609Y-105620814D01*
X133290602Y-105620827D01*
X133230264Y-105766498D01*
X133230261Y-105766508D01*
X133216920Y-105833579D01*
X133184535Y-105895490D01*
X133182984Y-105897068D01*
X127594724Y-111485328D01*
X127533830Y-111576463D01*
X127533831Y-111576464D01*
X127523536Y-111591871D01*
X127523533Y-111591877D01*
X127474499Y-111710255D01*
X127474497Y-111710260D01*
X127464834Y-111758840D01*
X127432448Y-111820751D01*
X127371732Y-111855324D01*
X127304899Y-111852578D01*
X127101370Y-111786447D01*
X126868097Y-111749500D01*
X126868092Y-111749500D01*
X126631908Y-111749500D01*
X126631903Y-111749500D01*
X126398631Y-111786446D01*
X126174003Y-111859433D01*
X125963566Y-111966657D01*
X125897670Y-112014534D01*
X125772490Y-112105483D01*
X125772488Y-112105485D01*
X125772487Y-112105485D01*
X125605485Y-112272487D01*
X125605485Y-112272488D01*
X125605483Y-112272490D01*
X125579384Y-112308412D01*
X125466657Y-112463566D01*
X125359433Y-112674003D01*
X125286446Y-112898631D01*
X125249500Y-113131902D01*
X125249500Y-113368097D01*
X125286446Y-113601368D01*
X125359433Y-113825996D01*
X125459809Y-114022993D01*
X125466657Y-114036433D01*
X125605483Y-114227510D01*
X125772490Y-114394517D01*
X125963567Y-114533343D01*
X126005157Y-114554534D01*
X126174003Y-114640566D01*
X126174005Y-114640566D01*
X126174008Y-114640568D01*
X126294412Y-114679689D01*
X126398631Y-114713553D01*
X126631903Y-114750500D01*
X126631908Y-114750500D01*
X126868096Y-114750500D01*
X126954268Y-114736851D01*
X127029022Y-114725011D01*
X127098315Y-114733965D01*
X127151767Y-114778961D01*
X127172407Y-114845713D01*
X127153682Y-114913026D01*
X127101538Y-114959531D01*
X127072613Y-114969101D01*
X127016507Y-114980261D01*
X127016498Y-114980264D01*
X126870827Y-115040602D01*
X126870820Y-115040606D01*
X126841928Y-115059911D01*
X126813955Y-115078602D01*
X126747279Y-115099480D01*
X126745065Y-115099500D01*
X125345878Y-115099500D01*
X125220210Y-115124497D01*
X125220200Y-115124500D01*
X125171169Y-115144810D01*
X125101830Y-115173530D01*
X125101812Y-115173540D01*
X124995281Y-115244721D01*
X124995274Y-115244727D01*
X123870104Y-116369897D01*
X123822012Y-116441872D01*
X123822013Y-116441873D01*
X123798914Y-116476443D01*
X123749879Y-116594824D01*
X123749877Y-116594830D01*
X123724880Y-116720497D01*
X123724880Y-118235500D01*
X123705195Y-118302539D01*
X123652391Y-118348294D01*
X123600880Y-118359500D01*
X121852129Y-118359500D01*
X121852123Y-118359501D01*
X121792516Y-118365908D01*
X121657671Y-118416202D01*
X121657664Y-118416206D01*
X121542455Y-118502452D01*
X121542452Y-118502455D01*
X121456206Y-118617664D01*
X121456202Y-118617671D01*
X121405908Y-118752517D01*
X121399501Y-118812116D01*
X121399500Y-118812135D01*
X119125500Y-118812135D01*
X119125500Y-105812135D01*
X121399500Y-105812135D01*
X121399500Y-107607870D01*
X121399501Y-107607876D01*
X121405908Y-107667483D01*
X121456202Y-107802328D01*
X121456206Y-107802335D01*
X121542452Y-107917544D01*
X121542455Y-107917547D01*
X121657664Y-108003793D01*
X121657671Y-108003797D01*
X121789082Y-108052810D01*
X121845016Y-108094681D01*
X121869433Y-108160145D01*
X121854582Y-108228418D01*
X121833431Y-108256673D01*
X121719889Y-108370215D01*
X121594951Y-108542179D01*
X121498444Y-108731585D01*
X121432753Y-108933760D01*
X121399500Y-109143713D01*
X121399500Y-109356286D01*
X121423891Y-109510289D01*
X121432754Y-109566243D01*
X121489117Y-109739711D01*
X121498444Y-109768414D01*
X121594951Y-109957820D01*
X121719890Y-110129786D01*
X121870213Y-110280109D01*
X122042182Y-110405050D01*
X122050946Y-110409516D01*
X122101742Y-110457491D01*
X122118536Y-110525312D01*
X122095998Y-110591447D01*
X122050946Y-110630484D01*
X122042182Y-110634949D01*
X121870213Y-110759890D01*
X121719890Y-110910213D01*
X121594951Y-111082179D01*
X121498444Y-111271585D01*
X121432753Y-111473760D01*
X121399500Y-111683713D01*
X121399500Y-111896286D01*
X121432633Y-112105483D01*
X121432754Y-112106243D01*
X121486771Y-112272490D01*
X121498444Y-112308414D01*
X121594951Y-112497820D01*
X121719890Y-112669786D01*
X121870213Y-112820109D01*
X122042179Y-112945048D01*
X122042181Y-112945049D01*
X122042184Y-112945051D01*
X122051493Y-112949794D01*
X122102290Y-112997766D01*
X122119087Y-113065587D01*
X122096552Y-113131722D01*
X122051505Y-113170760D01*
X122042446Y-113175376D01*
X122042440Y-113175380D01*
X121988282Y-113214727D01*
X121988282Y-113214728D01*
X122620591Y-113847037D01*
X122557007Y-113864075D01*
X122442993Y-113929901D01*
X122349901Y-114022993D01*
X122284075Y-114137007D01*
X122267037Y-114200591D01*
X121634728Y-113568282D01*
X121634727Y-113568282D01*
X121595380Y-113622439D01*
X121498904Y-113811782D01*
X121433242Y-114013869D01*
X121433242Y-114013872D01*
X121400000Y-114223753D01*
X121400000Y-114436246D01*
X121433242Y-114646127D01*
X121433242Y-114646130D01*
X121498904Y-114848217D01*
X121595375Y-115037550D01*
X121634728Y-115091716D01*
X122267037Y-114459408D01*
X122284075Y-114522993D01*
X122349901Y-114637007D01*
X122442993Y-114730099D01*
X122557007Y-114795925D01*
X122620590Y-114812962D01*
X121988282Y-115445269D01*
X121988282Y-115445270D01*
X122042449Y-115484624D01*
X122231782Y-115581095D01*
X122433870Y-115646757D01*
X122643754Y-115680000D01*
X122856246Y-115680000D01*
X123066127Y-115646757D01*
X123066130Y-115646757D01*
X123268217Y-115581095D01*
X123457554Y-115484622D01*
X123511716Y-115445270D01*
X123511717Y-115445270D01*
X122879408Y-114812962D01*
X122942993Y-114795925D01*
X123057007Y-114730099D01*
X123150099Y-114637007D01*
X123215925Y-114522993D01*
X123232962Y-114459409D01*
X123865270Y-115091717D01*
X123865270Y-115091716D01*
X123904622Y-115037554D01*
X124001095Y-114848217D01*
X124066757Y-114646130D01*
X124066757Y-114646127D01*
X124100000Y-114436246D01*
X124100000Y-114223753D01*
X124066757Y-114013872D01*
X124066757Y-114013869D01*
X124001095Y-113811782D01*
X123904624Y-113622449D01*
X123865270Y-113568282D01*
X123865269Y-113568282D01*
X123232962Y-114200590D01*
X123215925Y-114137007D01*
X123150099Y-114022993D01*
X123057007Y-113929901D01*
X122942993Y-113864075D01*
X122879409Y-113847037D01*
X123511716Y-113214728D01*
X123457547Y-113175373D01*
X123457547Y-113175372D01*
X123448500Y-113170763D01*
X123397706Y-113122788D01*
X123380912Y-113054966D01*
X123403451Y-112988832D01*
X123448508Y-112949793D01*
X123457816Y-112945051D01*
X123561783Y-112869515D01*
X123629786Y-112820109D01*
X123629788Y-112820106D01*
X123629792Y-112820104D01*
X123780104Y-112669792D01*
X123780106Y-112669788D01*
X123780109Y-112669786D01*
X123905048Y-112497820D01*
X123905047Y-112497820D01*
X123905051Y-112497816D01*
X124001557Y-112308412D01*
X124067246Y-112106243D01*
X124100500Y-111896287D01*
X124100500Y-111683713D01*
X124067246Y-111473757D01*
X124001557Y-111271588D01*
X123905051Y-111082184D01*
X123905049Y-111082181D01*
X123905048Y-111082179D01*
X123780109Y-110910213D01*
X123629786Y-110759890D01*
X123457820Y-110634951D01*
X123457115Y-110634591D01*
X123449054Y-110630485D01*
X123398259Y-110582512D01*
X123381463Y-110514692D01*
X123403999Y-110448556D01*
X123449054Y-110409515D01*
X123457816Y-110405051D01*
X123527382Y-110354509D01*
X123629786Y-110280109D01*
X123629788Y-110280106D01*
X123629792Y-110280104D01*
X123780104Y-110129792D01*
X123780106Y-110129788D01*
X123780109Y-110129786D01*
X123905048Y-109957820D01*
X123905047Y-109957820D01*
X123905051Y-109957816D01*
X124001557Y-109768412D01*
X124067246Y-109566243D01*
X124100500Y-109356287D01*
X124100500Y-109143713D01*
X124067246Y-108933757D01*
X124001557Y-108731588D01*
X123905051Y-108542184D01*
X123905049Y-108542181D01*
X123905048Y-108542179D01*
X123780109Y-108370213D01*
X123666569Y-108256673D01*
X123633084Y-108195350D01*
X123638068Y-108125658D01*
X123679940Y-108069725D01*
X123710915Y-108052810D01*
X123842331Y-108003796D01*
X123957546Y-107917546D01*
X124043796Y-107802331D01*
X124094091Y-107667483D01*
X124100500Y-107607873D01*
X124100499Y-105812128D01*
X124094091Y-105752517D01*
X124051389Y-105638028D01*
X124043797Y-105617671D01*
X124043793Y-105617664D01*
X123957547Y-105502455D01*
X123957544Y-105502452D01*
X123842335Y-105416206D01*
X123842328Y-105416202D01*
X123707482Y-105365908D01*
X123707483Y-105365908D01*
X123647883Y-105359501D01*
X123647881Y-105359500D01*
X123647873Y-105359500D01*
X123647864Y-105359500D01*
X121852129Y-105359500D01*
X121852123Y-105359501D01*
X121792516Y-105365908D01*
X121657671Y-105416202D01*
X121657664Y-105416206D01*
X121542455Y-105502452D01*
X121542452Y-105502455D01*
X121456206Y-105617664D01*
X121456202Y-105617671D01*
X121405908Y-105752517D01*
X121399501Y-105812116D01*
X121399501Y-105812123D01*
X121399500Y-105812135D01*
X119125500Y-105812135D01*
X119125500Y-97567482D01*
X122749500Y-97567482D01*
X122749500Y-100167517D01*
X122760000Y-100270296D01*
X122815185Y-100436832D01*
X122815187Y-100436837D01*
X122821714Y-100447419D01*
X122907288Y-100586156D01*
X123031344Y-100710212D01*
X123180665Y-100802314D01*
X123347202Y-100857499D01*
X123449990Y-100868000D01*
X123449995Y-100868000D01*
X126050005Y-100868000D01*
X126050010Y-100868000D01*
X126152798Y-100857499D01*
X126319335Y-100802314D01*
X126468656Y-100710212D01*
X126592712Y-100586156D01*
X126684814Y-100436835D01*
X126739999Y-100270298D01*
X126750500Y-100167510D01*
X126750500Y-98736372D01*
X127749500Y-98736372D01*
X127749500Y-98998627D01*
X127772773Y-99175390D01*
X127783730Y-99258616D01*
X127851558Y-99511755D01*
X127851602Y-99511918D01*
X127851605Y-99511928D01*
X127951953Y-99754190D01*
X127951958Y-99754200D01*
X128083075Y-99981303D01*
X128242718Y-100189351D01*
X128242726Y-100189360D01*
X128428140Y-100374774D01*
X128428148Y-100374781D01*
X128636196Y-100534424D01*
X128863299Y-100665541D01*
X128863309Y-100665546D01*
X129105571Y-100765894D01*
X129105581Y-100765898D01*
X129358884Y-100833770D01*
X129607188Y-100866460D01*
X129615074Y-100867499D01*
X129618880Y-100868000D01*
X129618887Y-100868000D01*
X129881113Y-100868000D01*
X129881120Y-100868000D01*
X130141116Y-100833770D01*
X130394419Y-100765898D01*
X130636697Y-100665543D01*
X130863803Y-100534424D01*
X131071851Y-100374782D01*
X131071855Y-100374777D01*
X131071860Y-100374774D01*
X131257274Y-100189360D01*
X131257277Y-100189355D01*
X131257282Y-100189351D01*
X131416924Y-99981303D01*
X131548043Y-99754197D01*
X131648398Y-99511919D01*
X131716270Y-99258616D01*
X131750500Y-98998620D01*
X131750500Y-98736405D01*
X132750000Y-98736405D01*
X132750000Y-98998594D01*
X132784220Y-99258509D01*
X132784222Y-99258520D01*
X132852075Y-99511755D01*
X132952404Y-99753971D01*
X132952409Y-99753982D01*
X133083488Y-99981016D01*
X133083494Y-99981024D01*
X133170080Y-100093865D01*
X134148958Y-99114987D01*
X134173978Y-99175390D01*
X134245112Y-99281851D01*
X134335649Y-99372388D01*
X134442110Y-99443522D01*
X134502511Y-99468541D01*
X133523633Y-100447417D01*
X133523633Y-100447418D01*
X133636475Y-100534005D01*
X133636483Y-100534011D01*
X133863517Y-100665090D01*
X133863528Y-100665095D01*
X134105744Y-100765424D01*
X134358979Y-100833277D01*
X134358990Y-100833279D01*
X134618905Y-100867499D01*
X134618920Y-100867500D01*
X134881080Y-100867500D01*
X134881094Y-100867499D01*
X135141009Y-100833279D01*
X135141020Y-100833277D01*
X135394255Y-100765424D01*
X135636471Y-100665095D01*
X135636482Y-100665090D01*
X135863516Y-100534011D01*
X135863534Y-100533999D01*
X135976365Y-100447419D01*
X135976365Y-100447417D01*
X134997488Y-99468541D01*
X135057890Y-99443522D01*
X135164351Y-99372388D01*
X135254888Y-99281851D01*
X135326022Y-99175390D01*
X135351041Y-99114989D01*
X136329917Y-100093865D01*
X136329919Y-100093865D01*
X136416499Y-99981034D01*
X136416511Y-99981016D01*
X136547590Y-99753982D01*
X136547595Y-99753971D01*
X136647924Y-99511755D01*
X136715777Y-99258520D01*
X136715779Y-99258509D01*
X136749999Y-98998594D01*
X136750000Y-98998580D01*
X136750000Y-98736419D01*
X136749999Y-98736405D01*
X136715779Y-98476490D01*
X136715777Y-98476479D01*
X136647924Y-98223244D01*
X136547595Y-97981028D01*
X136547590Y-97981017D01*
X136416511Y-97753983D01*
X136416505Y-97753975D01*
X136355363Y-97674293D01*
X136329918Y-97641133D01*
X136329917Y-97641133D01*
X135351041Y-98620010D01*
X135326022Y-98559610D01*
X135254888Y-98453149D01*
X135164351Y-98362612D01*
X135057890Y-98291478D01*
X134997487Y-98266457D01*
X135661810Y-97602135D01*
X138279500Y-97602135D01*
X138279500Y-99397870D01*
X138279501Y-99397876D01*
X138285908Y-99457483D01*
X138336202Y-99592328D01*
X138336206Y-99592335D01*
X138422452Y-99707544D01*
X138422455Y-99707547D01*
X138537664Y-99793793D01*
X138537671Y-99793797D01*
X138672517Y-99844091D01*
X138672516Y-99844091D01*
X138679444Y-99844835D01*
X138732127Y-99850500D01*
X140527872Y-99850499D01*
X140587483Y-99844091D01*
X140722331Y-99793796D01*
X140837546Y-99707546D01*
X140923796Y-99592331D01*
X140972810Y-99460916D01*
X141014681Y-99404984D01*
X141080145Y-99380566D01*
X141148418Y-99395417D01*
X141176673Y-99416569D01*
X141290213Y-99530109D01*
X141462179Y-99655048D01*
X141462181Y-99655049D01*
X141462184Y-99655051D01*
X141651588Y-99751557D01*
X141853757Y-99817246D01*
X142063713Y-99850500D01*
X142063714Y-99850500D01*
X142276286Y-99850500D01*
X142276287Y-99850500D01*
X142486243Y-99817246D01*
X142688412Y-99751557D01*
X142877816Y-99655051D01*
X142964138Y-99592335D01*
X143049786Y-99530109D01*
X143049788Y-99530106D01*
X143049792Y-99530104D01*
X143200104Y-99379792D01*
X143200106Y-99379788D01*
X143200109Y-99379786D01*
X143325048Y-99207820D01*
X143325047Y-99207820D01*
X143325051Y-99207816D01*
X143329514Y-99199054D01*
X143377488Y-99148259D01*
X143445308Y-99131463D01*
X143511444Y-99153999D01*
X143550486Y-99199056D01*
X143554951Y-99207820D01*
X143679890Y-99379786D01*
X143830213Y-99530109D01*
X144002179Y-99655048D01*
X144002181Y-99655049D01*
X144002184Y-99655051D01*
X144191588Y-99751557D01*
X144393757Y-99817246D01*
X144603713Y-99850500D01*
X144603714Y-99850500D01*
X144816286Y-99850500D01*
X144816287Y-99850500D01*
X145026243Y-99817246D01*
X145228412Y-99751557D01*
X145417816Y-99655051D01*
X145504138Y-99592335D01*
X145589786Y-99530109D01*
X145589788Y-99530106D01*
X145589792Y-99530104D01*
X145740104Y-99379792D01*
X145740106Y-99379788D01*
X145740109Y-99379786D01*
X145865048Y-99207820D01*
X145865047Y-99207820D01*
X145865051Y-99207816D01*
X145869514Y-99199054D01*
X145917488Y-99148259D01*
X145985308Y-99131463D01*
X146051444Y-99153999D01*
X146090486Y-99199056D01*
X146094951Y-99207820D01*
X146219890Y-99379786D01*
X146370213Y-99530109D01*
X146542179Y-99655048D01*
X146542181Y-99655049D01*
X146542184Y-99655051D01*
X146731588Y-99751557D01*
X146933757Y-99817246D01*
X147143713Y-99850500D01*
X147143714Y-99850500D01*
X147356286Y-99850500D01*
X147356287Y-99850500D01*
X147566243Y-99817246D01*
X147768412Y-99751557D01*
X147957816Y-99655051D01*
X148044138Y-99592335D01*
X148129786Y-99530109D01*
X148129788Y-99530106D01*
X148129792Y-99530104D01*
X148280104Y-99379792D01*
X148280106Y-99379788D01*
X148280109Y-99379786D01*
X148405048Y-99207820D01*
X148405047Y-99207820D01*
X148405051Y-99207816D01*
X148501557Y-99018412D01*
X148567246Y-98816243D01*
X148600500Y-98606287D01*
X148600500Y-98393713D01*
X148567246Y-98183757D01*
X148501557Y-97981588D01*
X148405051Y-97792184D01*
X148405049Y-97792181D01*
X148405048Y-97792179D01*
X148280109Y-97620213D01*
X148129786Y-97469890D01*
X147957820Y-97344951D01*
X147768414Y-97248444D01*
X147768413Y-97248443D01*
X147768412Y-97248443D01*
X147566243Y-97182754D01*
X147566241Y-97182753D01*
X147566240Y-97182753D01*
X147404957Y-97157208D01*
X147356287Y-97149500D01*
X147143713Y-97149500D01*
X147095042Y-97157208D01*
X146933760Y-97182753D01*
X146731585Y-97248444D01*
X146542179Y-97344951D01*
X146370213Y-97469890D01*
X146219890Y-97620213D01*
X146094949Y-97792182D01*
X146090484Y-97800946D01*
X146042509Y-97851742D01*
X145974688Y-97868536D01*
X145908553Y-97845998D01*
X145869516Y-97800946D01*
X145865050Y-97792182D01*
X145740109Y-97620213D01*
X145589786Y-97469890D01*
X145417820Y-97344951D01*
X145228414Y-97248444D01*
X145228413Y-97248443D01*
X145228412Y-97248443D01*
X145026243Y-97182754D01*
X145026241Y-97182753D01*
X145026240Y-97182753D01*
X144864957Y-97157208D01*
X144816287Y-97149500D01*
X144603713Y-97149500D01*
X144555042Y-97157208D01*
X144393760Y-97182753D01*
X144191585Y-97248444D01*
X144002179Y-97344951D01*
X143830213Y-97469890D01*
X143679890Y-97620213D01*
X143554949Y-97792182D01*
X143550484Y-97800946D01*
X143502509Y-97851742D01*
X143434688Y-97868536D01*
X143368553Y-97845998D01*
X143329516Y-97800946D01*
X143325050Y-97792182D01*
X143200109Y-97620213D01*
X143049786Y-97469890D01*
X142877820Y-97344951D01*
X142688414Y-97248444D01*
X142688413Y-97248443D01*
X142688412Y-97248443D01*
X142486243Y-97182754D01*
X142486241Y-97182753D01*
X142486240Y-97182753D01*
X142324957Y-97157208D01*
X142276287Y-97149500D01*
X142063713Y-97149500D01*
X142015042Y-97157208D01*
X141853760Y-97182753D01*
X141651585Y-97248444D01*
X141462179Y-97344951D01*
X141290215Y-97469889D01*
X141176673Y-97583431D01*
X141115350Y-97616915D01*
X141045658Y-97611931D01*
X140989725Y-97570059D01*
X140972810Y-97539082D01*
X140923797Y-97407671D01*
X140923793Y-97407664D01*
X140837547Y-97292455D01*
X140837544Y-97292452D01*
X140722335Y-97206206D01*
X140722328Y-97206202D01*
X140587482Y-97155908D01*
X140587483Y-97155908D01*
X140527883Y-97149501D01*
X140527881Y-97149500D01*
X140527873Y-97149500D01*
X140527864Y-97149500D01*
X138732129Y-97149500D01*
X138732123Y-97149501D01*
X138672516Y-97155908D01*
X138537671Y-97206202D01*
X138537664Y-97206206D01*
X138422455Y-97292452D01*
X138422452Y-97292455D01*
X138336206Y-97407664D01*
X138336202Y-97407671D01*
X138285908Y-97542517D01*
X138279501Y-97602116D01*
X138279500Y-97602135D01*
X135661810Y-97602135D01*
X135976365Y-97287580D01*
X135863524Y-97200994D01*
X135863516Y-97200988D01*
X135636482Y-97069909D01*
X135636471Y-97069904D01*
X135394255Y-96969575D01*
X135141020Y-96901722D01*
X135141009Y-96901720D01*
X134881094Y-96867500D01*
X134618905Y-96867500D01*
X134358990Y-96901720D01*
X134358979Y-96901722D01*
X134105744Y-96969575D01*
X133863528Y-97069904D01*
X133863517Y-97069909D01*
X133636471Y-97200996D01*
X133523633Y-97287579D01*
X133523633Y-97287580D01*
X134502511Y-98266458D01*
X134442110Y-98291478D01*
X134335649Y-98362612D01*
X134245112Y-98453149D01*
X134173978Y-98559610D01*
X134148958Y-98620011D01*
X133170080Y-97641133D01*
X133170079Y-97641133D01*
X133083496Y-97753971D01*
X132952409Y-97981017D01*
X132952404Y-97981028D01*
X132852075Y-98223244D01*
X132784222Y-98476479D01*
X132784220Y-98476490D01*
X132750000Y-98736405D01*
X131750500Y-98736405D01*
X131750500Y-98736380D01*
X131716270Y-98476384D01*
X131648398Y-98223081D01*
X131632111Y-98183760D01*
X131548046Y-97980809D01*
X131548041Y-97980799D01*
X131416924Y-97753696D01*
X131286273Y-97583431D01*
X131257282Y-97545649D01*
X131257281Y-97545648D01*
X131257274Y-97545640D01*
X131071860Y-97360226D01*
X131071851Y-97360218D01*
X130863803Y-97200575D01*
X130636700Y-97069458D01*
X130636690Y-97069453D01*
X130394428Y-96969105D01*
X130394421Y-96969103D01*
X130394419Y-96969102D01*
X130141116Y-96901230D01*
X130083339Y-96893623D01*
X129881127Y-96867000D01*
X129881120Y-96867000D01*
X129618880Y-96867000D01*
X129618872Y-96867000D01*
X129387772Y-96897426D01*
X129358884Y-96901230D01*
X129105581Y-96969102D01*
X129105571Y-96969105D01*
X128863309Y-97069453D01*
X128863299Y-97069458D01*
X128636196Y-97200575D01*
X128428148Y-97360218D01*
X128242718Y-97545648D01*
X128083075Y-97753696D01*
X127951958Y-97980799D01*
X127951953Y-97980809D01*
X127851605Y-98223071D01*
X127851602Y-98223081D01*
X127783730Y-98476384D01*
X127783716Y-98476490D01*
X127749500Y-98736372D01*
X126750500Y-98736372D01*
X126750500Y-97567490D01*
X126739999Y-97464702D01*
X126684814Y-97298165D01*
X126592712Y-97148844D01*
X126468656Y-97024788D01*
X126319335Y-96932686D01*
X126152798Y-96877501D01*
X126152796Y-96877500D01*
X126050017Y-96867000D01*
X126050010Y-96867000D01*
X123449990Y-96867000D01*
X123449982Y-96867000D01*
X123347203Y-96877500D01*
X123347202Y-96877501D01*
X123275593Y-96901230D01*
X123180667Y-96932685D01*
X123180662Y-96932687D01*
X123031342Y-97024789D01*
X122907289Y-97148842D01*
X122815187Y-97298162D01*
X122815185Y-97298167D01*
X122794624Y-97360218D01*
X122760001Y-97464702D01*
X122760001Y-97464703D01*
X122760000Y-97464703D01*
X122749500Y-97567482D01*
X119125500Y-97567482D01*
X119125500Y-96088675D01*
X119145185Y-96021636D01*
X119161814Y-96000999D01*
X123874923Y-91287889D01*
X123936244Y-91254406D01*
X123963114Y-91251573D01*
X183751378Y-91499473D01*
G37*
%TD.AperFunction*%
%TD*%
M02*
