%TF.GenerationSoftware,KiCad,Pcbnew,10.0.6*%
%TF.CreationDate,2026-10-03T19:17:26+02:00*%
%TF.ProjectId,ATmega328P-board,41546d65-6761-4333-9238-502d626f6172,rev?*%
%TF.SameCoordinates,Original*%
%TF.FileFunction,Copper,L1,Top*%
%TF.FilePolarity,Positive*%
%FSLAX46Y46*%
G04 Gerber Fmt 4.6, Leading zero omitted, Abs format (unit mm)*
G04 Created by KiCad (PCBNEW 10.0.6) date 2026-10-03 19:17:26*
%MOMM*%
%LPD*%
G01*
G04 APERTURE LIST*
G04 Aperture macros list*
%AMRoundRect*
0 Rectangle with rounded corners*
0 $1 Rounding radius*
0 $2 $3 $4 $5 $6 $7 $8 $9 X,Y pos of 4 corners*
0 Add a 4 corners polygon primitive as box body*
4,1,4,$2,$3,$4,$5,$6,$7,$8,$9,$2,$3,0*
0 Add four circle primitives for the rounded corners*
1,1,$1+$1,$2,$3*
1,1,$1+$1,$4,$5*
1,1,$1+$1,$6,$7*
1,1,$1+$1,$8,$9*
0 Add four rect primitives between the rounded corners*
20,1,$1+$1,$2,$3,$4,$5,0*
20,1,$1+$1,$4,$5,$6,$7,0*
20,1,$1+$1,$6,$7,$8,$9,0*
20,1,$1+$1,$8,$9,$2,$3,0*%
G04 Aperture macros list end*
%TA.AperFunction,ComponentPad*%
%ADD10C,1.700000*%
%TD*%
%TA.AperFunction,ComponentPad*%
%ADD11R,1.700000X1.700000*%
%TD*%
%TA.AperFunction,ComponentPad*%
%ADD12RoundRect,0.249999X-1.250001X-1.250001X1.250001X-1.250001X1.250001X1.250001X-1.250001X1.250001X0*%
%TD*%
%TA.AperFunction,ComponentPad*%
%ADD13C,3.000000*%
%TD*%
%TA.AperFunction,SMDPad,CuDef*%
%ADD14RoundRect,0.250000X0.450000X-0.262500X0.450000X0.262500X-0.450000X0.262500X-0.450000X-0.262500X0*%
%TD*%
%TA.AperFunction,SMDPad,CuDef*%
%ADD15RoundRect,0.250000X-0.450000X0.262500X-0.450000X-0.262500X0.450000X-0.262500X0.450000X0.262500X0*%
%TD*%
%TA.AperFunction,ComponentPad*%
%ADD16RoundRect,0.250000X0.550000X0.550000X-0.550000X0.550000X-0.550000X-0.550000X0.550000X-0.550000X0*%
%TD*%
%TA.AperFunction,ComponentPad*%
%ADD17C,1.600000*%
%TD*%
%TA.AperFunction,ComponentPad*%
%ADD18C,2.000000*%
%TD*%
%TA.AperFunction,SMDPad,CuDef*%
%ADD19RoundRect,0.250000X-0.475000X0.250000X-0.475000X-0.250000X0.475000X-0.250000X0.475000X0.250000X0*%
%TD*%
%TA.AperFunction,SMDPad,CuDef*%
%ADD20RoundRect,0.250000X-0.250000X-0.475000X0.250000X-0.475000X0.250000X0.475000X-0.250000X0.475000X0*%
%TD*%
%TA.AperFunction,SMDPad,CuDef*%
%ADD21RoundRect,0.250000X0.475000X-0.250000X0.475000X0.250000X-0.475000X0.250000X-0.475000X-0.250000X0*%
%TD*%
%TA.AperFunction,SMDPad,CuDef*%
%ADD22RoundRect,0.250000X0.250000X0.475000X-0.250000X0.475000X-0.250000X-0.475000X0.250000X-0.475000X0*%
%TD*%
%TA.AperFunction,ComponentPad*%
%ADD23RoundRect,0.250000X-0.550000X-0.550000X0.550000X-0.550000X0.550000X0.550000X-0.550000X0.550000X0*%
%TD*%
%TA.AperFunction,ComponentPad*%
%ADD24R,1.800000X1.800000*%
%TD*%
%TA.AperFunction,ComponentPad*%
%ADD25C,1.800000*%
%TD*%
%TA.AperFunction,ComponentPad*%
%ADD26RoundRect,0.250000X-0.550000X0.550000X-0.550000X-0.550000X0.550000X-0.550000X0.550000X0.550000X0*%
%TD*%
%TA.AperFunction,ComponentPad*%
%ADD27RoundRect,0.249999X-0.850001X-0.850001X0.850001X-0.850001X0.850001X0.850001X-0.850001X0.850001X0*%
%TD*%
%TA.AperFunction,ComponentPad*%
%ADD28C,2.200000*%
%TD*%
%TA.AperFunction,SMDPad,CuDef*%
%ADD29RoundRect,0.375000X-0.375000X0.625000X-0.375000X-0.625000X0.375000X-0.625000X0.375000X0.625000X0*%
%TD*%
%TA.AperFunction,SMDPad,CuDef*%
%ADD30RoundRect,0.500000X-1.400000X0.500000X-1.400000X-0.500000X1.400000X-0.500000X1.400000X0.500000X0*%
%TD*%
%TA.AperFunction,ComponentPad*%
%ADD31C,1.500000*%
%TD*%
%TA.AperFunction,ComponentPad*%
%ADD32R,3.500000X3.500000*%
%TD*%
%TA.AperFunction,ComponentPad*%
%ADD33RoundRect,0.750000X0.750000X1.000000X-0.750000X1.000000X-0.750000X-1.000000X0.750000X-1.000000X0*%
%TD*%
%TA.AperFunction,ComponentPad*%
%ADD34RoundRect,0.875000X0.875000X0.875000X-0.875000X0.875000X-0.875000X-0.875000X0.875000X-0.875000X0*%
%TD*%
%TA.AperFunction,SMDPad,CuDef*%
%ADD35RoundRect,0.375000X0.375000X-0.625000X0.375000X0.625000X-0.375000X0.625000X-0.375000X-0.625000X0*%
%TD*%
%TA.AperFunction,SMDPad,CuDef*%
%ADD36RoundRect,0.500000X1.400000X-0.500000X1.400000X0.500000X-1.400000X0.500000X-1.400000X-0.500000X0*%
%TD*%
%TA.AperFunction,ViaPad*%
%ADD37C,0.600000*%
%TD*%
%TA.AperFunction,Conductor*%
%ADD38C,0.600000*%
%TD*%
%TA.AperFunction,Conductor*%
%ADD39C,0.300000*%
%TD*%
%TA.AperFunction,Conductor*%
%ADD40C,1.000000*%
%TD*%
G04 APERTURE END LIST*
D10*
%TO.P,J11,4,Pin_4_4*%
%TO.N,/PC3*%
X147250000Y-98500000D03*
%TO.P,J11,3,Pin_3_3*%
%TO.N,/PC2*%
X144710000Y-98500000D03*
%TO.P,J11,2,Pin_2_2*%
%TO.N,/PC1*%
X142170000Y-98500000D03*
D11*
%TO.P,J11,1,Pin_1_1*%
%TO.N,/PC0*%
X139630000Y-98500000D03*
%TD*%
D12*
%TO.P,J7,1,Pin_1_1*%
%TO.N,VCC*%
X124750000Y-98867500D03*
D13*
%TO.P,J7,2,Pin_2_2*%
%TO.N,/+3.3*%
X129750000Y-98867500D03*
%TO.P,J7,3,Pin_3_3*%
%TO.N,GND*%
X134750000Y-98867500D03*
%TD*%
D14*
%TO.P,R3,1*%
%TO.N,Net-(D3-K)*%
X159750000Y-141472500D03*
%TO.P,R3,2*%
%TO.N,/SCK*%
X159750000Y-139647500D03*
%TD*%
%TO.P,R2,1*%
%TO.N,Net-(D2-K)*%
X171250000Y-113662500D03*
%TO.P,R2,2*%
%TO.N,VCC*%
X171250000Y-111837500D03*
%TD*%
D15*
%TO.P,R1,1*%
%TO.N,/RESET*%
X144250000Y-111087500D03*
%TO.P,R1,2*%
%TO.N,VCC*%
X144250000Y-112912500D03*
%TD*%
D16*
%TO.P,C1,1*%
%TO.N,Net-(D1-K)*%
X175455113Y-119750000D03*
D17*
%TO.P,C1,2*%
%TO.N,GND*%
X172955113Y-119750000D03*
%TD*%
D10*
%TO.P,J8,4,Pin_4_4*%
%TO.N,/PD5*%
X122750000Y-127330000D03*
%TO.P,J8,3,Pin_3_3*%
%TO.N,/PD3*%
X122750000Y-124790000D03*
%TO.P,J8,2,Pin_2_2*%
%TO.N,/PB1*%
X122750000Y-122250000D03*
D11*
%TO.P,J8,1,Pin_1_1*%
%TO.N,/PB2*%
X122750000Y-119710000D03*
%TD*%
D10*
%TO.P,J12,4,Pin_4_4*%
%TO.N,GND*%
X122750000Y-114330000D03*
%TO.P,J12,3,Pin_3_3*%
%TO.N,/PB0*%
X122750000Y-111790000D03*
%TO.P,J12,2,Pin_2_2*%
%TO.N,/PC5*%
X122750000Y-109250000D03*
D11*
%TO.P,J12,1,Pin_1_1*%
%TO.N,/PC4*%
X122750000Y-106710000D03*
%TD*%
D18*
%TO.P,SW1,1,1_1*%
%TO.N,/RESET*%
X126750000Y-113250000D03*
X133250000Y-113250000D03*
%TO.P,SW1,2,2_2*%
%TO.N,GND*%
X126750000Y-117750000D03*
X133250000Y-117750000D03*
%TD*%
D11*
%TO.P,J10,1,Pin_1_1*%
%TO.N,/+3.3*%
X126460000Y-144000000D03*
D10*
%TO.P,J10,2,Pin_2_2*%
%TO.N,VCC*%
X129000000Y-144000000D03*
%TO.P,J10,3,Pin_3_3*%
%TO.N,/PD2*%
X131540000Y-144000000D03*
%TO.P,J10,4,Pin_4_4*%
%TO.N,/PD4*%
X134080000Y-144000000D03*
%TD*%
D11*
%TO.P,J9,1,Pin_1_1*%
%TO.N,/TX*%
X122750000Y-131250000D03*
D10*
%TO.P,J9,2,Pin_2_2*%
%TO.N,/RX*%
X122750000Y-133790000D03*
%TO.P,J9,3,Pin_3_3*%
%TO.N,/DTR*%
X122750000Y-136330000D03*
%TO.P,J9,4,Pin_4_4*%
%TO.N,GND*%
X122750000Y-138870000D03*
%TD*%
D19*
%TO.P,C6,1*%
%TO.N,VCC*%
X164000000Y-111550000D03*
%TO.P,C6,2*%
%TO.N,GND*%
X164000000Y-113450000D03*
%TD*%
D20*
%TO.P,C9,1*%
%TO.N,/DTR*%
X137800000Y-106500000D03*
%TO.P,C9,2*%
%TO.N,/RESET*%
X139700000Y-106500000D03*
%TD*%
D21*
%TO.P,C8,1*%
%TO.N,VCC*%
X143500000Y-123200000D03*
%TO.P,C8,2*%
%TO.N,GND*%
X143500000Y-121300000D03*
%TD*%
D20*
%TO.P,C7,1*%
%TO.N,VCC*%
X160100000Y-127000000D03*
%TO.P,C7,2*%
%TO.N,GND*%
X162000000Y-127000000D03*
%TD*%
D22*
%TO.P,C4,1*%
%TO.N,Net-(U1-XTAL2{slash}PB7)*%
X135700000Y-132250000D03*
%TO.P,C4,2*%
%TO.N,GND*%
X133800000Y-132250000D03*
%TD*%
D20*
%TO.P,C3,1*%
%TO.N,GND*%
X133800000Y-124000000D03*
%TO.P,C3,2*%
%TO.N,Net-(U1-XTAL1{slash}PB6)*%
X135700000Y-124000000D03*
%TD*%
D23*
%TO.P,U1,1,~{RESET}/PC6_1*%
%TO.N,/RESET*%
X148380000Y-106630000D03*
D17*
%TO.P,U1,2,PD0_2*%
%TO.N,/TX*%
X148380000Y-109170000D03*
%TO.P,U1,3,PD1_3*%
%TO.N,/RX*%
X148380000Y-111710000D03*
%TO.P,U1,4,PD2_4*%
%TO.N,/PD2*%
X148380000Y-114250000D03*
%TO.P,U1,5,PD3_5*%
%TO.N,/PD3*%
X148380000Y-116790000D03*
%TO.P,U1,6,PD4_6*%
%TO.N,/PD4*%
X148380000Y-119330000D03*
%TO.P,U1,7,VCC_7*%
%TO.N,VCC*%
X148380000Y-121870000D03*
%TO.P,U1,8,GND_8*%
%TO.N,GND*%
X148380000Y-124410000D03*
%TO.P,U1,9,XTAL1/PB6_9*%
%TO.N,Net-(U1-XTAL1{slash}PB6)*%
X148380000Y-126950000D03*
%TO.P,U1,10,XTAL2/PB7_10*%
%TO.N,Net-(U1-XTAL2{slash}PB7)*%
X148380000Y-129490000D03*
%TO.P,U1,11,PD5_11*%
%TO.N,/PD5*%
X148380000Y-132030000D03*
%TO.P,U1,12,PD6_12*%
%TO.N,unconnected-(U1-PD6-Pad12)*%
X148380000Y-134570000D03*
%TO.P,U1,13,PD7_13*%
%TO.N,unconnected-(U1-PD7-Pad13)*%
X148380000Y-137110000D03*
%TO.P,U1,14,PB0_14*%
%TO.N,/PB0*%
X148380000Y-139650000D03*
%TO.P,U1,15,PB1_15*%
%TO.N,/PB1*%
X156000000Y-139650000D03*
%TO.P,U1,16,PB2_16*%
%TO.N,/PB2*%
X156000000Y-137110000D03*
%TO.P,U1,17,PB3_17*%
%TO.N,/MOSI*%
X156000000Y-134570000D03*
%TO.P,U1,18,PB4_18*%
%TO.N,/MISO*%
X156000000Y-132030000D03*
%TO.P,U1,19,PB5_19*%
%TO.N,/SCK*%
X156000000Y-129490000D03*
%TO.P,U1,20,AVCC_20*%
%TO.N,VCC*%
X156000000Y-126950000D03*
%TO.P,U1,21,AREF_21*%
X156000000Y-124410000D03*
%TO.P,U1,22,GND_22*%
%TO.N,GND*%
X156000000Y-121870000D03*
%TO.P,U1,23,PC0_23*%
%TO.N,/PC0*%
X156000000Y-119330000D03*
%TO.P,U1,24,PC1_24*%
%TO.N,/PC1*%
X156000000Y-116790000D03*
%TO.P,U1,25,PC2_25*%
%TO.N,/PC2*%
X156000000Y-114250000D03*
%TO.P,U1,26,PC3_26*%
%TO.N,/PC3*%
X156000000Y-111710000D03*
%TO.P,U1,27,PC4_27*%
%TO.N,/PC4*%
X156000000Y-109170000D03*
%TO.P,U1,28,PC5_28*%
%TO.N,/PC5*%
X156000000Y-106630000D03*
%TD*%
D24*
%TO.P,D2,1,K_1*%
%TO.N,Net-(D2-K)*%
X166000000Y-117000000D03*
D25*
%TO.P,D2,2,A_2*%
%TO.N,GND*%
X163460000Y-117000000D03*
%TD*%
D24*
%TO.P,D3,1,K_1*%
%TO.N,Net-(D3-K)*%
X164230000Y-140750000D03*
D25*
%TO.P,D3,2,A_2*%
%TO.N,GND*%
X166770000Y-140750000D03*
%TD*%
D26*
%TO.P,C10,1*%
%TO.N,VCC*%
X178500000Y-130250000D03*
D17*
%TO.P,C10,2*%
%TO.N,GND*%
X178500000Y-132250000D03*
%TD*%
D27*
%TO.P,D1,1,K_1*%
%TO.N,Net-(D1-K)*%
X173170000Y-126750000D03*
D28*
%TO.P,D1,2,A_2*%
%TO.N,Net-(D1-A)*%
X183330000Y-126750000D03*
%TD*%
D16*
%TO.P,C2,1*%
%TO.N,VCC*%
X182500000Y-119750000D03*
D17*
%TO.P,C2,2*%
%TO.N,GND*%
X180500000Y-119750000D03*
%TD*%
D29*
%TO.P,U3,1,ADJ_1*%
%TO.N,GND*%
X179800000Y-136350000D03*
%TO.P,U3,2,VO_2*%
%TO.N,/+3.3*%
X177500000Y-136350000D03*
D30*
X177500000Y-142650000D03*
D29*
%TO.P,U3,3,VI_3*%
%TO.N,VCC*%
X175200000Y-136350000D03*
%TD*%
D31*
%TO.P,Y1,1,1_1*%
%TO.N,Net-(U1-XTAL2{slash}PB7)*%
X139685000Y-130830000D03*
%TO.P,Y1,2,2_2*%
%TO.N,Net-(U1-XTAL1{slash}PB6)*%
X139685000Y-125950000D03*
%TD*%
D11*
%TO.P,J6,1,Pin_1_1*%
%TO.N,/MISO*%
X162225000Y-101460000D03*
D10*
%TO.P,J6,2,Pin_2_2*%
%TO.N,VCC*%
X164765000Y-101460000D03*
%TO.P,J6,3,Pin_3_3*%
%TO.N,/SCK*%
X162225000Y-104000000D03*
%TO.P,J6,4,Pin_4_4*%
%TO.N,/MOSI*%
X164765000Y-104000000D03*
%TO.P,J6,5,Pin_5_5*%
%TO.N,/RESET*%
X162225000Y-106540000D03*
%TO.P,J6,6,Pin_6_6*%
%TO.N,GND*%
X164765000Y-106540000D03*
%TD*%
D16*
%TO.P,C11,1*%
%TO.N,/+3.3*%
X170205112Y-133750000D03*
D17*
%TO.P,C11,2*%
%TO.N,GND*%
X168205112Y-133750000D03*
%TD*%
D32*
%TO.P,J1,1*%
%TO.N,Net-(D1-A)*%
X189750000Y-126707500D03*
D33*
%TO.P,J1,2*%
%TO.N,GND*%
X195750000Y-126707500D03*
D34*
%TO.P,J1,3*%
%TO.N,N/C*%
X192750000Y-122007500D03*
%TD*%
D35*
%TO.P,U4,1,ADJ_1*%
%TO.N,GND*%
X175450000Y-115150000D03*
%TO.P,U4,2,VO_2*%
%TO.N,VCC*%
X177750000Y-115150000D03*
D36*
X177750000Y-108850000D03*
D35*
%TO.P,U4,3,VI_3*%
%TO.N,Net-(D1-K)*%
X180050000Y-115150000D03*
%TD*%
D37*
%TO.N,VCC*%
X143000000Y-115000000D03*
X145000000Y-118750000D03*
%TO.N,/PB2*%
X125250000Y-121500000D03*
X125200000Y-125500000D03*
%TO.N,GND*%
X128750000Y-116500000D03*
X130959620Y-116709620D03*
%TO.N,VCC*%
X175500000Y-139000000D03*
X137250000Y-141500000D03*
%TO.N,/PD2*%
X150500000Y-118000000D03*
X150500000Y-125000000D03*
X152500000Y-136000000D03*
X152250000Y-142000000D03*
%TO.N,/PD4*%
X151750000Y-122750000D03*
X140000000Y-143250000D03*
%TO.N,/PC0*%
X152299997Y-116750000D03*
%TO.N,/PC1*%
X152299997Y-115000000D03*
%TO.N,/PC2*%
X151571702Y-109081044D03*
%TO.N,/PC3*%
X152299997Y-108750000D03*
%TO.N,/TX*%
X142500000Y-110250000D03*
X133500000Y-111000000D03*
X130500000Y-114500000D03*
X127250000Y-115750000D03*
X124375380Y-129874620D03*
%TO.N,/RX*%
X127125000Y-120955760D03*
X125850000Y-131500000D03*
%TO.N,/DTR*%
X134000000Y-106000000D03*
X126500000Y-132500000D03*
%TO.N,/PB0*%
X139750000Y-139750000D03*
X127395652Y-122523587D03*
%TO.N,/PC5*%
X155500000Y-107750000D03*
X140250000Y-109000000D03*
%TO.N,/PC4*%
X155250000Y-110500000D03*
X141500000Y-108250000D03*
%TO.N,/RESET*%
X158250000Y-105750000D03*
X149750000Y-104500000D03*
%TO.N,/PD5*%
X151500000Y-137000000D03*
X150250000Y-141500000D03*
%TO.N,/MOSI*%
X153741051Y-126752983D03*
X153750000Y-123000000D03*
%TO.N,/MISO*%
X154500000Y-123610000D03*
X154500000Y-126500000D03*
%TO.N,/SCK*%
X155693368Y-130766677D03*
X152949997Y-123000000D03*
X157438654Y-101938654D03*
X160250000Y-102750000D03*
%TO.N,/+3.3*%
X154750000Y-103500000D03*
X169750000Y-129000000D03*
%TD*%
%TO.N,/+3.3*%
D38*
X132867500Y-95750000D02*
X129750000Y-98867500D01*
X149750000Y-95750000D02*
X132867500Y-95750000D01*
%TO.N,VCC*%
X129867500Y-93750000D02*
X124750000Y-98867500D01*
X150290000Y-93750000D02*
X129867500Y-93750000D01*
%TO.N,/+3.3*%
X129000000Y-98117500D02*
X129750000Y-98867500D01*
X153750000Y-99750000D02*
X149750000Y-95750000D01*
X153750000Y-102500000D02*
X153750000Y-99750000D01*
X154750000Y-103500000D02*
X153750000Y-102500000D01*
%TO.N,Net-(D2-K)*%
X167912500Y-117000000D02*
X171250000Y-113662500D01*
X166000000Y-117000000D02*
X167912500Y-117000000D01*
%TO.N,VCC*%
X160050000Y-126950000D02*
X160100000Y-127000000D01*
X156000000Y-126950000D02*
X160050000Y-126950000D01*
%TO.N,GND*%
X168205112Y-124500001D02*
X168205112Y-133750000D01*
X172955113Y-119750000D02*
X168205112Y-124500001D01*
%TO.N,/SCK*%
D39*
X159750000Y-133533354D02*
X159750000Y-139647500D01*
X156983323Y-130766677D02*
X159750000Y-133533354D01*
%TO.N,Net-(D3-K)*%
X160472500Y-140750000D02*
X159750000Y-141472500D01*
X164230000Y-140750000D02*
X160472500Y-140750000D01*
%TO.N,/SCK*%
X156000000Y-129490000D02*
X157130000Y-130620000D01*
%TO.N,VCC*%
D38*
X171250000Y-109435000D02*
X171995000Y-108690000D01*
X171250000Y-111837500D02*
X171250000Y-109435000D01*
%TO.N,/RESET*%
D39*
X142087500Y-113250000D02*
X144250000Y-111087500D01*
X133250000Y-113250000D02*
X142087500Y-113250000D01*
%TO.N,VCC*%
D38*
X143000000Y-114162500D02*
X144250000Y-112912500D01*
X143000000Y-115000000D02*
X143000000Y-114162500D01*
X144350000Y-122350000D02*
X145000000Y-121700000D01*
X144350000Y-122350000D02*
X143500000Y-123200000D01*
X145000000Y-121700000D02*
X145000000Y-118750000D01*
%TO.N,/RESET*%
D39*
X148380000Y-106957500D02*
X144250000Y-111087500D01*
X148380000Y-106630000D02*
X148380000Y-106957500D01*
X148250000Y-106500000D02*
X148380000Y-106630000D01*
X139700000Y-106500000D02*
X148250000Y-106500000D01*
%TO.N,GND*%
D38*
X133800000Y-132250000D02*
X133800000Y-124000000D01*
%TO.N,/PB2*%
D39*
X125250000Y-121500000D02*
X123460000Y-119710000D01*
X123460000Y-119710000D02*
X122750000Y-119710000D01*
X138450000Y-138750000D02*
X125200000Y-125500000D01*
X140000000Y-138750000D02*
X138450000Y-138750000D01*
X140400000Y-139150000D02*
X140000000Y-138750000D01*
X146250000Y-139150000D02*
X140400000Y-139150000D01*
X156000000Y-137110000D02*
X154610000Y-138500000D01*
X154610000Y-138500000D02*
X146900000Y-138500000D01*
X146900000Y-138500000D02*
X146250000Y-139150000D01*
%TO.N,GND*%
D38*
X132209620Y-116709620D02*
X133250000Y-117750000D01*
X130959620Y-116709620D02*
X132209620Y-116709620D01*
X127500000Y-117750000D02*
X128750000Y-116500000D01*
X126750000Y-117750000D02*
X127500000Y-117750000D01*
%TO.N,/RX*%
D39*
X147913655Y-111710000D02*
X148380000Y-111710000D01*
X142873655Y-116750000D02*
X147913655Y-111710000D01*
X136042894Y-116750000D02*
X142873655Y-116750000D01*
X131500000Y-115250000D02*
X134542894Y-115250000D01*
X128750000Y-118000000D02*
X131500000Y-115250000D01*
X127125000Y-120955760D02*
X128750000Y-119330760D01*
X128750000Y-119330760D02*
X128750000Y-118000000D01*
X134542894Y-115250000D02*
X136042894Y-116750000D01*
%TO.N,/PB0*%
X124250000Y-119000000D02*
X124250000Y-113290000D01*
X127395652Y-122145652D02*
X124250000Y-119000000D01*
X127395652Y-122523587D02*
X127395652Y-122145652D01*
X124250000Y-113290000D02*
X122750000Y-111790000D01*
%TO.N,VCC*%
D38*
X150290000Y-93750000D02*
X156290000Y-99750000D01*
%TO.N,/+3.3*%
X127810000Y-145350000D02*
X174800000Y-145350000D01*
X126460000Y-144000000D02*
X127810000Y-145350000D01*
X174800000Y-145350000D02*
X177500000Y-142650000D01*
%TO.N,VCC*%
X175500000Y-136650000D02*
X175200000Y-136350000D01*
X175500000Y-139000000D02*
X175500000Y-136650000D01*
X131500000Y-141500000D02*
X137250000Y-141500000D01*
X129000000Y-144000000D02*
X131500000Y-141500000D01*
%TO.N,/PD2*%
D39*
X150500000Y-116370000D02*
X148380000Y-114250000D01*
X150500000Y-118000000D02*
X150500000Y-116370000D01*
X150500000Y-130500000D02*
X150500000Y-125000000D01*
X152500000Y-136000000D02*
X152500000Y-132500000D01*
X152500000Y-132500000D02*
X150500000Y-130500000D01*
X151650000Y-142600000D02*
X152250000Y-142000000D01*
X132940000Y-142600000D02*
X151650000Y-142600000D01*
X131540000Y-144000000D02*
X132940000Y-142600000D01*
%TO.N,/PD4*%
X151750000Y-122700000D02*
X148380000Y-119330000D01*
X151750000Y-122750000D02*
X151750000Y-122700000D01*
X139250000Y-144000000D02*
X140000000Y-143250000D01*
X134080000Y-144000000D02*
X139250000Y-144000000D01*
%TO.N,/PC0*%
X150421702Y-104252463D02*
X150421702Y-114871705D01*
X150019239Y-103850000D02*
X150421702Y-104252463D01*
X144980000Y-103850000D02*
X150019239Y-103850000D01*
X150421702Y-114871705D02*
X152299997Y-116750000D01*
X139630000Y-98500000D02*
X144980000Y-103850000D01*
%TO.N,/PC1*%
X150921702Y-108650000D02*
X150921702Y-113621705D01*
X151071702Y-104071702D02*
X151071702Y-108500000D01*
X151071702Y-108500000D02*
X150921702Y-108650000D01*
X147500000Y-100500000D02*
X151071702Y-104071702D01*
X144170000Y-100500000D02*
X147500000Y-100500000D01*
X142170000Y-98500000D02*
X144170000Y-100500000D01*
X150921702Y-113621705D02*
X152299997Y-115000000D01*
%TO.N,/PC2*%
X151799997Y-104250000D02*
X151571702Y-104478295D01*
X151799997Y-103799997D02*
X151799997Y-104250000D01*
X148000000Y-100000000D02*
X151799997Y-103799997D01*
X151571702Y-104478295D02*
X151571702Y-109081044D01*
X146210000Y-100000000D02*
X148000000Y-100000000D01*
X144710000Y-98500000D02*
X146210000Y-100000000D01*
%TO.N,/PC3*%
X152299997Y-103549997D02*
X152299997Y-108750000D01*
X147250000Y-98500000D02*
X152299997Y-103549997D01*
%TO.N,/TX*%
X141750000Y-111000000D02*
X142500000Y-110250000D01*
X129250000Y-115750000D02*
X130500000Y-114500000D01*
X127250000Y-115750000D02*
X129250000Y-115750000D01*
X133500000Y-111000000D02*
X141750000Y-111000000D01*
X123000000Y-131250000D02*
X124375380Y-129874620D01*
X122750000Y-131250000D02*
X123000000Y-131250000D01*
%TO.N,/RX*%
X124290761Y-133790000D02*
X125850000Y-132230761D01*
X125850000Y-132230761D02*
X125850000Y-131500000D01*
X122750000Y-133790000D02*
X124290761Y-133790000D01*
%TO.N,/DTR*%
X134000000Y-106000000D02*
X137300000Y-106000000D01*
X137300000Y-106000000D02*
X137800000Y-106500000D01*
X122750000Y-136330000D02*
X126500000Y-132580000D01*
X126500000Y-132580000D02*
X126500000Y-132500000D01*
%TO.N,/PD5*%
X130832894Y-133290000D02*
X128710000Y-133290000D01*
X128710000Y-133290000D02*
X122750000Y-127330000D01*
X139042894Y-141500000D02*
X150250000Y-141500000D01*
X130832894Y-133290000D02*
X139042894Y-141500000D01*
%TO.N,/PB1*%
X154850000Y-140800000D02*
X156000000Y-139650000D01*
X139050000Y-140800000D02*
X154850000Y-140800000D01*
X124380000Y-126130000D02*
X139050000Y-140800000D01*
X122392943Y-126130000D02*
X124380000Y-126130000D01*
X121550000Y-125287057D02*
X122392943Y-126130000D01*
X122750000Y-122250000D02*
X121550000Y-123450000D01*
X121550000Y-123450000D02*
X121550000Y-125287057D01*
%TO.N,/PD3*%
X129460000Y-124790000D02*
X122750000Y-124790000D01*
X143276346Y-119100000D02*
X135150000Y-119100000D01*
X145100000Y-115230761D02*
X145100000Y-117276346D01*
X145480761Y-114850000D02*
X145100000Y-115230761D01*
X146440000Y-114850000D02*
X145480761Y-114850000D01*
X145100000Y-117276346D02*
X143276346Y-119100000D01*
X148380000Y-116790000D02*
X146440000Y-114850000D01*
X135150000Y-119100000D02*
X129460000Y-124790000D01*
%TO.N,/PC5*%
X124500000Y-107500000D02*
X134000000Y-107500000D01*
X122750000Y-109250000D02*
X124500000Y-107500000D01*
%TO.N,/PC4*%
X136000000Y-108250000D02*
X141500000Y-108250000D01*
X134460000Y-106710000D02*
X136000000Y-108250000D01*
X122750000Y-106710000D02*
X134460000Y-106710000D01*
%TO.N,/PB0*%
X139850000Y-139650000D02*
X148380000Y-139650000D01*
X139750000Y-139750000D02*
X139850000Y-139650000D01*
%TO.N,/PC5*%
X157130000Y-106630000D02*
X156000000Y-106630000D01*
X157500000Y-107000000D02*
X157130000Y-106630000D01*
X157500000Y-107250000D02*
X157500000Y-107000000D01*
X157000000Y-107750000D02*
X157500000Y-107250000D01*
X155500000Y-107750000D02*
X157000000Y-107750000D01*
X134000000Y-107500000D02*
X135500000Y-109000000D01*
X135500000Y-109000000D02*
X140250000Y-109000000D01*
%TO.N,/PC4*%
X157080000Y-109170000D02*
X156000000Y-109170000D01*
X157250000Y-109340000D02*
X157080000Y-109170000D01*
X156750000Y-110500000D02*
X157250000Y-110000000D01*
X155250000Y-110500000D02*
X156750000Y-110500000D01*
X157250000Y-110000000D02*
X157250000Y-109340000D01*
%TO.N,VCC*%
D38*
X166950000Y-111550000D02*
X164000000Y-111550000D01*
X169810000Y-108690000D02*
X166950000Y-111550000D01*
X172000000Y-108690000D02*
X169810000Y-108690000D01*
%TO.N,Net-(U1-XTAL1{slash}PB6)*%
D39*
X137650000Y-125950000D02*
X135700000Y-124000000D01*
X139685000Y-125950000D02*
X137650000Y-125950000D01*
%TO.N,Net-(U1-XTAL2{slash}PB7)*%
X137120000Y-130830000D02*
X135700000Y-132250000D01*
X139685000Y-130830000D02*
X137120000Y-130830000D01*
%TO.N,VCC*%
D38*
X144830000Y-121870000D02*
X144350000Y-122350000D01*
X148380000Y-121870000D02*
X144830000Y-121870000D01*
%TO.N,/RESET*%
D39*
X162225000Y-106540000D02*
X159040000Y-106540000D01*
X147250000Y-106500000D02*
X148250000Y-106500000D01*
X159040000Y-106540000D02*
X158250000Y-105750000D01*
X133250000Y-113250000D02*
X126750000Y-113250000D01*
X149750000Y-104500000D02*
X148500000Y-104500000D01*
X147250000Y-105750000D02*
X147250000Y-106500000D01*
X148500000Y-104500000D02*
X147250000Y-105750000D01*
%TO.N,GND*%
D38*
X178500000Y-132250000D02*
X178500000Y-135050000D01*
X178500000Y-135050000D02*
X179800000Y-136350000D01*
%TO.N,Net-(D1-K)*%
D40*
X176450000Y-119750000D02*
X180050000Y-116150000D01*
X175455113Y-121205113D02*
X175455113Y-119750000D01*
X176500000Y-122250000D02*
X175455113Y-121205113D01*
X176500000Y-124750000D02*
X176500000Y-122250000D01*
X173170000Y-126750000D02*
X174500000Y-126750000D01*
X175455113Y-119750000D02*
X176450000Y-119750000D01*
X174500000Y-126750000D02*
X176500000Y-124750000D01*
X180050000Y-116150000D02*
X180050000Y-115150000D01*
%TO.N,/TX*%
D39*
X148580000Y-109170000D02*
X148380000Y-109170000D01*
%TO.N,VCC*%
D38*
X179750000Y-122500000D02*
X179750000Y-127250000D01*
X174450000Y-118450000D02*
X170190000Y-118450000D01*
X148870000Y-121870000D02*
X151410000Y-124410000D01*
X156000000Y-126950000D02*
X156000000Y-124410000D01*
X164230000Y-124410000D02*
X156000000Y-124410000D01*
X170190000Y-118450000D02*
X164230000Y-124410000D01*
X177750000Y-108850000D02*
X177750000Y-115150000D01*
X177590000Y-108690000D02*
X177750000Y-108850000D01*
X182500000Y-113600000D02*
X182500000Y-119750000D01*
X151410000Y-124410000D02*
X156000000Y-124410000D01*
X178500000Y-130250000D02*
X176750000Y-132000000D01*
X157140000Y-98900000D02*
X163407082Y-98900000D01*
X164765000Y-100257919D02*
X164765000Y-101460000D01*
X177750000Y-115150000D02*
X174450000Y-118450000D01*
X182500000Y-119750000D02*
X179750000Y-122500000D01*
X171995000Y-108690000D02*
X172000000Y-108690000D01*
X148380000Y-121870000D02*
X148870000Y-121870000D01*
X156290000Y-99750000D02*
X157140000Y-98900000D01*
X178500000Y-128500000D02*
X178500000Y-130250000D01*
X163407082Y-98900000D02*
X164765000Y-100257919D01*
X177750000Y-108850000D02*
X182500000Y-113600000D01*
X179750000Y-127250000D02*
X178500000Y-128500000D01*
X172000000Y-108690000D02*
X177590000Y-108690000D01*
X164765000Y-101460000D02*
X171995000Y-108690000D01*
X176750000Y-132000000D02*
X176750000Y-134800000D01*
X176750000Y-134800000D02*
X175200000Y-136350000D01*
%TO.N,Net-(U1-XTAL1{slash}PB6)*%
D39*
X148380000Y-126950000D02*
X143745000Y-126950000D01*
X142745000Y-125950000D02*
X139685000Y-125950000D01*
X143745000Y-126950000D02*
X142745000Y-125950000D01*
%TO.N,Net-(U1-XTAL2{slash}PB7)*%
X142995000Y-130830000D02*
X139685000Y-130830000D01*
X148380000Y-129490000D02*
X144335000Y-129490000D01*
X144335000Y-129490000D02*
X142995000Y-130830000D01*
%TO.N,/PD5*%
X151500000Y-137000000D02*
X151500000Y-135150000D01*
X151500000Y-135150000D02*
X148380000Y-132030000D01*
%TO.N,/MOSI*%
X164765000Y-104000000D02*
X163425000Y-102660000D01*
X163425000Y-100260000D02*
X160036548Y-100260000D01*
X163425000Y-102660000D02*
X163425000Y-100260000D01*
X153741051Y-126752983D02*
X153741051Y-132311051D01*
X153741051Y-132311051D02*
X156000000Y-134570000D01*
X153750000Y-106546548D02*
X153750000Y-123000000D01*
X160036548Y-100260000D02*
X153750000Y-106546548D01*
%TO.N,/MISO*%
X154500000Y-130530000D02*
X156000000Y-132030000D01*
X159543654Y-101460000D02*
X154500000Y-106503654D01*
X162225000Y-101460000D02*
X159543654Y-101460000D01*
X154500000Y-106503654D02*
X154500000Y-123610000D01*
X154500000Y-126500000D02*
X154500000Y-130530000D01*
%TO.N,/SCK*%
X152949997Y-106427311D02*
X152949997Y-123000000D01*
X157438654Y-101938654D02*
X152949997Y-106427311D01*
X162225000Y-104000000D02*
X161500000Y-104000000D01*
X161500000Y-104000000D02*
X160250000Y-102750000D01*
X156983323Y-130766677D02*
X157130000Y-130620000D01*
X155693368Y-130766677D02*
X156983323Y-130766677D01*
%TO.N,/PC0*%
X156000000Y-119330000D02*
X156000000Y-120152971D01*
%TO.N,/PC3*%
X156210000Y-111500000D02*
X156000000Y-111710000D01*
%TO.N,/PC4*%
X156500000Y-109670000D02*
X156000000Y-109170000D01*
%TO.N,/PC5*%
X156500000Y-107130000D02*
X156000000Y-106630000D01*
%TO.N,/+3.3*%
D38*
X172750000Y-133750000D02*
X170205112Y-133750000D01*
X173950000Y-134950000D02*
X172750000Y-133750000D01*
X177500000Y-136350000D02*
X177500000Y-142650000D01*
X170205112Y-133750000D02*
X170205112Y-129455112D01*
X173950000Y-139100000D02*
X173950000Y-134950000D01*
X170205112Y-129455112D02*
X169750000Y-129000000D01*
X177500000Y-142650000D02*
X173950000Y-139100000D01*
%TO.N,Net-(D3-K)*%
D39*
X164040000Y-140560000D02*
X164230000Y-140750000D01*
%TO.N,Net-(D1-A)*%
D40*
X189750000Y-126707500D02*
X183372500Y-126707500D01*
X183372500Y-126707500D02*
X183330000Y-126750000D01*
%TD*%
%TA.AperFunction,Conductor*%
%TO.N,GND*%
G36*
X178755703Y-110988227D02*
G01*
X178762181Y-110994259D01*
X181663181Y-113895259D01*
X181696666Y-113956582D01*
X181699500Y-113982940D01*
X181699500Y-118404091D01*
X181679815Y-118471130D01*
X181635731Y-118509641D01*
X181636813Y-118511395D01*
X181630667Y-118515185D01*
X181630666Y-118515186D01*
X181596639Y-118536174D01*
X181481345Y-118607287D01*
X181412121Y-118676511D01*
X181350797Y-118709995D01*
X181281106Y-118705010D01*
X181251555Y-118689147D01*
X181181352Y-118638142D01*
X180999031Y-118545244D01*
X180804417Y-118482009D01*
X180602317Y-118450000D01*
X180397683Y-118450000D01*
X180195582Y-118482009D01*
X180000968Y-118545244D01*
X179818644Y-118638143D01*
X179774077Y-118670523D01*
X179774077Y-118670524D01*
X180453553Y-119350000D01*
X180447339Y-119350000D01*
X180345606Y-119377259D01*
X180254394Y-119429920D01*
X180179920Y-119504394D01*
X180127259Y-119595606D01*
X180100000Y-119697339D01*
X180100000Y-119703553D01*
X179420524Y-119024077D01*
X179420523Y-119024077D01*
X179388143Y-119068644D01*
X179295244Y-119250968D01*
X179232009Y-119445582D01*
X179200000Y-119647682D01*
X179200000Y-119852317D01*
X179232009Y-120054417D01*
X179295244Y-120249031D01*
X179388141Y-120431350D01*
X179388147Y-120431359D01*
X179420523Y-120475921D01*
X179420524Y-120475922D01*
X180100000Y-119796446D01*
X180100000Y-119802661D01*
X180127259Y-119904394D01*
X180179920Y-119995606D01*
X180254394Y-120070080D01*
X180345606Y-120122741D01*
X180447339Y-120150000D01*
X180453552Y-120150000D01*
X179774076Y-120829474D01*
X179818652Y-120861861D01*
X179956347Y-120932019D01*
X180007143Y-120979993D01*
X180023939Y-121047814D01*
X180001402Y-121113949D01*
X179987734Y-121130185D01*
X179222270Y-121895651D01*
X179128213Y-121989707D01*
X179128210Y-121989711D01*
X179040609Y-122120814D01*
X179040602Y-122120827D01*
X178980264Y-122266498D01*
X178980261Y-122266510D01*
X178949500Y-122421153D01*
X178949500Y-126867060D01*
X178929815Y-126934099D01*
X178913181Y-126954741D01*
X177989711Y-127878211D01*
X177957688Y-127910234D01*
X177878209Y-127989712D01*
X177790609Y-128120814D01*
X177790602Y-128120827D01*
X177730264Y-128266498D01*
X177730261Y-128266510D01*
X177699500Y-128421153D01*
X177699500Y-128904091D01*
X177679815Y-128971130D01*
X177635731Y-129009641D01*
X177636813Y-129011395D01*
X177630667Y-129015185D01*
X177630666Y-129015186D01*
X177558716Y-129059565D01*
X177481342Y-129107289D01*
X177357289Y-129231342D01*
X177265187Y-129380663D01*
X177265186Y-129380666D01*
X177210001Y-129547203D01*
X177210001Y-129547204D01*
X177210000Y-129547204D01*
X177199500Y-129649983D01*
X177199500Y-130367059D01*
X177179815Y-130434098D01*
X177163181Y-130454740D01*
X176700209Y-130917713D01*
X176239711Y-131378211D01*
X176211458Y-131406464D01*
X176128209Y-131489712D01*
X176040609Y-131620814D01*
X176040602Y-131620827D01*
X175980264Y-131766498D01*
X175980261Y-131766510D01*
X175949500Y-131921153D01*
X175949500Y-134417059D01*
X175929815Y-134484098D01*
X175913181Y-134504740D01*
X175604740Y-134813181D01*
X175543417Y-134846666D01*
X175517059Y-134849500D01*
X174847956Y-134849500D01*
X174780917Y-134829815D01*
X174735162Y-134777011D01*
X174726339Y-134749691D01*
X174722429Y-134730040D01*
X174719737Y-134716503D01*
X174701449Y-134672352D01*
X174700386Y-134669786D01*
X174676942Y-134613187D01*
X174659394Y-134570821D01*
X174659392Y-134570819D01*
X174659392Y-134570817D01*
X174571789Y-134439711D01*
X174571786Y-134439707D01*
X174455970Y-134323891D01*
X174455947Y-134323870D01*
X173260292Y-133128213D01*
X173260288Y-133128210D01*
X173129185Y-133040609D01*
X173129172Y-133040602D01*
X172983501Y-132980264D01*
X172983489Y-132980261D01*
X172828845Y-132949500D01*
X172828842Y-132949500D01*
X171551020Y-132949500D01*
X171483981Y-132929815D01*
X171445475Y-132885728D01*
X171443717Y-132886813D01*
X171439926Y-132880666D01*
X171347824Y-132731344D01*
X171223768Y-132607288D01*
X171074446Y-132515186D01*
X171074444Y-132515185D01*
X171068299Y-132511395D01*
X171069402Y-132509605D01*
X171024761Y-132470290D01*
X171005612Y-132404091D01*
X171005612Y-129376271D01*
X171003237Y-129364331D01*
X171000287Y-129349500D01*
X170974850Y-129221615D01*
X170914506Y-129075933D01*
X170914504Y-129075930D01*
X170914502Y-129075926D01*
X170826901Y-128944823D01*
X170826898Y-128944819D01*
X170260292Y-128378213D01*
X170260288Y-128378210D01*
X170129185Y-128290609D01*
X170129172Y-128290602D01*
X169983501Y-128230264D01*
X169983489Y-128230261D01*
X169828845Y-128199500D01*
X169828842Y-128199500D01*
X169671158Y-128199500D01*
X169671155Y-128199500D01*
X169516510Y-128230261D01*
X169516498Y-128230264D01*
X169370827Y-128290602D01*
X169370814Y-128290609D01*
X169239711Y-128378210D01*
X169239707Y-128378213D01*
X169128213Y-128489707D01*
X169128210Y-128489711D01*
X169040609Y-128620814D01*
X169040602Y-128620827D01*
X168980264Y-128766498D01*
X168980261Y-128766510D01*
X168949500Y-128921153D01*
X168949500Y-129078846D01*
X168980261Y-129233489D01*
X168980264Y-129233501D01*
X169040602Y-129379172D01*
X169040609Y-129379185D01*
X169128210Y-129510288D01*
X169128213Y-129510292D01*
X169368293Y-129750371D01*
X169401778Y-129811694D01*
X169404612Y-129838052D01*
X169404612Y-132404091D01*
X169384927Y-132471130D01*
X169340843Y-132509641D01*
X169341925Y-132511395D01*
X169335779Y-132515185D01*
X169335778Y-132515186D01*
X169289394Y-132543796D01*
X169186457Y-132607287D01*
X169117233Y-132676511D01*
X169055909Y-132709995D01*
X168986218Y-132705010D01*
X168956667Y-132689147D01*
X168886464Y-132638142D01*
X168704143Y-132545244D01*
X168509529Y-132482009D01*
X168307429Y-132450000D01*
X168102795Y-132450000D01*
X167900694Y-132482009D01*
X167706080Y-132545244D01*
X167523756Y-132638143D01*
X167479189Y-132670523D01*
X167479189Y-132670524D01*
X168158665Y-133350000D01*
X168152451Y-133350000D01*
X168050718Y-133377259D01*
X167959506Y-133429920D01*
X167885032Y-133504394D01*
X167832371Y-133595606D01*
X167805112Y-133697339D01*
X167805112Y-133703553D01*
X167125636Y-133024077D01*
X167125635Y-133024077D01*
X167093255Y-133068644D01*
X167000356Y-133250968D01*
X166937121Y-133445582D01*
X166905112Y-133647682D01*
X166905112Y-133852317D01*
X166937121Y-134054417D01*
X167000356Y-134249031D01*
X167093253Y-134431350D01*
X167093259Y-134431359D01*
X167125635Y-134475921D01*
X167125636Y-134475922D01*
X167805112Y-133796446D01*
X167805112Y-133802661D01*
X167832371Y-133904394D01*
X167885032Y-133995606D01*
X167959506Y-134070080D01*
X168050718Y-134122741D01*
X168152451Y-134150000D01*
X168158664Y-134150000D01*
X167479188Y-134829474D01*
X167523762Y-134861859D01*
X167706080Y-134954755D01*
X167900694Y-135017990D01*
X168102795Y-135050000D01*
X168307429Y-135050000D01*
X168509529Y-135017990D01*
X168704143Y-134954755D01*
X168886453Y-134861863D01*
X168886461Y-134861858D01*
X168956664Y-134810852D01*
X169022470Y-134787371D01*
X169090524Y-134803196D01*
X169117232Y-134823488D01*
X169186456Y-134892712D01*
X169335778Y-134984814D01*
X169502315Y-135039999D01*
X169605103Y-135050500D01*
X170805120Y-135050499D01*
X170907909Y-135039999D01*
X171074446Y-134984814D01*
X171223768Y-134892712D01*
X171347824Y-134768656D01*
X171439926Y-134619334D01*
X171439926Y-134619332D01*
X171443717Y-134613187D01*
X171445511Y-134614293D01*
X171484799Y-134569663D01*
X171551020Y-134550500D01*
X172367060Y-134550500D01*
X172434099Y-134570185D01*
X172454741Y-134586819D01*
X173113181Y-135245258D01*
X173146666Y-135306581D01*
X173149500Y-135332939D01*
X173149500Y-139178846D01*
X173180261Y-139333489D01*
X173180264Y-139333501D01*
X173240602Y-139479172D01*
X173240609Y-139479185D01*
X173328210Y-139610288D01*
X173328213Y-139610292D01*
X175214518Y-141496596D01*
X175248003Y-141557919D01*
X175243019Y-141627611D01*
X175236746Y-141641688D01*
X175166090Y-141776952D01*
X175130577Y-141901066D01*
X175117324Y-141947386D01*
X175110114Y-141972583D01*
X175110113Y-141972586D01*
X175107005Y-142007546D01*
X175100667Y-142078844D01*
X175099500Y-142091966D01*
X175099500Y-143208028D01*
X175099500Y-143208033D01*
X175099501Y-143208036D01*
X175101054Y-143225500D01*
X175110113Y-143327415D01*
X175166090Y-143523047D01*
X175236745Y-143658311D01*
X175250336Y-143726846D01*
X175224717Y-143791849D01*
X175214517Y-143803403D01*
X174504741Y-144513181D01*
X174443418Y-144546666D01*
X174417060Y-144549500D01*
X139919808Y-144549500D01*
X139852769Y-144529815D01*
X139807014Y-144477011D01*
X139797070Y-144407853D01*
X139826095Y-144344297D01*
X139832126Y-144337819D01*
X140102931Y-144067012D01*
X140164250Y-144033530D01*
X140166329Y-144033096D01*
X140233497Y-144019737D01*
X140379179Y-143959394D01*
X140510289Y-143871789D01*
X140621789Y-143760289D01*
X140709394Y-143629179D01*
X140716019Y-143613186D01*
X140769735Y-143483501D01*
X140769737Y-143483497D01*
X140774505Y-143459524D01*
X140796231Y-143350308D01*
X140828616Y-143288397D01*
X140889332Y-143253823D01*
X140917848Y-143250500D01*
X151714071Y-143250500D01*
X151825356Y-143228363D01*
X151839744Y-143225501D01*
X151958127Y-143176465D01*
X152064669Y-143105277D01*
X152352930Y-142817013D01*
X152414251Y-142783530D01*
X152416330Y-142783096D01*
X152483497Y-142769737D01*
X152629179Y-142709394D01*
X152760289Y-142621789D01*
X152871789Y-142510289D01*
X152959394Y-142379179D01*
X153019737Y-142233497D01*
X153050500Y-142078842D01*
X153050500Y-141921158D01*
X153050500Y-141921155D01*
X153050499Y-141921153D01*
X153042150Y-141879179D01*
X153019737Y-141766503D01*
X152991310Y-141697873D01*
X152959863Y-141621952D01*
X152952394Y-141552483D01*
X152983669Y-141490004D01*
X153043759Y-141454352D01*
X153074424Y-141450500D01*
X154914071Y-141450500D01*
X154998615Y-141433682D01*
X155039744Y-141425501D01*
X155158127Y-141376465D01*
X155198482Y-141349501D01*
X155264669Y-141305277D01*
X155612808Y-140957136D01*
X155674131Y-140923652D01*
X155719887Y-140922345D01*
X155897648Y-140950500D01*
X155897649Y-140950500D01*
X156102351Y-140950500D01*
X156102352Y-140950500D01*
X156304534Y-140918477D01*
X156499219Y-140855220D01*
X156681610Y-140762287D01*
X156802072Y-140674767D01*
X156847213Y-140641971D01*
X156847215Y-140641968D01*
X156847219Y-140641966D01*
X156991966Y-140497219D01*
X156991968Y-140497215D01*
X156991971Y-140497213D01*
X157069930Y-140389910D01*
X157112287Y-140331610D01*
X157205220Y-140149219D01*
X157268477Y-139954534D01*
X157300500Y-139752352D01*
X157300500Y-139547648D01*
X157285440Y-139452567D01*
X157268477Y-139345465D01*
X157228682Y-139222989D01*
X157205220Y-139150781D01*
X157205218Y-139150778D01*
X157205218Y-139150776D01*
X157160490Y-139062993D01*
X157112287Y-138968390D01*
X157088628Y-138935826D01*
X156991971Y-138802786D01*
X156847213Y-138658028D01*
X156681614Y-138537715D01*
X156639871Y-138516446D01*
X156588917Y-138490483D01*
X156538123Y-138442511D01*
X156521328Y-138374690D01*
X156543865Y-138308555D01*
X156588917Y-138269516D01*
X156681610Y-138222287D01*
X156748712Y-138173535D01*
X156847213Y-138101971D01*
X156847215Y-138101968D01*
X156847219Y-138101966D01*
X156991966Y-137957219D01*
X156991968Y-137957215D01*
X156991971Y-137957213D01*
X157052065Y-137874499D01*
X157112287Y-137791610D01*
X157205220Y-137609219D01*
X157268477Y-137414534D01*
X157300500Y-137212352D01*
X157300500Y-137007648D01*
X157268477Y-136805465D01*
X157216741Y-136646239D01*
X157205220Y-136610781D01*
X157205218Y-136610778D01*
X157205218Y-136610776D01*
X157154018Y-136510292D01*
X157112287Y-136428390D01*
X157076538Y-136379185D01*
X156991971Y-136262786D01*
X156847213Y-136118028D01*
X156681614Y-135997715D01*
X156675006Y-135994348D01*
X156588917Y-135950483D01*
X156538123Y-135902511D01*
X156521328Y-135834690D01*
X156543865Y-135768555D01*
X156588917Y-135729516D01*
X156681610Y-135682287D01*
X156727594Y-135648878D01*
X156847213Y-135561971D01*
X156847215Y-135561968D01*
X156847219Y-135561966D01*
X156991966Y-135417219D01*
X156991968Y-135417215D01*
X156991971Y-135417213D01*
X157044732Y-135344590D01*
X157112287Y-135251610D01*
X157205220Y-135069219D01*
X157268477Y-134874534D01*
X157300500Y-134672352D01*
X157300500Y-134467648D01*
X157277731Y-134323891D01*
X157268477Y-134265465D01*
X157205218Y-134070776D01*
X157126101Y-133915502D01*
X157112287Y-133888390D01*
X157096358Y-133866465D01*
X156991971Y-133722786D01*
X156847213Y-133578028D01*
X156681614Y-133457715D01*
X156675006Y-133454348D01*
X156588917Y-133410483D01*
X156538123Y-133362511D01*
X156521328Y-133294690D01*
X156543865Y-133228555D01*
X156588917Y-133189516D01*
X156681610Y-133142287D01*
X156728033Y-133108559D01*
X156847213Y-133021971D01*
X156847215Y-133021968D01*
X156847219Y-133021966D01*
X156991966Y-132877219D01*
X156991968Y-132877215D01*
X156991971Y-132877213D01*
X157066226Y-132775008D01*
X157112287Y-132711610D01*
X157205220Y-132529219D01*
X157268477Y-132334534D01*
X157280006Y-132261742D01*
X157309935Y-132198608D01*
X157369246Y-132161676D01*
X157439109Y-132162674D01*
X157490160Y-132193459D01*
X159063181Y-133766480D01*
X159096666Y-133827803D01*
X159099500Y-133854161D01*
X159099500Y-138571267D01*
X159079815Y-138638306D01*
X159027011Y-138684061D01*
X159014506Y-138688972D01*
X158980671Y-138700184D01*
X158980663Y-138700187D01*
X158831342Y-138792289D01*
X158707289Y-138916342D01*
X158615187Y-139065663D01*
X158615185Y-139065668D01*
X158596736Y-139121344D01*
X158560001Y-139232203D01*
X158560001Y-139232204D01*
X158560000Y-139232204D01*
X158549500Y-139334983D01*
X158549500Y-139960001D01*
X158549501Y-139960019D01*
X158560000Y-140062796D01*
X158560001Y-140062799D01*
X158601077Y-140186757D01*
X158615186Y-140229334D01*
X158677688Y-140330667D01*
X158707289Y-140378657D01*
X158800951Y-140472319D01*
X158834436Y-140533642D01*
X158829452Y-140603334D01*
X158800951Y-140647681D01*
X158707289Y-140741342D01*
X158615187Y-140890663D01*
X158615185Y-140890668D01*
X158595359Y-140950500D01*
X158560001Y-141057203D01*
X158560001Y-141057204D01*
X158560000Y-141057204D01*
X158549500Y-141159983D01*
X158549500Y-141785001D01*
X158549501Y-141785019D01*
X158560000Y-141887796D01*
X158560001Y-141887799D01*
X158615185Y-142054331D01*
X158615187Y-142054336D01*
X158639524Y-142093793D01*
X158707288Y-142203656D01*
X158831344Y-142327712D01*
X158980666Y-142419814D01*
X159147203Y-142474999D01*
X159249991Y-142485500D01*
X160250008Y-142485499D01*
X160250016Y-142485498D01*
X160250019Y-142485498D01*
X160306302Y-142479748D01*
X160352797Y-142474999D01*
X160519334Y-142419814D01*
X160668656Y-142327712D01*
X160792712Y-142203656D01*
X160884814Y-142054334D01*
X160939999Y-141887797D01*
X160950500Y-141785009D01*
X160950499Y-141524498D01*
X160970183Y-141457461D01*
X161022987Y-141411706D01*
X161074499Y-141400500D01*
X162705501Y-141400500D01*
X162772540Y-141420185D01*
X162818295Y-141472989D01*
X162829501Y-141524500D01*
X162829501Y-141697876D01*
X162835908Y-141757483D01*
X162886202Y-141892328D01*
X162886206Y-141892335D01*
X162972452Y-142007544D01*
X162972455Y-142007547D01*
X163087664Y-142093793D01*
X163087671Y-142093797D01*
X163222517Y-142144091D01*
X163222516Y-142144091D01*
X163229444Y-142144835D01*
X163282127Y-142150500D01*
X165177872Y-142150499D01*
X165237483Y-142144091D01*
X165372331Y-142093796D01*
X165487546Y-142007546D01*
X165573796Y-141892331D01*
X165605305Y-141807853D01*
X165613827Y-141785001D01*
X165624091Y-141757483D01*
X165630500Y-141697873D01*
X165630499Y-141587304D01*
X165650183Y-141520268D01*
X165666818Y-141499626D01*
X166327861Y-140838584D01*
X166350667Y-140923694D01*
X166409910Y-141026306D01*
X166493694Y-141110090D01*
X166596306Y-141169333D01*
X166681414Y-141192137D01*
X165972485Y-141901065D01*
X165972485Y-141901066D01*
X166036243Y-141947388D01*
X166232589Y-142047432D01*
X166442164Y-142115526D01*
X166659819Y-142150000D01*
X166880181Y-142150000D01*
X167097835Y-142115526D01*
X167307410Y-142047432D01*
X167503760Y-141947386D01*
X167567513Y-141901066D01*
X167567514Y-141901066D01*
X166858585Y-141192138D01*
X166943694Y-141169333D01*
X167046306Y-141110090D01*
X167130090Y-141026306D01*
X167189333Y-140923694D01*
X167212137Y-140838585D01*
X167921066Y-141547514D01*
X167921066Y-141547513D01*
X167967386Y-141483760D01*
X168067432Y-141287410D01*
X168135526Y-141077835D01*
X168170000Y-140860181D01*
X168170000Y-140639818D01*
X168135526Y-140422164D01*
X168067432Y-140212589D01*
X167967388Y-140016243D01*
X167921066Y-139952485D01*
X167921065Y-139952485D01*
X167212137Y-140661413D01*
X167189333Y-140576306D01*
X167130090Y-140473694D01*
X167046306Y-140389910D01*
X166943694Y-140330667D01*
X166858583Y-140307861D01*
X167567513Y-139598932D01*
X167503756Y-139552611D01*
X167307410Y-139452567D01*
X167097835Y-139384473D01*
X166880181Y-139350000D01*
X166659819Y-139350000D01*
X166442164Y-139384473D01*
X166232589Y-139452567D01*
X166036233Y-139552616D01*
X165972485Y-139598931D01*
X165972485Y-139598932D01*
X166681414Y-140307861D01*
X166596306Y-140330667D01*
X166493694Y-140389910D01*
X166409910Y-140473694D01*
X166350667Y-140576306D01*
X166327861Y-140661414D01*
X165666818Y-140000371D01*
X165633333Y-139939048D01*
X165630499Y-139912690D01*
X165630499Y-139802129D01*
X165630498Y-139802123D01*
X165630497Y-139802116D01*
X165624091Y-139742517D01*
X165609900Y-139704470D01*
X165604326Y-139689524D01*
X165573797Y-139607671D01*
X165573793Y-139607664D01*
X165487547Y-139492455D01*
X165487544Y-139492452D01*
X165372335Y-139406206D01*
X165372328Y-139406202D01*
X165237482Y-139355908D01*
X165237483Y-139355908D01*
X165177883Y-139349501D01*
X165177881Y-139349500D01*
X165177873Y-139349500D01*
X165177864Y-139349500D01*
X163282129Y-139349500D01*
X163282123Y-139349501D01*
X163222516Y-139355908D01*
X163087671Y-139406202D01*
X163087664Y-139406206D01*
X162972455Y-139492452D01*
X162972452Y-139492455D01*
X162886206Y-139607664D01*
X162886202Y-139607671D01*
X162835908Y-139742517D01*
X162829501Y-139802116D01*
X162829501Y-139802123D01*
X162829500Y-139802135D01*
X162829500Y-139975500D01*
X162809815Y-140042539D01*
X162757011Y-140088294D01*
X162705500Y-140099500D01*
X161073563Y-140099500D01*
X161006524Y-140079815D01*
X160960769Y-140027011D01*
X160950205Y-139962896D01*
X160950500Y-139960009D01*
X160950499Y-139334992D01*
X160950346Y-139333497D01*
X160939999Y-139232203D01*
X160939998Y-139232200D01*
X160913018Y-139150781D01*
X160884814Y-139065666D01*
X160792712Y-138916344D01*
X160668656Y-138792288D01*
X160519334Y-138700186D01*
X160519328Y-138700184D01*
X160485494Y-138688972D01*
X160428050Y-138649199D01*
X160401228Y-138584683D01*
X160400500Y-138571267D01*
X160400500Y-133469282D01*
X160375502Y-133343615D01*
X160375501Y-133343614D01*
X160375501Y-133343610D01*
X160326465Y-133225227D01*
X160326464Y-133225226D01*
X160326461Y-133225220D01*
X160255277Y-133118686D01*
X160216649Y-133080058D01*
X160164669Y-133028078D01*
X159007834Y-131871243D01*
X157816819Y-130680227D01*
X157783334Y-130618904D01*
X157780500Y-130592546D01*
X157780500Y-130555928D01*
X157760371Y-130454740D01*
X157755501Y-130430256D01*
X157743242Y-130400660D01*
X157706469Y-130311879D01*
X157706467Y-130311876D01*
X157706466Y-130311873D01*
X157676398Y-130266873D01*
X157635278Y-130205331D01*
X157635272Y-130205324D01*
X157541574Y-130111626D01*
X157541543Y-130111597D01*
X157307137Y-129877191D01*
X157273652Y-129815868D01*
X157272345Y-129770112D01*
X157288025Y-129671116D01*
X157300500Y-129592352D01*
X157300500Y-129387648D01*
X157276085Y-129233501D01*
X157268477Y-129185465D01*
X157233833Y-129078842D01*
X157205220Y-128990781D01*
X157205218Y-128990778D01*
X157205218Y-128990776D01*
X157161049Y-128904091D01*
X157112287Y-128808390D01*
X157081851Y-128766498D01*
X156991971Y-128642786D01*
X156847213Y-128498028D01*
X156681614Y-128377715D01*
X156647050Y-128360104D01*
X156588917Y-128330483D01*
X156538123Y-128282511D01*
X156521328Y-128214690D01*
X156543865Y-128148555D01*
X156588917Y-128109516D01*
X156681610Y-128062287D01*
X156781502Y-127989712D01*
X156847213Y-127941971D01*
X156847215Y-127941968D01*
X156847219Y-127941966D01*
X156991966Y-127797219D01*
X156991972Y-127797210D01*
X156994748Y-127793962D01*
X157053258Y-127755773D01*
X157089033Y-127750500D01*
X159068942Y-127750500D01*
X159135981Y-127770185D01*
X159174479Y-127809401D01*
X159257288Y-127943656D01*
X159381344Y-128067712D01*
X159530666Y-128159814D01*
X159697203Y-128214999D01*
X159799991Y-128225500D01*
X160400008Y-128225499D01*
X160400016Y-128225498D01*
X160400019Y-128225498D01*
X160468749Y-128218477D01*
X160502797Y-128214999D01*
X160669334Y-128159814D01*
X160818656Y-128067712D01*
X160942712Y-127943656D01*
X160944752Y-127940347D01*
X160946745Y-127938555D01*
X160947193Y-127937989D01*
X160947289Y-127938065D01*
X160996694Y-127893623D01*
X161065656Y-127882395D01*
X161129740Y-127910234D01*
X161155829Y-127940339D01*
X161157681Y-127943341D01*
X161157683Y-127943344D01*
X161281654Y-128067315D01*
X161430875Y-128159356D01*
X161430880Y-128159358D01*
X161597302Y-128214505D01*
X161597309Y-128214506D01*
X161700019Y-128224999D01*
X162250000Y-128224999D01*
X162299972Y-128224999D01*
X162299986Y-128224998D01*
X162402697Y-128214505D01*
X162569119Y-128159358D01*
X162569124Y-128159356D01*
X162718345Y-128067315D01*
X162842315Y-127943345D01*
X162934356Y-127794124D01*
X162934358Y-127794119D01*
X162989505Y-127627697D01*
X162989506Y-127627690D01*
X162999999Y-127524986D01*
X163000000Y-127524973D01*
X163000000Y-127250000D01*
X162250000Y-127250000D01*
X162250000Y-128224999D01*
X161700019Y-128224999D01*
X161749999Y-128224998D01*
X161750000Y-128224998D01*
X161750000Y-126750000D01*
X162250000Y-126750000D01*
X162999999Y-126750000D01*
X162999999Y-126475028D01*
X162999998Y-126475013D01*
X162989505Y-126372302D01*
X162934358Y-126205880D01*
X162934356Y-126205875D01*
X162842315Y-126056654D01*
X162718345Y-125932684D01*
X162569124Y-125840643D01*
X162569119Y-125840641D01*
X162402697Y-125785494D01*
X162402690Y-125785493D01*
X162299986Y-125775000D01*
X162250000Y-125775000D01*
X162250000Y-126750000D01*
X161750000Y-126750000D01*
X161750000Y-125775000D01*
X161749999Y-125774999D01*
X161700029Y-125775000D01*
X161700011Y-125775001D01*
X161597302Y-125785494D01*
X161430880Y-125840641D01*
X161430875Y-125840643D01*
X161281654Y-125932684D01*
X161157683Y-126056655D01*
X161157679Y-126056660D01*
X161155826Y-126059665D01*
X161154018Y-126061290D01*
X161153202Y-126062323D01*
X161153025Y-126062183D01*
X161103874Y-126106385D01*
X161034911Y-126117601D01*
X160970831Y-126089752D01*
X160944753Y-126059653D01*
X160944737Y-126059628D01*
X160942712Y-126056344D01*
X160818656Y-125932288D01*
X160669334Y-125840186D01*
X160502797Y-125785001D01*
X160502795Y-125785000D01*
X160400010Y-125774500D01*
X159799998Y-125774500D01*
X159799980Y-125774501D01*
X159697203Y-125785000D01*
X159697200Y-125785001D01*
X159530668Y-125840185D01*
X159530663Y-125840187D01*
X159381342Y-125932289D01*
X159257289Y-126056342D01*
X159236161Y-126090597D01*
X159184213Y-126137321D01*
X159130622Y-126149500D01*
X157089033Y-126149500D01*
X157021994Y-126129815D01*
X156994748Y-126106038D01*
X156991964Y-126102779D01*
X156847215Y-125958030D01*
X156843954Y-125955244D01*
X156805770Y-125896731D01*
X156800500Y-125860966D01*
X156800500Y-125499033D01*
X156820185Y-125431994D01*
X156843962Y-125404748D01*
X156847210Y-125401972D01*
X156847219Y-125401966D01*
X156991966Y-125257219D01*
X156991972Y-125257210D01*
X156994748Y-125253962D01*
X157053258Y-125215773D01*
X157089033Y-125210500D01*
X164308844Y-125210500D01*
X164308845Y-125210499D01*
X164463497Y-125179737D01*
X164609179Y-125119394D01*
X164740289Y-125031789D01*
X170485259Y-119286819D01*
X170546582Y-119253334D01*
X170572940Y-119250500D01*
X174030613Y-119250500D01*
X174097652Y-119270185D01*
X174143407Y-119322989D01*
X174154613Y-119374500D01*
X174154613Y-120350001D01*
X174154614Y-120350019D01*
X174165113Y-120452796D01*
X174165114Y-120452799D01*
X174203169Y-120567640D01*
X174220299Y-120619334D01*
X174305915Y-120758141D01*
X174312402Y-120768657D01*
X174418294Y-120874549D01*
X174451779Y-120935872D01*
X174454613Y-120962230D01*
X174454613Y-121303657D01*
X174485918Y-121461036D01*
X174493060Y-121496942D01*
X174493062Y-121496950D01*
X174568477Y-121679020D01*
X174568484Y-121679033D01*
X174677972Y-121842893D01*
X174677973Y-121842894D01*
X174677974Y-121842895D01*
X174817331Y-121982252D01*
X174817332Y-121982252D01*
X174824399Y-121989319D01*
X174824398Y-121989319D01*
X174824402Y-121989322D01*
X175463181Y-122628101D01*
X175496666Y-122689424D01*
X175499500Y-122715782D01*
X175499500Y-124284218D01*
X175479815Y-124351257D01*
X175463181Y-124371899D01*
X174582190Y-125252889D01*
X174520867Y-125286374D01*
X174451175Y-125281390D01*
X174429412Y-125270746D01*
X174339343Y-125215190D01*
X174339337Y-125215187D01*
X174339335Y-125215186D01*
X174172798Y-125160001D01*
X174172796Y-125160000D01*
X174070017Y-125149500D01*
X174070010Y-125149500D01*
X172269990Y-125149500D01*
X172269982Y-125149500D01*
X172167203Y-125160000D01*
X172167202Y-125160001D01*
X172107649Y-125179735D01*
X172000667Y-125215185D01*
X172000662Y-125215187D01*
X171851342Y-125307289D01*
X171727289Y-125431342D01*
X171635187Y-125580662D01*
X171635185Y-125580667D01*
X171614430Y-125643302D01*
X171580001Y-125747202D01*
X171580001Y-125747203D01*
X171580000Y-125747203D01*
X171569500Y-125849982D01*
X171569500Y-127650017D01*
X171580000Y-127752796D01*
X171594721Y-127797220D01*
X171635186Y-127919335D01*
X171727288Y-128068656D01*
X171851344Y-128192712D01*
X172000665Y-128284814D01*
X172167202Y-128339999D01*
X172269990Y-128350500D01*
X172269995Y-128350500D01*
X174070005Y-128350500D01*
X174070010Y-128350500D01*
X174172798Y-128339999D01*
X174339335Y-128284814D01*
X174488656Y-128192712D01*
X174612712Y-128068656D01*
X174704814Y-127919335D01*
X174752742Y-127774698D01*
X174792512Y-127717256D01*
X174822988Y-127699146D01*
X174845165Y-127689961D01*
X174973914Y-127636632D01*
X175137782Y-127527139D01*
X175277139Y-127387782D01*
X175277140Y-127387779D01*
X175284206Y-127380714D01*
X175284209Y-127380710D01*
X177137778Y-125527141D01*
X177137782Y-125527139D01*
X177277139Y-125387782D01*
X177386632Y-125223914D01*
X177450502Y-125069718D01*
X177462051Y-125041836D01*
X177464050Y-125031789D01*
X177494598Y-124878212D01*
X177494598Y-124878209D01*
X177500207Y-124850016D01*
X177500500Y-124848541D01*
X177500500Y-122151459D01*
X177486601Y-122081583D01*
X177462051Y-121958164D01*
X177414305Y-121842895D01*
X177414305Y-121842894D01*
X177386635Y-121776092D01*
X177386628Y-121776079D01*
X177277140Y-121612219D01*
X177208022Y-121543101D01*
X177137782Y-121472861D01*
X177137781Y-121472860D01*
X176840921Y-121176000D01*
X176603329Y-120938408D01*
X176569844Y-120877085D01*
X176574828Y-120807393D01*
X176593739Y-120773823D01*
X176595744Y-120771287D01*
X176652763Y-120730906D01*
X176668813Y-120726576D01*
X176741836Y-120712051D01*
X176795165Y-120689961D01*
X176923914Y-120636632D01*
X177087782Y-120527139D01*
X177227139Y-120387782D01*
X177227140Y-120387779D01*
X177234206Y-120380714D01*
X177234209Y-120380710D01*
X180687778Y-116927141D01*
X180687782Y-116927139D01*
X180827139Y-116787782D01*
X180936632Y-116623914D01*
X180936633Y-116623911D01*
X180936635Y-116623908D01*
X180981080Y-116516607D01*
X181004778Y-116459394D01*
X181009493Y-116448009D01*
X181043343Y-116402854D01*
X181042967Y-116402478D01*
X181045597Y-116399847D01*
X181046385Y-116398796D01*
X181047722Y-116397722D01*
X181167030Y-116249296D01*
X181251641Y-116078693D01*
X181297600Y-115893889D01*
X181300500Y-115851123D01*
X181300499Y-114448878D01*
X181297600Y-114406111D01*
X181251641Y-114221307D01*
X181234047Y-114185831D01*
X181167032Y-114050707D01*
X181167030Y-114050704D01*
X181047722Y-113902278D01*
X181047721Y-113902277D01*
X180899295Y-113782969D01*
X180899292Y-113782967D01*
X180728697Y-113698360D01*
X180543892Y-113652400D01*
X180522506Y-113650950D01*
X180501123Y-113649500D01*
X180501120Y-113649500D01*
X179598877Y-113649500D01*
X179598874Y-113649501D01*
X179556113Y-113652399D01*
X179556112Y-113652399D01*
X179371303Y-113698360D01*
X179200707Y-113782967D01*
X179200704Y-113782969D01*
X179052278Y-113902277D01*
X179052277Y-113902278D01*
X178996647Y-113971486D01*
X178939304Y-114011405D01*
X178869482Y-114013985D01*
X178809349Y-113978406D01*
X178803353Y-113971486D01*
X178747722Y-113902278D01*
X178747721Y-113902277D01*
X178596813Y-113780974D01*
X178556894Y-113723631D01*
X178550500Y-113684327D01*
X178550500Y-111081940D01*
X178570185Y-111014901D01*
X178622989Y-110969146D01*
X178692147Y-110959202D01*
X178755703Y-110988227D01*
G37*
%TD.AperFunction*%
%TA.AperFunction,Conductor*%
G36*
X144118833Y-119279971D02*
G01*
X144174767Y-119321842D01*
X144199184Y-119387307D01*
X144199500Y-119396153D01*
X144199500Y-120180515D01*
X144179815Y-120247554D01*
X144127011Y-120293309D01*
X144062899Y-120303873D01*
X144024991Y-120300000D01*
X143750000Y-120300000D01*
X143750000Y-121176000D01*
X143730315Y-121243039D01*
X143677511Y-121288794D01*
X143626000Y-121300000D01*
X143500000Y-121300000D01*
X143500000Y-121426000D01*
X143480315Y-121493039D01*
X143427511Y-121538794D01*
X143376000Y-121550000D01*
X142275001Y-121550000D01*
X142275001Y-121599986D01*
X142285494Y-121702697D01*
X142340641Y-121869119D01*
X142340643Y-121869124D01*
X142432684Y-122018345D01*
X142556655Y-122142316D01*
X142556659Y-122142319D01*
X142559656Y-122144168D01*
X142561279Y-122145972D01*
X142562323Y-122146798D01*
X142562181Y-122146976D01*
X142606381Y-122196116D01*
X142617602Y-122265079D01*
X142589759Y-122329161D01*
X142559661Y-122355241D01*
X142556349Y-122357283D01*
X142556343Y-122357288D01*
X142432289Y-122481342D01*
X142340187Y-122630663D01*
X142340186Y-122630666D01*
X142285001Y-122797203D01*
X142285001Y-122797204D01*
X142285000Y-122797204D01*
X142274500Y-122899983D01*
X142274500Y-123500001D01*
X142274501Y-123500019D01*
X142285000Y-123602796D01*
X142285001Y-123602799D01*
X142333779Y-123750000D01*
X142340186Y-123769334D01*
X142432288Y-123918656D01*
X142556344Y-124042712D01*
X142705666Y-124134814D01*
X142872203Y-124189999D01*
X142974991Y-124200500D01*
X144025008Y-124200499D01*
X144025016Y-124200498D01*
X144025019Y-124200498D01*
X144081302Y-124194748D01*
X144127797Y-124189999D01*
X144294334Y-124134814D01*
X144443656Y-124042712D01*
X144567712Y-123918656D01*
X144659814Y-123769334D01*
X144714999Y-123602797D01*
X144725500Y-123500009D01*
X144725499Y-123157939D01*
X144745183Y-123090901D01*
X144761818Y-123070259D01*
X144849791Y-122982287D01*
X144971789Y-122860289D01*
X145125259Y-122706819D01*
X145186582Y-122673334D01*
X145212940Y-122670500D01*
X147290967Y-122670500D01*
X147358006Y-122690185D01*
X147385252Y-122713962D01*
X147388035Y-122717220D01*
X147532786Y-122861971D01*
X147698385Y-122982284D01*
X147698387Y-122982285D01*
X147698390Y-122982287D01*
X147789561Y-123028741D01*
X147791630Y-123029795D01*
X147842426Y-123077770D01*
X147859221Y-123145591D01*
X147836684Y-123211725D01*
X147791630Y-123250765D01*
X147698644Y-123298143D01*
X147654077Y-123330523D01*
X147654077Y-123330524D01*
X148333554Y-124010000D01*
X148327339Y-124010000D01*
X148225606Y-124037259D01*
X148134394Y-124089920D01*
X148059920Y-124164394D01*
X148007259Y-124255606D01*
X147980000Y-124357339D01*
X147980000Y-124363553D01*
X147300524Y-123684077D01*
X147300523Y-123684077D01*
X147268143Y-123728644D01*
X147175244Y-123910968D01*
X147112009Y-124105582D01*
X147080000Y-124307682D01*
X147080000Y-124512317D01*
X147112009Y-124714417D01*
X147175244Y-124909031D01*
X147268141Y-125091350D01*
X147268147Y-125091359D01*
X147300523Y-125135921D01*
X147300524Y-125135922D01*
X147980000Y-124456446D01*
X147980000Y-124462661D01*
X148007259Y-124564394D01*
X148059920Y-124655606D01*
X148134394Y-124730080D01*
X148225606Y-124782741D01*
X148327339Y-124810000D01*
X148333553Y-124810000D01*
X147654076Y-125489474D01*
X147698652Y-125521861D01*
X147791628Y-125569234D01*
X147842425Y-125617208D01*
X147859220Y-125685029D01*
X147836683Y-125751164D01*
X147791630Y-125790203D01*
X147698388Y-125837713D01*
X147532786Y-125958028D01*
X147388034Y-126102780D01*
X147362939Y-126137321D01*
X147282246Y-126248386D01*
X147226918Y-126291051D01*
X147181929Y-126299500D01*
X144065808Y-126299500D01*
X143998769Y-126279815D01*
X143978127Y-126263181D01*
X143159674Y-125444727D01*
X143159673Y-125444726D01*
X143159669Y-125444723D01*
X143053127Y-125373535D01*
X142934744Y-125324499D01*
X142934738Y-125324497D01*
X142809071Y-125299500D01*
X142809069Y-125299500D01*
X140821268Y-125299500D01*
X140754229Y-125279815D01*
X140720950Y-125248385D01*
X140716002Y-125241575D01*
X140638828Y-125135354D01*
X140499646Y-124996172D01*
X140340405Y-124880476D01*
X140335956Y-124878209D01*
X140165029Y-124791117D01*
X139977826Y-124730290D01*
X139783422Y-124699500D01*
X139783417Y-124699500D01*
X139586583Y-124699500D01*
X139586578Y-124699500D01*
X139392173Y-124730290D01*
X139204970Y-124791117D01*
X139029594Y-124880476D01*
X138989461Y-124909635D01*
X138870354Y-124996172D01*
X138870352Y-124996174D01*
X138870351Y-124996174D01*
X138731174Y-125135351D01*
X138731169Y-125135357D01*
X138673665Y-125214505D01*
X138653998Y-125241575D01*
X138649050Y-125248385D01*
X138593720Y-125291051D01*
X138548732Y-125299500D01*
X137970808Y-125299500D01*
X137903769Y-125279815D01*
X137883127Y-125263181D01*
X136736818Y-124116872D01*
X136703333Y-124055549D01*
X136700499Y-124029191D01*
X136700499Y-123474998D01*
X136700498Y-123474981D01*
X136689999Y-123372203D01*
X136689998Y-123372200D01*
X136634814Y-123205666D01*
X136542712Y-123056344D01*
X136418656Y-122932288D01*
X136304645Y-122861966D01*
X136269336Y-122840187D01*
X136269331Y-122840185D01*
X136243354Y-122831577D01*
X136102797Y-122785001D01*
X136102795Y-122785000D01*
X136000010Y-122774500D01*
X135399998Y-122774500D01*
X135399980Y-122774501D01*
X135297203Y-122785000D01*
X135297200Y-122785001D01*
X135130668Y-122840185D01*
X135130663Y-122840187D01*
X134981342Y-122932289D01*
X134857288Y-123056343D01*
X134857283Y-123056349D01*
X134855241Y-123059661D01*
X134853247Y-123061453D01*
X134852807Y-123062011D01*
X134852711Y-123061935D01*
X134803291Y-123106383D01*
X134734328Y-123117602D01*
X134670247Y-123089755D01*
X134644168Y-123059656D01*
X134642319Y-123056659D01*
X134642316Y-123056655D01*
X134518345Y-122932684D01*
X134369124Y-122840643D01*
X134369119Y-122840641D01*
X134202697Y-122785494D01*
X134202690Y-122785493D01*
X134099986Y-122775000D01*
X134050000Y-122775000D01*
X134050000Y-125224999D01*
X134099972Y-125224999D01*
X134099986Y-125224998D01*
X134202697Y-125214505D01*
X134369119Y-125159358D01*
X134369124Y-125159356D01*
X134518345Y-125067315D01*
X134642318Y-124943342D01*
X134644165Y-124940348D01*
X134645969Y-124938724D01*
X134646798Y-124937677D01*
X134646976Y-124937818D01*
X134696110Y-124893621D01*
X134765073Y-124882396D01*
X134829156Y-124910236D01*
X134855243Y-124940341D01*
X134857288Y-124943656D01*
X134981344Y-125067712D01*
X135130666Y-125159814D01*
X135297203Y-125214999D01*
X135399991Y-125225500D01*
X135954191Y-125225499D01*
X136021230Y-125245183D01*
X136041872Y-125261818D01*
X137235324Y-126455271D01*
X137235327Y-126455274D01*
X137331426Y-126519485D01*
X137331427Y-126519485D01*
X137331428Y-126519486D01*
X137341873Y-126526465D01*
X137460256Y-126575501D01*
X137460260Y-126575501D01*
X137460261Y-126575502D01*
X137585928Y-126600500D01*
X137585931Y-126600500D01*
X138548732Y-126600500D01*
X138615771Y-126620185D01*
X138649049Y-126651614D01*
X138731172Y-126764646D01*
X138870354Y-126903828D01*
X139029595Y-127019524D01*
X139094024Y-127052352D01*
X139204970Y-127108882D01*
X139204972Y-127108882D01*
X139204975Y-127108884D01*
X139276617Y-127132162D01*
X139392173Y-127169709D01*
X139586578Y-127200500D01*
X139586583Y-127200500D01*
X139783422Y-127200500D01*
X139977826Y-127169709D01*
X140165025Y-127108884D01*
X140340405Y-127019524D01*
X140499646Y-126903828D01*
X140638828Y-126764646D01*
X140720950Y-126651614D01*
X140776280Y-126608949D01*
X140821268Y-126600500D01*
X142424192Y-126600500D01*
X142491231Y-126620185D01*
X142511873Y-126636819D01*
X143330325Y-127455272D01*
X143330332Y-127455278D01*
X143436863Y-127526459D01*
X143436867Y-127526461D01*
X143436874Y-127526466D01*
X143502100Y-127553483D01*
X143555256Y-127575501D01*
X143555260Y-127575501D01*
X143555261Y-127575502D01*
X143680928Y-127600500D01*
X143680931Y-127600500D01*
X143809069Y-127600500D01*
X147181929Y-127600500D01*
X147248968Y-127620185D01*
X147282245Y-127651613D01*
X147329938Y-127717256D01*
X147388034Y-127797219D01*
X147532786Y-127941971D01*
X147664708Y-128037816D01*
X147698390Y-128062287D01*
X147787320Y-128107599D01*
X147791080Y-128109515D01*
X147841876Y-128157490D01*
X147858671Y-128225311D01*
X147836134Y-128291446D01*
X147791080Y-128330485D01*
X147698386Y-128377715D01*
X147532786Y-128498028D01*
X147388034Y-128642780D01*
X147346587Y-128699828D01*
X147282246Y-128788386D01*
X147226918Y-128831051D01*
X147181929Y-128839500D01*
X144270929Y-128839500D01*
X144145261Y-128864497D01*
X144145255Y-128864499D01*
X144026875Y-128913533D01*
X144026866Y-128913538D01*
X143920331Y-128984723D01*
X143920327Y-128984726D01*
X142761873Y-130143181D01*
X142700550Y-130176666D01*
X142674192Y-130179500D01*
X140821268Y-130179500D01*
X140754229Y-130159815D01*
X140720950Y-130128385D01*
X140638830Y-130015357D01*
X140638825Y-130015351D01*
X140499648Y-129876174D01*
X140499646Y-129876172D01*
X140340405Y-129760476D01*
X140310210Y-129745091D01*
X140165029Y-129671117D01*
X139977826Y-129610290D01*
X139783422Y-129579500D01*
X139783417Y-129579500D01*
X139586583Y-129579500D01*
X139586578Y-129579500D01*
X139392173Y-129610290D01*
X139204970Y-129671117D01*
X139029594Y-129760476D01*
X138982718Y-129794534D01*
X138870354Y-129876172D01*
X138870352Y-129876174D01*
X138870351Y-129876174D01*
X138731174Y-130015351D01*
X138731169Y-130015357D01*
X138649050Y-130128385D01*
X138593720Y-130171051D01*
X138548732Y-130179500D01*
X137055929Y-130179500D01*
X136930261Y-130204497D01*
X136930255Y-130204499D01*
X136811870Y-130253535D01*
X136705331Y-130324722D01*
X136705324Y-130324728D01*
X136041871Y-130988181D01*
X135980548Y-131021666D01*
X135954190Y-131024500D01*
X135399998Y-131024500D01*
X135399980Y-131024501D01*
X135297203Y-131035000D01*
X135297200Y-131035001D01*
X135130668Y-131090185D01*
X135130663Y-131090187D01*
X134981342Y-131182289D01*
X134857288Y-131306343D01*
X134857283Y-131306349D01*
X134855241Y-131309661D01*
X134853247Y-131311453D01*
X134852807Y-131312011D01*
X134852711Y-131311935D01*
X134803291Y-131356383D01*
X134734328Y-131367602D01*
X134670247Y-131339755D01*
X134644168Y-131309656D01*
X134642319Y-131306659D01*
X134642316Y-131306655D01*
X134518345Y-131182684D01*
X134369124Y-131090643D01*
X134369119Y-131090641D01*
X134202697Y-131035494D01*
X134202690Y-131035493D01*
X134099986Y-131025000D01*
X134050000Y-131025000D01*
X134050000Y-132126000D01*
X134030315Y-132193039D01*
X133977511Y-132238794D01*
X133926000Y-132250000D01*
X133674000Y-132250000D01*
X133606961Y-132230315D01*
X133561206Y-132177511D01*
X133550000Y-132126000D01*
X133550000Y-131025000D01*
X133549999Y-131024999D01*
X133500029Y-131025000D01*
X133500011Y-131025001D01*
X133397302Y-131035494D01*
X133230880Y-131090641D01*
X133230875Y-131090643D01*
X133081654Y-131182684D01*
X132957684Y-131306654D01*
X132865643Y-131455875D01*
X132865641Y-131455880D01*
X132810494Y-131622302D01*
X132810493Y-131622309D01*
X132800000Y-131725013D01*
X132800000Y-131880692D01*
X132780315Y-131947731D01*
X132727511Y-131993486D01*
X132658353Y-132003430D01*
X132594797Y-131974405D01*
X132588319Y-131968373D01*
X126272127Y-125652181D01*
X126238642Y-125590858D01*
X126243626Y-125521166D01*
X126285498Y-125465233D01*
X126350962Y-125440816D01*
X126359808Y-125440500D01*
X129524071Y-125440500D01*
X129608615Y-125423682D01*
X129649744Y-125415501D01*
X129768127Y-125366465D01*
X129874669Y-125295277D01*
X130644960Y-124524986D01*
X132800001Y-124524986D01*
X132810494Y-124627697D01*
X132865641Y-124794119D01*
X132865643Y-124794124D01*
X132957684Y-124943345D01*
X133081654Y-125067315D01*
X133230875Y-125159356D01*
X133230880Y-125159358D01*
X133397302Y-125214505D01*
X133397309Y-125214506D01*
X133500019Y-125224999D01*
X133549999Y-125224998D01*
X133550000Y-125224998D01*
X133550000Y-124250000D01*
X132800001Y-124250000D01*
X132800001Y-124524986D01*
X130644960Y-124524986D01*
X131694933Y-123475013D01*
X132800000Y-123475013D01*
X132800000Y-123750000D01*
X133550000Y-123750000D01*
X133550000Y-122775000D01*
X133549999Y-122774999D01*
X133500029Y-122775000D01*
X133500011Y-122775001D01*
X133397302Y-122785494D01*
X133230880Y-122840641D01*
X133230875Y-122840643D01*
X133081654Y-122932684D01*
X132957684Y-123056654D01*
X132865643Y-123205875D01*
X132865641Y-123205880D01*
X132810494Y-123372302D01*
X132810493Y-123372309D01*
X132800000Y-123475013D01*
X131694933Y-123475013D01*
X132688602Y-122481344D01*
X134169932Y-121000013D01*
X142275000Y-121000013D01*
X142275000Y-121050000D01*
X143250000Y-121050000D01*
X143250000Y-120300000D01*
X142975029Y-120300000D01*
X142975012Y-120300001D01*
X142872302Y-120310494D01*
X142705880Y-120365641D01*
X142705875Y-120365643D01*
X142556654Y-120457684D01*
X142432684Y-120581654D01*
X142340643Y-120730875D01*
X142340641Y-120730880D01*
X142285494Y-120897302D01*
X142285493Y-120897309D01*
X142275000Y-121000013D01*
X134169932Y-121000013D01*
X134260762Y-120909183D01*
X135383126Y-119786819D01*
X135444449Y-119753334D01*
X135470807Y-119750500D01*
X143340417Y-119750500D01*
X143424961Y-119733682D01*
X143466090Y-119725501D01*
X143584473Y-119676465D01*
X143691015Y-119605277D01*
X143987821Y-119308470D01*
X144049142Y-119274987D01*
X144118833Y-119279971D01*
G37*
%TD.AperFunction*%
%TA.AperFunction,Conductor*%
G36*
X149459474Y-125135921D02*
G01*
X149490195Y-125093640D01*
X149545525Y-125050975D01*
X149615139Y-125044997D01*
X149676933Y-125077604D01*
X149711290Y-125138443D01*
X149712129Y-125142335D01*
X149730261Y-125233491D01*
X149730264Y-125233501D01*
X149790602Y-125379172D01*
X149790606Y-125379179D01*
X149828602Y-125436044D01*
X149849480Y-125502721D01*
X149849500Y-125504935D01*
X149849500Y-126481246D01*
X149829815Y-126548285D01*
X149777011Y-126594040D01*
X149707853Y-126603984D01*
X149644297Y-126574959D01*
X149607569Y-126519565D01*
X149607546Y-126519493D01*
X149585220Y-126450781D01*
X149585218Y-126450778D01*
X149585218Y-126450776D01*
X149545182Y-126372203D01*
X149492287Y-126268390D01*
X149473615Y-126242690D01*
X149371971Y-126102786D01*
X149227213Y-125958028D01*
X149061611Y-125837713D01*
X148968369Y-125790203D01*
X148917574Y-125742229D01*
X148900779Y-125674407D01*
X148923317Y-125608273D01*
X148968371Y-125569234D01*
X149061346Y-125521861D01*
X149061347Y-125521861D01*
X149105921Y-125489474D01*
X148426447Y-124810000D01*
X148432661Y-124810000D01*
X148534394Y-124782741D01*
X148625606Y-124730080D01*
X148700080Y-124655606D01*
X148752741Y-124564394D01*
X148780000Y-124462661D01*
X148780000Y-124456446D01*
X149459474Y-125135921D01*
G37*
%TD.AperFunction*%
%TA.AperFunction,Conductor*%
G36*
X134289125Y-115920185D02*
G01*
X134309767Y-115936819D01*
X135628218Y-117255271D01*
X135628221Y-117255274D01*
X135628224Y-117255276D01*
X135679024Y-117289219D01*
X135734767Y-117326465D01*
X135853150Y-117375501D01*
X135853154Y-117375501D01*
X135853155Y-117375502D01*
X135978822Y-117400500D01*
X135978825Y-117400500D01*
X142937726Y-117400500D01*
X143022270Y-117383682D01*
X143063399Y-117375501D01*
X143181782Y-117326465D01*
X143228460Y-117295276D01*
X143288324Y-117255277D01*
X144237819Y-116305782D01*
X144299142Y-116272297D01*
X144368833Y-116277281D01*
X144424767Y-116319153D01*
X144449184Y-116384617D01*
X144449500Y-116393463D01*
X144449500Y-116955538D01*
X144429815Y-117022577D01*
X144413181Y-117043219D01*
X143043219Y-118413181D01*
X142981896Y-118446666D01*
X142955538Y-118449500D01*
X135085929Y-118449500D01*
X134960261Y-118474497D01*
X134960255Y-118474499D01*
X134841875Y-118523533D01*
X134841863Y-118523540D01*
X134778301Y-118566010D01*
X134711623Y-118586887D01*
X134644244Y-118568401D01*
X134597554Y-118516422D01*
X134586379Y-118447452D01*
X134598928Y-118406611D01*
X134640102Y-118325804D01*
X134713065Y-118101247D01*
X134750000Y-117868052D01*
X134750000Y-117631947D01*
X134713065Y-117398752D01*
X134640102Y-117174197D01*
X134532914Y-116963828D01*
X134472658Y-116880894D01*
X134472658Y-116880893D01*
X133773787Y-117579765D01*
X133762518Y-117537708D01*
X133690110Y-117412292D01*
X133587708Y-117309890D01*
X133462292Y-117237482D01*
X133420234Y-117226212D01*
X134119105Y-116527340D01*
X134119104Y-116527338D01*
X134036174Y-116467087D01*
X133825802Y-116359897D01*
X133601247Y-116286934D01*
X133601248Y-116286934D01*
X133368052Y-116250000D01*
X133131948Y-116250000D01*
X132898752Y-116286934D01*
X132674197Y-116359897D01*
X132463830Y-116467084D01*
X132380894Y-116527340D01*
X133079766Y-117226212D01*
X133037708Y-117237482D01*
X132912292Y-117309890D01*
X132809890Y-117412292D01*
X132737482Y-117537708D01*
X132726212Y-117579766D01*
X132027340Y-116880894D01*
X131967084Y-116963830D01*
X131859897Y-117174197D01*
X131786934Y-117398752D01*
X131750000Y-117631947D01*
X131750000Y-117868052D01*
X131786934Y-118101247D01*
X131859897Y-118325802D01*
X131967087Y-118536174D01*
X132027338Y-118619104D01*
X132027340Y-118619105D01*
X132726212Y-117920233D01*
X132737482Y-117962292D01*
X132809890Y-118087708D01*
X132912292Y-118190110D01*
X133037708Y-118262518D01*
X133079765Y-118273787D01*
X132380893Y-118972658D01*
X132463828Y-119032914D01*
X132674197Y-119140102D01*
X132898752Y-119213065D01*
X132898751Y-119213065D01*
X133131948Y-119250000D01*
X133368052Y-119250000D01*
X133601247Y-119213065D01*
X133825804Y-119140102D01*
X133870669Y-119117242D01*
X133939338Y-119104345D01*
X134004079Y-119130620D01*
X134044336Y-119187726D01*
X134047329Y-119257532D01*
X134014646Y-119315407D01*
X129226873Y-124103181D01*
X129165550Y-124136666D01*
X129139192Y-124139500D01*
X124009618Y-124139500D01*
X123942579Y-124119815D01*
X123908900Y-124085408D01*
X123907915Y-124086125D01*
X123780109Y-123910213D01*
X123629786Y-123759890D01*
X123457820Y-123634951D01*
X123457115Y-123634591D01*
X123449054Y-123630485D01*
X123398259Y-123582512D01*
X123381463Y-123514692D01*
X123403999Y-123448556D01*
X123449054Y-123409515D01*
X123457816Y-123405051D01*
X123486539Y-123384183D01*
X123629786Y-123280109D01*
X123629788Y-123280106D01*
X123629792Y-123280104D01*
X123780104Y-123129792D01*
X123780106Y-123129788D01*
X123780109Y-123129786D01*
X123905048Y-122957820D01*
X123905047Y-122957820D01*
X123905051Y-122957816D01*
X124001557Y-122768412D01*
X124067246Y-122566243D01*
X124100500Y-122356287D01*
X124100500Y-122143713D01*
X124067246Y-121933757D01*
X124001557Y-121731588D01*
X123905051Y-121542184D01*
X123905049Y-121542181D01*
X123905048Y-121542179D01*
X123780109Y-121370213D01*
X123666569Y-121256673D01*
X123633084Y-121195350D01*
X123638068Y-121125658D01*
X123679940Y-121069725D01*
X123710917Y-121052810D01*
X123761489Y-121033948D01*
X123831181Y-121028964D01*
X123892503Y-121062449D01*
X124432984Y-121602930D01*
X124466469Y-121664253D01*
X124466920Y-121666420D01*
X124480261Y-121733489D01*
X124480264Y-121733501D01*
X124540602Y-121879172D01*
X124540609Y-121879185D01*
X124628210Y-122010288D01*
X124628213Y-122010292D01*
X124739707Y-122121786D01*
X124739711Y-122121789D01*
X124870814Y-122209390D01*
X124870827Y-122209397D01*
X125005516Y-122265186D01*
X125016503Y-122269737D01*
X125171153Y-122300499D01*
X125171156Y-122300500D01*
X125171158Y-122300500D01*
X125328844Y-122300500D01*
X125328845Y-122300499D01*
X125483497Y-122269737D01*
X125629179Y-122209394D01*
X125760289Y-122121789D01*
X125871789Y-122010289D01*
X125959394Y-121879179D01*
X125961550Y-121873971D01*
X126005388Y-121819569D01*
X126071681Y-121797500D01*
X126139381Y-121814776D01*
X126163794Y-121833740D01*
X126578090Y-122248036D01*
X126611575Y-122309359D01*
X126612027Y-122359907D01*
X126595152Y-122444746D01*
X126595152Y-122602433D01*
X126625913Y-122757076D01*
X126625916Y-122757088D01*
X126686254Y-122902759D01*
X126686261Y-122902772D01*
X126773862Y-123033875D01*
X126773865Y-123033879D01*
X126885359Y-123145373D01*
X126885363Y-123145376D01*
X127016466Y-123232977D01*
X127016479Y-123232984D01*
X127130251Y-123280109D01*
X127162155Y-123293324D01*
X127316805Y-123324086D01*
X127316808Y-123324087D01*
X127316810Y-123324087D01*
X127474496Y-123324087D01*
X127474497Y-123324086D01*
X127629149Y-123293324D01*
X127774831Y-123232981D01*
X127905941Y-123145376D01*
X128017441Y-123033876D01*
X128105046Y-122902766D01*
X128106196Y-122899991D01*
X128153621Y-122785494D01*
X128165389Y-122757084D01*
X128196152Y-122602429D01*
X128196152Y-122444745D01*
X128196152Y-122444742D01*
X128196151Y-122444740D01*
X128181091Y-122369031D01*
X128165389Y-122290090D01*
X128145777Y-122242741D01*
X128105049Y-122144414D01*
X128105045Y-122144407D01*
X128052681Y-122066038D01*
X128034169Y-122021346D01*
X128021153Y-121955908D01*
X127972117Y-121837525D01*
X127934555Y-121781309D01*
X127934555Y-121781308D01*
X127902611Y-121733501D01*
X127900929Y-121730983D01*
X127774367Y-121604421D01*
X127740884Y-121543101D01*
X127745868Y-121473409D01*
X127758946Y-121447854D01*
X127834394Y-121334939D01*
X127894737Y-121189257D01*
X127908079Y-121122176D01*
X127940463Y-121060269D01*
X127941958Y-121058746D01*
X129255277Y-119745429D01*
X129326465Y-119638887D01*
X129375501Y-119520504D01*
X129382099Y-119487334D01*
X129400500Y-119394829D01*
X129400500Y-118320808D01*
X129420185Y-118253769D01*
X129436819Y-118233127D01*
X131733127Y-115936819D01*
X131794450Y-115903334D01*
X131820808Y-115900500D01*
X134222086Y-115900500D01*
X134289125Y-115920185D01*
G37*
%TD.AperFunction*%
%TA.AperFunction,Conductor*%
G36*
X166258916Y-104106260D02*
G01*
X166309967Y-104137045D01*
X169850741Y-107677819D01*
X169884226Y-107739142D01*
X169879242Y-107808834D01*
X169837370Y-107864767D01*
X169771906Y-107889184D01*
X169763060Y-107889500D01*
X169731155Y-107889500D01*
X169576510Y-107920261D01*
X169576498Y-107920264D01*
X169430827Y-107980602D01*
X169430814Y-107980609D01*
X169299711Y-108068210D01*
X169299707Y-108068213D01*
X166654741Y-110713181D01*
X166593418Y-110746666D01*
X166567060Y-110749500D01*
X165037230Y-110749500D01*
X164970191Y-110729815D01*
X164949549Y-110713181D01*
X164943657Y-110707289D01*
X164943656Y-110707288D01*
X164850888Y-110650069D01*
X164794336Y-110615187D01*
X164794331Y-110615185D01*
X164792862Y-110614698D01*
X164627797Y-110560001D01*
X164627795Y-110560000D01*
X164525010Y-110549500D01*
X163474998Y-110549500D01*
X163474980Y-110549501D01*
X163372203Y-110560000D01*
X163372200Y-110560001D01*
X163205668Y-110615185D01*
X163205663Y-110615187D01*
X163056342Y-110707289D01*
X162932289Y-110831342D01*
X162840187Y-110980663D01*
X162840185Y-110980668D01*
X162820386Y-111040417D01*
X162785001Y-111147203D01*
X162785001Y-111147204D01*
X162785000Y-111147204D01*
X162774500Y-111249983D01*
X162774500Y-111850001D01*
X162774501Y-111850019D01*
X162785000Y-111952796D01*
X162785001Y-111952799D01*
X162840185Y-112119331D01*
X162840187Y-112119336D01*
X162864891Y-112159388D01*
X162932288Y-112268656D01*
X163056344Y-112392712D01*
X163059628Y-112394737D01*
X163059653Y-112394753D01*
X163061445Y-112396746D01*
X163062011Y-112397193D01*
X163061934Y-112397289D01*
X163106379Y-112446699D01*
X163117603Y-112515661D01*
X163089761Y-112579744D01*
X163059665Y-112605826D01*
X163056660Y-112607679D01*
X163056655Y-112607683D01*
X162932684Y-112731654D01*
X162840643Y-112880875D01*
X162840641Y-112880880D01*
X162785494Y-113047302D01*
X162785493Y-113047309D01*
X162775000Y-113150013D01*
X162775000Y-113200000D01*
X165224999Y-113200000D01*
X165224999Y-113150028D01*
X165224998Y-113150013D01*
X165214505Y-113047302D01*
X165159358Y-112880880D01*
X165159356Y-112880875D01*
X165067315Y-112731654D01*
X164943344Y-112607683D01*
X164943341Y-112607681D01*
X164940339Y-112605829D01*
X164938713Y-112604021D01*
X164937677Y-112603202D01*
X164937817Y-112603024D01*
X164893617Y-112553880D01*
X164882397Y-112484917D01*
X164910243Y-112420836D01*
X164940344Y-112394754D01*
X164943656Y-112392712D01*
X164949549Y-112386819D01*
X165010872Y-112353334D01*
X165037230Y-112350500D01*
X167028844Y-112350500D01*
X167028845Y-112350499D01*
X167183497Y-112319737D01*
X167329179Y-112259394D01*
X167460289Y-112171789D01*
X170105259Y-109526819D01*
X170166582Y-109493334D01*
X170192940Y-109490500D01*
X170325500Y-109490500D01*
X170392539Y-109510185D01*
X170438294Y-109562989D01*
X170449500Y-109614500D01*
X170449500Y-110840201D01*
X170429815Y-110907240D01*
X170390598Y-110945739D01*
X170331344Y-110982287D01*
X170207289Y-111106342D01*
X170115187Y-111255663D01*
X170115186Y-111255666D01*
X170060001Y-111422203D01*
X170060001Y-111422204D01*
X170060000Y-111422204D01*
X170049500Y-111524983D01*
X170049500Y-112150001D01*
X170049501Y-112150019D01*
X170060000Y-112252796D01*
X170060001Y-112252799D01*
X170105999Y-112391610D01*
X170115186Y-112419334D01*
X170196089Y-112550500D01*
X170207289Y-112568657D01*
X170300951Y-112662319D01*
X170334436Y-112723642D01*
X170329452Y-112793334D01*
X170300951Y-112837681D01*
X170207289Y-112931342D01*
X170115187Y-113080663D01*
X170115185Y-113080668D01*
X170108693Y-113100261D01*
X170060001Y-113247203D01*
X170060001Y-113247204D01*
X170060000Y-113247204D01*
X170049500Y-113349983D01*
X170049500Y-113679559D01*
X170029815Y-113746598D01*
X170013181Y-113767240D01*
X167617241Y-116163181D01*
X167555918Y-116196666D01*
X167529560Y-116199500D01*
X167524499Y-116199500D01*
X167457460Y-116179815D01*
X167411705Y-116127011D01*
X167400499Y-116075500D01*
X167400499Y-116052129D01*
X167400498Y-116052123D01*
X167400497Y-116052116D01*
X167394091Y-115992517D01*
X167390728Y-115983501D01*
X167343797Y-115857671D01*
X167343793Y-115857664D01*
X167257547Y-115742455D01*
X167257544Y-115742452D01*
X167142335Y-115656206D01*
X167142328Y-115656202D01*
X167007482Y-115605908D01*
X167007483Y-115605908D01*
X166947883Y-115599501D01*
X166947881Y-115599500D01*
X166947873Y-115599500D01*
X166947864Y-115599500D01*
X165052129Y-115599500D01*
X165052123Y-115599501D01*
X164992516Y-115605908D01*
X164857671Y-115656202D01*
X164857664Y-115656206D01*
X164742455Y-115742452D01*
X164742452Y-115742455D01*
X164656206Y-115857664D01*
X164656202Y-115857671D01*
X164605908Y-115992517D01*
X164599501Y-116052116D01*
X164599501Y-116052123D01*
X164599500Y-116052135D01*
X164599500Y-116162691D01*
X164579815Y-116229730D01*
X164563181Y-116250372D01*
X163902138Y-116911414D01*
X163879333Y-116826306D01*
X163820090Y-116723694D01*
X163736306Y-116639910D01*
X163633694Y-116580667D01*
X163548583Y-116557861D01*
X164257513Y-115848932D01*
X164193756Y-115802611D01*
X163997410Y-115702567D01*
X163787835Y-115634473D01*
X163570181Y-115600000D01*
X163349819Y-115600000D01*
X163132164Y-115634473D01*
X162922589Y-115702567D01*
X162726233Y-115802616D01*
X162662485Y-115848931D01*
X162662485Y-115848932D01*
X163371414Y-116557861D01*
X163286306Y-116580667D01*
X163183694Y-116639910D01*
X163099910Y-116723694D01*
X163040667Y-116826306D01*
X163017861Y-116911414D01*
X162308932Y-116202485D01*
X162308931Y-116202485D01*
X162262616Y-116266233D01*
X162162567Y-116462589D01*
X162094473Y-116672164D01*
X162060000Y-116889818D01*
X162060000Y-117110181D01*
X162094473Y-117327835D01*
X162162567Y-117537410D01*
X162262611Y-117733756D01*
X162308932Y-117797513D01*
X163017861Y-117088584D01*
X163040667Y-117173694D01*
X163099910Y-117276306D01*
X163183694Y-117360090D01*
X163286306Y-117419333D01*
X163371414Y-117442137D01*
X162662485Y-118151065D01*
X162662485Y-118151066D01*
X162726243Y-118197388D01*
X162922589Y-118297432D01*
X163132164Y-118365526D01*
X163349819Y-118400000D01*
X163570181Y-118400000D01*
X163787835Y-118365526D01*
X163997410Y-118297432D01*
X164193760Y-118197386D01*
X164257513Y-118151066D01*
X164257514Y-118151066D01*
X163548585Y-117442138D01*
X163633694Y-117419333D01*
X163736306Y-117360090D01*
X163820090Y-117276306D01*
X163879333Y-117173694D01*
X163902138Y-117088585D01*
X164563181Y-117749628D01*
X164596666Y-117810951D01*
X164599500Y-117837308D01*
X164599500Y-117947869D01*
X164599501Y-117947876D01*
X164605908Y-118007483D01*
X164656202Y-118142328D01*
X164656206Y-118142335D01*
X164742452Y-118257544D01*
X164742455Y-118257547D01*
X164857664Y-118343793D01*
X164857671Y-118343797D01*
X164992517Y-118394091D01*
X164992516Y-118394091D01*
X164999444Y-118394835D01*
X165052127Y-118400500D01*
X166947872Y-118400499D01*
X167007483Y-118394091D01*
X167142331Y-118343796D01*
X167257546Y-118257546D01*
X167343796Y-118142331D01*
X167394091Y-118007483D01*
X167400500Y-117947873D01*
X167400500Y-117924500D01*
X167420185Y-117857461D01*
X167472989Y-117811706D01*
X167524500Y-117800500D01*
X167991344Y-117800500D01*
X167991345Y-117800499D01*
X168145997Y-117769737D01*
X168291679Y-117709394D01*
X168422789Y-117621789D01*
X171332759Y-114711817D01*
X171394082Y-114678333D01*
X171420440Y-114675499D01*
X171750002Y-114675499D01*
X171750008Y-114675499D01*
X171852797Y-114664999D01*
X172019334Y-114609814D01*
X172168656Y-114517712D01*
X172237465Y-114448903D01*
X174200000Y-114448903D01*
X174200000Y-114900000D01*
X175200000Y-114900000D01*
X175200000Y-113650000D01*
X174998903Y-113650000D01*
X174956175Y-113652897D01*
X174771476Y-113698831D01*
X174600977Y-113783390D01*
X174600974Y-113783392D01*
X174452633Y-113902632D01*
X174452632Y-113902633D01*
X174333392Y-114050974D01*
X174333390Y-114050977D01*
X174248831Y-114221476D01*
X174202897Y-114406175D01*
X174200000Y-114448903D01*
X172237465Y-114448903D01*
X172292712Y-114393656D01*
X172384814Y-114244334D01*
X172439999Y-114077797D01*
X172450500Y-113975009D01*
X172450499Y-113349992D01*
X172448176Y-113327255D01*
X172439999Y-113247203D01*
X172439998Y-113247200D01*
X172431257Y-113220821D01*
X172384814Y-113080666D01*
X172292712Y-112931344D01*
X172199049Y-112837681D01*
X172165564Y-112776358D01*
X172170548Y-112706666D01*
X172199049Y-112662319D01*
X172292712Y-112568656D01*
X172384814Y-112419334D01*
X172439999Y-112252797D01*
X172450500Y-112150009D01*
X172450499Y-111524992D01*
X172448997Y-111510292D01*
X172439999Y-111422203D01*
X172439998Y-111422200D01*
X172434453Y-111405466D01*
X172384814Y-111255666D01*
X172292712Y-111106344D01*
X172168656Y-110982288D01*
X172168655Y-110982287D01*
X172109402Y-110945739D01*
X172062678Y-110893791D01*
X172050500Y-110840201D01*
X172050500Y-109817940D01*
X172070185Y-109750901D01*
X172086819Y-109730259D01*
X172290259Y-109526819D01*
X172351582Y-109493334D01*
X172377940Y-109490500D01*
X175256055Y-109490500D01*
X175323094Y-109510185D01*
X175368849Y-109562989D01*
X175375269Y-109580383D01*
X175400965Y-109670185D01*
X175415034Y-109719357D01*
X175416091Y-109723049D01*
X175510302Y-109903407D01*
X175510304Y-109903409D01*
X175638890Y-110061109D01*
X175668192Y-110085001D01*
X175796593Y-110189698D01*
X175976951Y-110283909D01*
X176172582Y-110339886D01*
X176291963Y-110350500D01*
X176825500Y-110350499D01*
X176892539Y-110370183D01*
X176938294Y-110422987D01*
X176949500Y-110474499D01*
X176949500Y-113684327D01*
X176929815Y-113751366D01*
X176903187Y-113780974D01*
X176754490Y-113900500D01*
X176752278Y-113902278D01*
X176730796Y-113929003D01*
X176696326Y-113971885D01*
X176638982Y-114011803D01*
X176569160Y-114014383D01*
X176509027Y-113978804D01*
X176503031Y-113971884D01*
X176447364Y-113902630D01*
X176299025Y-113783392D01*
X176299022Y-113783390D01*
X176128523Y-113698831D01*
X175943824Y-113652897D01*
X175901097Y-113650000D01*
X175700000Y-113650000D01*
X175700000Y-115026000D01*
X175680315Y-115093039D01*
X175627511Y-115138794D01*
X175576000Y-115150000D01*
X175450000Y-115150000D01*
X175450000Y-115276000D01*
X175430315Y-115343039D01*
X175377511Y-115388794D01*
X175326000Y-115400000D01*
X174200000Y-115400000D01*
X174200000Y-115851096D01*
X174202897Y-115893824D01*
X174248831Y-116078523D01*
X174333390Y-116249022D01*
X174333392Y-116249025D01*
X174452632Y-116397366D01*
X174452633Y-116397367D01*
X174600974Y-116516607D01*
X174600977Y-116516609D01*
X174771476Y-116601168D01*
X174771477Y-116601169D01*
X174875189Y-116626961D01*
X174935496Y-116662243D01*
X174967155Y-116724529D01*
X174960114Y-116794043D01*
X174932944Y-116834977D01*
X174154741Y-117613181D01*
X174093418Y-117646666D01*
X174067060Y-117649500D01*
X170111155Y-117649500D01*
X169956510Y-117680261D01*
X169956498Y-117680264D01*
X169810827Y-117740602D01*
X169810814Y-117740609D01*
X169679711Y-117828210D01*
X169679707Y-117828213D01*
X163934741Y-123573181D01*
X163873418Y-123606666D01*
X163847060Y-123609500D01*
X157089033Y-123609500D01*
X157021994Y-123589815D01*
X156994748Y-123566038D01*
X156991964Y-123562779D01*
X156847213Y-123418028D01*
X156681611Y-123297713D01*
X156588369Y-123250203D01*
X156537574Y-123202229D01*
X156520779Y-123134407D01*
X156543317Y-123068273D01*
X156588371Y-123029234D01*
X156681346Y-122981861D01*
X156681347Y-122981861D01*
X156725921Y-122949474D01*
X156046447Y-122270000D01*
X156052661Y-122270000D01*
X156154394Y-122242741D01*
X156245606Y-122190080D01*
X156320080Y-122115606D01*
X156372741Y-122024394D01*
X156400000Y-121922661D01*
X156400000Y-121916447D01*
X157079474Y-122595921D01*
X157111859Y-122551349D01*
X157204755Y-122369031D01*
X157267990Y-122174417D01*
X157300000Y-121972317D01*
X157300000Y-121767682D01*
X157267990Y-121565582D01*
X157204755Y-121370968D01*
X157111859Y-121188650D01*
X157079474Y-121144077D01*
X157079474Y-121144076D01*
X156400000Y-121823551D01*
X156400000Y-121817339D01*
X156372741Y-121715606D01*
X156320080Y-121624394D01*
X156245606Y-121549920D01*
X156154394Y-121497259D01*
X156052661Y-121470000D01*
X156046446Y-121470000D01*
X156725922Y-120790524D01*
X156725921Y-120790523D01*
X156681359Y-120758147D01*
X156681350Y-120758141D01*
X156588368Y-120710764D01*
X156537572Y-120662789D01*
X156520777Y-120594968D01*
X156543315Y-120528833D01*
X156588365Y-120489796D01*
X156681610Y-120442287D01*
X156847219Y-120321966D01*
X156991966Y-120177219D01*
X156991968Y-120177215D01*
X156991971Y-120177213D01*
X157081186Y-120054417D01*
X157112287Y-120011610D01*
X157205220Y-119829219D01*
X157268477Y-119634534D01*
X157300500Y-119432352D01*
X157300500Y-119227648D01*
X157283013Y-119117242D01*
X157268477Y-119025465D01*
X157221429Y-118880668D01*
X157205220Y-118830781D01*
X157205218Y-118830778D01*
X157205218Y-118830776D01*
X157154553Y-118731342D01*
X157112287Y-118648390D01*
X157104556Y-118637749D01*
X156991971Y-118482786D01*
X156847213Y-118338028D01*
X156681611Y-118217713D01*
X156674895Y-118214291D01*
X156674895Y-118214290D01*
X156588920Y-118170485D01*
X156538123Y-118122511D01*
X156521328Y-118054690D01*
X156543865Y-117988555D01*
X156588917Y-117949516D01*
X156681610Y-117902287D01*
X156783568Y-117828211D01*
X156847213Y-117781971D01*
X156847215Y-117781968D01*
X156847219Y-117781966D01*
X156991966Y-117637219D01*
X156991968Y-117637215D01*
X156991971Y-117637213D01*
X157046541Y-117562103D01*
X157112287Y-117471610D01*
X157205220Y-117289219D01*
X157268477Y-117094534D01*
X157300500Y-116892352D01*
X157300500Y-116687648D01*
X157268477Y-116485466D01*
X157262505Y-116467087D01*
X157227677Y-116359897D01*
X157205220Y-116290781D01*
X157205218Y-116290778D01*
X157205218Y-116290776D01*
X157140204Y-116163181D01*
X157112287Y-116108390D01*
X157071416Y-116052135D01*
X157011071Y-115969076D01*
X157011070Y-115969075D01*
X156991969Y-115942784D01*
X156847213Y-115798028D01*
X156681614Y-115677715D01*
X156639392Y-115656202D01*
X156588917Y-115630483D01*
X156538123Y-115582511D01*
X156521328Y-115514690D01*
X156543865Y-115448555D01*
X156588917Y-115409516D01*
X156681610Y-115362287D01*
X156810807Y-115268421D01*
X156847213Y-115241971D01*
X156847215Y-115241968D01*
X156847219Y-115241966D01*
X156991966Y-115097219D01*
X156991968Y-115097215D01*
X156991971Y-115097213D01*
X157076938Y-114980264D01*
X157112287Y-114931610D01*
X157205220Y-114749219D01*
X157268477Y-114554534D01*
X157300500Y-114352352D01*
X157300500Y-114147648D01*
X157287750Y-114067146D01*
X157268477Y-113945465D01*
X157245225Y-113873905D01*
X157205220Y-113750781D01*
X157205217Y-113750777D01*
X157205217Y-113750774D01*
X157204815Y-113749986D01*
X162775001Y-113749986D01*
X162785494Y-113852697D01*
X162840641Y-114019119D01*
X162840643Y-114019124D01*
X162932684Y-114168345D01*
X163056654Y-114292315D01*
X163205875Y-114384356D01*
X163205880Y-114384358D01*
X163372302Y-114439505D01*
X163372309Y-114439506D01*
X163475019Y-114449999D01*
X163749999Y-114449999D01*
X164250000Y-114449999D01*
X164524972Y-114449999D01*
X164524986Y-114449998D01*
X164627697Y-114439505D01*
X164794119Y-114384358D01*
X164794124Y-114384356D01*
X164943345Y-114292315D01*
X165067315Y-114168345D01*
X165159356Y-114019124D01*
X165159358Y-114019119D01*
X165214505Y-113852697D01*
X165214506Y-113852690D01*
X165224999Y-113749986D01*
X165225000Y-113749973D01*
X165225000Y-113700000D01*
X164250000Y-113700000D01*
X164250000Y-114449999D01*
X163749999Y-114449999D01*
X163750000Y-114449998D01*
X163750000Y-113700000D01*
X162775001Y-113700000D01*
X162775001Y-113749986D01*
X157204815Y-113749986D01*
X157181860Y-113704934D01*
X157181859Y-113704933D01*
X157112287Y-113568390D01*
X157112285Y-113568387D01*
X157112284Y-113568385D01*
X156991971Y-113402786D01*
X156847213Y-113258028D01*
X156681614Y-113137715D01*
X156608106Y-113100261D01*
X156588917Y-113090483D01*
X156538123Y-113042511D01*
X156521328Y-112974690D01*
X156543865Y-112908555D01*
X156588917Y-112869516D01*
X156681610Y-112822287D01*
X156721461Y-112793334D01*
X156847213Y-112701971D01*
X156847215Y-112701968D01*
X156847219Y-112701966D01*
X156991966Y-112557219D01*
X156991968Y-112557215D01*
X156991971Y-112557213D01*
X157044732Y-112484590D01*
X157112287Y-112391610D01*
X157205220Y-112209219D01*
X157268477Y-112014534D01*
X157300500Y-111812352D01*
X157300500Y-111607648D01*
X157287407Y-111524983D01*
X157268477Y-111405465D01*
X157224976Y-111271585D01*
X157205220Y-111210781D01*
X157205218Y-111210778D01*
X157205218Y-111210776D01*
X157163067Y-111128051D01*
X157150171Y-111059382D01*
X157176447Y-110994641D01*
X157185871Y-110984075D01*
X157755273Y-110414673D01*
X157755277Y-110414669D01*
X157826465Y-110308127D01*
X157837168Y-110282287D01*
X157875501Y-110189744D01*
X157887428Y-110129786D01*
X157900500Y-110064071D01*
X157900500Y-109275928D01*
X157875502Y-109150261D01*
X157875501Y-109150260D01*
X157875501Y-109150256D01*
X157826465Y-109031873D01*
X157826463Y-109031871D01*
X157826459Y-109031863D01*
X157818358Y-109019739D01*
X157818356Y-109019736D01*
X157755277Y-108925331D01*
X157755271Y-108925324D01*
X157494673Y-108664726D01*
X157494669Y-108664723D01*
X157388127Y-108593535D01*
X157370737Y-108586332D01*
X157302319Y-108557992D01*
X157247916Y-108514151D01*
X157225851Y-108447857D01*
X157243130Y-108380158D01*
X157294267Y-108332547D01*
X157302316Y-108328871D01*
X157308127Y-108326465D01*
X157341590Y-108304106D01*
X157414669Y-108255277D01*
X158005277Y-107664669D01*
X158076465Y-107558127D01*
X158125501Y-107439744D01*
X158133682Y-107398615D01*
X158150500Y-107314071D01*
X158150500Y-106935931D01*
X158142070Y-106893554D01*
X158139496Y-106880613D01*
X158145722Y-106811024D01*
X158188584Y-106755846D01*
X158254474Y-106732600D01*
X158322471Y-106748667D01*
X158348794Y-106768741D01*
X158625325Y-107045272D01*
X158625332Y-107045278D01*
X158706483Y-107099501D01*
X158706484Y-107099501D01*
X158731873Y-107116465D01*
X158850256Y-107165501D01*
X158850260Y-107165501D01*
X158850261Y-107165502D01*
X158975928Y-107190500D01*
X158975931Y-107190500D01*
X159104069Y-107190500D01*
X160965382Y-107190500D01*
X161032421Y-107210185D01*
X161066099Y-107244591D01*
X161067085Y-107243875D01*
X161194890Y-107419786D01*
X161345213Y-107570109D01*
X161517179Y-107695048D01*
X161517181Y-107695049D01*
X161517184Y-107695051D01*
X161706588Y-107791557D01*
X161908757Y-107857246D01*
X162118713Y-107890500D01*
X162118714Y-107890500D01*
X162331286Y-107890500D01*
X162331287Y-107890500D01*
X162541243Y-107857246D01*
X162743412Y-107791557D01*
X162932816Y-107695051D01*
X162996675Y-107648655D01*
X163104786Y-107570109D01*
X163104788Y-107570106D01*
X163104792Y-107570104D01*
X163255104Y-107419792D01*
X163255106Y-107419788D01*
X163255109Y-107419786D01*
X163340890Y-107301717D01*
X163380051Y-107247816D01*
X163384793Y-107238508D01*
X163432763Y-107187711D01*
X163500583Y-107170911D01*
X163566719Y-107193445D01*
X163605763Y-107238500D01*
X163610373Y-107247547D01*
X163649728Y-107301716D01*
X164282037Y-106669408D01*
X164299075Y-106732993D01*
X164364901Y-106847007D01*
X164457993Y-106940099D01*
X164572007Y-107005925D01*
X164635590Y-107022962D01*
X164003282Y-107655269D01*
X164003282Y-107655270D01*
X164057449Y-107694624D01*
X164246782Y-107791095D01*
X164448870Y-107856757D01*
X164658754Y-107890000D01*
X164871246Y-107890000D01*
X165081127Y-107856757D01*
X165081130Y-107856757D01*
X165283217Y-107791095D01*
X165472554Y-107694622D01*
X165526716Y-107655270D01*
X165526717Y-107655270D01*
X164894408Y-107022962D01*
X164957993Y-107005925D01*
X165072007Y-106940099D01*
X165165099Y-106847007D01*
X165230925Y-106732993D01*
X165247962Y-106669408D01*
X165880270Y-107301717D01*
X165880270Y-107301716D01*
X165919622Y-107247554D01*
X166016095Y-107058217D01*
X166081757Y-106856130D01*
X166081757Y-106856127D01*
X166115000Y-106646246D01*
X166115000Y-106433753D01*
X166081757Y-106223872D01*
X166081757Y-106223869D01*
X166016095Y-106021782D01*
X165919624Y-105832449D01*
X165880270Y-105778282D01*
X165880269Y-105778282D01*
X165247962Y-106410590D01*
X165230925Y-106347007D01*
X165165099Y-106232993D01*
X165072007Y-106139901D01*
X164957993Y-106074075D01*
X164894409Y-106057037D01*
X165526716Y-105424728D01*
X165472547Y-105385373D01*
X165472547Y-105385372D01*
X165463500Y-105380763D01*
X165412706Y-105332788D01*
X165395912Y-105264966D01*
X165418451Y-105198832D01*
X165463508Y-105159793D01*
X165472816Y-105155051D01*
X165552007Y-105097515D01*
X165644786Y-105030109D01*
X165644788Y-105030106D01*
X165644792Y-105030104D01*
X165795104Y-104879792D01*
X165795106Y-104879788D01*
X165795109Y-104879786D01*
X165920048Y-104707820D01*
X165920047Y-104707820D01*
X165920051Y-104707816D01*
X166016557Y-104518412D01*
X166082246Y-104316243D01*
X166099813Y-104205326D01*
X166129742Y-104142194D01*
X166189053Y-104105262D01*
X166258916Y-104106260D01*
G37*
%TD.AperFunction*%
%TA.AperFunction,Conductor*%
G36*
X147026439Y-107170185D02*
G01*
X147072194Y-107222989D01*
X147082759Y-107261905D01*
X147083527Y-107269427D01*
X147070753Y-107338119D01*
X147047849Y-107369703D01*
X144379371Y-110038181D01*
X144318048Y-110071666D01*
X144291690Y-110074500D01*
X143749998Y-110074500D01*
X143749980Y-110074501D01*
X143647203Y-110085000D01*
X143647200Y-110085001D01*
X143480668Y-110140185D01*
X143480656Y-110140191D01*
X143466595Y-110148864D01*
X143399202Y-110167303D01*
X143332539Y-110146379D01*
X143287771Y-110092736D01*
X143279885Y-110067520D01*
X143269737Y-110016503D01*
X143245428Y-109957816D01*
X143209397Y-109870827D01*
X143209390Y-109870814D01*
X143121789Y-109739711D01*
X143121786Y-109739707D01*
X143010292Y-109628213D01*
X143010288Y-109628210D01*
X142879185Y-109540609D01*
X142879172Y-109540602D01*
X142733501Y-109480264D01*
X142733489Y-109480261D01*
X142578845Y-109449500D01*
X142578842Y-109449500D01*
X142421158Y-109449500D01*
X142421155Y-109449500D01*
X142266510Y-109480261D01*
X142266498Y-109480264D01*
X142120827Y-109540602D01*
X142120814Y-109540609D01*
X141989711Y-109628210D01*
X141989707Y-109628213D01*
X141878213Y-109739707D01*
X141878210Y-109739711D01*
X141790609Y-109870814D01*
X141790602Y-109870827D01*
X141730264Y-110016498D01*
X141730261Y-110016508D01*
X141716920Y-110083580D01*
X141684535Y-110145491D01*
X141682985Y-110147069D01*
X141516871Y-110313182D01*
X141455550Y-110346666D01*
X141429192Y-110349500D01*
X134004935Y-110349500D01*
X133937896Y-110329815D01*
X133936090Y-110328633D01*
X133879179Y-110290606D01*
X133879172Y-110290602D01*
X133733501Y-110230264D01*
X133733489Y-110230261D01*
X133578845Y-110199500D01*
X133578842Y-110199500D01*
X133421158Y-110199500D01*
X133421155Y-110199500D01*
X133266510Y-110230261D01*
X133266498Y-110230264D01*
X133120827Y-110290602D01*
X133120814Y-110290609D01*
X132989711Y-110378210D01*
X132989707Y-110378213D01*
X132878213Y-110489707D01*
X132878210Y-110489711D01*
X132790609Y-110620814D01*
X132790602Y-110620827D01*
X132730264Y-110766498D01*
X132730261Y-110766510D01*
X132699500Y-110921153D01*
X132699500Y-111078846D01*
X132730261Y-111233489D01*
X132730264Y-111233501D01*
X132790602Y-111379172D01*
X132790609Y-111379185D01*
X132878210Y-111510288D01*
X132878213Y-111510292D01*
X132948568Y-111580647D01*
X132982053Y-111641970D01*
X132977069Y-111711662D01*
X132935197Y-111767595D01*
X132899206Y-111786259D01*
X132674003Y-111859433D01*
X132463566Y-111966657D01*
X132417674Y-112000000D01*
X132272490Y-112105483D01*
X132272488Y-112105485D01*
X132272487Y-112105485D01*
X132105485Y-112272487D01*
X132105485Y-112272488D01*
X132105483Y-112272490D01*
X132071156Y-112319737D01*
X131966657Y-112463566D01*
X131931893Y-112531795D01*
X131883918Y-112582591D01*
X131821408Y-112599500D01*
X128178592Y-112599500D01*
X128111553Y-112579815D01*
X128068107Y-112531795D01*
X128033342Y-112463566D01*
X127894517Y-112272490D01*
X127727510Y-112105483D01*
X127536433Y-111966657D01*
X127509231Y-111952797D01*
X127325996Y-111859433D01*
X127101368Y-111786446D01*
X126868097Y-111749500D01*
X126868092Y-111749500D01*
X126631908Y-111749500D01*
X126631903Y-111749500D01*
X126398631Y-111786446D01*
X126174003Y-111859433D01*
X125963566Y-111966657D01*
X125917674Y-112000000D01*
X125772490Y-112105483D01*
X125772488Y-112105485D01*
X125772487Y-112105485D01*
X125605485Y-112272487D01*
X125605485Y-112272488D01*
X125605483Y-112272490D01*
X125571156Y-112319737D01*
X125466657Y-112463566D01*
X125359433Y-112674003D01*
X125286446Y-112898631D01*
X125249500Y-113131902D01*
X125249500Y-113368097D01*
X125286446Y-113601368D01*
X125359433Y-113825996D01*
X125455219Y-114013985D01*
X125466657Y-114036433D01*
X125605483Y-114227510D01*
X125772490Y-114394517D01*
X125963567Y-114533343D01*
X126062991Y-114584002D01*
X126174003Y-114640566D01*
X126174005Y-114640566D01*
X126174008Y-114640568D01*
X126249196Y-114664998D01*
X126398631Y-114713553D01*
X126631903Y-114750500D01*
X126631908Y-114750500D01*
X126868096Y-114750500D01*
X126942221Y-114738759D01*
X127101368Y-114713553D01*
X127325992Y-114640568D01*
X127536433Y-114533343D01*
X127727510Y-114394517D01*
X127894517Y-114227510D01*
X128033343Y-114036433D01*
X128062909Y-113978406D01*
X128068107Y-113968205D01*
X128116082Y-113917409D01*
X128178592Y-113900500D01*
X129705832Y-113900500D01*
X129772871Y-113920185D01*
X129818626Y-113972989D01*
X129828570Y-114042147D01*
X129808933Y-114093392D01*
X129790610Y-114120812D01*
X129790602Y-114120827D01*
X129730264Y-114266498D01*
X129730261Y-114266508D01*
X129716920Y-114333579D01*
X129684535Y-114395490D01*
X129682984Y-114397068D01*
X129016873Y-115063181D01*
X128955550Y-115096666D01*
X128929192Y-115099500D01*
X127754935Y-115099500D01*
X127687896Y-115079815D01*
X127686090Y-115078633D01*
X127629179Y-115040606D01*
X127629172Y-115040602D01*
X127483501Y-114980264D01*
X127483489Y-114980261D01*
X127328845Y-114949500D01*
X127328842Y-114949500D01*
X127171158Y-114949500D01*
X127073421Y-114968941D01*
X127072447Y-114969133D01*
X127016507Y-114980261D01*
X127016498Y-114980264D01*
X126870827Y-115040602D01*
X126870814Y-115040609D01*
X126739711Y-115128210D01*
X126739707Y-115128213D01*
X126628213Y-115239707D01*
X126628210Y-115239711D01*
X126540609Y-115370814D01*
X126540602Y-115370827D01*
X126480264Y-115516498D01*
X126480261Y-115516510D01*
X126449500Y-115671153D01*
X126449500Y-115828846D01*
X126480261Y-115983489D01*
X126480264Y-115983501D01*
X126540602Y-116129172D01*
X126540609Y-116129185D01*
X126628210Y-116260288D01*
X126628213Y-116260292D01*
X126739707Y-116371786D01*
X126739711Y-116371789D01*
X126870814Y-116459390D01*
X126870827Y-116459397D01*
X126992720Y-116509886D01*
X127016503Y-116519737D01*
X127129165Y-116542147D01*
X127171153Y-116550499D01*
X127171156Y-116550500D01*
X127171158Y-116550500D01*
X127328844Y-116550500D01*
X127328845Y-116550499D01*
X127483497Y-116519737D01*
X127629179Y-116459394D01*
X127686044Y-116421397D01*
X127752721Y-116400520D01*
X127754935Y-116400500D01*
X129130191Y-116400500D01*
X129197230Y-116420185D01*
X129242985Y-116472989D01*
X129252929Y-116542147D01*
X129223904Y-116605703D01*
X129217872Y-116612181D01*
X128244727Y-117585325D01*
X128244726Y-117585326D01*
X128244723Y-117585331D01*
X128174452Y-117690500D01*
X128174445Y-117690509D01*
X128173535Y-117691871D01*
X128124499Y-117810255D01*
X128124497Y-117810261D01*
X128099500Y-117935928D01*
X128099500Y-119009951D01*
X128079815Y-119076990D01*
X128063181Y-119097632D01*
X127022068Y-120138744D01*
X126960745Y-120172229D01*
X126958579Y-120172680D01*
X126891508Y-120186021D01*
X126891498Y-120186024D01*
X126745827Y-120246362D01*
X126745809Y-120246372D01*
X126632907Y-120321811D01*
X126566230Y-120342689D01*
X126498850Y-120324204D01*
X126476336Y-120306390D01*
X124936819Y-118766873D01*
X124903334Y-118705550D01*
X124900500Y-118679192D01*
X124900500Y-113225928D01*
X124875502Y-113100261D01*
X124875501Y-113100260D01*
X124875501Y-113100256D01*
X124826465Y-112981873D01*
X124826464Y-112981872D01*
X124826460Y-112981864D01*
X124804835Y-112949501D01*
X124804833Y-112949499D01*
X124801859Y-112945048D01*
X124755276Y-112875330D01*
X124755274Y-112875328D01*
X124755272Y-112875325D01*
X124755271Y-112875324D01*
X124100657Y-112220711D01*
X124067172Y-112159388D01*
X124067689Y-112111245D01*
X124066484Y-112111055D01*
X124100500Y-111896286D01*
X124100500Y-111683713D01*
X124095243Y-111650520D01*
X124067246Y-111473757D01*
X124001557Y-111271588D01*
X123905051Y-111082184D01*
X123905049Y-111082181D01*
X123905048Y-111082179D01*
X123780109Y-110910213D01*
X123629786Y-110759890D01*
X123457820Y-110634951D01*
X123457115Y-110634591D01*
X123449054Y-110630485D01*
X123398259Y-110582512D01*
X123381463Y-110514692D01*
X123403999Y-110448556D01*
X123449054Y-110409515D01*
X123457816Y-110405051D01*
X123547510Y-110339885D01*
X123629786Y-110280109D01*
X123629788Y-110280106D01*
X123629792Y-110280104D01*
X123780104Y-110129792D01*
X123780106Y-110129788D01*
X123780109Y-110129786D01*
X123905048Y-109957820D01*
X123905047Y-109957820D01*
X123905051Y-109957816D01*
X124001557Y-109768412D01*
X124067246Y-109566243D01*
X124100500Y-109356287D01*
X124100500Y-109143713D01*
X124085736Y-109050499D01*
X124066484Y-108928945D01*
X124068126Y-108928684D01*
X124071254Y-108866137D01*
X124100657Y-108819288D01*
X124733127Y-108186819D01*
X124794450Y-108153334D01*
X124820808Y-108150500D01*
X133679192Y-108150500D01*
X133746231Y-108170185D01*
X133766873Y-108186819D01*
X135085324Y-109505271D01*
X135085327Y-109505274D01*
X135085330Y-109505276D01*
X135164428Y-109558127D01*
X135191873Y-109576465D01*
X135310256Y-109625501D01*
X135310260Y-109625501D01*
X135310261Y-109625502D01*
X135435928Y-109650500D01*
X135435931Y-109650500D01*
X139745065Y-109650500D01*
X139812104Y-109670185D01*
X139813909Y-109671366D01*
X139870821Y-109709394D01*
X139870823Y-109709395D01*
X139870827Y-109709397D01*
X140003645Y-109764411D01*
X140016503Y-109769737D01*
X140171153Y-109800499D01*
X140171156Y-109800500D01*
X140171158Y-109800500D01*
X140328844Y-109800500D01*
X140328845Y-109800499D01*
X140483497Y-109769737D01*
X140629179Y-109709394D01*
X140760289Y-109621789D01*
X140871789Y-109510289D01*
X140959394Y-109379179D01*
X141019737Y-109233497D01*
X141048327Y-109089765D01*
X141080711Y-109027855D01*
X141141427Y-108993281D01*
X141211197Y-108997020D01*
X141217359Y-108999381D01*
X141266503Y-109019737D01*
X141421153Y-109050499D01*
X141421156Y-109050500D01*
X141421158Y-109050500D01*
X141578844Y-109050500D01*
X141578845Y-109050499D01*
X141733497Y-109019737D01*
X141879179Y-108959394D01*
X142010289Y-108871789D01*
X142121789Y-108760289D01*
X142209394Y-108629179D01*
X142269737Y-108483497D01*
X142300500Y-108328842D01*
X142300500Y-108171158D01*
X142300500Y-108171155D01*
X142300499Y-108171153D01*
X142296391Y-108150500D01*
X142269737Y-108016503D01*
X142256703Y-107985036D01*
X142209397Y-107870827D01*
X142209390Y-107870814D01*
X142121789Y-107739711D01*
X142121786Y-107739707D01*
X142010292Y-107628213D01*
X142010288Y-107628210D01*
X141879185Y-107540609D01*
X141879172Y-107540602D01*
X141733501Y-107480264D01*
X141733489Y-107480261D01*
X141578845Y-107449500D01*
X141578842Y-107449500D01*
X141421158Y-107449500D01*
X141421155Y-107449500D01*
X141266510Y-107480261D01*
X141266498Y-107480264D01*
X141120827Y-107540602D01*
X141120820Y-107540606D01*
X141094602Y-107558125D01*
X141063955Y-107578602D01*
X140997279Y-107599480D01*
X140995065Y-107599500D01*
X140668761Y-107599500D01*
X140601722Y-107579815D01*
X140555967Y-107527011D01*
X140546023Y-107457853D01*
X140563222Y-107410403D01*
X140588326Y-107369703D01*
X140634814Y-107294334D01*
X140654311Y-107235493D01*
X140694084Y-107178051D01*
X140758600Y-107151228D01*
X140772017Y-107150500D01*
X146959400Y-107150500D01*
X147026439Y-107170185D01*
G37*
%TD.AperFunction*%
%TA.AperFunction,Conductor*%
G36*
X163566444Y-104653999D02*
G01*
X163605486Y-104699056D01*
X163609951Y-104707820D01*
X163734890Y-104879786D01*
X163885213Y-105030109D01*
X164057179Y-105155048D01*
X164057181Y-105155049D01*
X164057184Y-105155051D01*
X164066493Y-105159794D01*
X164117290Y-105207766D01*
X164134087Y-105275587D01*
X164111552Y-105341722D01*
X164066505Y-105380760D01*
X164057446Y-105385376D01*
X164057440Y-105385380D01*
X164003282Y-105424727D01*
X164003282Y-105424728D01*
X164635591Y-106057037D01*
X164572007Y-106074075D01*
X164457993Y-106139901D01*
X164364901Y-106232993D01*
X164299075Y-106347007D01*
X164282037Y-106410591D01*
X163649728Y-105778282D01*
X163649727Y-105778282D01*
X163610380Y-105832440D01*
X163610376Y-105832446D01*
X163605760Y-105841505D01*
X163557781Y-105892297D01*
X163489959Y-105909087D01*
X163423826Y-105886543D01*
X163384794Y-105841493D01*
X163380051Y-105832184D01*
X163380049Y-105832181D01*
X163380048Y-105832179D01*
X163255109Y-105660213D01*
X163104786Y-105509890D01*
X162932818Y-105384950D01*
X162924600Y-105380763D01*
X162924054Y-105380485D01*
X162873259Y-105332512D01*
X162856463Y-105264692D01*
X162878999Y-105198556D01*
X162924054Y-105159515D01*
X162932816Y-105155051D01*
X162969760Y-105128210D01*
X163104786Y-105030109D01*
X163104788Y-105030106D01*
X163104792Y-105030104D01*
X163255104Y-104879792D01*
X163255106Y-104879788D01*
X163255109Y-104879786D01*
X163380048Y-104707820D01*
X163380047Y-104707820D01*
X163380051Y-104707816D01*
X163384514Y-104699054D01*
X163432488Y-104648259D01*
X163500308Y-104631463D01*
X163566444Y-104653999D01*
G37*
%TD.AperFunction*%
%TA.AperFunction,Conductor*%
G36*
X183751378Y-91499473D02*
G01*
X183818335Y-91519435D01*
X183835945Y-91533266D01*
X195975895Y-102983445D01*
X205425655Y-111896287D01*
X205460581Y-111929228D01*
X205495844Y-111989546D01*
X205499500Y-112019434D01*
X205499500Y-143161324D01*
X205479815Y-143228363D01*
X205463181Y-143249005D01*
X200749005Y-147963181D01*
X200687682Y-147996666D01*
X200661324Y-147999500D01*
X123963676Y-147999500D01*
X123896637Y-147979815D01*
X123875995Y-147963181D01*
X119161819Y-143249005D01*
X119128334Y-143187682D01*
X119125500Y-143161324D01*
X119125500Y-125351128D01*
X120899499Y-125351128D01*
X120923140Y-125469972D01*
X120924498Y-125476798D01*
X120924499Y-125476802D01*
X120973533Y-125595182D01*
X121021210Y-125666536D01*
X121040759Y-125695794D01*
X121044726Y-125701730D01*
X121044727Y-125701731D01*
X121675858Y-126332861D01*
X121709343Y-126394184D01*
X121704359Y-126463875D01*
X121688495Y-126493427D01*
X121594951Y-126622180D01*
X121498444Y-126811585D01*
X121432753Y-127013760D01*
X121399500Y-127223713D01*
X121399500Y-127436286D01*
X121431231Y-127636632D01*
X121432754Y-127646243D01*
X121493110Y-127832000D01*
X121498444Y-127848414D01*
X121594951Y-128037820D01*
X121719890Y-128209786D01*
X121870213Y-128360109D01*
X122042179Y-128485048D01*
X122042181Y-128485049D01*
X122042184Y-128485051D01*
X122231588Y-128581557D01*
X122433757Y-128647246D01*
X122643713Y-128680500D01*
X122643714Y-128680500D01*
X122856286Y-128680500D01*
X122856287Y-128680500D01*
X122966111Y-128663105D01*
X123071055Y-128646484D01*
X123071315Y-128648128D01*
X123133852Y-128651250D01*
X123180711Y-128680657D01*
X123726010Y-129225956D01*
X123759495Y-129287279D01*
X123754511Y-129356971D01*
X123741431Y-129382527D01*
X123665992Y-129495429D01*
X123665982Y-129495447D01*
X123605644Y-129641118D01*
X123605641Y-129641128D01*
X123592300Y-129708199D01*
X123559915Y-129770110D01*
X123558364Y-129771688D01*
X123466871Y-129863181D01*
X123405548Y-129896666D01*
X123379190Y-129899500D01*
X121852129Y-129899500D01*
X121852123Y-129899501D01*
X121792516Y-129905908D01*
X121657671Y-129956202D01*
X121657664Y-129956206D01*
X121542455Y-130042452D01*
X121542452Y-130042455D01*
X121456206Y-130157664D01*
X121456202Y-130157671D01*
X121405908Y-130292517D01*
X121399501Y-130352116D01*
X121399500Y-130352135D01*
X121399500Y-132147870D01*
X121399501Y-132147876D01*
X121405908Y-132207483D01*
X121456202Y-132342328D01*
X121456206Y-132342335D01*
X121542452Y-132457544D01*
X121542455Y-132457547D01*
X121657664Y-132543793D01*
X121657671Y-132543797D01*
X121789082Y-132592810D01*
X121845016Y-132634681D01*
X121869433Y-132700145D01*
X121854582Y-132768418D01*
X121833431Y-132796673D01*
X121719889Y-132910215D01*
X121594951Y-133082179D01*
X121498444Y-133271585D01*
X121498443Y-133271587D01*
X121498443Y-133271588D01*
X121487486Y-133305311D01*
X121432753Y-133473760D01*
X121399500Y-133683713D01*
X121399500Y-133896286D01*
X121427136Y-134070776D01*
X121432754Y-134106243D01*
X121461846Y-134195780D01*
X121498444Y-134308414D01*
X121594951Y-134497820D01*
X121719890Y-134669786D01*
X121870213Y-134820109D01*
X122042182Y-134945050D01*
X122050946Y-134949516D01*
X122101742Y-134997491D01*
X122118536Y-135065312D01*
X122095998Y-135131447D01*
X122050946Y-135170484D01*
X122042182Y-135174949D01*
X121870213Y-135299890D01*
X121719890Y-135450213D01*
X121594951Y-135622179D01*
X121498444Y-135811585D01*
X121498443Y-135811587D01*
X121498443Y-135811588D01*
X121487486Y-135845311D01*
X121432753Y-136013760D01*
X121399500Y-136223713D01*
X121399500Y-136436286D01*
X121428728Y-136620828D01*
X121432754Y-136646243D01*
X121486516Y-136811706D01*
X121498444Y-136848414D01*
X121594951Y-137037820D01*
X121719890Y-137209786D01*
X121870213Y-137360109D01*
X122042179Y-137485048D01*
X122042181Y-137485049D01*
X122042184Y-137485051D01*
X122051493Y-137489794D01*
X122102290Y-137537766D01*
X122119087Y-137605587D01*
X122096552Y-137671722D01*
X122051505Y-137710760D01*
X122042446Y-137715376D01*
X122042440Y-137715380D01*
X121988282Y-137754727D01*
X121988282Y-137754728D01*
X122620591Y-138387037D01*
X122557007Y-138404075D01*
X122442993Y-138469901D01*
X122349901Y-138562993D01*
X122284075Y-138677007D01*
X122267037Y-138740591D01*
X121634728Y-138108282D01*
X121634727Y-138108282D01*
X121595380Y-138162439D01*
X121498904Y-138351782D01*
X121433242Y-138553869D01*
X121433242Y-138553872D01*
X121400000Y-138763753D01*
X121400000Y-138976246D01*
X121433242Y-139186127D01*
X121433242Y-139186130D01*
X121498904Y-139388217D01*
X121595375Y-139577550D01*
X121634728Y-139631716D01*
X122267037Y-138999408D01*
X122284075Y-139062993D01*
X122349901Y-139177007D01*
X122442993Y-139270099D01*
X122557007Y-139335925D01*
X122620590Y-139352962D01*
X121988282Y-139985269D01*
X121988282Y-139985270D01*
X122042449Y-140024624D01*
X122231782Y-140121095D01*
X122433870Y-140186757D01*
X122643754Y-140220000D01*
X122856246Y-140220000D01*
X123066127Y-140186757D01*
X123066130Y-140186757D01*
X123268217Y-140121095D01*
X123457554Y-140024622D01*
X123511716Y-139985270D01*
X123511717Y-139985270D01*
X122879408Y-139352962D01*
X122942993Y-139335925D01*
X123057007Y-139270099D01*
X123150099Y-139177007D01*
X123215925Y-139062993D01*
X123232962Y-138999409D01*
X123865270Y-139631717D01*
X123865270Y-139631716D01*
X123904622Y-139577554D01*
X124001095Y-139388217D01*
X124066757Y-139186130D01*
X124066757Y-139186127D01*
X124100000Y-138976246D01*
X124100000Y-138763753D01*
X124066757Y-138553872D01*
X124066757Y-138553869D01*
X124001095Y-138351782D01*
X123904624Y-138162449D01*
X123865270Y-138108282D01*
X123865269Y-138108282D01*
X123232962Y-138740590D01*
X123215925Y-138677007D01*
X123150099Y-138562993D01*
X123057007Y-138469901D01*
X122942993Y-138404075D01*
X122879409Y-138387037D01*
X123511716Y-137754728D01*
X123457547Y-137715373D01*
X123457547Y-137715372D01*
X123448500Y-137710763D01*
X123397706Y-137662788D01*
X123380912Y-137594966D01*
X123403451Y-137528832D01*
X123448508Y-137489793D01*
X123457816Y-137485051D01*
X123588491Y-137390111D01*
X123629786Y-137360109D01*
X123629788Y-137360106D01*
X123629792Y-137360104D01*
X123780104Y-137209792D01*
X123780106Y-137209788D01*
X123780109Y-137209786D01*
X123905048Y-137037820D01*
X123905047Y-137037820D01*
X123905051Y-137037816D01*
X124001557Y-136848412D01*
X124067246Y-136646243D01*
X124100500Y-136436287D01*
X124100500Y-136223713D01*
X124077555Y-136078842D01*
X124066484Y-136008945D01*
X124068123Y-136008685D01*
X124071257Y-135946126D01*
X124100655Y-135899289D01*
X126710443Y-133289501D01*
X126750669Y-133262624D01*
X126778810Y-133250968D01*
X126840950Y-133225229D01*
X126879172Y-133209397D01*
X126879172Y-133209396D01*
X126879179Y-133209394D01*
X127010289Y-133121789D01*
X127121789Y-133010289D01*
X127193480Y-132902994D01*
X127247089Y-132858193D01*
X127316414Y-132849484D01*
X127379442Y-132879639D01*
X127384261Y-132884207D01*
X128295325Y-133795272D01*
X128295332Y-133795278D01*
X128383320Y-133854069D01*
X128383321Y-133854069D01*
X128401873Y-133866465D01*
X128520256Y-133915501D01*
X128520260Y-133915501D01*
X128520261Y-133915502D01*
X128645928Y-133940500D01*
X128645931Y-133940500D01*
X130512086Y-133940500D01*
X130579125Y-133960185D01*
X130599767Y-133976819D01*
X137110767Y-140487819D01*
X137144252Y-140549142D01*
X137139268Y-140618834D01*
X137097396Y-140674767D01*
X137031932Y-140699184D01*
X137023086Y-140699500D01*
X131421155Y-140699500D01*
X131266510Y-140730261D01*
X131266498Y-140730264D01*
X131120827Y-140790602D01*
X131120814Y-140790609D01*
X130989711Y-140878210D01*
X130989707Y-140878213D01*
X129247764Y-142620156D01*
X129186441Y-142653641D01*
X129140686Y-142654948D01*
X129106287Y-142649500D01*
X128893713Y-142649500D01*
X128845042Y-142657208D01*
X128683760Y-142682753D01*
X128481585Y-142748444D01*
X128292179Y-142844951D01*
X128120215Y-142969889D01*
X128006673Y-143083431D01*
X127945350Y-143116915D01*
X127875658Y-143111931D01*
X127819725Y-143070059D01*
X127802810Y-143039082D01*
X127753797Y-142907671D01*
X127753793Y-142907664D01*
X127667547Y-142792455D01*
X127667544Y-142792452D01*
X127552335Y-142706206D01*
X127552328Y-142706202D01*
X127417482Y-142655908D01*
X127417483Y-142655908D01*
X127357883Y-142649501D01*
X127357881Y-142649500D01*
X127357873Y-142649500D01*
X127357864Y-142649500D01*
X125562129Y-142649500D01*
X125562123Y-142649501D01*
X125502516Y-142655908D01*
X125367671Y-142706202D01*
X125367664Y-142706206D01*
X125252455Y-142792452D01*
X125252452Y-142792455D01*
X125166206Y-142907664D01*
X125166202Y-142907671D01*
X125115908Y-143042517D01*
X125109501Y-143102116D01*
X125109500Y-143102135D01*
X125109500Y-144897870D01*
X125109501Y-144897876D01*
X125115908Y-144957483D01*
X125166202Y-145092328D01*
X125166206Y-145092335D01*
X125252452Y-145207544D01*
X125252455Y-145207547D01*
X125367664Y-145293793D01*
X125367671Y-145293797D01*
X125502517Y-145344091D01*
X125502516Y-145344091D01*
X125509444Y-145344835D01*
X125562127Y-145350500D01*
X126627059Y-145350499D01*
X126694098Y-145370183D01*
X126714740Y-145386818D01*
X127183870Y-145855947D01*
X127183891Y-145855970D01*
X127299707Y-145971786D01*
X127299711Y-145971789D01*
X127430814Y-146059390D01*
X127430827Y-146059397D01*
X127576498Y-146119735D01*
X127576503Y-146119737D01*
X127576507Y-146119737D01*
X127576508Y-146119738D01*
X127731154Y-146150500D01*
X127731157Y-146150500D01*
X174878844Y-146150500D01*
X174878845Y-146150499D01*
X175033497Y-146119737D01*
X175179179Y-146059394D01*
X175310289Y-145971789D01*
X177095259Y-144186817D01*
X177156582Y-144153333D01*
X177182940Y-144150499D01*
X178958028Y-144150499D01*
X178958036Y-144150499D01*
X179077418Y-144139886D01*
X179273049Y-144083909D01*
X179453407Y-143989698D01*
X179611109Y-143861109D01*
X179739698Y-143703407D01*
X179833909Y-143523049D01*
X179889886Y-143327418D01*
X179900500Y-143208037D01*
X179900499Y-142091964D01*
X179889886Y-141972582D01*
X179836215Y-141785009D01*
X179833910Y-141776954D01*
X179833909Y-141776952D01*
X179833909Y-141776951D01*
X179739698Y-141596593D01*
X179677463Y-141520268D01*
X179611109Y-141438890D01*
X179453409Y-141310304D01*
X179453410Y-141310304D01*
X179453407Y-141310302D01*
X179273049Y-141216091D01*
X179273048Y-141216090D01*
X179273045Y-141216089D01*
X179155829Y-141182550D01*
X179077418Y-141160114D01*
X179077415Y-141160113D01*
X179077413Y-141160113D01*
X179004631Y-141153642D01*
X178958037Y-141149500D01*
X178958033Y-141149500D01*
X178424500Y-141149500D01*
X178357461Y-141129815D01*
X178311706Y-141077011D01*
X178300500Y-141025500D01*
X178300500Y-137815673D01*
X178320185Y-137748634D01*
X178346813Y-137719026D01*
X178460980Y-137627256D01*
X178497722Y-137597722D01*
X178553675Y-137528112D01*
X178611015Y-137488196D01*
X178680837Y-137485616D01*
X178740970Y-137521194D01*
X178746967Y-137528115D01*
X178802632Y-137597366D01*
X178802633Y-137597367D01*
X178950974Y-137716607D01*
X178950977Y-137716609D01*
X179121476Y-137801168D01*
X179306175Y-137847102D01*
X179348903Y-137850000D01*
X179550000Y-137850000D01*
X180050000Y-137850000D01*
X180251097Y-137850000D01*
X180293824Y-137847102D01*
X180478523Y-137801168D01*
X180649022Y-137716609D01*
X180649025Y-137716607D01*
X180797366Y-137597367D01*
X180797367Y-137597366D01*
X180916607Y-137449025D01*
X180916609Y-137449022D01*
X181001168Y-137278523D01*
X181047102Y-137093824D01*
X181050000Y-137051096D01*
X181050000Y-136600000D01*
X180050000Y-136600000D01*
X180050000Y-137850000D01*
X179550000Y-137850000D01*
X179550000Y-136100000D01*
X180050000Y-136100000D01*
X181050000Y-136100000D01*
X181050000Y-135648903D01*
X181047102Y-135606175D01*
X181001168Y-135421476D01*
X180916609Y-135250977D01*
X180916607Y-135250974D01*
X180797367Y-135102633D01*
X180797366Y-135102632D01*
X180649025Y-134983392D01*
X180649022Y-134983390D01*
X180478523Y-134898831D01*
X180293824Y-134852897D01*
X180251097Y-134850000D01*
X180050000Y-134850000D01*
X180050000Y-136100000D01*
X179550000Y-136100000D01*
X179550000Y-134850000D01*
X179348903Y-134850000D01*
X179306175Y-134852897D01*
X179121476Y-134898831D01*
X178950977Y-134983390D01*
X178950974Y-134983392D01*
X178802635Y-135102631D01*
X178746967Y-135171885D01*
X178689624Y-135211803D01*
X178619801Y-135214383D01*
X178559669Y-135178804D01*
X178553673Y-135171884D01*
X178497722Y-135102278D01*
X178497721Y-135102277D01*
X178349295Y-134982969D01*
X178349292Y-134982967D01*
X178178697Y-134898360D01*
X177993892Y-134852400D01*
X177968229Y-134850660D01*
X177951123Y-134849500D01*
X177951121Y-134849500D01*
X177674500Y-134849500D01*
X177607461Y-134829815D01*
X177561706Y-134777011D01*
X177550500Y-134725500D01*
X177550500Y-133410400D01*
X177570185Y-133343361D01*
X177622989Y-133297606D01*
X177692147Y-133287662D01*
X177747386Y-133310082D01*
X177818650Y-133361859D01*
X178000968Y-133454755D01*
X178195582Y-133517990D01*
X178397683Y-133550000D01*
X178602317Y-133550000D01*
X178804417Y-133517990D01*
X178999031Y-133454755D01*
X179181349Y-133361859D01*
X179225921Y-133329474D01*
X178546447Y-132650000D01*
X178552661Y-132650000D01*
X178654394Y-132622741D01*
X178745606Y-132570080D01*
X178820080Y-132495606D01*
X178872741Y-132404394D01*
X178900000Y-132302661D01*
X178900000Y-132296447D01*
X179579474Y-132975921D01*
X179611859Y-132931349D01*
X179704755Y-132749031D01*
X179767990Y-132554417D01*
X179800000Y-132352317D01*
X179800000Y-132147682D01*
X179767990Y-131945582D01*
X179704755Y-131750968D01*
X179611857Y-131568646D01*
X179560853Y-131498446D01*
X179537372Y-131432640D01*
X179553197Y-131364586D01*
X179573489Y-131337879D01*
X179605025Y-131306343D01*
X179642712Y-131268656D01*
X179734814Y-131119334D01*
X179789999Y-130952797D01*
X179800500Y-130850009D01*
X179800499Y-129649992D01*
X179789999Y-129547203D01*
X179734814Y-129380666D01*
X179642712Y-129231344D01*
X179518656Y-129107288D01*
X179369334Y-129015186D01*
X179369332Y-129015185D01*
X179363187Y-129011395D01*
X179364290Y-129009605D01*
X179319649Y-128970290D01*
X179300500Y-128904091D01*
X179300500Y-128882940D01*
X179320185Y-128815901D01*
X179336819Y-128795259D01*
X180371786Y-127760292D01*
X180371789Y-127760289D01*
X180459394Y-127629179D01*
X180459967Y-127627797D01*
X180473067Y-127596166D01*
X180519737Y-127483497D01*
X180550500Y-127328842D01*
X180550500Y-127171158D01*
X180550500Y-126624038D01*
X181729500Y-126624038D01*
X181729500Y-126875962D01*
X181747005Y-126986484D01*
X181768910Y-127124785D01*
X181846760Y-127364383D01*
X181925413Y-127518747D01*
X181954331Y-127575502D01*
X181961132Y-127588848D01*
X182109201Y-127792649D01*
X182109205Y-127792654D01*
X182287345Y-127970794D01*
X182287350Y-127970798D01*
X182465117Y-128099952D01*
X182491155Y-128118870D01*
X182634184Y-128191747D01*
X182715616Y-128233239D01*
X182715618Y-128233239D01*
X182715621Y-128233241D01*
X182955215Y-128311090D01*
X183204038Y-128350500D01*
X183204039Y-128350500D01*
X183455961Y-128350500D01*
X183455962Y-128350500D01*
X183704785Y-128311090D01*
X183944379Y-128233241D01*
X184168845Y-128118870D01*
X184372656Y-127970793D01*
X184550793Y-127792656D01*
X184575161Y-127759115D01*
X184630490Y-127716450D01*
X184675480Y-127708000D01*
X187375501Y-127708000D01*
X187442540Y-127727685D01*
X187488295Y-127780489D01*
X187499501Y-127832000D01*
X187499501Y-128505376D01*
X187505908Y-128564983D01*
X187556202Y-128699828D01*
X187556206Y-128699835D01*
X187642452Y-128815044D01*
X187642455Y-128815047D01*
X187757664Y-128901293D01*
X187757671Y-128901297D01*
X187892517Y-128951591D01*
X187892516Y-128951591D01*
X187899444Y-128952335D01*
X187952127Y-128958000D01*
X191547872Y-128957999D01*
X191607483Y-128951591D01*
X191742331Y-128901296D01*
X191857546Y-128815046D01*
X191943796Y-128699831D01*
X191994091Y-128564983D01*
X192000500Y-128505373D01*
X192000499Y-125643303D01*
X193750000Y-125643303D01*
X193750000Y-126457500D01*
X195250000Y-126457500D01*
X195250000Y-126957500D01*
X193750001Y-126957500D01*
X193750001Y-127771697D01*
X193760400Y-127903832D01*
X193815377Y-128122019D01*
X193908428Y-128326874D01*
X193908431Y-128326880D01*
X194036559Y-128511823D01*
X194036569Y-128511835D01*
X194195664Y-128670930D01*
X194195676Y-128670940D01*
X194380619Y-128799068D01*
X194380625Y-128799071D01*
X194585480Y-128892122D01*
X194803667Y-128947099D01*
X194935810Y-128957499D01*
X195499999Y-128957499D01*
X195500000Y-128957498D01*
X195500000Y-128140512D01*
X195557007Y-128173425D01*
X195684174Y-128207500D01*
X195815826Y-128207500D01*
X195942993Y-128173425D01*
X196000000Y-128140512D01*
X196000000Y-128957499D01*
X196564182Y-128957499D01*
X196564197Y-128957498D01*
X196696332Y-128947099D01*
X196914519Y-128892122D01*
X197119374Y-128799071D01*
X197119380Y-128799068D01*
X197304323Y-128670940D01*
X197304335Y-128670930D01*
X197463430Y-128511835D01*
X197463440Y-128511823D01*
X197591568Y-128326880D01*
X197591571Y-128326874D01*
X197684622Y-128122019D01*
X197739599Y-127903832D01*
X197749999Y-127771696D01*
X197750000Y-127771684D01*
X197750000Y-126957500D01*
X196250000Y-126957500D01*
X196250000Y-126457500D01*
X197749999Y-126457500D01*
X197749999Y-125643317D01*
X197749998Y-125643302D01*
X197739599Y-125511167D01*
X197684622Y-125292980D01*
X197591571Y-125088125D01*
X197591568Y-125088119D01*
X197463440Y-124903176D01*
X197463430Y-124903164D01*
X197304335Y-124744069D01*
X197304323Y-124744059D01*
X197119380Y-124615931D01*
X197119374Y-124615928D01*
X196914519Y-124522877D01*
X196696332Y-124467900D01*
X196564196Y-124457500D01*
X196000000Y-124457500D01*
X196000000Y-125274488D01*
X195942993Y-125241575D01*
X195815826Y-125207500D01*
X195684174Y-125207500D01*
X195557007Y-125241575D01*
X195500000Y-125274488D01*
X195500000Y-124457500D01*
X194935817Y-124457500D01*
X194935802Y-124457501D01*
X194803667Y-124467900D01*
X194585480Y-124522877D01*
X194380625Y-124615928D01*
X194380619Y-124615931D01*
X194195676Y-124744059D01*
X194195664Y-124744069D01*
X194036569Y-124903164D01*
X194036559Y-124903176D01*
X193908431Y-125088119D01*
X193908428Y-125088125D01*
X193815377Y-125292980D01*
X193760400Y-125511167D01*
X193750000Y-125643303D01*
X192000499Y-125643303D01*
X192000499Y-124909628D01*
X191994091Y-124850017D01*
X191993540Y-124848541D01*
X191943797Y-124715171D01*
X191943793Y-124715164D01*
X191857547Y-124599955D01*
X191857544Y-124599952D01*
X191742335Y-124513706D01*
X191742328Y-124513702D01*
X191695061Y-124496073D01*
X191639127Y-124454202D01*
X191614710Y-124388738D01*
X191629562Y-124320465D01*
X191678967Y-124271059D01*
X191744972Y-124256066D01*
X191758053Y-124256761D01*
X191781349Y-124257999D01*
X191781369Y-124257999D01*
X191781378Y-124258000D01*
X191781386Y-124258000D01*
X193718614Y-124258000D01*
X193718622Y-124258000D01*
X193771241Y-124255205D01*
X194001126Y-124210745D01*
X194220190Y-124128074D01*
X194422132Y-124009570D01*
X194422138Y-124009565D01*
X194601141Y-123858643D01*
X194601143Y-123858641D01*
X194752065Y-123679638D01*
X194752065Y-123679637D01*
X194752070Y-123679632D01*
X194870574Y-123477690D01*
X194953245Y-123258626D01*
X194997705Y-123028741D01*
X195000500Y-122976122D01*
X195000500Y-121038878D01*
X194997705Y-120986259D01*
X194953245Y-120756374D01*
X194870574Y-120537310D01*
X194752070Y-120335368D01*
X194752065Y-120335361D01*
X194601143Y-120156358D01*
X194601141Y-120156356D01*
X194422138Y-120005434D01*
X194422131Y-120005429D01*
X194220189Y-119886925D01*
X194128482Y-119852317D01*
X194001126Y-119804255D01*
X193992884Y-119802661D01*
X193771243Y-119759795D01*
X193718652Y-119757001D01*
X193718629Y-119757000D01*
X193718622Y-119757000D01*
X191781378Y-119757000D01*
X191781370Y-119757000D01*
X191781347Y-119757001D01*
X191728756Y-119759795D01*
X191728755Y-119759795D01*
X191498878Y-119804254D01*
X191498876Y-119804254D01*
X191498874Y-119804255D01*
X191432724Y-119829219D01*
X191279810Y-119886925D01*
X191077868Y-120005429D01*
X191077861Y-120005434D01*
X190898858Y-120156356D01*
X190898856Y-120156358D01*
X190747934Y-120335361D01*
X190747929Y-120335368D01*
X190629425Y-120537310D01*
X190583786Y-120658247D01*
X190546755Y-120756374D01*
X190546754Y-120756376D01*
X190546754Y-120756378D01*
X190502295Y-120986255D01*
X190502295Y-120986256D01*
X190499501Y-121038847D01*
X190499500Y-121038886D01*
X190499500Y-122976113D01*
X190499501Y-122976152D01*
X190502295Y-123028743D01*
X190502295Y-123028744D01*
X190524852Y-123145376D01*
X190546755Y-123258626D01*
X190571459Y-123324087D01*
X190629425Y-123477689D01*
X190747929Y-123679631D01*
X190747934Y-123679638D01*
X190898856Y-123858641D01*
X190898858Y-123858643D01*
X191077861Y-124009565D01*
X191077868Y-124009570D01*
X191279810Y-124128074D01*
X191498874Y-124210745D01*
X191501517Y-124211256D01*
X191502537Y-124211782D01*
X191503950Y-124212183D01*
X191503868Y-124212470D01*
X191563598Y-124243314D01*
X191598493Y-124303846D01*
X191595122Y-124373634D01*
X191554556Y-124430521D01*
X191489674Y-124456446D01*
X191477969Y-124457000D01*
X187952129Y-124457000D01*
X187952123Y-124457001D01*
X187892516Y-124463408D01*
X187757671Y-124513702D01*
X187757664Y-124513706D01*
X187642455Y-124599952D01*
X187642452Y-124599955D01*
X187556206Y-124715164D01*
X187556202Y-124715171D01*
X187505908Y-124850017D01*
X187499564Y-124909031D01*
X187499501Y-124909623D01*
X187499500Y-124909635D01*
X187499500Y-125583000D01*
X187479815Y-125650039D01*
X187427011Y-125695794D01*
X187375500Y-125707000D01*
X184601811Y-125707000D01*
X184534772Y-125687315D01*
X184514130Y-125670681D01*
X184372654Y-125529205D01*
X184372649Y-125529201D01*
X184168848Y-125381132D01*
X184168847Y-125381131D01*
X184168845Y-125381130D01*
X184098747Y-125345413D01*
X183944383Y-125266760D01*
X183704785Y-125188910D01*
X183455962Y-125149500D01*
X183204038Y-125149500D01*
X183137738Y-125160001D01*
X182955214Y-125188910D01*
X182715616Y-125266760D01*
X182491151Y-125381132D01*
X182287350Y-125529201D01*
X182287345Y-125529205D01*
X182109205Y-125707345D01*
X182109201Y-125707350D01*
X181961132Y-125911151D01*
X181846760Y-126135616D01*
X181768910Y-126375214D01*
X181746058Y-126519493D01*
X181729500Y-126624038D01*
X180550500Y-126624038D01*
X180550500Y-122882938D01*
X180570185Y-122815899D01*
X180586814Y-122795262D01*
X182295258Y-121086817D01*
X182356581Y-121053333D01*
X182382939Y-121050499D01*
X183100002Y-121050499D01*
X183100008Y-121050499D01*
X183202797Y-121039999D01*
X183369334Y-120984814D01*
X183518656Y-120892712D01*
X183642712Y-120768656D01*
X183734814Y-120619334D01*
X183789999Y-120452797D01*
X183800500Y-120350009D01*
X183800499Y-119149992D01*
X183795064Y-119096791D01*
X183789999Y-119047203D01*
X183789998Y-119047200D01*
X183765297Y-118972658D01*
X183734814Y-118880666D01*
X183642712Y-118731344D01*
X183518656Y-118607288D01*
X183369334Y-118515186D01*
X183369332Y-118515185D01*
X183363187Y-118511395D01*
X183364290Y-118509605D01*
X183319649Y-118470290D01*
X183300500Y-118404091D01*
X183300500Y-113521159D01*
X183300499Y-113521153D01*
X183295166Y-113494336D01*
X183269738Y-113366507D01*
X183269737Y-113366506D01*
X183269737Y-113366502D01*
X183235282Y-113283321D01*
X183209394Y-113220821D01*
X183209393Y-113220819D01*
X183209392Y-113220817D01*
X183121790Y-113089712D01*
X183073605Y-113041527D01*
X183010289Y-112978211D01*
X180035481Y-110003403D01*
X180001996Y-109942080D01*
X180006980Y-109872388D01*
X180013250Y-109858318D01*
X180083909Y-109723049D01*
X180139886Y-109527418D01*
X180150500Y-109408037D01*
X180150499Y-108291964D01*
X180139886Y-108172582D01*
X180091589Y-108003793D01*
X180083910Y-107976954D01*
X180083909Y-107976953D01*
X180083909Y-107976951D01*
X179989698Y-107796593D01*
X179937684Y-107732803D01*
X179861109Y-107638890D01*
X179703409Y-107510304D01*
X179703410Y-107510304D01*
X179703407Y-107510302D01*
X179523049Y-107416091D01*
X179523048Y-107416090D01*
X179523045Y-107416089D01*
X179405829Y-107382550D01*
X179327418Y-107360114D01*
X179327415Y-107360113D01*
X179327413Y-107360113D01*
X179261102Y-107354217D01*
X179208037Y-107349500D01*
X179208032Y-107349500D01*
X176291971Y-107349500D01*
X176291965Y-107349500D01*
X176291964Y-107349501D01*
X176280316Y-107350536D01*
X176172584Y-107360113D01*
X175976954Y-107416089D01*
X175897002Y-107457853D01*
X175796593Y-107510302D01*
X175796591Y-107510303D01*
X175796590Y-107510304D01*
X175638890Y-107638890D01*
X175514408Y-107791557D01*
X175510302Y-107796593D01*
X175496553Y-107822913D01*
X175448068Y-107873219D01*
X175386646Y-107889500D01*
X172377940Y-107889500D01*
X172310901Y-107869815D01*
X172290259Y-107853181D01*
X166144843Y-101707765D01*
X166111358Y-101646442D01*
X166110051Y-101600687D01*
X166115500Y-101566287D01*
X166115500Y-101353713D01*
X166082246Y-101143757D01*
X166016557Y-100941588D01*
X165920051Y-100752184D01*
X165920049Y-100752181D01*
X165920048Y-100752179D01*
X165795109Y-100580213D01*
X165644794Y-100429898D01*
X165644792Y-100429896D01*
X165616613Y-100409422D01*
X165573949Y-100354094D01*
X165565500Y-100309106D01*
X165565500Y-100179075D01*
X165560474Y-100153809D01*
X165552935Y-100115909D01*
X165548550Y-100093865D01*
X165542248Y-100062181D01*
X165534738Y-100024422D01*
X165474394Y-99878740D01*
X165474392Y-99878737D01*
X165474390Y-99878733D01*
X165386789Y-99747630D01*
X165386786Y-99747626D01*
X163917374Y-98278213D01*
X163917373Y-98278212D01*
X163896861Y-98264507D01*
X163896860Y-98264506D01*
X163786267Y-98190609D01*
X163786254Y-98190602D01*
X163683249Y-98147937D01*
X163683247Y-98147936D01*
X163640584Y-98130264D01*
X163640572Y-98130261D01*
X163485928Y-98099500D01*
X163485925Y-98099500D01*
X163485924Y-98099500D01*
X157218843Y-98099500D01*
X157061158Y-98099500D01*
X157061153Y-98099500D01*
X156906510Y-98130260D01*
X156906502Y-98130262D01*
X156760824Y-98190604D01*
X156760814Y-98190609D01*
X156629711Y-98278210D01*
X156629707Y-98278213D01*
X156377680Y-98530240D01*
X156316357Y-98563725D01*
X156246665Y-98558741D01*
X156202318Y-98530240D01*
X150800292Y-93128213D01*
X150800288Y-93128210D01*
X150669185Y-93040609D01*
X150669172Y-93040602D01*
X150523501Y-92980264D01*
X150523489Y-92980261D01*
X150368845Y-92949500D01*
X150368842Y-92949500D01*
X129946342Y-92949500D01*
X129788658Y-92949500D01*
X129788655Y-92949500D01*
X129634010Y-92980261D01*
X129633998Y-92980264D01*
X129488327Y-93040602D01*
X129488314Y-93040609D01*
X129357211Y-93128210D01*
X129357207Y-93128213D01*
X125654741Y-96830681D01*
X125593418Y-96864166D01*
X125567060Y-96867000D01*
X123449982Y-96867000D01*
X123347203Y-96877500D01*
X123347202Y-96877501D01*
X123275593Y-96901230D01*
X123180667Y-96932685D01*
X123180662Y-96932687D01*
X123031342Y-97024789D01*
X122907289Y-97148842D01*
X122815187Y-97298162D01*
X122815185Y-97298167D01*
X122794624Y-97360218D01*
X122760001Y-97464702D01*
X122760001Y-97464703D01*
X122760000Y-97464703D01*
X122749500Y-97567482D01*
X122749500Y-100167517D01*
X122760000Y-100270296D01*
X122815185Y-100436832D01*
X122815187Y-100436837D01*
X122829102Y-100459397D01*
X122907288Y-100586156D01*
X123031344Y-100710212D01*
X123180665Y-100802314D01*
X123347202Y-100857499D01*
X123449990Y-100868000D01*
X123449995Y-100868000D01*
X126050005Y-100868000D01*
X126050010Y-100868000D01*
X126152798Y-100857499D01*
X126319335Y-100802314D01*
X126468656Y-100710212D01*
X126592712Y-100586156D01*
X126684814Y-100436835D01*
X126739999Y-100270298D01*
X126750500Y-100167510D01*
X126750500Y-98050440D01*
X126770185Y-97983401D01*
X126786819Y-97962759D01*
X130162759Y-94586819D01*
X130224082Y-94553334D01*
X130250440Y-94550500D01*
X149907060Y-94550500D01*
X149974099Y-94570185D01*
X149994741Y-94586819D01*
X150233538Y-94825616D01*
X150267023Y-94886939D01*
X150262039Y-94956631D01*
X150220167Y-95012564D01*
X150154703Y-95036981D01*
X150098405Y-95027858D01*
X149983501Y-94980264D01*
X149983489Y-94980261D01*
X149828845Y-94949500D01*
X149828842Y-94949500D01*
X132946343Y-94949500D01*
X132788658Y-94949500D01*
X132788653Y-94949500D01*
X132634010Y-94980260D01*
X132634002Y-94980262D01*
X132488324Y-95040604D01*
X132488314Y-95040609D01*
X132357211Y-95128210D01*
X132357207Y-95128213D01*
X130539201Y-96946219D01*
X130477878Y-96979704D01*
X130408186Y-96974720D01*
X130404086Y-96973106D01*
X130399895Y-96971370D01*
X130394418Y-96969101D01*
X130248172Y-96929915D01*
X130141116Y-96901230D01*
X130083339Y-96893623D01*
X129881127Y-96867000D01*
X129881120Y-96867000D01*
X129618880Y-96867000D01*
X129618872Y-96867000D01*
X129387772Y-96897426D01*
X129358884Y-96901230D01*
X129190982Y-96946219D01*
X129105581Y-96969102D01*
X129105571Y-96969105D01*
X128863309Y-97069453D01*
X128863299Y-97069458D01*
X128636196Y-97200575D01*
X128428148Y-97360218D01*
X128242718Y-97545648D01*
X128083075Y-97753696D01*
X127951958Y-97980799D01*
X127951953Y-97980809D01*
X127851605Y-98223071D01*
X127851602Y-98223081D01*
X127783730Y-98476384D01*
X127783716Y-98476490D01*
X127749500Y-98736372D01*
X127749500Y-98998627D01*
X127766561Y-99128211D01*
X127783730Y-99258616D01*
X127846995Y-99494724D01*
X127851602Y-99511918D01*
X127851605Y-99511928D01*
X127951953Y-99754190D01*
X127951958Y-99754200D01*
X128083075Y-99981303D01*
X128242718Y-100189351D01*
X128242726Y-100189360D01*
X128428140Y-100374774D01*
X128428148Y-100374781D01*
X128636196Y-100534424D01*
X128863299Y-100665541D01*
X128863309Y-100665546D01*
X129105571Y-100765894D01*
X129105581Y-100765898D01*
X129358884Y-100833770D01*
X129607188Y-100866460D01*
X129615074Y-100867499D01*
X129618880Y-100868000D01*
X129618887Y-100868000D01*
X129881113Y-100868000D01*
X129881120Y-100868000D01*
X130141116Y-100833770D01*
X130394419Y-100765898D01*
X130636697Y-100665543D01*
X130863803Y-100534424D01*
X131071851Y-100374782D01*
X131071855Y-100374777D01*
X131071860Y-100374774D01*
X131257274Y-100189360D01*
X131257277Y-100189355D01*
X131257282Y-100189351D01*
X131416924Y-99981303D01*
X131548043Y-99754197D01*
X131648398Y-99511919D01*
X131716270Y-99258616D01*
X131750500Y-98998620D01*
X131750500Y-98736405D01*
X132750000Y-98736405D01*
X132750000Y-98998594D01*
X132784220Y-99258509D01*
X132784222Y-99258520D01*
X132852075Y-99511755D01*
X132952404Y-99753971D01*
X132952409Y-99753982D01*
X133083488Y-99981016D01*
X133083494Y-99981024D01*
X133170080Y-100093865D01*
X134148958Y-99114987D01*
X134173978Y-99175390D01*
X134245112Y-99281851D01*
X134335649Y-99372388D01*
X134442110Y-99443522D01*
X134502511Y-99468541D01*
X133523633Y-100447417D01*
X133523633Y-100447418D01*
X133636475Y-100534005D01*
X133636483Y-100534011D01*
X133863517Y-100665090D01*
X133863528Y-100665095D01*
X134105744Y-100765424D01*
X134358979Y-100833277D01*
X134358990Y-100833279D01*
X134618905Y-100867499D01*
X134618920Y-100867500D01*
X134881080Y-100867500D01*
X134881094Y-100867499D01*
X135141009Y-100833279D01*
X135141020Y-100833277D01*
X135394255Y-100765424D01*
X135636471Y-100665095D01*
X135636482Y-100665090D01*
X135863516Y-100534011D01*
X135863534Y-100533999D01*
X135976365Y-100447419D01*
X135976365Y-100447417D01*
X134997488Y-99468541D01*
X135057890Y-99443522D01*
X135164351Y-99372388D01*
X135254888Y-99281851D01*
X135326022Y-99175390D01*
X135351041Y-99114989D01*
X136329917Y-100093865D01*
X136329919Y-100093865D01*
X136416499Y-99981034D01*
X136416511Y-99981016D01*
X136547590Y-99753982D01*
X136547595Y-99753971D01*
X136647924Y-99511755D01*
X136715777Y-99258520D01*
X136715779Y-99258509D01*
X136749999Y-98998594D01*
X136750000Y-98998580D01*
X136750000Y-98736419D01*
X136749999Y-98736405D01*
X136715779Y-98476490D01*
X136715777Y-98476479D01*
X136647924Y-98223244D01*
X136547595Y-97981028D01*
X136547590Y-97981017D01*
X136416511Y-97753983D01*
X136416505Y-97753975D01*
X136329918Y-97641133D01*
X136329917Y-97641133D01*
X135351041Y-98620010D01*
X135326022Y-98559610D01*
X135254888Y-98453149D01*
X135164351Y-98362612D01*
X135057890Y-98291478D01*
X134997487Y-98266457D01*
X135976365Y-97287580D01*
X135863524Y-97200994D01*
X135863516Y-97200988D01*
X135636482Y-97069909D01*
X135636471Y-97069904D01*
X135394255Y-96969575D01*
X135141020Y-96901722D01*
X135141009Y-96901720D01*
X134881094Y-96867500D01*
X134618905Y-96867500D01*
X134358990Y-96901720D01*
X134358979Y-96901722D01*
X134105744Y-96969575D01*
X133863528Y-97069904D01*
X133863517Y-97069909D01*
X133636471Y-97200996D01*
X133523633Y-97287579D01*
X133523633Y-97287580D01*
X134502511Y-98266458D01*
X134442110Y-98291478D01*
X134335649Y-98362612D01*
X134245112Y-98453149D01*
X134173978Y-98559610D01*
X134148958Y-98620011D01*
X133170080Y-97641133D01*
X133170079Y-97641133D01*
X133083496Y-97753971D01*
X132952409Y-97981017D01*
X132952404Y-97981028D01*
X132852075Y-98223244D01*
X132784222Y-98476479D01*
X132784220Y-98476490D01*
X132750000Y-98736405D01*
X131750500Y-98736405D01*
X131750500Y-98736380D01*
X131716270Y-98476384D01*
X131648398Y-98223081D01*
X131644399Y-98213428D01*
X131636931Y-98143961D01*
X131668205Y-98081482D01*
X131671251Y-98078325D01*
X133162759Y-96586819D01*
X133224082Y-96553334D01*
X133250440Y-96550500D01*
X149367060Y-96550500D01*
X149434099Y-96570185D01*
X149454741Y-96586819D01*
X152913181Y-100045259D01*
X152946666Y-100106582D01*
X152949500Y-100132940D01*
X152949500Y-102578846D01*
X152980261Y-102733489D01*
X152980264Y-102733501D01*
X153040602Y-102879172D01*
X153040609Y-102879185D01*
X153128210Y-103010288D01*
X153128213Y-103010292D01*
X154199960Y-104082039D01*
X154233445Y-104143362D01*
X154228461Y-104213054D01*
X154199960Y-104257401D01*
X153162178Y-105295183D01*
X153100855Y-105328668D01*
X153031163Y-105323684D01*
X152975230Y-105281812D01*
X152950813Y-105216348D01*
X152950497Y-105207502D01*
X152950497Y-103485925D01*
X152925499Y-103360258D01*
X152925498Y-103360257D01*
X152925498Y-103360253D01*
X152884093Y-103260292D01*
X152876461Y-103241867D01*
X152805274Y-103135328D01*
X152805268Y-103135321D01*
X148600657Y-98930711D01*
X148567172Y-98869388D01*
X148567689Y-98821245D01*
X148566484Y-98821055D01*
X148600500Y-98606286D01*
X148600500Y-98393713D01*
X148582206Y-98278210D01*
X148567246Y-98183757D01*
X148501557Y-97981588D01*
X148405051Y-97792184D01*
X148405049Y-97792181D01*
X148405048Y-97792179D01*
X148280109Y-97620213D01*
X148129786Y-97469890D01*
X147957820Y-97344951D01*
X147768414Y-97248444D01*
X147768413Y-97248443D01*
X147768412Y-97248443D01*
X147566243Y-97182754D01*
X147566241Y-97182753D01*
X147566240Y-97182753D01*
X147404957Y-97157208D01*
X147356287Y-97149500D01*
X147143713Y-97149500D01*
X147095042Y-97157208D01*
X146933760Y-97182753D01*
X146731585Y-97248444D01*
X146542179Y-97344951D01*
X146370213Y-97469890D01*
X146219890Y-97620213D01*
X146094949Y-97792182D01*
X146090484Y-97800946D01*
X146042509Y-97851742D01*
X145974688Y-97868536D01*
X145908553Y-97845998D01*
X145869516Y-97800946D01*
X145865050Y-97792182D01*
X145740109Y-97620213D01*
X145589786Y-97469890D01*
X145417820Y-97344951D01*
X145228414Y-97248444D01*
X145228413Y-97248443D01*
X145228412Y-97248443D01*
X145026243Y-97182754D01*
X145026241Y-97182753D01*
X145026240Y-97182753D01*
X144864957Y-97157208D01*
X144816287Y-97149500D01*
X144603713Y-97149500D01*
X144555042Y-97157208D01*
X144393760Y-97182753D01*
X144191585Y-97248444D01*
X144002179Y-97344951D01*
X143830213Y-97469890D01*
X143679890Y-97620213D01*
X143554949Y-97792182D01*
X143550484Y-97800946D01*
X143502509Y-97851742D01*
X143434688Y-97868536D01*
X143368553Y-97845998D01*
X143329516Y-97800946D01*
X143325050Y-97792182D01*
X143200109Y-97620213D01*
X143049786Y-97469890D01*
X142877820Y-97344951D01*
X142688414Y-97248444D01*
X142688413Y-97248443D01*
X142688412Y-97248443D01*
X142486243Y-97182754D01*
X142486241Y-97182753D01*
X142486240Y-97182753D01*
X142324957Y-97157208D01*
X142276287Y-97149500D01*
X142063713Y-97149500D01*
X142015042Y-97157208D01*
X141853760Y-97182753D01*
X141651585Y-97248444D01*
X141462179Y-97344951D01*
X141290215Y-97469889D01*
X141176673Y-97583431D01*
X141115350Y-97616915D01*
X141045658Y-97611931D01*
X140989725Y-97570059D01*
X140972810Y-97539082D01*
X140923797Y-97407671D01*
X140923793Y-97407664D01*
X140837547Y-97292455D01*
X140837544Y-97292452D01*
X140722335Y-97206206D01*
X140722328Y-97206202D01*
X140587482Y-97155908D01*
X140587483Y-97155908D01*
X140527883Y-97149501D01*
X140527881Y-97149500D01*
X140527873Y-97149500D01*
X140527864Y-97149500D01*
X138732129Y-97149500D01*
X138732123Y-97149501D01*
X138672516Y-97155908D01*
X138537671Y-97206202D01*
X138537664Y-97206206D01*
X138422455Y-97292452D01*
X138422452Y-97292455D01*
X138336206Y-97407664D01*
X138336202Y-97407671D01*
X138285908Y-97542517D01*
X138279501Y-97602116D01*
X138279500Y-97602135D01*
X138279500Y-99397870D01*
X138279501Y-99397876D01*
X138285908Y-99457483D01*
X138336202Y-99592328D01*
X138336206Y-99592335D01*
X138422452Y-99707544D01*
X138422455Y-99707547D01*
X138537664Y-99793793D01*
X138537671Y-99793797D01*
X138672517Y-99844091D01*
X138672516Y-99844091D01*
X138679444Y-99844835D01*
X138732127Y-99850500D01*
X140009191Y-99850499D01*
X140076230Y-99870184D01*
X140096872Y-99886818D01*
X144565325Y-104355272D01*
X144565332Y-104355278D01*
X144671863Y-104426459D01*
X144671865Y-104426460D01*
X144671874Y-104426466D01*
X144709875Y-104442206D01*
X144709876Y-104442207D01*
X144790251Y-104475499D01*
X144790256Y-104475501D01*
X144790260Y-104475501D01*
X144790261Y-104475502D01*
X144915928Y-104500500D01*
X144915931Y-104500500D01*
X145044069Y-104500500D01*
X147280192Y-104500500D01*
X147347231Y-104520185D01*
X147392986Y-104572989D01*
X147402930Y-104642147D01*
X147373905Y-104705703D01*
X147367873Y-104712181D01*
X146744727Y-105335325D01*
X146744724Y-105335328D01*
X146711569Y-105384948D01*
X146711570Y-105384949D01*
X146673534Y-105441874D01*
X146624499Y-105560255D01*
X146624497Y-105560261D01*
X146599500Y-105685928D01*
X146599500Y-105725500D01*
X146579815Y-105792539D01*
X146527011Y-105838294D01*
X146475500Y-105849500D01*
X140772017Y-105849500D01*
X140704978Y-105829815D01*
X140659223Y-105777011D01*
X140654311Y-105764505D01*
X140653039Y-105760666D01*
X140634814Y-105705666D01*
X140542712Y-105556344D01*
X140418656Y-105432288D01*
X140286056Y-105350500D01*
X140269336Y-105340187D01*
X140269331Y-105340185D01*
X140267862Y-105339698D01*
X140102797Y-105285001D01*
X140102795Y-105285000D01*
X140000010Y-105274500D01*
X139399998Y-105274500D01*
X139399980Y-105274501D01*
X139297203Y-105285000D01*
X139297200Y-105285001D01*
X139130668Y-105340185D01*
X139130663Y-105340187D01*
X138981342Y-105432289D01*
X138857285Y-105556346D01*
X138855537Y-105559182D01*
X138853829Y-105560717D01*
X138852807Y-105562011D01*
X138852585Y-105561836D01*
X138803589Y-105605905D01*
X138734626Y-105617126D01*
X138670544Y-105589282D01*
X138644463Y-105559182D01*
X138642714Y-105556346D01*
X138518657Y-105432289D01*
X138518656Y-105432288D01*
X138386056Y-105350500D01*
X138369336Y-105340187D01*
X138369331Y-105340185D01*
X138367862Y-105339698D01*
X138202797Y-105285001D01*
X138202795Y-105285000D01*
X138100010Y-105274500D01*
X137499998Y-105274500D01*
X137499980Y-105274501D01*
X137397203Y-105285000D01*
X137397200Y-105285001D01*
X137245526Y-105335261D01*
X137231225Y-105340001D01*
X137223810Y-105342458D01*
X137223204Y-105340631D01*
X137183202Y-105349500D01*
X134504935Y-105349500D01*
X134437896Y-105329815D01*
X134436090Y-105328633D01*
X134379179Y-105290606D01*
X134379172Y-105290602D01*
X134233501Y-105230264D01*
X134233489Y-105230261D01*
X134078845Y-105199500D01*
X134078842Y-105199500D01*
X133921158Y-105199500D01*
X133921155Y-105199500D01*
X133766510Y-105230261D01*
X133766498Y-105230264D01*
X133620827Y-105290602D01*
X133620814Y-105290609D01*
X133489711Y-105378210D01*
X133489707Y-105378213D01*
X133378213Y-105489707D01*
X133378210Y-105489711D01*
X133290609Y-105620814D01*
X133290602Y-105620827D01*
X133230264Y-105766498D01*
X133230261Y-105766510D01*
X133199500Y-105921153D01*
X133199500Y-105935500D01*
X133179815Y-106002539D01*
X133127011Y-106048294D01*
X133075500Y-106059500D01*
X124224499Y-106059500D01*
X124157460Y-106039815D01*
X124111705Y-105987011D01*
X124100499Y-105935500D01*
X124100499Y-105812129D01*
X124100498Y-105812123D01*
X124100497Y-105812116D01*
X124094091Y-105752517D01*
X124093709Y-105751494D01*
X124043797Y-105617671D01*
X124043793Y-105617664D01*
X123957547Y-105502455D01*
X123957544Y-105502452D01*
X123842335Y-105416206D01*
X123842328Y-105416202D01*
X123707482Y-105365908D01*
X123707483Y-105365908D01*
X123647883Y-105359501D01*
X123647881Y-105359500D01*
X123647873Y-105359500D01*
X123647864Y-105359500D01*
X121852129Y-105359500D01*
X121852123Y-105359501D01*
X121792516Y-105365908D01*
X121657671Y-105416202D01*
X121657664Y-105416206D01*
X121542455Y-105502452D01*
X121542452Y-105502455D01*
X121456206Y-105617664D01*
X121456202Y-105617671D01*
X121405908Y-105752517D01*
X121402655Y-105782780D01*
X121399501Y-105812123D01*
X121399500Y-105812135D01*
X121399500Y-107607870D01*
X121399501Y-107607876D01*
X121405908Y-107667483D01*
X121456202Y-107802328D01*
X121456206Y-107802335D01*
X121542452Y-107917544D01*
X121542455Y-107917547D01*
X121657664Y-108003793D01*
X121657671Y-108003797D01*
X121789082Y-108052810D01*
X121845016Y-108094681D01*
X121869433Y-108160145D01*
X121854582Y-108228418D01*
X121833431Y-108256673D01*
X121719889Y-108370215D01*
X121594951Y-108542179D01*
X121498444Y-108731585D01*
X121432753Y-108933760D01*
X121399500Y-109143713D01*
X121399500Y-109356286D01*
X121432238Y-109562989D01*
X121432754Y-109566243D01*
X121492753Y-109750901D01*
X121498444Y-109768414D01*
X121594951Y-109957820D01*
X121719890Y-110129786D01*
X121870213Y-110280109D01*
X122042182Y-110405050D01*
X122050946Y-110409516D01*
X122101742Y-110457491D01*
X122118536Y-110525312D01*
X122095998Y-110591447D01*
X122050946Y-110630484D01*
X122042182Y-110634949D01*
X121870213Y-110759890D01*
X121719890Y-110910213D01*
X121594951Y-111082179D01*
X121498444Y-111271585D01*
X121432753Y-111473760D01*
X121399500Y-111683713D01*
X121399500Y-111896286D01*
X121432633Y-112105483D01*
X121432754Y-112106243D01*
X121486771Y-112272490D01*
X121498444Y-112308414D01*
X121594951Y-112497820D01*
X121719890Y-112669786D01*
X121870213Y-112820109D01*
X122042179Y-112945048D01*
X122042181Y-112945049D01*
X122042184Y-112945051D01*
X122051493Y-112949794D01*
X122102290Y-112997766D01*
X122119087Y-113065587D01*
X122096552Y-113131722D01*
X122051505Y-113170760D01*
X122042446Y-113175376D01*
X122042440Y-113175380D01*
X121988282Y-113214727D01*
X121988282Y-113214728D01*
X122620591Y-113847037D01*
X122557007Y-113864075D01*
X122442993Y-113929901D01*
X122349901Y-114022993D01*
X122284075Y-114137007D01*
X122267037Y-114200591D01*
X121634728Y-113568282D01*
X121634727Y-113568282D01*
X121595380Y-113622439D01*
X121498904Y-113811782D01*
X121433242Y-114013869D01*
X121433242Y-114013872D01*
X121400000Y-114223753D01*
X121400000Y-114436246D01*
X121433242Y-114646127D01*
X121433242Y-114646130D01*
X121498904Y-114848217D01*
X121595375Y-115037550D01*
X121634728Y-115091716D01*
X122267037Y-114459408D01*
X122284075Y-114522993D01*
X122349901Y-114637007D01*
X122442993Y-114730099D01*
X122557007Y-114795925D01*
X122620589Y-114812962D01*
X121988282Y-115445269D01*
X121988282Y-115445270D01*
X122042449Y-115484624D01*
X122231782Y-115581095D01*
X122433870Y-115646757D01*
X122643754Y-115680000D01*
X122856246Y-115680000D01*
X123066127Y-115646757D01*
X123066130Y-115646757D01*
X123268219Y-115581094D01*
X123419204Y-115504163D01*
X123487873Y-115491266D01*
X123552614Y-115517542D01*
X123592872Y-115574648D01*
X123599500Y-115614647D01*
X123599500Y-118235500D01*
X123579815Y-118302539D01*
X123527011Y-118348294D01*
X123475500Y-118359500D01*
X121852129Y-118359500D01*
X121852123Y-118359501D01*
X121792516Y-118365908D01*
X121657671Y-118416202D01*
X121657664Y-118416206D01*
X121542455Y-118502452D01*
X121542452Y-118502455D01*
X121456206Y-118617664D01*
X121456202Y-118617671D01*
X121405908Y-118752517D01*
X121399501Y-118812116D01*
X121399500Y-118812135D01*
X121399500Y-120607870D01*
X121399501Y-120607876D01*
X121405908Y-120667483D01*
X121456202Y-120802328D01*
X121456206Y-120802335D01*
X121542452Y-120917544D01*
X121542455Y-120917547D01*
X121657664Y-121003793D01*
X121657671Y-121003797D01*
X121789082Y-121052810D01*
X121845016Y-121094681D01*
X121869433Y-121160145D01*
X121854582Y-121228418D01*
X121833431Y-121256673D01*
X121719889Y-121370215D01*
X121594951Y-121542179D01*
X121498444Y-121731585D01*
X121432753Y-121933760D01*
X121415050Y-122045535D01*
X121399500Y-122143713D01*
X121399500Y-122356287D01*
X121413511Y-122444746D01*
X121433516Y-122571055D01*
X121431877Y-122571314D01*
X121428738Y-122633883D01*
X121399342Y-122680710D01*
X121044725Y-123035328D01*
X121044724Y-123035329D01*
X121016367Y-123077770D01*
X120982017Y-123129179D01*
X120978524Y-123134407D01*
X120973533Y-123141876D01*
X120924499Y-123260255D01*
X120924497Y-123260261D01*
X120899500Y-123385928D01*
X120899500Y-123385931D01*
X120899500Y-125351126D01*
X120899500Y-125351128D01*
X120899499Y-125351128D01*
X119125500Y-125351128D01*
X119125500Y-96088675D01*
X119145185Y-96021636D01*
X119161814Y-96000999D01*
X123874923Y-91287889D01*
X123936244Y-91254406D01*
X123963114Y-91251573D01*
X183751378Y-91499473D01*
G37*
%TD.AperFunction*%
%TD*%
M02*
